<svg width="32" height="32" fill="none" xmlns="http://www.w3.org/2000/svg"><g filter="url(#a)"><path d="M30.8 21c-3 6.3-8.2 10-14.8 10-6.6 0-11.8-3.7-14.8-10" stroke="#fff" stroke-width="2"/></g><path d="M29 18c1.3.7 2 1.4 2 2.3 0 2.6-6.7 4.7-15 4.7S1 22.9 1 20.3c0-.9.7-1.6 2-2.3M24 18.5v-13m-8 13v-9m-8 9v-3.3" stroke="#fff" stroke-width="2" stroke-linecap="round"/><circle cx="16" cy="9" r="1.5" fill="#fff" stroke="#fff"/><circle cx="24" cy="4" r="1.5" fill="#fff" stroke="#fff"/><circle cx="8" cy="14" r="1.5" fill="#fff" stroke="#fff"/><defs><filter id="a" x="-26.9" y="-6.6" width="85.8" height="65.8" filterUnits="userSpaceOnUse" color-interpolation-filters="sRGB"><feFlood flood-opacity="0" result="BackgroundImageFix"/><feGaussianBlur in="BackgroundImageFix" stdDeviation="13.6"/><feComposite in2="SourceAlpha" operator="in" result="effect1_backgroundBlur_3064_6860"/><feBlend in="SourceGraphic" in2="effect1_backgroundBlur_3064_6860" result="shape"/></filter></defs></svg>