<?xml version="1.0" encoding="UTF-8"?>
<svg width="120px" height="100px" viewBox="0 0 120 100" version="1.1" xmlns="http://www.w3.org/2000/svg" xmlns:xlink="http://www.w3.org/1999/xlink">
    <!-- Generator: Sketch 59.1 (86144) - https://sketch.com -->
    <title>lineart_track_it</title>
    <desc>Created with Sketch.</desc>
    <g id="lineart_track_it" stroke="none" stroke-width="1" fill="none" fill-rule="evenodd">
        <path d="M99.5072223,32.6740475 C98.0252223,32.6740475 96.5452223,32.9820475 95.1472223,33.5970475 C89.6762223,36.0030475 87.1842223,42.4110475 89.5902223,47.8820475 C90.7562223,50.5310475 92.8832223,52.5680475 95.5822223,53.6180475 C98.2792223,54.6680475 101.225222,54.6040475 103.874222,53.4380475 C106.524222,52.2730475 108.562222,50.1450475 109.611222,47.4460475 C110.660222,44.7480475 110.596222,41.8040475 109.431222,39.1530475 C108.265222,36.5040475 106.137222,34.4670475 103.440222,33.4170475 C102.165222,32.9210475 100.835222,32.6740475 99.5072223,32.6740475 Z M99.5142223,55.0350475 C98.1042223,55.0350475 96.6912223,54.7730475 95.3372223,54.2460475 C92.4722223,53.1310475 90.2122223,50.9670475 88.9742223,48.1520475 C86.4182223,42.3430475 89.0662223,35.5360475 94.8762223,32.9810475 C97.6902223,31.7420475 100.818222,31.6750475 103.684222,32.7890475 C106.549222,33.9040475 108.809222,36.0680475 110.048222,38.8830475 C111.286222,41.6970475 111.354222,44.8250475 110.239222,47.6900475 C109.124222,50.5570475 106.960222,52.8160475 104.146222,54.0550475 C102.661222,54.7080475 101.089222,55.0350475 99.5142223,55.0350475 L99.5142223,55.0350475 Z" id="Fill-38" fill="#FFFFFE"></path>
        <path d="M89.5902223,47.8820475 C91.9562223,53.2600475 98.0742223,55.7600475 103.526222,53.5800475 C103.932222,53.3550475 104.104222,52.8540475 103.918222,52.4310475 C103.820222,52.2090475 103.643222,52.0390475 103.418222,51.9510475 C103.192222,51.8630475 102.946222,51.8690475 102.725222,51.9670475 C102.555222,52.0410475 102.356222,51.9640475 102.281222,51.7940475 C102.206222,51.6230475 102.284222,51.4250475 102.454222,51.3500475 C102.456222,51.3490475 105.571222,49.9790475 105.571222,49.9790475 C106.028222,49.7770475 106.236222,49.2420475 106.035222,48.7850475 C105.835222,48.3290475 105.299222,48.1210475 104.843222,48.3220475 L102.811222,49.2160475 C102.640222,49.2910475 102.442222,49.2130475 102.367222,49.0430475 C102.293222,48.8730475 102.370222,48.6740475 102.540222,48.5990475 C102.762222,48.5010475 102.931222,48.3230475 103.019222,48.0990475 C103.107222,47.8740475 103.101222,47.6280475 103.004222,47.4060475 C102.906222,47.1860475 102.729222,47.0160475 102.504222,46.9280475 C102.278222,46.8400475 102.032222,46.8460475 101.811222,46.9420475 L100.010222,47.7350475 C99.8392223,47.8100475 99.6402223,47.7320475 99.5662223,47.5630475 C99.4912223,47.3930475 99.5682223,47.1930475 99.7382223,47.1190475 C100.195222,46.9180475 100.403222,46.3830475 100.202222,45.9270475 C100.105222,45.7050475 99.9272223,45.5340475 99.7022223,45.4470475 C99.4772223,45.3590475 99.2322223,45.3640475 99.0112223,45.4620475 C98.8392223,45.5360475 98.6412223,45.4600475 98.5662223,45.2900475 C98.4912223,45.1190475 98.5682223,44.9210475 98.7382223,44.8460475 C98.7392223,44.8460475 102.256222,43.2980475 102.256222,43.2980475 C102.713222,43.0970475 102.921222,42.5620475 102.720222,42.1060475 C102.520222,41.6480475 101.985222,41.4400475 101.528222,41.6420475 L94.8722223,44.5690475 C94.7022223,44.6440475 94.5032223,44.5660475 94.4282223,44.3970475 C94.3542223,44.2270475 94.4312223,44.0270475 94.6012223,43.9520475 C95.0582223,43.7510475 95.2662223,43.2170475 95.0652223,42.7600475 C94.8642223,42.3040475 94.3302223,42.0960475 93.8732223,42.2960475 C93.7022223,42.3710475 93.5042223,42.2940475 93.4292223,42.1230475 C93.3542223,41.9530475 93.4312223,41.7550475 93.6012223,41.6800475 C93.6032223,41.6790475 98.7512223,39.4140475 98.7512223,39.4140475 C98.9722223,39.3170475 99.1422223,39.1400475 99.2302223,38.9140475 C99.3172223,38.6900475 99.3122223,38.4430475 99.2152223,38.2220475 C99.0132223,37.7660475 98.4782223,37.5580475 98.0222223,37.7580475 L94.8252223,39.1640475 C94.6522223,39.2400475 94.4532223,39.1630475 94.3792223,38.9920475 C94.3042223,38.8220475 94.3812223,38.6240475 94.5512223,38.5490475 C95.0082223,38.3480475 95.2162223,37.8130475 95.0152223,37.3560475 C94.8152223,36.8990475 94.2802223,36.6910475 93.8232223,36.8930475 C93.6522223,36.9670475 93.4532223,36.8900475 93.3792223,36.7200475 C93.3042223,36.5500475 93.3812223,36.3510475 93.5512223,36.2750475 C93.5552223,36.2740475 97.1012223,34.7140475 97.1012223,34.7140475 C97.3222223,34.6170475 97.4922223,34.4400475 97.5802223,34.2140475 C97.6682223,33.9890475 97.6622223,33.7430475 97.5652223,33.5220475 C97.4432223,33.2460475 97.1972223,33.0550475 96.8992223,33.0010475 C96.2922223,33.1520475 95.7032223,33.3530475 95.1472223,33.5970475 C89.6762223,36.0030475 87.1842223,42.4110475 89.5902223,47.8820475 Z M99.4732223,55.0400475 C95.0472223,55.0400475 90.8732223,52.4690475 88.9742223,48.1520475 C86.4182223,42.3430475 89.0662223,35.5360475 94.8762223,32.9810475 C95.4872223,32.7110475 96.1362223,32.4930475 96.8032223,32.3310475 C96.8422223,32.3210475 96.8832223,32.3180475 96.9232223,32.3230475 C97.4852223,32.3910475 97.9562223,32.7380475 98.1812223,33.2510475 C98.3512223,33.6370475 98.3602223,34.0650475 98.2082223,34.4580475 C98.0552223,34.8520475 97.7582223,35.1610475 97.3722223,35.3310475 L95.0062223,36.3720475 C95.2742223,36.5340475 95.4962223,36.7770475 95.6322223,37.0850475 C95.7672223,37.3930475 95.7962223,37.7220475 95.7352223,38.0280475 L97.7512223,37.1420475 C98.5472223,36.7910475 99.4812223,37.1540475 99.8312223,37.9510475 C100.001222,38.3370475 100.010222,38.7660475 99.8572223,39.1580475 C99.7052223,39.5520475 99.4082223,39.8610475 99.0222223,40.0310475 L95.0562223,41.7750475 C95.3242223,41.9380475 95.5462223,42.1810475 95.6822223,42.4880475 C95.8172223,42.7970475 95.8462223,43.1250475 95.7842223,43.4320475 L101.257222,41.0240475 C102.054222,40.6750475 102.986222,41.0370475 103.337222,41.8340475 C103.688222,42.6310475 103.324222,43.5650475 102.528222,43.9140475 L100.194222,44.9410475 C100.469222,45.1070475 100.687222,45.3550475 100.818222,45.6550475 C100.954222,45.9630475 100.983222,46.2910475 100.921222,46.5980475 L101.540222,46.3260475 C102.337222,45.9770475 103.270222,46.3390475 103.620222,47.1360475 C103.753222,47.4360475 103.788222,47.7630475 103.724222,48.0780475 L104.572222,47.7050475 C105.369222,47.3560475 106.301222,47.7180475 106.652222,48.5150475 C107.003222,49.3120475 106.639222,50.2440475 105.843222,50.5950475 L103.910222,51.4450475 C104.185222,51.6120475 104.402222,51.8580475 104.534222,52.1590475 C104.864222,52.9080475 104.554222,53.7970475 103.828222,54.1830475 C102.375222,54.7690475 100.910222,55.0400475 99.4732223,55.0400475 L99.4732223,55.0400475 Z" id="Fill-39" fill="#FFFFFE"></path>
        <path d="M101.292222,52.5650475 C101.162222,52.5650475 101.039222,52.4910475 100.984222,52.3640475 C100.908222,52.1940475 100.985222,51.9960475 101.156222,51.9210475 L102.454222,51.3500475 C102.624222,51.2750475 102.823222,51.3520475 102.898222,51.5230475 C102.973222,51.6920475 102.896222,51.8920475 102.725222,51.9670475 L101.427222,52.5370475 C101.383222,52.5570475 101.337222,52.5650475 101.292222,52.5650475" id="Fill-40" fill="#FFFFFE"></path>
        <path d="M97.8752223,51.3560475 C97.7452223,51.3560475 97.6222223,51.2810475 97.5672223,51.1540475 C97.4912223,50.9840475 97.5682223,50.7860475 97.7392223,50.7110475 L102.540222,48.5990475 C102.710222,48.5240475 102.909222,48.6020475 102.984222,48.7720475 C103.059222,48.9420475 102.982222,49.1410475 102.811222,49.2160475 L98.0102223,51.3270475 C97.9662223,51.3470475 97.9202223,51.3560475 97.8752223,51.3560475" id="Fill-41" fill="#FFFFFE"></path>
        <path d="M97.6982223,48.7210475 C97.5682223,48.7210475 97.4452223,48.6460475 97.3902223,48.5200475 C97.3152223,48.3500475 97.3922223,48.1500475 97.5622223,48.0760475 L99.7382223,47.1190475 C99.9082223,47.0440475 100.107222,47.1210475 100.182222,47.2910475 C100.257222,47.4620475 100.180222,47.6600475 100.009222,47.7350475 L97.8342223,48.6920475 C97.7892223,48.7120475 97.7432223,48.7210475 97.6982223,48.7210475" id="Fill-42" fill="#FFFFFE"></path>
        <path d="M93.8082223,47.7190475 C93.6792223,47.7190475 93.5552223,47.6450475 93.5002223,47.5180475 C93.4252223,47.3480475 93.5022223,47.1490475 93.6722223,47.0740475 L98.7382223,44.8460475 C98.9082223,44.7710475 99.1072223,44.8480475 99.1822223,45.0190475 C99.2572223,45.1890475 99.1802223,45.3880475 99.0092223,45.4620475 L93.9432223,47.6900475 C93.9002223,47.7100475 93.8542223,47.7190475 93.8082223,47.7190475" id="Fill-43" fill="#FFFFFE"></path>
        <path d="M92.8082223,45.4460475 C92.6792223,45.4460475 92.5552223,45.3710475 92.5002223,45.2450475 C92.4252223,45.0740475 92.5022223,44.8760475 92.6732223,44.8010475 L94.6012223,43.9520475 C94.7712223,43.8780475 94.9702223,43.9550475 95.0452223,44.1250475 C95.1202223,44.2960475 95.0432223,44.4940475 94.8722223,44.5690475 L92.9442223,45.4180475 C92.9002223,45.4370475 92.8542223,45.4460475 92.8082223,45.4460475" id="Fill-44" fill="#FFFFFE"></path>
        <path d="M91.0032223,43.5270475 C90.8732223,43.5270475 90.7502223,43.4520475 90.6942223,43.3260475 C90.6192223,43.1560475 90.6972223,42.9570475 90.8672223,42.8830475 L93.6012223,41.6800475 C93.7712223,41.6050475 93.9702223,41.6820475 94.0452223,41.8530475 C94.1202223,42.0230475 94.0432223,42.2220475 93.8732223,42.2960475 L91.1382223,43.4990475 C91.0942223,43.5190475 91.0482223,43.5270475 91.0032223,43.5270475" id="Fill-45" fill="#FFFFFE"></path>
        <path d="M92.9282223,39.9680475 C92.7992223,39.9680475 92.6752223,39.8930475 92.6192223,39.7670475 C92.5452223,39.5970475 92.6222223,39.3980475 92.7922223,39.3230475 L94.5512223,38.5490475 C94.7212223,38.4740475 94.9202223,38.5510475 94.9952223,38.7220475 C95.0702223,38.8920475 94.9932223,39.0910475 94.8222223,39.1650475 L93.0632223,39.9400475 C93.0192223,39.9590475 92.9732223,39.9680475 92.9282223,39.9680475" id="Fill-46" fill="#FFFFFE"></path>
        <path d="M105.748222,41.1060475 C105.618222,41.1060475 105.495222,41.0300475 105.439222,40.9040475 C105.364222,40.7340475 105.442222,40.5350475 105.612222,40.4600475 L106.023222,40.2790475 C106.193222,40.2050475 106.392222,40.2820475 106.467222,40.4520475 C106.542222,40.6220475 106.465222,40.8210475 106.294222,40.8970475 L105.883222,41.0770475 C105.839222,41.0970475 105.793222,41.1060475 105.748222,41.1060475" id="Fill-47" fill="#FFFFFE"></path>
        <path d="M107.426222,40.3670475 C107.296222,40.3670475 107.173222,40.2920475 107.117222,40.1660475 C107.043222,39.9960475 107.120222,39.7970475 107.290222,39.7230475 L107.924222,39.4430475 C108.093222,39.3690475 108.293222,39.4460475 108.367222,39.6160475 C108.443222,39.7860475 108.365222,39.9850475 108.195222,40.0610475 L107.561222,40.3390475 C107.517222,40.3580475 107.471222,40.3670475 107.426222,40.3670475" id="Fill-48" fill="#FFFFFE"></path>
        <path d="M109.326222,39.5310475 C109.197222,39.5310475 109.073222,39.4560475 109.018222,39.3300475 C108.943222,39.1600475 109.020222,38.9610475 109.191222,38.8860475 L109.602222,38.7050475 C109.772222,38.6310475 109.971222,38.7080475 110.045222,38.8780475 C110.121222,39.0480475 110.043222,39.2470475 109.873222,39.3220475 L109.462222,39.5030475 C109.418222,39.5230475 109.372222,39.5310475 109.326222,39.5310475" id="Fill-49" fill="#FFFFFE"></path>
        <path d="M101.952222,37.3550475 C101.822222,37.3550475 101.699222,37.2800475 101.643222,37.1530475 C101.568222,36.9830475 101.646222,36.7850475 101.816222,36.7100475 L102.227222,36.5280475 C102.397222,36.4540475 102.596222,36.5310475 102.671222,36.7010475 C102.746222,36.8720475 102.669222,37.0700475 102.498222,37.1460475 L102.087222,37.3260475 C102.043222,37.3460475 101.997222,37.3550475 101.952222,37.3550475" id="Fill-50" fill="#FFFFFE"></path>
        <path d="M103.940222,36.4810475 C103.811222,36.4810475 103.687222,36.4050475 103.632222,36.2790475 C103.557222,36.1080475 103.634222,35.9100475 103.804222,35.8350475 L104.593222,35.4880475 C104.763222,35.4130475 104.962222,35.4900475 105.037222,35.6600475 C105.112222,35.8310475 105.035222,36.0290475 104.864222,36.1050475 L104.076222,36.4510475 C104.031222,36.4710475 103.985222,36.4810475 103.940222,36.4810475" id="Fill-51" fill="#FFFFFE"></path>
        <path d="M106.306222,35.4400475 C106.177222,35.4400475 106.053222,35.3640475 105.998222,35.2380475 C105.923222,35.0670475 106.000222,34.8690475 106.170222,34.7940475 L106.582222,34.6130475 C106.752222,34.5390475 106.951222,34.6150475 107.025222,34.7860475 C107.100222,34.9560475 107.023222,35.1550475 106.853222,35.2300475 L106.442222,35.4110475 C106.398222,35.4300475 106.352222,35.4400475 106.306222,35.4400475" id="Fill-52" fill="#FFFFFE"></path>
        <path d="M107.002222,45.9840475 C106.873222,45.9840475 106.749222,45.9090475 106.693222,45.7830475 C106.619222,45.6130475 106.696222,45.4140475 106.866222,45.3400475 L107.277222,45.1580475 C107.447222,45.0840475 107.646222,45.1610475 107.721222,45.3310475 C107.796222,45.5020475 107.719222,45.7000475 107.549222,45.7750475 L107.138222,45.9560475 C107.093222,45.9760475 107.048222,45.9840475 107.002222,45.9840475" id="Fill-53" fill="#FFFFFE"></path>
        <path d="M108.554222,45.3020475 C108.424222,45.3020475 108.301222,45.2270475 108.245222,45.1010475 C108.170222,44.9310475 108.248222,44.7310475 108.418222,44.6570475 L108.988222,44.4060475 C109.158222,44.3310475 109.358222,44.4080475 109.432222,44.5790475 C109.507222,44.7490475 109.430222,44.9470475 109.259222,45.0230475 L108.689222,45.2730475 C108.645222,45.2930475 108.599222,45.3020475 108.554222,45.3020475" id="Fill-54" fill="#FFFFFE"></path>
        <path d="M110.265222,44.5490475 C110.135222,44.5490475 110.012222,44.4750475 109.956222,44.3480475 C109.882222,44.1780475 109.959222,43.9790475 110.129222,43.9040475 L110.540222,43.7240475 C110.711222,43.6480475 110.909222,43.7260475 110.984222,43.8970475 C111.059222,44.0660475 110.982222,44.2660475 110.811222,44.3400475 L110.400222,44.5210475 C110.356222,44.5400475 110.310222,44.5490475 110.265222,44.5490475" id="Fill-55" fill="#FFFFFE"></path>
        <path d="M46.3753792,19.488 C46.2543792,19.488 46.1373792,19.421 46.0763792,19.307 C45.9903792,19.142 46.0543792,18.939 46.2183792,18.852 C49.8773792,16.93 51.9433792,14.728 51.4833792,13.242 C51.2393792,12.451 50.3153792,12.025 49.5843792,11.806 C49.4053792,11.752 49.3043792,11.565 49.3573792,11.387 C49.4103792,11.209 49.5993792,11.107 49.7763792,11.161 C51.0513792,11.542 51.8643792,12.192 52.1273792,13.043 C52.7053792,14.91 50.6133792,17.305 46.5313792,19.449 C46.4813792,19.475 46.4283792,19.488 46.3753792,19.488" id="Fill-56" fill="#FFFFFE"></path>
        <path d="M33.9573792,23.035 C33.7803792,23.035 33.6323792,22.897 33.6213792,22.718 C33.6093792,22.532 33.7513792,22.373 33.9363792,22.362 C36.0733792,22.232 38.4753792,21.771 40.8833792,21.026 C41.8203792,20.736 42.7413792,20.409 43.6213792,20.051 C43.7943792,19.981 43.9903792,20.065 44.0603792,20.237 C44.1303792,20.41 44.0473792,20.606 43.8753792,20.675 C42.9773792,21.04 42.0373792,21.374 41.0813792,21.669 C38.6243792,22.43 36.1673792,22.902 33.9773792,23.034 C33.9713792,23.035 33.9643792,23.035 33.9573792,23.035" id="Fill-57" fill="#FFFFFE"></path>
        <path d="M30.0443792,22.81 C30.0193792,22.81 29.9953792,22.808 29.9703792,22.802 C28.3883792,22.449 27.3923792,21.751 27.0943792,20.785 C26.8743792,20.074 27.0393792,19.285 27.5853792,18.436 C27.6853792,18.28 27.8943792,18.235 28.0513792,18.336 C28.2073792,18.436 28.2523792,18.644 28.1513792,18.8 C27.7193792,19.473 27.5793792,20.074 27.7373792,20.586 C28.0193792,21.498 29.1873792,21.937 30.1173792,22.145 C30.2993792,22.186 30.4133792,22.366 30.3723792,22.547 C30.3373792,22.704 30.1983792,22.81 30.0443792,22.81" id="Fill-58" fill="#FFFFFE"></path>
        <path d="M31.9933792,21.09 C31.0963792,21.09 30.3653792,21.82 30.3653792,22.717 C30.3653792,23.615 31.0963792,24.345 31.9933792,24.345 C32.8903792,24.345 33.6203792,23.615 33.6203792,22.717 C33.6203792,21.82 32.8903792,21.09 31.9933792,21.09 Z M31.9933792,25.018 C30.7233792,25.018 29.6913792,23.986 29.6913792,22.717 C29.6913792,21.449 30.7233792,20.417 31.9933792,20.417 C33.2623792,20.417 34.2943792,21.449 34.2943792,22.717 C34.2943792,23.986 33.2623792,25.018 31.9933792,25.018 L31.9933792,25.018 Z" id="Fill-59" fill="#FFFFFE"></path>
        <path d="M45.0763792,18.679 C44.4643792,18.679 43.9663792,19.177 43.9663792,19.79 C43.9663792,20.401 44.4643792,20.899 45.0763792,20.899 C45.6883792,20.899 46.1863792,20.401 46.1863792,19.79 C46.1863792,19.177 45.6883792,18.679 45.0763792,18.679 Z M45.0763792,21.573 C44.0933792,21.573 43.2933792,20.773 43.2933792,19.79 C43.2933792,18.805 44.0933792,18.005 45.0763792,18.005 C46.0593792,18.005 46.8603792,18.805 46.8603792,19.79 C46.8603792,20.773 46.0593792,21.573 45.0763792,21.573 L45.0763792,21.573 Z" id="Fill-60" fill="#FFFFFE"></path>
        <path d="M33.8213792,24.112 C35.4603792,25.431 37.5023792,26.154 39.6103792,26.154 C44.7063792,26.154 48.8503792,22.008 48.8503792,16.914 C48.8503792,11.819 44.7063792,7.673 39.6103792,7.673 C34.5153792,7.673 30.3703792,11.819 30.3703792,16.914 C30.3703792,18.193 30.6263792,19.426 31.1293792,20.586 C31.4033792,20.474 31.6963792,20.417 31.9933792,20.417 C33.2623792,20.417 34.2943792,21.449 34.2943792,22.717 C34.2943792,23.23 34.1283792,23.713 33.8213792,24.112 Z M39.6103792,26.828 C37.2253792,26.828 34.9193792,25.965 33.1163792,24.401 C33.0453792,24.338 33.0033792,24.249 33.0013792,24.153 C32.9993792,24.058 33.0373792,23.966 33.1063792,23.902 C33.4373792,23.589 33.6203792,23.169 33.6203792,22.717 C33.6203792,21.82 32.8903792,21.09 31.9933792,21.09 C31.6943792,21.09 31.4013792,21.173 31.1443792,21.332 C31.0623792,21.38 30.9643792,21.394 30.8733792,21.367 C30.7813792,21.339 30.7053792,21.275 30.6643792,21.189 C30.0223792,19.848 29.6963792,18.41 29.6963792,16.914 C29.6963792,11.447 34.1443792,7 39.6103792,7 C45.0773792,7 49.5243792,11.447 49.5243792,16.914 C49.5243792,22.379 45.0773792,26.828 39.6103792,26.828 L39.6103792,26.828 Z" id="Fill-61" fill="#FFFFFE"></path>
        <path d="M35.6263792,18.992 C34.9043792,18.992 34.3173792,18.405 34.3173792,17.683 C34.3173792,17.274 34.5043792,16.896 34.8293792,16.646 C34.9763792,16.534 35.1883792,16.56 35.3023792,16.709 C35.4153792,16.856 35.3873792,17.067 35.2393792,17.18 C35.0823792,17.301 34.9913792,17.485 34.9913792,17.683 C34.9913792,18.034 35.2763792,18.318 35.6263792,18.318 C35.7533792,18.318 35.8753792,18.281 35.9803792,18.21 C36.1343792,18.105 36.3443792,18.146 36.4473792,18.3 C36.5523792,18.455 36.5123792,18.664 36.3573792,18.768 C36.1403792,18.915 35.8883792,18.992 35.6263792,18.992" id="Fill-62" fill="#FFFFFE"></path>
        <path d="M40.7823792,13.935 C39.8953792,13.935 39.1743792,13.213 39.1743792,12.326 C39.1743792,11.439 39.8953792,10.716 40.7823792,10.716 C41.0183792,10.716 41.2473792,10.767 41.4603792,10.866 C41.6293792,10.944 41.7023792,11.144 41.6243792,11.313 C41.5463792,11.482 41.3453792,11.555 41.1773792,11.477 C41.0533792,11.419 40.9203792,11.39 40.7823792,11.39 C40.2663792,11.39 39.8473792,11.81 39.8473792,12.326 C39.8473792,12.841 40.2663792,13.261 40.7823792,13.261 C41.0883792,13.261 41.3753792,13.112 41.5513792,12.861 C41.6573792,12.708 41.8673792,12.67 42.0193792,12.777 C42.1723792,12.883 42.2093792,13.094 42.1023792,13.247 C41.8023792,13.677 41.3073792,13.935 40.7823792,13.935" id="Fill-63" fill="#FFFFFE"></path>
        <path d="M35.6263792,13.265 C34.7753792,13.265 34.0833792,12.574 34.0833792,11.723 C34.0833792,11.537 34.2343792,11.386 34.4203792,11.386 C34.6063792,11.386 34.7573792,11.537 34.7573792,11.723 C34.7573792,12.203 35.1463792,12.591 35.6263792,12.591 C36.1043792,12.591 36.4943792,12.203 36.4943792,11.723 C36.4943792,11.244 36.1043792,10.854 35.6263792,10.854 C35.4393792,10.854 35.2893792,10.704 35.2893792,10.517 C35.2893792,10.332 35.4393792,10.181 35.6263792,10.181 C36.4763792,10.181 37.1683792,10.873 37.1683792,11.723 C37.1683792,12.574 36.4763792,13.265 35.6263792,13.265" id="Fill-64" fill="#FFFFFE"></path>
        <path d="M40.5823792,17.418 C40.0093792,17.418 39.5423792,16.951 39.5423792,16.377 C39.5423792,16.192 39.6923792,16.041 39.8793792,16.041 C40.0643792,16.041 40.2163792,16.192 40.2163792,16.377 C40.2163792,16.58 40.3803792,16.744 40.5823792,16.744 C40.7843792,16.744 40.9483792,16.58 40.9483792,16.377 C40.9483792,16.343 40.9433792,16.309 40.9333792,16.276 C40.8833792,16.097 40.9863792,15.911 41.1653792,15.86 C41.3453792,15.808 41.5303792,15.912 41.5823792,16.091 C41.6083792,16.184 41.6223792,16.281 41.6223792,16.377 C41.6223792,16.951 41.1553792,17.418 40.5823792,17.418" id="Fill-65" fill="#FFFFFE"></path>
        <path d="M45.0763792,15.006 C44.5013792,15.006 44.0033792,14.597 43.8913792,14.034 C43.8553792,13.851 43.9743792,13.674 44.1563792,13.638 C44.3403792,13.602 44.5163792,13.72 44.5533792,13.903 C44.6013792,14.152 44.8223792,14.334 45.0763792,14.334 C45.3713792,14.334 45.6103792,14.093 45.6103792,13.799 C45.6103792,13.505 45.3713792,13.265 45.0763792,13.265 C45.0053792,13.265 44.9363792,13.279 44.8723792,13.305 C44.7013792,13.377 44.5043792,13.295 44.4323792,13.124 C44.3613792,12.952 44.4423792,12.754 44.6143792,12.683 C44.7613792,12.623 44.9163792,12.591 45.0763792,12.591 C45.7423792,12.591 46.2843792,13.133 46.2843792,13.799 C46.2843792,14.465 45.7423792,15.006 45.0763792,15.006" id="Fill-66" fill="#FFFFFE"></path>
        <path d="M40.7823792,25.488 C40.2403792,25.488 39.7493792,25.188 39.5013792,24.706 C39.4153792,24.541 39.4803792,24.337 39.6453792,24.252 C39.8103792,24.168 40.0153792,24.232 40.0993792,24.397 C40.2313792,24.655 40.4933792,24.814 40.7823792,24.814 C41.2063792,24.814 41.5513792,24.469 41.5513792,24.045 C41.5513792,23.698 41.3153792,23.392 40.9793792,23.303 C40.8003792,23.255 40.6923792,23.071 40.7393792,22.891 C40.7873792,22.711 40.9733792,22.604 41.1513792,22.652 C41.7833792,22.819 42.2243792,23.392 42.2243792,24.045 C42.2243792,24.841 41.5773792,25.488 40.7823792,25.488" id="Fill-67" fill="#FFFFFE"></path>
        <path d="M56.4800693,47 L55.5199307,47 C55.2329289,47 55,46.776 55,46.5 C55,46.224 55.2329289,46 55.5199307,46 L56.4800693,46 C56.7670711,46 57,46.224 57,46.5 C57,46.776 56.7670711,47 56.4800693,47" id="Fill-904" fill="#FFFFFE"></path>
        <path d="M59.479889,47 L58.520111,47 C58.2330097,47 58,46.776 58,46.5 C58,46.224 58.2330097,46 58.520111,46 L59.479889,46 C59.7676838,46 60,46.224 60,46.5 C60,46.776 59.7676838,47 59.479889,47" id="Fill-905" fill="#FFFFFE"></path>
        <path d="M57.5,49 C57.224,49 57,48.7669903 57,48.479889 L57,47.520111 C57,47.2330097 57.224,47 57.5,47 C57.7766667,47 58,47.2330097 58,47.520111 L58,48.479889 C58,48.7669903 57.7766667,49 57.5,49" id="Fill-906" fill="#FFFFFE"></path>
        <path d="M57.5,46 C57.224,46 57,45.7669903 57,45.479889 L57,44.520111 C57,44.2330097 57.224,44 57.5,44 C57.7766667,44 58,44.2330097 58,44.520111 L58,45.479889 C58,45.7669903 57.7766667,46 57.5,46" id="Fill-907" fill="#FFFFFE"></path>
        <path d="M87.4800693,72 L86.5199307,72 C86.2329289,72 86,71.776 86,71.5 C86,71.224 86.2329289,71 86.5199307,71 L87.4800693,71 C87.7670711,71 88,71.224 88,71.5 C88,71.776 87.7670711,72 87.4800693,72" id="Fill-904" fill="#FFFFFE"></path>
        <path d="M90.479889,72 L89.520111,72 C89.2330097,72 89,71.776 89,71.5 C89,71.224 89.2330097,71 89.520111,71 L90.479889,71 C90.7676838,71 91,71.224 91,71.5 C91,71.776 90.7676838,72 90.479889,72" id="Fill-905" fill="#FFFFFE"></path>
        <path d="M88.5,74 C88.224,74 88,73.7669903 88,73.479889 L88,72.520111 C88,72.2330097 88.224,72 88.5,72 C88.7766667,72 89,72.2330097 89,72.520111 L89,73.479889 C89,73.7669903 88.7766667,74 88.5,74" id="Fill-906" fill="#FFFFFE"></path>
        <path d="M88.5,71 C88.224,71 88,70.7669903 88,70.479889 L88,69.520111 C88,69.2330097 88.224,69 88.5,69 C88.7766667,69 89,69.2330097 89,69.520111 L89,70.479889 C89,70.7669903 88.7766667,71 88.5,71" id="Fill-907" fill="#FFFFFE"></path>
        <path d="M109.720104,9 L108.279896,9 C107.849393,9 107.5,8.776 107.5,8.5 C107.5,8.224 107.849393,8 108.279896,8 L109.720104,8 C110.150607,8 110.5,8.224 110.5,8.5 C110.5,8.776 110.150607,9 109.720104,9" id="Fill-904" fill="#FFFFFE"></path>
        <path d="M113.719834,9 L112.280166,9 C111.849515,9 111.5,8.776 111.5,8.5 C111.5,8.224 111.849515,8 112.280166,8 L113.719834,8 C114.151526,8 114.5,8.224 114.5,8.5 C114.5,8.776 114.151526,9 113.719834,9" id="Fill-905" fill="#FFFFFE"></path>
        <path d="M111,12 C110.724,12 110.5,11.6504854 110.5,11.2198336 L110.5,9.78016644 C110.5,9.34951456 110.724,9 111,9 C111.276667,9 111.5,9.34951456 111.5,9.78016644 L111.5,11.2198336 C111.5,11.6504854 111.276667,12 111,12" id="Fill-906" fill="#FFFFFE"></path>
        <path d="M111,8 C110.724,8 110.5,7.65048544 110.5,7.21983356 L110.5,5.78016644 C110.5,5.34951456 110.724,5 111,5 C111.276667,5 111.5,5.34951456 111.5,5.78016644 L111.5,7.21983356 C111.5,7.65048544 111.276667,8 111,8" id="Fill-907" fill="#FFFFFE"></path>
        <path d="M11.5,10 C11.7761424,10 12,10.2238576 12,10.5 C12,10.7761424 11.7761424,11 11.5,11 C11.2238576,11 11,10.7761424 11,10.5 C11,10.2238576 11.2238576,10 11.5,10 Z M12.5,9 C12.7761424,9 13,9.22385763 13,9.5 C13,9.77614237 12.7761424,10 12.5,10 C12.2238576,10 12,9.77614237 12,9.5 C12,9.22385763 12.2238576,9 12.5,9 Z M10.5,9 C10.7761424,9 11,9.22385763 11,9.5 C11,9.77614237 10.7761424,10 10.5,10 C10.2238576,10 10,9.77614237 10,9.5 C10,9.22385763 10.2238576,9 10.5,9 Z M11.5,8 C11.7761424,8 12,8.22385763 12,8.5 C12,8.77614237 11.7761424,9 11.5,9 C11.2238576,9 11,8.77614237 11,8.5 C11,8.22385763 11.2238576,8 11.5,8 Z" id="Oval-2" fill="#FFFFFE"></path>
        <path d="M70.5,27 C70.7761424,27 71,27.2238576 71,27.5 C71,27.7761424 70.7761424,28 70.5,28 C70.2238576,28 70,27.7761424 70,27.5 C70,27.2238576 70.2238576,27 70.5,27 Z M71.5,26 C71.7761424,26 72,26.2238576 72,26.5 C72,26.7761424 71.7761424,27 71.5,27 C71.2238576,27 71,26.7761424 71,26.5 C71,26.2238576 71.2238576,26 71.5,26 Z M69.5,26 C69.7761424,26 70,26.2238576 70,26.5 C70,26.7761424 69.7761424,27 69.5,27 C69.2238576,27 69,26.7761424 69,26.5 C69,26.2238576 69.2238576,26 69.5,26 Z M70.5,25 C70.7761424,25 71,25.2238576 71,25.5 C71,25.7761424 70.7761424,26 70.5,26 C70.2238576,26 70,25.7761424 70,25.5 C70,25.2238576 70.2238576,25 70.5,25 Z" id="Oval-2" fill="#FFFFFE"></path>
        <path d="M20.5844038,79.33625 C20.4984038,79.33625 20.4114038,79.30325 20.3464038,79.23725 C19.4344038,78.32625 17.9514038,78.32625 17.0384038,79.23725 C16.9074038,79.36925 16.6944038,79.36925 16.5624038,79.23725 C16.4304038,79.10625 16.4304038,78.89225 16.5624038,78.76125 C17.7374038,77.58725 19.6484038,77.58725 20.8234038,78.76125 C20.9534038,78.89225 20.9534038,79.10625 20.8234038,79.23725 C20.7564038,79.30325 20.6704038,79.33625 20.5844038,79.33625" id="Fill-1" fill="#FFFFFE"></path>
        <path d="M4.33640379,85.66125 C4.23040379,85.66125 4.12440379,85.61025 4.05940379,85.51425 C3.95340379,85.36125 3.99340379,85.15225 4.14640379,85.04725 L15.2734038,77.38525 C15.4264038,77.28025 15.6364038,77.31925 15.7424038,77.47225 C15.8474038,77.62625 15.8084038,77.83525 15.6554038,77.94025 L4.52840379,85.60125 C4.46940379,85.64125 4.40340379,85.66125 4.33640379,85.66125" id="Fill-2" fill="#FFFFFE"></path>
        <path d="M14.2594038,95.58425 C14.1944038,95.58425 14.1274038,95.56425 14.0694038,95.52425 C13.9154038,95.41925 13.8774038,95.21025 13.9834038,95.05625 L21.6434038,83.92825 C21.7484038,83.77525 21.9584038,83.73725 22.1124038,83.84225 C22.2654038,83.94825 22.3034038,84.15725 22.1984038,84.31025 L14.5374038,95.43825 C14.4724038,95.53325 14.3674038,95.58425 14.2594038,95.58425" id="Fill-3" fill="#FFFFFE"></path>
        <path d="M9.29840379,90.62225 C9.21240379,90.62225 9.12540379,90.58925 9.06040379,90.52325 C8.92840379,90.39225 8.92840379,90.17825 9.06040379,90.04725 L16.1784038,82.92825 C16.3104038,82.79725 16.5234038,82.79725 16.6554038,82.92825 C16.7864038,83.06025 16.7864038,83.27325 16.6554038,83.40525 L9.53640379,90.52325 C9.47040379,90.58925 9.38440379,90.62225 9.29840379,90.62225" id="Fill-4" fill="#FFFFFE"></path>
        <path d="M21.2924038,76.73725 C21.6084038,76.93325 21.8984038,77.16425 22.1594038,77.42425 C22.4194038,77.68625 22.6504038,77.97625 22.8464038,78.29225 C22.9894038,78.14625 23.0664038,77.95525 23.0664038,77.75325 C23.0664038,77.54725 22.9864038,77.35225 22.8404038,77.20725 L22.3774038,76.74325 C22.0784038,76.44525 21.5944038,76.44225 21.2924038,76.73725 Z M22.7714038,79.18025 C22.7524038,79.18025 22.7354038,79.17925 22.7174038,79.17625 C22.6104038,79.15925 22.5184038,79.09125 22.4694038,78.99525 C22.2654038,78.58725 21.9994038,78.21825 21.6824038,77.90125 C21.3664038,77.58425 20.9974038,77.31925 20.5884038,77.11425 C20.4924038,77.06525 20.4244038,76.97325 20.4084038,76.86725 C20.3904038,76.75925 20.4254038,76.65125 20.5014038,76.57525 L20.8094038,76.26725 C21.3734038,75.70325 22.2904038,75.70425 22.8534038,76.26725 L23.3174038,76.73025 C23.5894038,77.00425 23.7404038,77.36625 23.7404038,77.75325 C23.7404038,78.13825 23.5894038,78.50225 23.3174038,78.77425 L23.0084038,79.08225 C22.9454038,79.14625 22.8594038,79.18025 22.7714038,79.18025 L22.7714038,79.18025 Z" id="Fill-5" fill="#FFFFFE"></path>
        <path d="M25.1624038,73.67325 C24.9704038,73.67325 24.7794038,73.74725 24.6334038,73.89225 C24.4924038,74.03425 24.4134038,74.22125 24.4134038,74.42225 C24.4134038,74.62125 24.4924038,74.80925 24.6334038,74.95125 C24.9244038,75.24225 25.4004038,75.24225 25.6924038,74.95125 C25.9834038,74.65925 25.9834038,74.18425 25.6924038,73.89225 C25.5454038,73.74725 25.3544038,73.67325 25.1624038,73.67325 Z M25.1624038,75.84225 C24.7984038,75.84225 24.4344038,75.70425 24.1574038,75.42625 C23.8884038,75.15925 23.7404038,74.80125 23.7404038,74.42225 C23.7404038,74.04225 23.8884038,73.68425 24.1574038,73.41625 C24.7114038,72.86125 25.6144038,72.86125 26.1674038,73.41625 C26.7224038,73.97025 26.7224038,74.87325 26.1674038,75.42625 C25.8914038,75.70425 25.5274038,75.84225 25.1624038,75.84225 L25.1624038,75.84225 Z" id="Fill-6" fill="#FFFFFE"></path>
        <path d="M22.8474038,77.07425 C22.7604038,77.07425 22.6744038,77.04125 22.6094038,76.97525 C22.4774038,76.84325 22.4774038,76.63025 22.6094038,76.49925 L24.1574038,74.95125 C24.2884038,74.81925 24.5014038,74.81925 24.6334038,74.95125 C24.7644038,75.08325 24.7644038,75.29625 24.6334038,75.42725 L23.0844038,76.97525 C23.0194038,77.04125 22.9334038,77.07425 22.8474038,77.07425" id="Fill-7" fill="#FFFFFE"></path>
        <path d="M18.6994038,85.79625 C17.8194038,85.79625 16.9314038,85.55725 16.1344038,85.06925 C15.9764038,84.97125 15.9264038,84.76425 16.0234038,84.60525 C16.1204038,84.44725 16.3274038,84.39725 16.4874038,84.49525 C18.1594038,85.52025 20.2954038,85.26825 21.6824038,83.88125 C23.3314038,82.23225 23.3314038,79.55025 21.6824038,77.90125 C20.0344038,76.25325 17.3514038,76.25325 15.7014038,77.90125 C14.3154038,79.28825 14.0634038,81.42425 15.0894038,83.09725 C15.1864038,83.25525 15.1364038,83.46425 14.9784038,83.56025 C14.8204038,83.65825 14.6124038,83.60825 14.5154038,83.45025 C13.3264038,81.51025 13.6184038,79.03325 15.2264038,77.42425 C17.1374038,75.51425 20.2474038,75.51325 22.1594038,77.42425 C23.0844038,78.35125 23.5944038,79.58225 23.5944038,80.89125 C23.5944038,82.20125 23.0844038,83.43225 22.1594038,84.35825 C21.2114038,85.30525 19.9624038,85.79625 18.6994038,85.79625" id="Fill-8" fill="#FFFFFE"></path>
        <path d="M21.0374038,88.55225 C20.9724038,88.55225 20.9054038,88.53325 20.8474038,88.49325 C20.6944038,88.38725 20.6554038,88.17725 20.7604038,88.02425 L22.3004038,85.78925 C22.4064038,85.63425 22.6164038,85.59625 22.7684038,85.70225 C22.9214038,85.80725 22.9604038,86.01725 22.8554038,86.17125 L21.3154038,88.40625 C21.2494038,88.50225 21.1454038,88.55225 21.0374038,88.55225" id="Fill-9" fill="#FFFFFE"></path>
        <path d="M11.3684038,78.88225 C11.2614038,78.88225 11.1564038,78.83225 11.0904038,78.73725 C10.9854038,78.58425 11.0244038,78.37425 11.1774038,78.26825 L13.4134038,76.72925 C13.5664038,76.62425 13.7764038,76.66225 13.8814038,76.81525 C13.9874038,76.96825 13.9494038,77.17825 13.7954038,77.28425 L11.5594038,78.82325 C11.5004038,78.86325 11.4344038,78.88225 11.3684038,78.88225" id="Fill-10" fill="#FFFFFE"></path>
    </g>
</svg>