<?xml version="1.0" encoding="UTF-8"?>
<svg width="140px" height="120px" viewBox="0 0 140 120" version="1.1" xmlns="http://www.w3.org/2000/svg" xmlns:xlink="http://www.w3.org/1999/xlink">
    <!-- Generator: Sketch 59.1 (86144) - https://sketch.com -->
    <title>lineart_track_it</title>
    <desc>Created with Sketch.</desc>
    <g id="lineart_track_it" stroke="none" stroke-width="1" fill="none" fill-rule="evenodd">
        <path d="M109.507222,42.6740475 C108.025222,42.6740475 106.545222,42.9820475 105.147222,43.5970475 C99.6762223,46.0030475 97.1842223,52.4110475 99.5902223,57.8820475 C100.756222,60.5310475 102.883222,62.5680475 105.582222,63.6180475 C108.279222,64.6680475 111.225222,64.6040475 113.874222,63.4380475 C116.524222,62.2730475 118.562222,60.1450475 119.611222,57.4460475 C120.660222,54.7480475 120.596222,51.8040475 119.431222,49.1530475 C118.265222,46.5040475 116.137222,44.4670475 113.440222,43.4170475 C112.165222,42.9210475 110.835222,42.6740475 109.507222,42.6740475 Z M109.514222,65.0350475 C108.104222,65.0350475 106.691222,64.7730475 105.337222,64.2460475 C102.472222,63.1310475 100.212222,60.9670475 98.9742223,58.1520475 C96.4182223,52.3430475 99.0662223,45.5360475 104.876222,42.9810475 C107.690222,41.7420475 110.818222,41.6750475 113.684222,42.7890475 C116.549222,43.9040475 118.809222,46.0680475 120.048222,48.8830475 C121.286222,51.6970475 121.354222,54.8250475 120.239222,57.6900475 C119.124222,60.5570475 116.960222,62.8160475 114.146222,64.0550475 C112.661222,64.7080475 111.089222,65.0350475 109.514222,65.0350475 L109.514222,65.0350475 Z" id="Fill-38" fill="#FFFFFE"></path>
        <path d="M99.5902223,57.8820475 C101.956222,63.2600475 108.074222,65.7600475 113.526222,63.5800475 C113.932222,63.3550475 114.104222,62.8540475 113.918222,62.4310475 C113.820222,62.2090475 113.643222,62.0390475 113.418222,61.9510475 C113.192222,61.8630475 112.946222,61.8690475 112.725222,61.9670475 C112.555222,62.0410475 112.356222,61.9640475 112.281222,61.7940475 C112.206222,61.6230475 112.284222,61.4250475 112.454222,61.3500475 C112.456222,61.3490475 115.571222,59.9790475 115.571222,59.9790475 C116.028222,59.7770475 116.236222,59.2420475 116.035222,58.7850475 C115.835222,58.3290475 115.299222,58.1210475 114.843222,58.3220475 L112.811222,59.2160475 C112.640222,59.2910475 112.442222,59.2130475 112.367222,59.0430475 C112.293222,58.8730475 112.370222,58.6740475 112.540222,58.5990475 C112.762222,58.5010475 112.931222,58.3230475 113.019222,58.0990475 C113.107222,57.8740475 113.101222,57.6280475 113.004222,57.4060475 C112.906222,57.1860475 112.729222,57.0160475 112.504222,56.9280475 C112.278222,56.8400475 112.032222,56.8460475 111.811222,56.9420475 L110.010222,57.7350475 C109.839222,57.8100475 109.640222,57.7320475 109.566222,57.5630475 C109.491222,57.3930475 109.568222,57.1930475 109.738222,57.1190475 C110.195222,56.9180475 110.403222,56.3830475 110.202222,55.9270475 C110.105222,55.7050475 109.927222,55.5340475 109.702222,55.4470475 C109.477222,55.3590475 109.232222,55.3640475 109.011222,55.4620475 C108.839222,55.5360475 108.641222,55.4600475 108.566222,55.2900475 C108.491222,55.1190475 108.568222,54.9210475 108.738222,54.8460475 C108.739222,54.8460475 112.256222,53.2980475 112.256222,53.2980475 C112.713222,53.0970475 112.921222,52.5620475 112.720222,52.1060475 C112.520222,51.6480475 111.985222,51.4400475 111.528222,51.6420475 L104.872222,54.5690475 C104.702222,54.6440475 104.503222,54.5660475 104.428222,54.3970475 C104.354222,54.2270475 104.431222,54.0270475 104.601222,53.9520475 C105.058222,53.7510475 105.266222,53.2170475 105.065222,52.7600475 C104.864222,52.3040475 104.330222,52.0960475 103.873222,52.2960475 C103.702222,52.3710475 103.504222,52.2940475 103.429222,52.1230475 C103.354222,51.9530475 103.431222,51.7550475 103.601222,51.6800475 C103.603222,51.6790475 108.751222,49.4140475 108.751222,49.4140475 C108.972222,49.3170475 109.142222,49.1400475 109.230222,48.9140475 C109.317222,48.6900475 109.312222,48.4430475 109.215222,48.2220475 C109.013222,47.7660475 108.478222,47.5580475 108.022222,47.7580475 L104.825222,49.1640475 C104.652222,49.2400475 104.453222,49.1630475 104.379222,48.9920475 C104.304222,48.8220475 104.381222,48.6240475 104.551222,48.5490475 C105.008222,48.3480475 105.216222,47.8130475 105.015222,47.3560475 C104.815222,46.8990475 104.280222,46.6910475 103.823222,46.8930475 C103.652222,46.9670475 103.453222,46.8900475 103.379222,46.7200475 C103.304222,46.5500475 103.381222,46.3510475 103.551222,46.2750475 C103.555222,46.2740475 107.101222,44.7140475 107.101222,44.7140475 C107.322222,44.6170475 107.492222,44.4400475 107.580222,44.2140475 C107.668222,43.9890475 107.662222,43.7430475 107.565222,43.5220475 C107.443222,43.2460475 107.197222,43.0550475 106.899222,43.0010475 C106.292222,43.1520475 105.703222,43.3530475 105.147222,43.5970475 C99.6762223,46.0030475 97.1842223,52.4110475 99.5902223,57.8820475 Z M109.473222,65.0400475 C105.047222,65.0400475 100.873222,62.4690475 98.9742223,58.1520475 C96.4182223,52.3430475 99.0662223,45.5360475 104.876222,42.9810475 C105.487222,42.7110475 106.136222,42.4930475 106.803222,42.3310475 C106.842222,42.3210475 106.883222,42.3180475 106.923222,42.3230475 C107.485222,42.3910475 107.956222,42.7380475 108.181222,43.2510475 C108.351222,43.6370475 108.360222,44.0650475 108.208222,44.4580475 C108.055222,44.8520475 107.758222,45.1610475 107.372222,45.3310475 L105.006222,46.3720475 C105.274222,46.5340475 105.496222,46.7770475 105.632222,47.0850475 C105.767222,47.3930475 105.796222,47.7220475 105.735222,48.0280475 L107.751222,47.1420475 C108.547222,46.7910475 109.481222,47.1540475 109.831222,47.9510475 C110.001222,48.3370475 110.010222,48.7660475 109.857222,49.1580475 C109.705222,49.5520475 109.408222,49.8610475 109.022222,50.0310475 L105.056222,51.7750475 C105.324222,51.9380475 105.546222,52.1810475 105.682222,52.4880475 C105.817222,52.7970475 105.846222,53.1250475 105.784222,53.4320475 L111.257222,51.0240475 C112.054222,50.6750475 112.986222,51.0370475 113.337222,51.8340475 C113.688222,52.6310475 113.324222,53.5650475 112.528222,53.9140475 L110.194222,54.9410475 C110.469222,55.1070475 110.687222,55.3550475 110.818222,55.6550475 C110.954222,55.9630475 110.983222,56.2910475 110.921222,56.5980475 L111.540222,56.3260475 C112.337222,55.9770475 113.270222,56.3390475 113.620222,57.1360475 C113.753222,57.4360475 113.788222,57.7630475 113.724222,58.0780475 L114.572222,57.7050475 C115.369222,57.3560475 116.301222,57.7180475 116.652222,58.5150475 C117.003222,59.3120475 116.639222,60.2440475 115.843222,60.5950475 L113.910222,61.4450475 C114.185222,61.6120475 114.402222,61.8580475 114.534222,62.1590475 C114.864222,62.9080475 114.554222,63.7970475 113.828222,64.1830475 C112.375222,64.7690475 110.910222,65.0400475 109.473222,65.0400475 L109.473222,65.0400475 Z" id="Fill-39" fill="#FFFFFE"></path>
        <path d="M111.292222,62.5650475 C111.162222,62.5650475 111.039222,62.4910475 110.984222,62.3640475 C110.908222,62.1940475 110.985222,61.9960475 111.156222,61.9210475 L112.454222,61.3500475 C112.624222,61.2750475 112.823222,61.3520475 112.898222,61.5230475 C112.973222,61.6920475 112.896222,61.8920475 112.725222,61.9670475 L111.427222,62.5370475 C111.383222,62.5570475 111.337222,62.5650475 111.292222,62.5650475" id="Fill-40" fill="#FFFFFE"></path>
        <path d="M107.875222,61.3560475 C107.745222,61.3560475 107.622222,61.2810475 107.567222,61.1540475 C107.491222,60.9840475 107.568222,60.7860475 107.739222,60.7110475 L112.540222,58.5990475 C112.710222,58.5240475 112.909222,58.6020475 112.984222,58.7720475 C113.059222,58.9420475 112.982222,59.1410475 112.811222,59.2160475 L108.010222,61.3270475 C107.966222,61.3470475 107.920222,61.3560475 107.875222,61.3560475" id="Fill-41" fill="#FFFFFE"></path>
        <path d="M107.698222,58.7210475 C107.568222,58.7210475 107.445222,58.6460475 107.390222,58.5200475 C107.315222,58.3500475 107.392222,58.1500475 107.562222,58.0760475 L109.738222,57.1190475 C109.908222,57.0440475 110.107222,57.1210475 110.182222,57.2910475 C110.257222,57.4620475 110.180222,57.6600475 110.009222,57.7350475 L107.834222,58.6920475 C107.789222,58.7120475 107.743222,58.7210475 107.698222,58.7210475" id="Fill-42" fill="#FFFFFE"></path>
        <path d="M103.808222,57.7190475 C103.679222,57.7190475 103.555222,57.6450475 103.500222,57.5180475 C103.425222,57.3480475 103.502222,57.1490475 103.672222,57.0740475 L108.738222,54.8460475 C108.908222,54.7710475 109.107222,54.8480475 109.182222,55.0190475 C109.257222,55.1890475 109.180222,55.3880475 109.009222,55.4620475 L103.943222,57.6900475 C103.900222,57.7100475 103.854222,57.7190475 103.808222,57.7190475" id="Fill-43" fill="#FFFFFE"></path>
        <path d="M102.808222,55.4460475 C102.679222,55.4460475 102.555222,55.3710475 102.500222,55.2450475 C102.425222,55.0740475 102.502222,54.8760475 102.673222,54.8010475 L104.601222,53.9520475 C104.771222,53.8780475 104.970222,53.9550475 105.045222,54.1250475 C105.120222,54.2960475 105.043222,54.4940475 104.872222,54.5690475 L102.944222,55.4180475 C102.900222,55.4370475 102.854222,55.4460475 102.808222,55.4460475" id="Fill-44" fill="#FFFFFE"></path>
        <path d="M101.003222,53.5270475 C100.873222,53.5270475 100.750222,53.4520475 100.694222,53.3260475 C100.619222,53.1560475 100.697222,52.9570475 100.867222,52.8830475 L103.601222,51.6800475 C103.771222,51.6050475 103.970222,51.6820475 104.045222,51.8530475 C104.120222,52.0230475 104.043222,52.2220475 103.873222,52.2960475 L101.138222,53.4990475 C101.094222,53.5190475 101.048222,53.5270475 101.003222,53.5270475" id="Fill-45" fill="#FFFFFE"></path>
        <path d="M102.928222,49.9680475 C102.799222,49.9680475 102.675222,49.8930475 102.619222,49.7670475 C102.545222,49.5970475 102.622222,49.3980475 102.792222,49.3230475 L104.551222,48.5490475 C104.721222,48.4740475 104.920222,48.5510475 104.995222,48.7220475 C105.070222,48.8920475 104.993222,49.0910475 104.822222,49.1650475 L103.063222,49.9400475 C103.019222,49.9590475 102.973222,49.9680475 102.928222,49.9680475" id="Fill-46" fill="#FFFFFE"></path>
        <path d="M115.748222,51.1060475 C115.618222,51.1060475 115.495222,51.0300475 115.439222,50.9040475 C115.364222,50.7340475 115.442222,50.5350475 115.612222,50.4600475 L116.023222,50.2790475 C116.193222,50.2050475 116.392222,50.2820475 116.467222,50.4520475 C116.542222,50.6220475 116.465222,50.8210475 116.294222,50.8970475 L115.883222,51.0770475 C115.839222,51.0970475 115.793222,51.1060475 115.748222,51.1060475" id="Fill-47" fill="#FFFFFE"></path>
        <path d="M117.426222,50.3670475 C117.296222,50.3670475 117.173222,50.2920475 117.117222,50.1660475 C117.043222,49.9960475 117.120222,49.7970475 117.290222,49.7230475 L117.924222,49.4430475 C118.093222,49.3690475 118.293222,49.4460475 118.367222,49.6160475 C118.443222,49.7860475 118.365222,49.9850475 118.195222,50.0610475 L117.561222,50.3390475 C117.517222,50.3580475 117.471222,50.3670475 117.426222,50.3670475" id="Fill-48" fill="#FFFFFE"></path>
        <path d="M119.326222,49.5310475 C119.197222,49.5310475 119.073222,49.4560475 119.018222,49.3300475 C118.943222,49.1600475 119.020222,48.9610475 119.191222,48.8860475 L119.602222,48.7050475 C119.772222,48.6310475 119.971222,48.7080475 120.045222,48.8780475 C120.121222,49.0480475 120.043222,49.2470475 119.873222,49.3220475 L119.462222,49.5030475 C119.418222,49.5230475 119.372222,49.5310475 119.326222,49.5310475" id="Fill-49" fill="#FFFFFE"></path>
        <path d="M111.952222,47.3550475 C111.822222,47.3550475 111.699222,47.2800475 111.643222,47.1530475 C111.568222,46.9830475 111.646222,46.7850475 111.816222,46.7100475 L112.227222,46.5280475 C112.397222,46.4540475 112.596222,46.5310475 112.671222,46.7010475 C112.746222,46.8720475 112.669222,47.0700475 112.498222,47.1460475 L112.087222,47.3260475 C112.043222,47.3460475 111.997222,47.3550475 111.952222,47.3550475" id="Fill-50" fill="#FFFFFE"></path>
        <path d="M113.940222,46.4810475 C113.811222,46.4810475 113.687222,46.4050475 113.632222,46.2790475 C113.557222,46.1080475 113.634222,45.9100475 113.804222,45.8350475 L114.593222,45.4880475 C114.763222,45.4130475 114.962222,45.4900475 115.037222,45.6600475 C115.112222,45.8310475 115.035222,46.0290475 114.864222,46.1050475 L114.076222,46.4510475 C114.031222,46.4710475 113.985222,46.4810475 113.940222,46.4810475" id="Fill-51" fill="#FFFFFE"></path>
        <path d="M116.306222,45.4400475 C116.177222,45.4400475 116.053222,45.3640475 115.998222,45.2380475 C115.923222,45.0670475 116.000222,44.8690475 116.170222,44.7940475 L116.582222,44.6130475 C116.752222,44.5390475 116.951222,44.6150475 117.025222,44.7860475 C117.100222,44.9560475 117.023222,45.1550475 116.853222,45.2300475 L116.442222,45.4110475 C116.398222,45.4300475 116.352222,45.4400475 116.306222,45.4400475" id="Fill-52" fill="#FFFFFE"></path>
        <path d="M117.002222,55.9840475 C116.873222,55.9840475 116.749222,55.9090475 116.693222,55.7830475 C116.619222,55.6130475 116.696222,55.4140475 116.866222,55.3400475 L117.277222,55.1580475 C117.447222,55.0840475 117.646222,55.1610475 117.721222,55.3310475 C117.796222,55.5020475 117.719222,55.7000475 117.549222,55.7750475 L117.138222,55.9560475 C117.093222,55.9760475 117.048222,55.9840475 117.002222,55.9840475" id="Fill-53" fill="#FFFFFE"></path>
        <path d="M118.554222,55.3020475 C118.424222,55.3020475 118.301222,55.2270475 118.245222,55.1010475 C118.170222,54.9310475 118.248222,54.7310475 118.418222,54.6570475 L118.988222,54.4060475 C119.158222,54.3310475 119.358222,54.4080475 119.432222,54.5790475 C119.507222,54.7490475 119.430222,54.9470475 119.259222,55.0230475 L118.689222,55.2730475 C118.645222,55.2930475 118.599222,55.3020475 118.554222,55.3020475" id="Fill-54" fill="#FFFFFE"></path>
        <path d="M120.265222,54.5490475 C120.135222,54.5490475 120.012222,54.4750475 119.956222,54.3480475 C119.882222,54.1780475 119.959222,53.9790475 120.129222,53.9040475 L120.540222,53.7240475 C120.711222,53.6480475 120.909222,53.7260475 120.984222,53.8970475 C121.059222,54.0660475 120.982222,54.2660475 120.811222,54.3400475 L120.400222,54.5210475 C120.356222,54.5400475 120.310222,54.5490475 120.265222,54.5490475" id="Fill-55" fill="#FFFFFE"></path>
        <path d="M56.3753792,29.488 C56.2543792,29.488 56.1373792,29.421 56.0763792,29.307 C55.9903792,29.142 56.0543792,28.939 56.2183792,28.852 C59.8773792,26.93 61.9433792,24.728 61.4833792,23.242 C61.2393792,22.451 60.3153792,22.025 59.5843792,21.806 C59.4053792,21.752 59.3043792,21.565 59.3573792,21.387 C59.4103792,21.209 59.5993792,21.107 59.7763792,21.161 C61.0513792,21.542 61.8643792,22.192 62.1273792,23.043 C62.7053792,24.91 60.6133792,27.305 56.5313792,29.449 C56.4813792,29.475 56.4283792,29.488 56.3753792,29.488" id="Fill-56" fill="#FFFFFE"></path>
        <path d="M43.9573792,33.035 C43.7803792,33.035 43.6323792,32.897 43.6213792,32.718 C43.6093792,32.532 43.7513792,32.373 43.9363792,32.362 C46.0733792,32.232 48.4753792,31.771 50.8833792,31.026 C51.8203792,30.736 52.7413792,30.409 53.6213792,30.051 C53.7943792,29.981 53.9903792,30.065 54.0603792,30.237 C54.1303792,30.41 54.0473792,30.606 53.8753792,30.675 C52.9773792,31.04 52.0373792,31.374 51.0813792,31.669 C48.6243792,32.43 46.1673792,32.902 43.9773792,33.034 C43.9713792,33.035 43.9643792,33.035 43.9573792,33.035" id="Fill-57" fill="#FFFFFE"></path>
        <path d="M40.0443792,32.81 C40.0193792,32.81 39.9953792,32.808 39.9703792,32.802 C38.3883792,32.449 37.3923792,31.751 37.0943792,30.785 C36.8743792,30.074 37.0393792,29.285 37.5853792,28.436 C37.6853792,28.28 37.8943792,28.235 38.0513792,28.336 C38.2073792,28.436 38.2523792,28.644 38.1513792,28.8 C37.7193792,29.473 37.5793792,30.074 37.7373792,30.586 C38.0193792,31.498 39.1873792,31.937 40.1173792,32.145 C40.2993792,32.186 40.4133792,32.366 40.3723792,32.547 C40.3373792,32.704 40.1983792,32.81 40.0443792,32.81" id="Fill-58" fill="#FFFFFE"></path>
        <path d="M41.9933792,31.09 C41.0963792,31.09 40.3653792,31.82 40.3653792,32.717 C40.3653792,33.615 41.0963792,34.345 41.9933792,34.345 C42.8903792,34.345 43.6203792,33.615 43.6203792,32.717 C43.6203792,31.82 42.8903792,31.09 41.9933792,31.09 Z M41.9933792,35.018 C40.7233792,35.018 39.6913792,33.986 39.6913792,32.717 C39.6913792,31.449 40.7233792,30.417 41.9933792,30.417 C43.2623792,30.417 44.2943792,31.449 44.2943792,32.717 C44.2943792,33.986 43.2623792,35.018 41.9933792,35.018 L41.9933792,35.018 Z" id="Fill-59" fill="#FFFFFE"></path>
        <path d="M55.0763792,28.679 C54.4643792,28.679 53.9663792,29.177 53.9663792,29.79 C53.9663792,30.401 54.4643792,30.899 55.0763792,30.899 C55.6883792,30.899 56.1863792,30.401 56.1863792,29.79 C56.1863792,29.177 55.6883792,28.679 55.0763792,28.679 Z M55.0763792,31.573 C54.0933792,31.573 53.2933792,30.773 53.2933792,29.79 C53.2933792,28.805 54.0933792,28.005 55.0763792,28.005 C56.0593792,28.005 56.8603792,28.805 56.8603792,29.79 C56.8603792,30.773 56.0593792,31.573 55.0763792,31.573 L55.0763792,31.573 Z" id="Fill-60" fill="#FFFFFE"></path>
        <path d="M43.8213792,34.112 C45.4603792,35.431 47.5023792,36.154 49.6103792,36.154 C54.7063792,36.154 58.8503792,32.008 58.8503792,26.914 C58.8503792,21.819 54.7063792,17.673 49.6103792,17.673 C44.5153792,17.673 40.3703792,21.819 40.3703792,26.914 C40.3703792,28.193 40.6263792,29.426 41.1293792,30.586 C41.4033792,30.474 41.6963792,30.417 41.9933792,30.417 C43.2623792,30.417 44.2943792,31.449 44.2943792,32.717 C44.2943792,33.23 44.1283792,33.713 43.8213792,34.112 Z M49.6103792,36.828 C47.2253792,36.828 44.9193792,35.965 43.1163792,34.401 C43.0453792,34.338 43.0033792,34.249 43.0013792,34.153 C42.9993792,34.058 43.0373792,33.966 43.1063792,33.902 C43.4373792,33.589 43.6203792,33.169 43.6203792,32.717 C43.6203792,31.82 42.8903792,31.09 41.9933792,31.09 C41.6943792,31.09 41.4013792,31.173 41.1443792,31.332 C41.0623792,31.38 40.9643792,31.394 40.8733792,31.367 C40.7813792,31.339 40.7053792,31.275 40.6643792,31.189 C40.0223792,29.848 39.6963792,28.41 39.6963792,26.914 C39.6963792,21.447 44.1443792,17 49.6103792,17 C55.0773792,17 59.5243792,21.447 59.5243792,26.914 C59.5243792,32.379 55.0773792,36.828 49.6103792,36.828 L49.6103792,36.828 Z" id="Fill-61" fill="#FFFFFE"></path>
        <path d="M45.6263792,28.992 C44.9043792,28.992 44.3173792,28.405 44.3173792,27.683 C44.3173792,27.274 44.5043792,26.896 44.8293792,26.646 C44.9763792,26.534 45.1883792,26.56 45.3023792,26.709 C45.4153792,26.856 45.3873792,27.067 45.2393792,27.18 C45.0823792,27.301 44.9913792,27.485 44.9913792,27.683 C44.9913792,28.034 45.2763792,28.318 45.6263792,28.318 C45.7533792,28.318 45.8753792,28.281 45.9803792,28.21 C46.1343792,28.105 46.3443792,28.146 46.4473792,28.3 C46.5523792,28.455 46.5123792,28.664 46.3573792,28.768 C46.1403792,28.915 45.8883792,28.992 45.6263792,28.992" id="Fill-62" fill="#FFFFFE"></path>
        <path d="M50.7823792,23.935 C49.8953792,23.935 49.1743792,23.213 49.1743792,22.326 C49.1743792,21.439 49.8953792,20.716 50.7823792,20.716 C51.0183792,20.716 51.2473792,20.767 51.4603792,20.866 C51.6293792,20.944 51.7023792,21.144 51.6243792,21.313 C51.5463792,21.482 51.3453792,21.555 51.1773792,21.477 C51.0533792,21.419 50.9203792,21.39 50.7823792,21.39 C50.2663792,21.39 49.8473792,21.81 49.8473792,22.326 C49.8473792,22.841 50.2663792,23.261 50.7823792,23.261 C51.0883792,23.261 51.3753792,23.112 51.5513792,22.861 C51.6573792,22.708 51.8673792,22.67 52.0193792,22.777 C52.1723792,22.883 52.2093792,23.094 52.1023792,23.247 C51.8023792,23.677 51.3073792,23.935 50.7823792,23.935" id="Fill-63" fill="#FFFFFE"></path>
        <path d="M45.6263792,23.265 C44.7753792,23.265 44.0833792,22.574 44.0833792,21.723 C44.0833792,21.537 44.2343792,21.386 44.4203792,21.386 C44.6063792,21.386 44.7573792,21.537 44.7573792,21.723 C44.7573792,22.203 45.1463792,22.591 45.6263792,22.591 C46.1043792,22.591 46.4943792,22.203 46.4943792,21.723 C46.4943792,21.244 46.1043792,20.854 45.6263792,20.854 C45.4393792,20.854 45.2893792,20.704 45.2893792,20.517 C45.2893792,20.332 45.4393792,20.181 45.6263792,20.181 C46.4763792,20.181 47.1683792,20.873 47.1683792,21.723 C47.1683792,22.574 46.4763792,23.265 45.6263792,23.265" id="Fill-64" fill="#FFFFFE"></path>
        <path d="M50.5823792,27.418 C50.0093792,27.418 49.5423792,26.951 49.5423792,26.377 C49.5423792,26.192 49.6923792,26.041 49.8793792,26.041 C50.0643792,26.041 50.2163792,26.192 50.2163792,26.377 C50.2163792,26.58 50.3803792,26.744 50.5823792,26.744 C50.7843792,26.744 50.9483792,26.58 50.9483792,26.377 C50.9483792,26.343 50.9433792,26.309 50.9333792,26.276 C50.8833792,26.097 50.9863792,25.911 51.1653792,25.86 C51.3453792,25.808 51.5303792,25.912 51.5823792,26.091 C51.6083792,26.184 51.6223792,26.281 51.6223792,26.377 C51.6223792,26.951 51.1553792,27.418 50.5823792,27.418" id="Fill-65" fill="#FFFFFE"></path>
        <path d="M55.0763792,25.006 C54.5013792,25.006 54.0033792,24.597 53.8913792,24.034 C53.8553792,23.851 53.9743792,23.674 54.1563792,23.638 C54.3403792,23.602 54.5163792,23.72 54.5533792,23.903 C54.6013792,24.152 54.8223792,24.334 55.0763792,24.334 C55.3713792,24.334 55.6103792,24.093 55.6103792,23.799 C55.6103792,23.505 55.3713792,23.265 55.0763792,23.265 C55.0053792,23.265 54.9363792,23.279 54.8723792,23.305 C54.7013792,23.377 54.5043792,23.295 54.4323792,23.124 C54.3613792,22.952 54.4423792,22.754 54.6143792,22.683 C54.7613792,22.623 54.9163792,22.591 55.0763792,22.591 C55.7423792,22.591 56.2843792,23.133 56.2843792,23.799 C56.2843792,24.465 55.7423792,25.006 55.0763792,25.006" id="Fill-66" fill="#FFFFFE"></path>
        <path d="M50.7823792,35.488 C50.2403792,35.488 49.7493792,35.188 49.5013792,34.706 C49.4153792,34.541 49.4803792,34.337 49.6453792,34.252 C49.8103792,34.168 50.0153792,34.232 50.0993792,34.397 C50.2313792,34.655 50.4933792,34.814 50.7823792,34.814 C51.2063792,34.814 51.5513792,34.469 51.5513792,34.045 C51.5513792,33.698 51.3153792,33.392 50.9793792,33.303 C50.8003792,33.255 50.6923792,33.071 50.7393792,32.891 C50.7873792,32.711 50.9733792,32.604 51.1513792,32.652 C51.7833792,32.819 52.2243792,33.392 52.2243792,34.045 C52.2243792,34.841 51.5773792,35.488 50.7823792,35.488" id="Fill-67" fill="#FFFFFE"></path>
        <path d="M66.4800693,57 L65.5199307,57 C65.2329289,57 65,56.776 65,56.5 C65,56.224 65.2329289,56 65.5199307,56 L66.4800693,56 C66.7670711,56 67,56.224 67,56.5 C67,56.776 66.7670711,57 66.4800693,57" id="Fill-904" fill="#FFFFFE"></path>
        <path d="M69.479889,57 L68.520111,57 C68.2330097,57 68,56.776 68,56.5 C68,56.224 68.2330097,56 68.520111,56 L69.479889,56 C69.7676838,56 70,56.224 70,56.5 C70,56.776 69.7676838,57 69.479889,57" id="Fill-905" fill="#FFFFFE"></path>
        <path d="M67.5,59 C67.224,59 67,58.7669903 67,58.479889 L67,57.520111 C67,57.2330097 67.224,57 67.5,57 C67.7766667,57 68,57.2330097 68,57.520111 L68,58.479889 C68,58.7669903 67.7766667,59 67.5,59" id="Fill-906" fill="#FFFFFE"></path>
        <path d="M67.5,56 C67.224,56 67,55.7669903 67,55.479889 L67,54.520111 C67,54.2330097 67.224,54 67.5,54 C67.7766667,54 68,54.2330097 68,54.520111 L68,55.479889 C68,55.7669903 67.7766667,56 67.5,56" id="Fill-907" fill="#FFFFFE"></path>
        <path d="M97.4800693,82 L96.5199307,82 C96.2329289,82 96,81.776 96,81.5 C96,81.224 96.2329289,81 96.5199307,81 L97.4800693,81 C97.7670711,81 98,81.224 98,81.5 C98,81.776 97.7670711,82 97.4800693,82" id="Fill-904" fill="#FFFFFE"></path>
        <path d="M100.479889,82 L99.520111,82 C99.2330097,82 99,81.776 99,81.5 C99,81.224 99.2330097,81 99.520111,81 L100.479889,81 C100.767684,81 101,81.224 101,81.5 C101,81.776 100.767684,82 100.479889,82" id="Fill-905" fill="#FFFFFE"></path>
        <path d="M98.5,84 C98.224,84 98,83.7669903 98,83.479889 L98,82.520111 C98,82.2330097 98.224,82 98.5,82 C98.7766667,82 99,82.2330097 99,82.520111 L99,83.479889 C99,83.7669903 98.7766667,84 98.5,84" id="Fill-906" fill="#FFFFFE"></path>
        <path d="M98.5,81 C98.224,81 98,80.7669903 98,80.479889 L98,79.520111 C98,79.2330097 98.224,79 98.5,79 C98.7766667,79 99,79.2330097 99,79.520111 L99,80.479889 C99,80.7669903 98.7766667,81 98.5,81" id="Fill-907" fill="#FFFFFE"></path>
        <path d="M119.720104,19 L118.279896,19 C117.849393,19 117.5,18.776 117.5,18.5 C117.5,18.224 117.849393,18 118.279896,18 L119.720104,18 C120.150607,18 120.5,18.224 120.5,18.5 C120.5,18.776 120.150607,19 119.720104,19" id="Fill-904" fill="#FFFFFE"></path>
        <path d="M123.719834,19 L122.280166,19 C121.849515,19 121.5,18.776 121.5,18.5 C121.5,18.224 121.849515,18 122.280166,18 L123.719834,18 C124.151526,18 124.5,18.224 124.5,18.5 C124.5,18.776 124.151526,19 123.719834,19" id="Fill-905" fill="#FFFFFE"></path>
        <path d="M121,22 C120.724,22 120.5,21.6504854 120.5,21.2198336 L120.5,19.7801664 C120.5,19.3495146 120.724,19 121,19 C121.276667,19 121.5,19.3495146 121.5,19.7801664 L121.5,21.2198336 C121.5,21.6504854 121.276667,22 121,22" id="Fill-906" fill="#FFFFFE"></path>
        <path d="M121,18 C120.724,18 120.5,17.6504854 120.5,17.2198336 L120.5,15.7801664 C120.5,15.3495146 120.724,15 121,15 C121.276667,15 121.5,15.3495146 121.5,15.7801664 L121.5,17.2198336 C121.5,17.6504854 121.276667,18 121,18" id="Fill-907" fill="#FFFFFE"></path>
        <path d="M21.5,20 C21.7761424,20 22,20.2238576 22,20.5 C22,20.7761424 21.7761424,21 21.5,21 C21.2238576,21 21,20.7761424 21,20.5 C21,20.2238576 21.2238576,20 21.5,20 Z M22.5,19 C22.7761424,19 23,19.2238576 23,19.5 C23,19.7761424 22.7761424,20 22.5,20 C22.2238576,20 22,19.7761424 22,19.5 C22,19.2238576 22.2238576,19 22.5,19 Z M20.5,19 C20.7761424,19 21,19.2238576 21,19.5 C21,19.7761424 20.7761424,20 20.5,20 C20.2238576,20 20,19.7761424 20,19.5 C20,19.2238576 20.2238576,19 20.5,19 Z M21.5,18 C21.7761424,18 22,18.2238576 22,18.5 C22,18.7761424 21.7761424,19 21.5,19 C21.2238576,19 21,18.7761424 21,18.5 C21,18.2238576 21.2238576,18 21.5,18 Z" id="Oval-2" fill="#FFFFFE"></path>
        <path d="M80.5,37 C80.7761424,37 81,37.2238576 81,37.5 C81,37.7761424 80.7761424,38 80.5,38 C80.2238576,38 80,37.7761424 80,37.5 C80,37.2238576 80.2238576,37 80.5,37 Z M81.5,36 C81.7761424,36 82,36.2238576 82,36.5 C82,36.7761424 81.7761424,37 81.5,37 C81.2238576,37 81,36.7761424 81,36.5 C81,36.2238576 81.2238576,36 81.5,36 Z M79.5,36 C79.7761424,36 80,36.2238576 80,36.5 C80,36.7761424 79.7761424,37 79.5,37 C79.2238576,37 79,36.7761424 79,36.5 C79,36.2238576 79.2238576,36 79.5,36 Z M80.5,35 C80.7761424,35 81,35.2238576 81,35.5 C81,35.7761424 80.7761424,36 80.5,36 C80.2238576,36 80,35.7761424 80,35.5 C80,35.2238576 80.2238576,35 80.5,35 Z" id="Oval-2" fill="#FFFFFE"></path>
        <path d="M30.5844038,89.33625 C30.4984038,89.33625 30.4114038,89.30325 30.3464038,89.23725 C29.4344038,88.32625 27.9514038,88.32625 27.0384038,89.23725 C26.9074038,89.36925 26.6944038,89.36925 26.5624038,89.23725 C26.4304038,89.10625 26.4304038,88.89225 26.5624038,88.76125 C27.7374038,87.58725 29.6484038,87.58725 30.8234038,88.76125 C30.9534038,88.89225 30.9534038,89.10625 30.8234038,89.23725 C30.7564038,89.30325 30.6704038,89.33625 30.5844038,89.33625" id="Fill-1" fill="#FFFFFE"></path>
        <path d="M14.3364038,95.66125 C14.2304038,95.66125 14.1244038,95.61025 14.0594038,95.51425 C13.9534038,95.36125 13.9934038,95.15225 14.1464038,95.04725 L25.2734038,87.38525 C25.4264038,87.28025 25.6364038,87.31925 25.7424038,87.47225 C25.8474038,87.62625 25.8084038,87.83525 25.6554038,87.94025 L14.5284038,95.60125 C14.4694038,95.64125 14.4034038,95.66125 14.3364038,95.66125" id="Fill-2" fill="#FFFFFE"></path>
        <path d="M24.2594038,105.58425 C24.1944038,105.58425 24.1274038,105.56425 24.0694038,105.52425 C23.9154038,105.41925 23.8774038,105.21025 23.9834038,105.05625 L31.6434038,93.92825 C31.7484038,93.77525 31.9584038,93.73725 32.1124038,93.84225 C32.2654038,93.94825 32.3034038,94.15725 32.1984038,94.31025 L24.5374038,105.43825 C24.4724038,105.53325 24.3674038,105.58425 24.2594038,105.58425" id="Fill-3" fill="#FFFFFE"></path>
        <path d="M19.2984038,100.62225 C19.2124038,100.62225 19.1254038,100.58925 19.0604038,100.52325 C18.9284038,100.39225 18.9284038,100.17825 19.0604038,100.04725 L26.1784038,92.92825 C26.3104038,92.79725 26.5234038,92.79725 26.6554038,92.92825 C26.7864038,93.06025 26.7864038,93.27325 26.6554038,93.40525 L19.5364038,100.52325 C19.4704038,100.58925 19.3844038,100.62225 19.2984038,100.62225" id="Fill-4" fill="#FFFFFE"></path>
        <path d="M31.2924038,86.73725 C31.6084038,86.93325 31.8984038,87.16425 32.1594038,87.42425 C32.4194038,87.68625 32.6504038,87.97625 32.8464038,88.29225 C32.9894038,88.14625 33.0664038,87.95525 33.0664038,87.75325 C33.0664038,87.54725 32.9864038,87.35225 32.8404038,87.20725 L32.3774038,86.74325 C32.0784038,86.44525 31.5944038,86.44225 31.2924038,86.73725 Z M32.7714038,89.18025 C32.7524038,89.18025 32.7354038,89.17925 32.7174038,89.17625 C32.6104038,89.15925 32.5184038,89.09125 32.4694038,88.99525 C32.2654038,88.58725 31.9994038,88.21825 31.6824038,87.90125 C31.3664038,87.58425 30.9974038,87.31925 30.5884038,87.11425 C30.4924038,87.06525 30.4244038,86.97325 30.4084038,86.86725 C30.3904038,86.75925 30.4254038,86.65125 30.5014038,86.57525 L30.8094038,86.26725 C31.3734038,85.70325 32.2904038,85.70425 32.8534038,86.26725 L33.3174038,86.73025 C33.5894038,87.00425 33.7404038,87.36625 33.7404038,87.75325 C33.7404038,88.13825 33.5894038,88.50225 33.3174038,88.77425 L33.0084038,89.08225 C32.9454038,89.14625 32.8594038,89.18025 32.7714038,89.18025 L32.7714038,89.18025 Z" id="Fill-5" fill="#FFFFFE"></path>
        <path d="M35.1624038,83.67325 C34.9704038,83.67325 34.7794038,83.74725 34.6334038,83.89225 C34.4924038,84.03425 34.4134038,84.22125 34.4134038,84.42225 C34.4134038,84.62125 34.4924038,84.80925 34.6334038,84.95125 C34.9244038,85.24225 35.4004038,85.24225 35.6924038,84.95125 C35.9834038,84.65925 35.9834038,84.18425 35.6924038,83.89225 C35.5454038,83.74725 35.3544038,83.67325 35.1624038,83.67325 Z M35.1624038,85.84225 C34.7984038,85.84225 34.4344038,85.70425 34.1574038,85.42625 C33.8884038,85.15925 33.7404038,84.80125 33.7404038,84.42225 C33.7404038,84.04225 33.8884038,83.68425 34.1574038,83.41625 C34.7114038,82.86125 35.6144038,82.86125 36.1674038,83.41625 C36.7224038,83.97025 36.7224038,84.87325 36.1674038,85.42625 C35.8914038,85.70425 35.5274038,85.84225 35.1624038,85.84225 L35.1624038,85.84225 Z" id="Fill-6" fill="#FFFFFE"></path>
        <path d="M32.8474038,87.07425 C32.7604038,87.07425 32.6744038,87.04125 32.6094038,86.97525 C32.4774038,86.84325 32.4774038,86.63025 32.6094038,86.49925 L34.1574038,84.95125 C34.2884038,84.81925 34.5014038,84.81925 34.6334038,84.95125 C34.7644038,85.08325 34.7644038,85.29625 34.6334038,85.42725 L33.0844038,86.97525 C33.0194038,87.04125 32.9334038,87.07425 32.8474038,87.07425" id="Fill-7" fill="#FFFFFE"></path>
        <path d="M28.6994038,95.79625 C27.8194038,95.79625 26.9314038,95.55725 26.1344038,95.06925 C25.9764038,94.97125 25.9264038,94.76425 26.0234038,94.60525 C26.1204038,94.44725 26.3274038,94.39725 26.4874038,94.49525 C28.1594038,95.52025 30.2954038,95.26825 31.6824038,93.88125 C33.3314038,92.23225 33.3314038,89.55025 31.6824038,87.90125 C30.0344038,86.25325 27.3514038,86.25325 25.7014038,87.90125 C24.3154038,89.28825 24.0634038,91.42425 25.0894038,93.09725 C25.1864038,93.25525 25.1364038,93.46425 24.9784038,93.56025 C24.8204038,93.65825 24.6124038,93.60825 24.5154038,93.45025 C23.3264038,91.51025 23.6184038,89.03325 25.2264038,87.42425 C27.1374038,85.51425 30.2474038,85.51325 32.1594038,87.42425 C33.0844038,88.35125 33.5944038,89.58225 33.5944038,90.89125 C33.5944038,92.20125 33.0844038,93.43225 32.1594038,94.35825 C31.2114038,95.30525 29.9624038,95.79625 28.6994038,95.79625" id="Fill-8" fill="#FFFFFE"></path>
        <path d="M31.0374038,98.55225 C30.9724038,98.55225 30.9054038,98.53325 30.8474038,98.49325 C30.6944038,98.38725 30.6554038,98.17725 30.7604038,98.02425 L32.3004038,95.78925 C32.4064038,95.63425 32.6164038,95.59625 32.7684038,95.70225 C32.9214038,95.80725 32.9604038,96.01725 32.8554038,96.17125 L31.3154038,98.40625 C31.2494038,98.50225 31.1454038,98.55225 31.0374038,98.55225" id="Fill-9" fill="#FFFFFE"></path>
        <path d="M21.3684038,88.88225 C21.2614038,88.88225 21.1564038,88.83225 21.0904038,88.73725 C20.9854038,88.58425 21.0244038,88.37425 21.1774038,88.26825 L23.4134038,86.72925 C23.5664038,86.62425 23.7764038,86.66225 23.8814038,86.81525 C23.9874038,86.96825 23.9494038,87.17825 23.7954038,87.28425 L21.5594038,88.82325 C21.5004038,88.86325 21.4344038,88.88225 21.3684038,88.88225" id="Fill-10" fill="#FFFFFE"></path>
        <path d="M54.387325,18.4230692 C57.1509795,20.1717448 59,23.3585766 59,27 C59,32.5228475 54.8570843,36.6779848 49.6103792,36.6779848 C47.2588719,36.6779848 45.0847407,35.8433341 43.4013421,34.4249801 C43.628527,34.2031945 43.8013402,33.9285274 43.9016821,33.621102 C44.7260118,33.8677738 45.5983364,34 46.5,34 C49.4341487,34 52.0576128,32.5997912 53.8002432,30.3995308 C53.974511,30.9195554 54.4349187,31.217902 55.0768792,31.217902 C55.9053063,31.217902 56.4735309,30.6174271 56.4735309,29.789 C56.4735309,28.9605729 55.9048063,28.4524473 55.0763792,28.4524473 L55.0072279,28.4556088 C55.6426087,27.1139929 56,25.6009297 56,24 C56,21.9406331 55.4086197,20.0266602 54.3948699,18.4359873 Z" id="Oval-5" fill-opacity="0.3" fill="#FFFFFE"></path>
        <path d="M115.382703,43.6164509 C118.746747,45.6230505 121,49.2983876 121,53.5 C121,59.8512746 115.851275,65 109.5,65 C105.299226,65 101.624518,62.7476467 99.6176527,59.384718 C101.33921,60.4104087 103.350752,61 105.5,61 C111.851275,61 117,55.8512746 117,49.5 C117,47.3499166 116.40995,45.3376468 115.382946,43.6162849 L115.383698,43.6170441 Z" id="Oval-5" fill-opacity="0.3" fill="#FFFFFE"></path>
        <path d="M31.7524723,87.3594172 C32.7164483,88.2712563 33.3568492,89.5650352 33.3568492,91 C33.3568492,93.7614237 31.1766969,95.79625 28.6914155,95.79625 C26.649309,95.79625 24.795671,94.42242 24.1995252,92.4005186 C25.0222529,93.3840943 26.1963928,94 27.5,94 C29.9852814,94 32,91.7614237 32,89 C32,88.4630565 31.9238262,87.9458811 31.7828308,87.4610874 Z" id="Oval-5" fill-opacity="0.3" fill="#FFFFFE"></path>
    </g>
</svg>