<svg xmlns="http://www.w3.org/2000/svg" viewBox="0 0 632 127">
  <g fill="#001A2A" fill-rule="nonzero">
    <path d="M38 53l25-24 24 24 15-14L63 0 24 39zM14 49l14 14-14 15L0 63zM38 73l25 25 24-25 15 15-39 39-39-39zM126 64l-14 14-15-14 15-15z"/>
    <path d="M77 63L63 49 52 60l-1 1-3 2 15 15 14-15zM148 31h31c8 0 14 2 18 6 3 3 5 7 5 11a16 16 0 01-3 9l-3 3-3 3c4 1 7 3 9 6 2 2 3 6 3 10l-1 8c-2 3-3 5-6 6l-7 4-11 1h-32V31zm28 27l8-2c2-1 3-3 3-5l-2-6-8-1h-14v14h13zm4 27l8-2c2-1 3-3 3-5v-1c0-2-1-4-3-5l-8-2h-17v15h17zM224 31h15v67h-15V31zM261 31h14l31 41V31h15v67h-13l-32-43v43h-15V31zM365 30h14l29 68h-16l-6-15h-28l-6 15h-15l28-68zm16 40l-9-22-9 22h18zM424 31h13l32 41V31h14v67h-12l-33-43v43h-14V31zM537 99a35 35 0 01-25-10c-3-3-6-7-7-11a35 35 0 017-38l11-8c4-2 9-2 14-2a45 45 0 0116 2 31 31 0 0111 8l-10 11c-2-3-5-4-8-6a20 20 0 00-17 0l-6 4-4 7-1 8a23 23 0 005 15 19 19 0 0014 6c4 0 7 0 10-2l8-6 9 10-5 5a32 32 0 01-14 6l-8 1zM581 31h51v13h-36v13h32v14h-32v14h36v13h-51V31z"/>
  </g>
</svg>
