<?xml version="1.0" encoding="UTF-8"?>
<svg width="1516px" height="420px" viewBox="0 0 1516 420" version="1.1" xmlns="http://www.w3.org/2000/svg" xmlns:xlink="http://www.w3.org/1999/xlink">
    <!-- Generator: Sketch 59.1 (86144) - https://sketch.com -->
    <title>bitbay</title>
    <desc>Created with Sketch.</desc>
    <g id="bitbay" stroke="none" stroke-width="1" fill="none" fill-rule="evenodd">
        <path d="M210,0 C325.979797,0 420,94.0202025 420,210 C420,325.979797 325.979797,420 210,420 C94.0202025,420 0,325.979797 0,210 C0,94.0202025 94.0202025,0 210,0 Z M252.6,105.2 L131,105.2 L131.4,224.7 L76.6,224.7 L76.6,271.7 L156.6,271.7 L131.6,286.9 L131.6,314.9 L255.2,314.9 C263.2,314.9 271.7,313.9 280.2,312.6 C308.8,307.6 331.2,280.4 331.2,250.6 C331.2,228.9 322.5,212.6 305.2,202.4 L305.3,202.5 C303.1,201.2 300.8,200 298.5,199 L298.2,199 L299.8,197.5 C302.8,195.1 305.8,192.5 308.3,189.5 C320.1,175.9 323.5,160.7 318.5,144.2 C314.5,130.6 305.3,120.5 290.9,113.2 C279.9,107.7 267.5,105.2 252.6,105.2 Z M262.5,183.7 C260,185.4 256.8,186.3 253.5,187.1 C251.1,187.8 248.5,187.8 246.2,187.8 L179.2,187.8 L179.2,146.8 L252,146.8 C260.7,147 268,152.8 270.6,161.4 C273,169.6 269.6,178.8 262.6,183.8 L262.5,183.7 Z M197.5,273.7 L179.2,273.7 L179.2,225.7 L253.7,225.7 C264.4,225.7 272,229.2 277.4,236.7 C281.8,242.7 282.9,250.7 280.4,258 C277.8,265 272.4,270.2 265.4,272 C261.1,273 257,273.7 253.4,273.8 L197.4,273.8 L197.5,273.7 Z" id="shape" fill="#0957CB" fill-rule="nonzero"></path>
        <path d="M703.3,193.4 C706.5,194.9 709.8,196.4 712.9,198.2 C729.9,208.2 737.9,223.6 737.9,243.2 C737.9,271.2 716.3,296.7 688.4,301.2 C680.4,302.6 672,303.4 663.8,303.4 C624.2,303.6 584.8,303.4 545.1,303.4 L542,303.4 L542,104.2 L661.2,104.2 C674.2,104.2 686.8,106 698.5,111.8 C711.1,118 720.8,127 725.1,140.8 C730.1,156.5 726.3,170.8 715.4,182.8 C712.1,186.8 707.6,190 703.4,193.6 L703.3,193.4 Z M586,267.4 L588.8,267.4 C613.2,267.4 637.8,267.6 662.1,267.4 C666.4,267.4 670.8,266.7 674.9,265.6 C691.1,261.6 697.9,241.6 687.9,228.3 C681.4,219.9 672.6,217 662.5,217 L588.9,217 C586.3,217 585.9,217.8 585.9,220 L585.9,264.2 L586.1,267.4 L586,267.4 Z M586,184 L655,184 C657.6,184 660.3,184 662.8,183.4 C666.1,182.6 669.6,181.7 672.4,179.8 C680.4,174.4 683.9,164.6 681.4,156 C678.7,147 670.7,140.6 660.8,140.5 C636.6,140.2 612.3,140.5 588.1,140.3 C586.5,140.3 585.9,140.9 585.9,142.6 L585.9,184 L586,184 Z M968.5,303.5 L968.5,104 L1086.5,104 C1099.9,104 1113,105.7 1125,111.7 C1140.6,119.4 1151.4,131.1 1153.4,149 C1154.9,162 1150.4,173.4 1141.7,183 C1138.1,186.8 1133.7,189.8 1129.5,193.4 L1135,195.9 C1146.4,201.2 1155.2,209.3 1160,221.1 C1170.8,247.3 1161,275.1 1138.8,291.1 C1128.8,298.3 1117.5,301.6 1105.5,302.6 C1098.8,303.2 1092,303.3 1085.3,303.3 L968.5,303.3 L968.5,303.5 Z M1012.5,267.3 L1015,267.5 L1089,267.5 C1094.6,267.5 1100.2,266.5 1105.5,264.1 C1120.5,257.1 1123.3,235.4 1110.5,224.6 C1104.1,219.1 1096.7,217.2 1088.5,217.2 L1015.5,217.2 L1012.5,217.5 L1012.5,267.5 L1012.5,267.3 Z M1012.2,183.9 L1081.8,183.9 C1084.6,183.9 1087.4,183.7 1090.2,183.2 C1105.5,180.2 1113.2,163.8 1105.4,150.9 C1101.2,143.9 1094.8,140.6 1086.9,140.5 C1062.7,140.3 1038.5,140.5 1014.4,140.3 C1012.4,140.3 1012.1,141.3 1012.1,142.9 L1012.1,184 L1012.2,183.9 Z M1195.5,164.9 C1203.7,161.9 1211.5,158.9 1219.3,156.4 C1237.8,150.7 1256.8,148.4 1276.1,149.8 C1288.1,150.5 1299.9,152.8 1310.8,158.4 C1326.2,166.2 1334.3,178.4 1334.2,195.8 L1334.2,268.3 C1334.2,279.5 1334.8,290.6 1338.2,301.3 C1338.2,301.7 1338.2,302.3 1338.4,303 L1336,303.2 L1301,303.2 C1298.8,303.2 1298,302.5 1297.7,300.7 L1294.7,286.4 L1285.7,293.9 C1273.4,303.5 1259.1,306.9 1243.7,306.9 C1230.7,306.6 1218.5,303.9 1207.4,296.9 C1184,281.9 1178.7,248.9 1195.4,228.4 C1202.7,219.4 1212.4,213.6 1223.4,210.4 C1241.4,205.4 1259.2,205 1276.9,210.4 C1281.9,212.1 1286.7,215.1 1291.5,217.4 L1293.5,218.4 C1293.5,213.4 1293.7,208.4 1293.5,203.4 C1293.2,189.8 1283.5,184.4 1273.5,182.4 C1258.5,179.6 1244.1,182.4 1230,186.9 C1222.8,189.1 1215.8,191.9 1208.3,194.9 L1195.8,164.6 L1195.5,164.9 Z M1257.9,235.5 C1255.1,235.7 1251.9,235.7 1248.6,236.2 C1245.3,236.8 1242,237.5 1238.9,238.7 C1227.7,243 1222.9,254.1 1227.9,264.4 C1231.9,272.8 1239.4,275.8 1247.9,276.6 C1264.5,278.2 1278.9,272.8 1291.4,262.3 C1292.4,261.3 1293.2,259.6 1293.4,258.1 C1293.7,255.4 1293.4,252.7 1293.6,250.1 C1294,246.8 1292.6,245.1 1289.9,243.5 C1280.1,237.8 1269.5,235.7 1257.9,235.5 L1257.9,235.5 Z M1515.6,154.3 L1504.3,178.3 C1485.3,218.8 1466,259.3 1446.8,299.7 L1415.8,364.7 C1415.4,365.7 1414.4,366.5 1413.8,366.5 L1372.8,366.5 L1374.1,363.5 L1410.1,292 C1411.1,290.3 1411.1,289 1410.1,287.2 L1363.1,181.8 C1359.1,173.4 1355.4,164.8 1351.7,156.5 C1351.4,156 1351.3,155.5 1351.1,154.5 L1354.1,154.5 C1367.1,154.5 1380.4,154.5 1393.6,154.3 C1395.6,154.3 1396.4,155 1397.2,156.8 L1424.2,223.6 L1431.5,241.2 C1431.7,241.9 1432.5,242.5 1433.1,243.2 C1433.7,242.5 1434.5,241.9 1434.8,241.2 L1471.4,158.7 C1473.2,154.3 1473.2,154.3 1478,154.3 L1515.1,154.3 L1515.6,154.3 Z M837.2,182.3 L837.2,152.3 L863,152.3 L863,110.3 L903.5,110.3 L903.5,152.3 L937.5,152.3 C939.7,152.3 940.5,152.8 940.5,155.1 C940.3,164.1 940.5,173.1 940.5,182.4 L937,182.4 C926.8,182.4 916.6,182.6 906.4,182.4 C904,182.4 903.4,183.2 903.4,185.4 L903.4,259 C903.4,267.7 907.7,272.4 916.6,272.7 C922.8,272.9 929.1,272 935.3,271.4 C938.7,271.1 938.7,271 939,274.4 C939.8,282.4 940.4,290.4 941.5,298.6 C941.8,301 941.1,302.3 939.1,302.8 C934.9,304 930.7,305.3 926.3,305.8 C916.3,307.3 906,307.8 895.9,305.8 C876.2,301.4 863.6,286.8 863.3,266.8 C862.9,240 863.1,213.3 863,186.6 C863,182.6 863,182.6 859,182.6 L837.3,182.6 L837.2,182.3 Z M810.5,303.3 L808,303.3 C796.3,303.3 784.7,303.3 773,303.5 C770.8,303.5 770,302.9 770,300.5 C770.2,252.7 770.2,205 770,157.2 C770,155 770.7,154.2 773,154.2 C784.7,154.4 796.4,154.4 808,154.2 C810.2,154.2 810.8,155 810.8,157 L810.8,301.2 C810.8,301.8 810.8,302.4 810.6,303.2 L810.5,303.3 Z M789.2,86.7 C799.7,87.3 807.2,90.7 811.9,99 C817.1,108.4 814.9,119 806.2,125.6 C796.5,133 782.2,132.6 773.2,124.6 C767.5,119.6 765.2,112.8 766.6,105.2 C768.3,97.2 773.4,91.5 781.1,88.7 C784.1,87.5 787.1,87.2 789.1,86.7 L789.2,86.7 Z" id="shape" fill="#0957CB" fill-rule="nonzero"></path>
    </g>
</svg>