<svg xmlns="http://www.w3.org/2000/svg" viewBox="0 0 1516 420">
  <defs/>
  <g fill="#fff" fill-rule="nonzero">
    <path d="M210 0a210 210 0 110 420 210 210 0 010-420zm43 105H131v120H77v47h80l-25 15v28h123l25-2c29-5 51-33 51-62 0-22-8-38-26-49v1l-6-4h-1l2-1 8-8c12-14 16-29 11-46-4-13-14-23-28-31-11-5-23-8-38-8zm10 79l-9 3-8 1h-67v-41h73c9 0 16 6 19 14 2 9-1 18-8 23zm-65 90h-19v-48h75c10 0 18 3 23 11 5 6 6 14 3 21-2 7-8 12-15 14l-12 2h-56 1zM703 193l10 5c17 10 25 26 25 45 0 28-22 54-50 58-8 2-16 2-24 2H542V104h119c13 0 26 2 38 8s22 15 26 29c5 16 1 30-10 42l-12 11v-1zm-117 74h76l13-1c16-4 23-24 13-38-7-8-15-11-25-11h-74c-3 0-3 1-3 3v47zm0-83h69l8-1c3 0 7-1 9-3 8-6 12-15 9-24-2-9-10-15-20-15l-73-1c-1 0-2 1-2 3v41zm383 120V104h118c13 0 26 2 38 8 16 7 26 19 28 37 2 13-3 24-11 34l-12 10 5 3c11 5 20 13 25 25 11 26 1 54-21 70-10 7-21 11-33 12H969v1zm44-37l2 1h74c6 0 11-1 17-4 15-7 17-29 5-39-7-6-14-8-22-8h-73l-3 1v50-1zm-1-83h70l8-1c16-3 23-19 15-32-4-7-10-10-18-10l-73-1c-2 0-2 1-2 3v41zm184-19l23-9c19-5 38-8 57-6 12 1 24 3 35 8 15 8 23 20 23 38v72a108 108 0 004 35h-37c-2 0-3 0-3-2l-3-15-9 8a66 66 0 01-42 13c-13 0-25-3-37-10a47 47 0 01-12-69c8-9 17-14 28-18 18-5 36-5 54 0l15 7 2 1v-15c-1-13-10-19-20-21-15-2-30 0-44 5l-22 8-12-30zm62 71h-9l-10 3c-11 4-16 15-11 25 4 9 11 12 20 13 17 1 31-4 43-15l2-4 1-8c0-3-1-5-4-6-10-6-20-8-32-8zm258-82l-12 24-57 122-31 65-2 2h-41l1-3 36-72v-5l-47-105-11-25-1-2h3l40-1c2 0 2 1 3 3l27 67 8 17 1 2 2-2 36-82c2-5 2-5 7-5h38zm-679 28v-30h26v-42h41v42h34c2 0 3 1 3 3v27h-35c-2 0-3 1-3 3v74c0 9 5 13 14 14l18-2c4 0 4 0 4 3l3 25c0 2-1 3-3 4l-13 3c-10 1-20 2-30 0-20-5-32-19-33-39v-80c0-4 0-4-4-4h-22v-1zm-26 121h-3l-35 1c-2 0-3-1-3-3V157c0-2 1-3 3-3h35c2 0 3 1 3 3v146zM789 87c11 0 18 4 23 12 5 9 3 20-6 27s-24 7-33-1c-5-5-8-12-6-20 1-8 6-13 14-16l8-2z"/>
  </g>
</svg>
