<svg fill="none" height="282" viewBox="0 0 509 282" width="509" xmlns="http://www.w3.org/2000/svg" xmlns:xlink="http://www.w3.org/1999/xlink"><clipPath id="a"><path d="m0 0h509v282h-509z"/></clipPath><g clip-path="url(#a)"><path d="m277.75 175.111c-18.832 75.537-95.338 121.507-170.883 102.67-75.5145-18.832-121.4849-95.342-102.64378-170.874 18.82348-75.5451 95.32918-121.5199 170.85278-102.68759 75.54 18.83229 121.506 95.35129 102.674 170.89159z" fill="#f7931a"/><path d="m203.152 120.915c2.807-18.762-11.478-28.8482-31.011-35.5765l6.336-25.4153-15.47-3.8555-6.169 24.7455c-4.067-1.0134-8.244-1.9696-12.395-2.9169l6.213-24.9085-15.461-3.8555-6.341 25.4064c-3.366-.7667-6.671-1.5245-9.879-2.3221l.018-.0793-21.3352-5.3271-4.1154 16.5234s11.4786 2.6305 11.2356 2.7936c6.266 1.5642 7.398 5.7105 7.209 8.9975l-7.217 28.9533c.431.11.991.269 1.608.516-.516-.128-1.067-.269-1.635-.406l-10.1167 40.56c-.7666 1.903-2.7098 4.759-7.0896 3.675.1542.224-11.2448-2.807-11.2448-2.807l-7.6801 17.709 20.1322 5.018c3.7453.939 7.4157 1.921 11.0288 2.847l-6.4022 25.706 15.4524 3.855 6.341-25.433c4.221 1.146 8.319 2.204 12.329 3.199l-6.319 25.314 15.47 3.856 6.403-25.658c26.38 4.992 46.217 2.979 54.567-20.881 6.728-19.211-.335-30.293-14.215-37.519 10.108-2.331 17.722-8.98 19.753-22.714zm-35.347 49.565c-4.78 19.212-37.127 8.826-47.614 6.222l8.496-34.056c10.487 2.617 44.115 7.799 39.118 27.834zm4.786-49.843c-4.363 17.475-31.285 8.597-40.018 6.42l7.702-30.888c8.733 2.1767 36.858 6.239 32.316 24.468z" fill="#fff"/><circle cx="367.983" cy="141.003" fill="#7b1af7" r="141"/><path d="m306.761 144.047 94-81.0004c4.096-2.6231 8 0 5.5 4.5l-30 59.0004h53.5s8.5 0 0 7l-92.5 81.5c-6.5 5.5-11 2.5-6.5-6l29-57.5h-53s-8.5 0 0-7.5z" fill="#fff"/></g></svg>