<svg xmlns="http://www.w3.org/2000/svg" viewBox="0 0 1262 205">
 <g fill="#fff">
    <path d="M108 4h118a8 8 0 01-2 4l-11 21-17 30-11 21h-73l-4 7-5 9c-1 4-4 7-6 11l-11 19-11 21a86 86 0 00-5 7l-23 41a16 16 0 01-2 4H5a20 20 0 00-5 1c0-4 2-7 4-10l7-12 47-86 11-19 13-24 5-9 18-32a18 18 0 013-4z"/>
    <path d="M244 46l24-41h43a9 9 0 011 0l-3 6-31 56-13 23v1l-60 108H87l7-14 34-61h72l44-78zM685 4v197h34V63l62 91 62-94v141h35V4h-37l-59 91-60-91zM525 55h22v148h-22zm-2-55h26v25h-26zm67 12h23v43h46v21h-46v87a21 21 0 003 10c4 8 14 17 43 6v19s-26 15-50 2c0 0-12-5-17-22a50 50 0 01-2-15V75l-20 1V55h20zm324-8v199h149v-32H951v-53h98V86h-99V36h112V4zm163 0h42l48 70 49-70h42l-69 97 73 101h-44l-50-74-53 74h-42l72-100zm-620 96s32-13 30-48c0 0 0-34-38-45a74 74 0 00-20-3h-92v198h99s58-2 63-53c0 0 4-37-42-50zm-96-75h59c46 0 44 32 44 32 1 37-41 37-41 37h-62zm72 156h-72v-69h69c46 0 44 32 44 32 1 38-41 37-41 37z"/>
  </g>
</svg>
