<?xml version="1.0" encoding="UTF-8"?>
<svg width="1516px" height="420px" viewBox="0 0 1516 420" version="1.1" xmlns="http://www.w3.org/2000/svg" xmlns:xlink="http://www.w3.org/1999/xlink">
    <!-- Generator: Sketch 59.1 (86144) - https://sketch.com -->
    <title>bitstamp</title>
    <desc>Created with Sketch.</desc>
    <g id="bitstamp" stroke="none" stroke-width="1" fill="none" fill-rule="evenodd">
        <g id="shape" transform="translate(0.000000, 39.000000)" fill="#0957CB" fill-rule="nonzero">
            <path d="M256.036,255.976471 L303.094,255.976471 L303.094,78.9176471 L256.036,78.9176471 L256.036,255.976471 Z M251.482,27.8235294 C251.482,19.7294118 254.012,13.1529412 259.578,7.58823529 C264.638,2.52941176 271.722,0 279.818,0 C288.42,0 294.998,2.52941176 300.058,7.58823529 C305.118,12.6470588 308.154,19.2235294 308.154,27.8235294 C308.154,35.9176471 305.624,42.4941176 300.058,48.0588235 C294.998,53.1176471 287.914,55.6470588 279.818,55.6470588 C271.722,55.6470588 265.144,53.1176471 259.578,48.0588235 C254.012,43 251.482,35.9176471 251.482,27.8235294 Z" id="Shape"></path>
            <path d="M411.378,78.4117647 L459.448,78.4117647 L459.448,113.823529 L411.378,113.823529 L411.378,198.811765 C411.378,206.4 413.402,212.470588 417.956,217.023529 C422.51,221.576471 428.076,224.105882 435.666,224.105882 C442.244,224.105882 449.834,223.094118 457.93,221.070588 L464.002,255.976471 C450.34,259.517647 437.184,261.541176 424.534,261.541176 C415.932,261.541176 407.836,260.023529 400.752,257.494118 C393.668,254.964706 387.596,250.917647 382.03,245.858824 C376.97,240.8 372.922,234.729412 369.886,227.647059 C366.85,220.564706 365.838,212.976471 365.838,204.376471 L365.838,114.835294 L333.454,114.835294 L333.454,79.4235294 L365.838,79.4235294 L365.838,27.3176471 L410.872,27.3176471 L410.872,78.4117647 L411.378,78.4117647 Z" id="Path"></path>
            <path d="M487.278,127.482353 C487.278,119.894118 488.796,112.305882 492.338,105.729412 C495.88,99.1529412 500.434,93.5882353 506,88.5294118 C512.072,83.9764706 519.156,79.9294118 527.252,77.4 C535.348,74.8705882 544.962,73.3529412 554.576,73.3529412 C564.696,73.3529412 575.322,74.3647059 585.948,76.3882353 C596.574,78.4117647 607.706,81.4470588 618.838,85.4941176 L608.718,118.882353 C600.116,115.341176 591.514,112.811765 582.912,110.788235 C574.31,108.764706 566.214,107.752941 558.624,107.752941 C550.528,107.752941 543.95,109.270588 538.89,112.811765 C533.83,116.352941 531.806,120.905882 531.806,126.976471 C531.806,132.541176 534.336,136.588235 538.89,139.117647 C543.444,141.647059 549.01,144.176471 556.094,146.2 C563.178,148.223529 570.262,150.247059 578.358,151.764706 C586.454,153.788235 594.044,156.823529 600.622,160.870588 C607.706,164.917647 613.272,170.482353 617.826,177.058824 C622.38,184.141176 624.91,193.247059 624.91,204.376471 C624.91,212.470588 623.392,219.552941 619.85,226.635294 C616.308,233.211765 611.754,239.282353 605.682,244.341176 C599.61,249.4 592.526,252.941176 583.418,255.976471 C574.816,258.505882 565.202,260.023529 555.082,260.023529 C533.324,260.023529 510.048,255.470588 485.76,245.858824 L495.374,212.976471 C516.12,221.576471 534.842,225.623529 551.54,225.623529 C560.142,225.623529 567.226,223.6 572.286,220.058824 C577.346,216.517647 579.876,211.458824 579.876,204.882353 C579.876,199.317647 577.346,195.270588 572.792,192.235294 C568.238,189.2 562.672,186.670588 555.588,184.647059 C548.504,182.623529 541.42,180.6 533.324,178.576471 C525.228,176.552941 518.144,173.517647 511.06,169.470588 C503.976,165.423529 498.41,160.364706 493.856,153.788235 C489.302,147.717647 487.278,138.611765 487.278,127.482353" id="Path"></path>
            <path d="M719.532,78.4117647 L767.602,78.4117647 L767.602,113.823529 L719.532,113.823529 L719.532,198.811765 C719.532,206.4 721.556,212.470588 726.11,217.023529 C730.664,221.576471 736.23,224.105882 743.82,224.105882 C750.398,224.105882 757.988,223.094118 766.084,221.070588 L772.156,255.976471 C758.494,259.517647 745.338,261.541176 732.688,261.541176 C724.086,261.541176 715.99,260.023529 708.906,257.494118 C701.822,254.964706 695.75,250.917647 690.184,245.858824 C684.618,240.8 681.076,234.729412 678.04,227.647059 C675.004,220.564706 673.992,212.976471 673.992,204.376471 L673.992,114.835294 L641.608,114.835294 L641.608,79.4235294 L673.992,79.4235294 L673.992,27.3176471 L719.026,27.3176471 L719.026,78.4117647 L719.532,78.4117647 Z" id="Path"></path>
            <path d="M841.984,201.847059 C841.984,208.929412 845.02,215 850.586,220.058824 C856.658,225.117647 863.742,227.647059 872.344,227.647059 C884.488,227.647059 894.102,223.6 901.692,216.011765 C909.282,208.423529 912.824,198.305882 912.824,186.164706 L912.824,175.541176 C904.222,173.011765 894.608,172 883.982,172 C870.826,172 860.706,174.529412 853.116,180.094118 C846.032,185.152941 841.984,192.741176 841.984,201.847059 M797.962,204.376471 C797.962,185.658824 805.046,170.988235 819.214,160.870588 C833.382,150.752941 853.116,145.694118 878.922,145.694118 C884.488,145.694118 890.054,146.2 895.62,146.705882 C901.186,147.211765 907.258,148.223529 912.824,149.235294 L912.824,139.623529 C912.824,130.517647 909.788,122.929412 903.21,117.364706 C896.632,111.8 888.03,108.764706 876.898,108.764706 C859.188,108.764706 839.96,112.811765 819.214,121.411765 L807.576,89.0352941 C832.876,78.9176471 857.67,74.3647059 881.958,74.3647059 C893.09,74.3647059 902.704,75.8823529 911.812,79.4235294 C920.92,82.4588235 928.51,87.0117647 935.088,93.0823529 C941.666,98.6470588 946.726,105.729412 950.268,113.823529 C953.81,121.917647 955.834,131.023529 955.834,140.635294 L955.834,212.976471 C955.834,217.023529 956.846,220.058824 958.87,222.082353 C960.894,224.611765 963.93,225.623529 967.978,225.623529 C970.002,225.623529 971.52,225.623529 973.544,225.117647 C975.062,225.117647 976.58,224.611765 977.086,224.611765 L980.122,258.505882 C976.074,259.011765 972.532,260.023529 968.484,260.529412 C964.436,261.035294 960.388,261.035294 955.834,261.035294 C946.726,261.035294 939.136,259.011765 932.558,254.458824 C925.98,250.411765 921.426,244.341176 918.39,236.752941 C910.8,244.341176 901.692,250.411765 892.078,254.458824 C881.958,258.505882 871.838,260.529412 860.706,260.529412 C851.598,260.529412 842.996,259.011765 835.406,256.482353 C827.816,253.952941 821.238,249.905882 815.672,244.847059 C810.106,239.788235 806.058,234.223529 803.022,227.141176 C799.48,220.058824 797.962,212.470588 797.962,204.376471" id="Shape"></path>
            <path d="M1006.434,77.9058824 L1042.866,77.9058824 L1048.432,102.188235 C1055.516,93.0823529 1063.612,86 1073.732,80.9411765 C1083.852,75.8823529 1094.478,73.3529412 1106.116,73.3529412 C1119.272,73.3529412 1130.404,76.3882353 1140.524,81.9529412 C1150.138,87.5176471 1157.728,95.6117647 1162.788,105.729412 C1170.884,95.1058824 1180.498,87.0117647 1191.124,81.4470588 C1201.75,75.8823529 1213.388,73.3529412 1226.544,73.3529412 C1236.158,73.3529412 1244.76,74.8705882 1252.856,77.9058824 C1260.952,80.9411765 1268.036,85.4941176 1273.602,91.5647059 C1279.674,97.1294118 1284.228,104.211765 1287.264,112.305882 C1290.3,120.4 1292.324,129 1292.324,138.611765 L1292.324,255.976471 L1246.278,255.976471 L1246.278,146.2 C1246.278,136.082353 1243.242,127.988235 1236.664,121.411765 C1230.086,115.341176 1221.99,111.8 1211.87,111.8 C1200.232,111.8 1190.618,115.847059 1183.028,123.941176 C1175.438,132.035294 1171.896,142.152941 1171.896,155.305882 L1171.896,255.976471 L1125.85,255.976471 L1125.85,146.2 C1125.85,136.082353 1122.814,127.988235 1116.742,121.411765 C1110.67,115.341176 1102.574,111.8 1092.454,111.8 C1080.31,111.8 1070.696,115.847059 1063.106,123.941176 C1055.516,132.035294 1051.974,142.152941 1051.974,155.305882 L1051.974,255.976471 L1005.928,255.976471 L1005.928,77.9058824 L1006.434,77.9058824 Z" id="Path"></path>
            <path d="M1467.4,166.435294 C1467.4,158.341176 1466.388,150.752941 1463.858,143.670588 C1461.834,136.588235 1458.292,130.517647 1454.244,125.964706 C1450.196,120.905882 1445.642,117.364706 1440.076,114.329412 C1434.51,111.294118 1428.438,110.282353 1421.86,110.282353 C1409.716,110.282353 1400.102,114.329412 1392.006,122.929412 C1384.416,131.023529 1380.368,141.647059 1380.368,154.8 L1380.368,178.576471 C1380.368,185.152941 1381.38,191.223529 1383.404,196.282353 C1385.428,201.847059 1388.464,206.4 1392.006,210.447059 C1395.548,214.494118 1400.102,217.529412 1405.162,219.552941 C1410.222,221.576471 1415.788,222.588235 1421.86,222.588235 C1428.438,222.588235 1434.51,221.070588 1440.076,218.541176 C1445.642,216.011765 1450.196,211.964706 1454.244,206.905882 C1458.292,201.847059 1461.328,195.776471 1463.858,189.2 C1466.388,182.623529 1467.4,174.529412 1467.4,166.435294 Z M1335.84,77.9058824 L1372.272,77.9058824 L1377.838,100.670588 C1384.416,92.0705882 1392.006,85.4941176 1401.62,80.4352941 C1411.234,75.8823529 1421.86,73.3529412 1433.498,73.3529412 C1445.136,73.3529412 1455.762,75.8823529 1465.882,80.4352941 C1475.496,84.9882353 1484.098,91.5647059 1491.182,99.6588235 C1498.266,107.752941 1503.832,117.364706 1507.88,129 C1511.928,140.129412 1513.952,152.776471 1513.952,166.435294 C1513.952,180.094118 1511.928,192.741176 1507.88,203.870588 C1503.832,215 1498.266,225.117647 1491.182,233.211765 C1484.098,241.305882 1475.496,247.882353 1465.882,252.435294 C1456.268,256.988235 1445.136,259.517647 1433.498,259.517647 C1422.872,259.517647 1412.752,257.494118 1404.15,253.447059 C1395.042,249.4 1387.452,243.329412 1381.38,235.235294 L1381.38,342.988235 L1335.84,342.988235 L1335.84,77.9058824 L1335.84,77.9058824 Z" id="Shape"></path>
            <path d="M154.836,210.447059 C147.752,217.529412 138.138,220.564706 125.994,220.564706 L69.322,220.564706 L69.322,147.211765 L125.994,147.211765 C137.632,147.211765 147.246,150.752941 154.836,157.329412 C161.92,163.905882 165.462,173.011765 165.462,183.635294 C165.968,194.764706 162.426,203.870588 154.836,210.447059 Z M69.322,48.0588235 L121.44,48.0588235 C132.066,48.0588235 140.668,51.0941176 147.752,57.6705882 C154.836,63.7411765 157.872,72.3411765 157.872,82.4588235 C157.872,92.5764706 154.33,100.670588 147.752,106.741176 C140.668,112.811765 132.066,115.847059 121.44,115.847059 L69.322,115.847059 L69.322,48.0588235 Z M201.388,151.764706 C193.798,141.141176 183.678,133.552941 171.028,129 C181.148,124.447059 188.738,117.870588 194.81,108.764706 C200.882,99.6588235 203.918,89.0352941 203.918,76.8941176 C203.918,67.2823529 201.894,58.6823529 198.352,51.0941176 C194.81,43 189.244,36.4235294 182.666,30.8588235 C176.088,25.2941176 167.992,20.7411765 158.884,17.7058824 C149.776,14.6705882 139.656,13.1529412 128.524,13.1529412 L0,13.1529412 L0,45.5294118 L0,45.5294118 C19.734,45.5294118 35.42,61.7176471 35.42,81.4470588 C35.42,101.176471 19.734,117.364706 0,117.364706 L0,146.705882 L0,146.705882 C19.734,146.705882 35.42,162.894118 35.42,182.623529 L35.42,188.188235 C35.42,207.917647 19.734,224.105882 0,224.105882 L0,224.105882 L0,256.482353 L134.09,256.482353 C145.728,256.482353 155.848,254.964706 165.462,251.423529 C175.076,248.388235 183.172,243.835294 190.256,237.764706 C197.34,231.694118 202.906,224.611765 206.448,216.517647 C210.496,208.423529 212.52,199.317647 212.52,189.2 C212.52,174.529412 208.978,162.388235 201.388,151.764706 Z" id="Shape"></path>
            <polygon id="Fill-10" points="0 342.5 1314.082 342.5 1314.082 308.5 0 308.5"></polygon>
            <polygon id="Fill-11" points="1405.162 342.5 1518 342.5 1518 308.5 1405.162 308.5"></polygon>
        </g>
    </g>
</svg>