<?xml version="1.0" encoding="UTF-8"?>
<svg width="420px" height="140px" viewBox="0 0 420 140" version="1.1" xmlns="http://www.w3.org/2000/svg" xmlns:xlink="http://www.w3.org/1999/xlink">
    <!-- Generator: Sketch 59.1 (86144) - https://sketch.com -->
    <title>lineart_track_it</title>
    <desc>Created with Sketch.</desc>
    <g id="lineart_track_it" stroke="none" stroke-width="1" fill="none" fill-rule="evenodd">
        <polyline id="Path-8" stroke="#FFFFFF" stroke-linecap="round" stroke-linejoin="round" points="11.5 136.071828 30 131.720802 50 134.942906 70 129.136741 90 113 110 124.022234 130 107 150 103 170 82 190 86 210 103 230 88 250 92 270 71 290 48 310 61 330 41 350 45.963451 370 39 390 43 408 3"></polyline>
        <circle id="Oval" stroke="#FFFFFE" fill="#0957CB" cx="90" cy="113" r="1"></circle>
        <circle id="Oval" stroke="#FFFFFE" fill="#0957CB" cx="70" cy="129" r="1"></circle>
        <circle id="Oval" stroke="#FFFFFE" fill="#0957CB" cx="50" cy="135" r="1"></circle>
        <circle id="Oval" stroke="#FFFFFE" fill="#0957CB" cx="30" cy="132" r="1"></circle>
        <circle id="Oval" stroke="#FFFFFE" fill="#0957CB" cx="12" cy="136" r="1"></circle>
        <circle id="Oval" fill="#28A745" cx="12" cy="136" r="1"></circle>
        <circle id="Oval" fill="#28A745" cx="30" cy="134.4" r="1"></circle>
        <circle id="Oval" fill="#28A745" cx="50" cy="132.6" r="1"></circle>
        <circle id="Oval" fill="#28A745" cx="70" cy="130.9" r="1"></circle>
        <circle id="Oval" fill="#28A745" cx="90" cy="129.1" r="1"></circle>
        <circle id="Oval" fill="#28A745" cx="110" cy="127.4" r="1"></circle>
        <circle id="Oval" fill="#28A745" cx="130" cy="125.7" r="1"></circle>
        <circle id="Oval" fill="#28A745" cx="150" cy="123.9" r="1"></circle>
        <circle id="Oval" fill="#28A745" cx="170" cy="122.2" r="1"></circle>
        <circle id="Oval" fill="#28A745" cx="190" cy="120.4" r="1"></circle>
        <circle id="Oval" fill="#28A745" cx="210" cy="118.7" r="1"></circle>
        <circle id="Oval" fill="#28A745" cx="230" cy="117" r="1"></circle>
        <circle id="Oval" fill="#28A745" cx="250" cy="115" r="1"></circle>
        <circle id="Oval" fill="#28A745" cx="270" cy="113.4" r="1"></circle>
        <circle id="Oval" fill="#28A745" cx="290" cy="111.7" r="1"></circle>
        <circle id="Oval" fill="#28A745" cx="310" cy="110" r="1"></circle>
        <circle id="Oval" fill="#28A745" cx="330" cy="108.2" r="1"></circle>
        <circle id="Oval" fill="#28A745" cx="282" cy="131" r="1"></circle>
        <circle id="Oval" fill="#28A745" cx="350" cy="106.5" r="1"></circle>
        <circle id="Oval" fill="#28A745" cx="370" cy="104.8" r="1"></circle>
        <circle id="Oval" fill="#28A745" cx="390" cy="102.9" r="1"></circle>
        <circle id="Oval" fill="#28A745" cx="408" cy="101.4" r="1"></circle>
        <circle id="Oval" stroke="#FFFFFE" fill="#0957CB" cx="110" cy="124" r="1"></circle>
        <circle id="Oval" stroke="#FFFFFE" fill="#0957CB" cx="130" cy="107" r="1"></circle>
        <circle id="Oval" stroke="#FFFFFE" fill="#0957CB" cx="150" cy="103" r="1"></circle>
        <circle id="Oval" stroke="#FFFFFE" fill="#0957CB" cx="170" cy="82" r="1"></circle>
        <circle id="Oval" stroke="#FFFFFE" fill="#0957CB" cx="190" cy="86" r="1"></circle>
        <circle id="Oval" stroke="#FFFFFE" fill="#0957CB" cx="210" cy="103" r="1"></circle>
        <circle id="Oval" stroke="#FFFFFE" fill="#0957CB" cx="230" cy="88" r="1"></circle>
        <circle id="Oval" stroke="#FFFFFE" fill="#0957CB" cx="250" cy="92" r="1"></circle>
        <circle id="Oval" stroke="#FFFFFE" fill="#0957CB" cx="270" cy="71" r="1"></circle>
        <circle id="Oval" stroke="#FFFFFE" fill="#0957CB" cx="290" cy="48" r="1"></circle>
        <circle id="Oval" stroke="#FFFFFE" fill="#0957CB" cx="310" cy="61" r="1"></circle>
        <circle id="Oval" stroke="#FFFFFE" fill="#0957CB" cx="330" cy="41" r="1"></circle>
        <circle id="Oval" stroke="#FFFFFE" fill="#0957CB" cx="350" cy="46" r="1"></circle>
        <circle id="Oval" stroke="#FFFFFE" fill="#0957CB" cx="370" cy="39" r="1"></circle>
        <circle id="Oval" stroke="#FFFFFE" fill="#0957CB" cx="390" cy="43" r="1"></circle>
        <circle id="Oval" stroke="#FFFFFE" fill="#0957CB" cx="408" cy="3" r="1"></circle>
        <line x1="11.5" y1="136" x2="407.5" y2="101.5" id="Line" stroke="#28A745" stroke-linecap="round" stroke-linejoin="round"></line>
        <text id="Portfolio-Value" font-family="VarelaRound-Regular, Varela Round" font-size="6" font-weight="normal" fill="#FFFFFE">
            <tspan x="365.757" y="133">Portfolio Value</tspan>
        </text>
        <text id="Total-Invested" font-family="VarelaRound-Regular, Varela Round" font-size="6" font-weight="normal" fill="#FFFFFE">
            <tspan x="286.843" y="133">Total Invested</tspan>
        </text>
        <line x1="361.5" y1="131" x2="353.5" y2="131" id="Line-2" stroke="#FFFFFE" stroke-linecap="round" stroke-linejoin="round"></line>
        <circle id="Oval" stroke="#FFFFFE" fill="#0957CB" cx="362" cy="131" r="1"></circle>
        <line x1="281.5" y1="131" x2="273.5" y2="131" id="Line-2" stroke="#28A745" stroke-linecap="round" stroke-linejoin="round"></line>
    </g>
</svg>