<?xml version="1.0" encoding="UTF-8"?>
<svg width="410px" height="160px" viewBox="0 0 410 160" version="1.1" xmlns="http://www.w3.org/2000/svg" xmlns:xlink="http://www.w3.org/1999/xlink">
    <!-- Generator: Sketch 59.1 (86144) - https://sketch.com -->
    <title>chart</title>
    <desc>Created with Sketch.</desc>
    <g id="chart" stroke="none" stroke-width="1" fill="none" fill-rule="evenodd">
        <path d="M35.5,83.25 L35,143.75 M35.5,134.5 L36.4437386,134.5 L37.5,134.5" id="Line-7" stroke-opacity="0.304632867" stroke="#FFFFFF" stroke-width="1.5" stroke-linecap="round" stroke-linejoin="round"></path>
        <path d="M15.5,111.5 L15.5,125.5 M15.5,118.5 L16.4437386,118.5 L17.5,118.5" id="Line-5" stroke-opacity="0.304632867" stroke="#FFFFFF" stroke-width="1.5" stroke-linecap="round" stroke-linejoin="round"></path>
        <path d="M5.5,118.5 L5.5,154.5 M5.5,122.5 L6.4437386,122.5 L7.5,122.5" id="Line-4" stroke-opacity="0.304632867" stroke="#FFFFFF" stroke-width="1.5" stroke-linecap="round" stroke-linejoin="round"></path>
        <path d="M115.5,129.5 L116.443739,129.5 L117.5,129.5 M115.5,115.5 L115.5,136.5" id="Line-15" stroke-opacity="0.304632867" stroke="#FFFFFF" stroke-width="1.5" stroke-linecap="round" stroke-linejoin="round"></path>
        <path d="M145.5,106.5 L146.443739,106.5 L147.5,106.5 M145.5,87.5 L145.5,111.5" id="Line-18" stroke-opacity="0.304632867" stroke="#FFFFFF" stroke-width="1.5" stroke-linecap="round" stroke-linejoin="round"></path>
        <path d="M155.5,99.5 L156.443739,99.5 L157.5,99.5 M155.5,88.5 L155.5,124.5" id="Line-19" stroke-opacity="0.304632867" stroke="#FFFFFF" stroke-width="1.5" stroke-linecap="round" stroke-linejoin="round"></path>
        <path d="M175.5,89.5 L176.443739,89.5 L177.5,89.5 M175.5,66.5 L175.5,91.5" id="Line-21" stroke-opacity="0.304632867" stroke="#FFFFFF" stroke-width="1.5" stroke-linecap="round" stroke-linejoin="round"></path>
        <path d="M185.5,111.5 L186.443739,111.5 L187.5,111.5 M185.5,85.5 L185.5,114.5" id="Line-22" stroke-opacity="0.304632867" stroke="#FFFFFF" stroke-width="1.5" stroke-linecap="round" stroke-linejoin="round"></path>
        <path d="M195.5,123.5 L196.443739,123.5 L197.5,123.5 M195.5,109.5 L195.5,131.5" id="Line-23" stroke-opacity="0.304632867" stroke="#FFFFFF" stroke-width="1.5" stroke-linecap="round" stroke-linejoin="round"></path>
        <path d="M215.5,115.5 L216.443739,115.5 L217.5,115.5 M215,109 L215,128" id="Line-25" stroke-opacity="0.304632867" stroke="#FFFFFF" stroke-width="1.5" stroke-linecap="round" stroke-linejoin="round"></path>
        <path d="M235.5,110.5 L236.443739,110.5 L237.5,110.5 M235.5,90.5 L235.5,138.5" id="Line-27" stroke-opacity="0.304632867" stroke="#FFFFFF" stroke-width="1.5" stroke-linecap="round" stroke-linejoin="round"></path>
        <path d="M385.5,72.5 L386.443739,72.5 L387.5,72.5 M385.5,58.5 L385.5,91.5" id="Line-42" stroke-opacity="0.304632867" stroke="#FFFFFF" stroke-width="1.5" stroke-linecap="round" stroke-linejoin="round"></path>
        <path d="M395.5,42.5 L396.443739,42.5 L397.5,42.5 M395.5,37.5 L395.5,73.5" id="Line-43" stroke-opacity="0.304632867" stroke="#FFFFFF" stroke-width="1.5" stroke-linecap="round" stroke-linejoin="round"></path>
        <path d="M405.5,12.5 L406.443739,12.5 L407.5,12.5 M405.5,2.5 L405.5,43.5" id="Line-44" stroke-opacity="0.304632867" stroke="#FFFFFF" stroke-width="1.5" stroke-linecap="round" stroke-linejoin="round"></path>
        <path d="M165.5,83.5 L165.5,100.5 M165.5,89.5 L166.443739,89.5 L167.5,89.5" id="Line-20" stroke-opacity="0.304632867" stroke="#FFFFFF" stroke-width="1.5" stroke-linecap="round" stroke-linejoin="round"></path>
        <path d="M25.5,93.5 L25.5,120.5 M25.5,114.5 L26.4437386,114.5 L27.5,114.5" id="Line-6" stroke-opacity="0.304632867" stroke="#FFFFFF" stroke-width="1.5" stroke-linecap="round" stroke-linejoin="round"></path>
        <path d="M125.5,100 L125.5,133 M125.5,123.5 L126.443739,123.5 L127.5,123.5" id="Line-16" stroke-opacity="0.304632867" stroke="#FFFFFF" stroke-width="1.5" stroke-linecap="round" stroke-linejoin="round"></path>
        <path d="M105.5,125.5 L105.5,158.5 M105.5,133.5 L106.443739,133.5 L107.5,133.5" id="Line-14" stroke-opacity="0.304632867" stroke="#FFFFFF" stroke-width="1.5" stroke-linecap="round" stroke-linejoin="round"></path>
        <path d="M95.5,108.5 L95.5,128.5 M95.5,126.5 L96.4437386,126.5 L97.5,126.5" id="Line-13" stroke-opacity="0.304632867" stroke="#FFFFFF" stroke-width="1.5" stroke-linecap="round" stroke-linejoin="round"></path>
        <path d="M85.5,91.5 L85.5,139.5 M85.5,126.5 L86.4437386,126.5 L87.5,126.5" id="Line-12" stroke-opacity="0.304632867" stroke="#FFFFFF" stroke-width="1.5" stroke-linecap="round" stroke-linejoin="round"></path>
        <path d="M75.5,115.5 L75.5,138.5 M75.5,131.5 L76.4437386,131.5 L77.5,131.5" id="Line-11" stroke-opacity="0.304632867" stroke="#FFFFFF" stroke-width="1.5" stroke-linecap="round" stroke-linejoin="round"></path>
        <path d="M65,113 L65,132 M65.5,121.5 L66.4437386,121.5 L67.5,121.5" id="Line-10" stroke-opacity="0.304632867" stroke="#FFFFFF" stroke-width="1.5" stroke-linecap="round" stroke-linejoin="round"></path>
        <path d="M55.5,119 L55.5,135 M55.5,128.5 L56.4437386,128.5 L57.5,128.5" id="Line-9" stroke-opacity="0.304632867" stroke="#FFFFFF" stroke-width="1.5" stroke-linecap="round" stroke-linejoin="round"></path>
        <path d="M45.5,114.5 L45.5,136.5 M45.5,124.5 L46.4437386,124.5 L47.5,124.5" id="Line-8" stroke-opacity="0.304632867" stroke="#FFFFFF" stroke-width="1.5" stroke-linecap="round" stroke-linejoin="round"></path>
        <path d="M135.5,107.5 L135.5,130 M135.5,109.5 L136.443739,109.5 L137.5,109.5" id="Line-17" stroke-opacity="0.304632867" stroke="#FFFFFF" stroke-width="1.5" stroke-linecap="round" stroke-linejoin="round"></path>
        <path d="M225.5,95 L225.5,118 M225.5,111.5 L226.443739,111.5 L227.5,111.5" id="Line-26" stroke-opacity="0.304632867" stroke="#FFFFFF" stroke-width="1.5" stroke-linecap="round" stroke-linejoin="round"></path>
        <path d="M255.5,100 L255.5,131 M255.5,106.5 L256.443739,106.5 L257.5,106.5" id="Line-29" stroke-opacity="0.304632867" stroke="#FFFFFF" stroke-width="1.5" stroke-linecap="round" stroke-linejoin="round"></path>
        <path d="M245.5,109 L245.5,129 M245.5,120.5 L246.443739,120.5 L247.5,120.5" id="Line-28" stroke-opacity="0.304632867" stroke="#FFFFFF" stroke-width="1.5" stroke-linecap="round" stroke-linejoin="round"></path>
        <path d="M265.5,87 L265.5,108 M265.5,87.5 L266.443739,87.5 L267.5,87.5" id="Line-30" stroke-opacity="0.304632867" stroke="#FFFFFF" stroke-width="1.5" stroke-linecap="round" stroke-linejoin="round"></path>
        <path d="M275.5,69 L275.5,102 M275.5,69.5 L276.443739,69.5 L277.5,69.5" id="Line-31" stroke-opacity="0.304632867" stroke="#FFFFFF" stroke-width="1.5" stroke-linecap="round" stroke-linejoin="round"></path>
        <path d="M205.5,121 L205.5,154.5 M205.5,126.5 L206.443739,126.5 L207.5,126.5" id="Line-24" stroke-opacity="0.304632867" stroke="#FFFFFF" stroke-width="1.5" stroke-linecap="round" stroke-linejoin="round"></path>
        <path d="M285.5,43.5 L285.5,80 M285.5,73.5 L286.443739,73.5 L287.5,73.5" id="Line-32" stroke-opacity="0.304632867" stroke="#FFFFFF" stroke-width="1.5" stroke-linecap="round" stroke-linejoin="round"></path>
        <path d="M305.5,87.5 L305.5,118.5 M305.5,87.5 L306.443739,87.5 L307.5,87.5" id="Line-34" stroke-opacity="0.304632867" stroke="#FFFFFF" stroke-width="1.5" stroke-linecap="round" stroke-linejoin="round"></path>
        <path d="M295.5,67.5 L295.5,91.5 M295.5,87.5 L296.443739,87.5 L297.5,87.5" id="Line-33" stroke-opacity="0.304632867" stroke="#FFFFFF" stroke-width="1.5" stroke-linecap="round" stroke-linejoin="round"></path>
        <path d="M315.5,77.5 L315.5,88.5 M315.5,77.5 L316.443739,77.5 L317.5,77.5" id="Line-35" stroke-opacity="0.304632867" stroke="#FFFFFF" stroke-width="1.5" stroke-linecap="round" stroke-linejoin="round"></path>
        <path d="M325.5,47.5 L325.5,78.5 M325.5,67.5 L326.443739,67.5 L327.5,67.5" id="Line-36" stroke-opacity="0.304632867" stroke="#FFFFFF" stroke-width="1.5" stroke-linecap="round" stroke-linejoin="round"></path>
        <path d="M335.5,67.5 L335.5,87.5 M335.5,77.5 L336.443739,77.5 L337.5,77.5" id="Line-37" stroke-opacity="0.304632867" stroke="#FFFFFF" stroke-width="1.5" stroke-linecap="round" stroke-linejoin="round"></path>
        <path d="M345.5,77.5 L345.5,108.5 M345.5,83.5 L346.443739,83.5 L347.5,83.5" id="Line-38" stroke-opacity="0.304632867" stroke="#FFFFFF" stroke-width="1.5" stroke-linecap="round" stroke-linejoin="round"></path>
        <path d="M355.5,67.5 L355.5,88.5 M355.5,67.5 L356.443739,67.5 L357.5,67.5" id="Line-39" stroke-opacity="0.304632867" stroke="#FFFFFF" stroke-width="1.5" stroke-linecap="round" stroke-linejoin="round"></path>
        <path d="M365.5,37.5 L365.5,68.5 M365.5,55.5 L366.443739,55.5 L367.5,55.5" id="Line-40" stroke-opacity="0.304632867" stroke="#FFFFFF" stroke-width="1.5" stroke-linecap="round" stroke-linejoin="round"></path>
        <path d="M375.5,53.5 L375.5,78.5 M375.5,65.5 L376.443739,65.5 L377.5,65.5" id="Line-41" stroke-opacity="0.304632867" stroke="#FFFFFF" stroke-width="1.5" stroke-linecap="round" stroke-linejoin="round"></path>
        <polyline id="Path-8" stroke="#FFFFFF" stroke-width="1.5" stroke-linecap="round" stroke-linejoin="round" points="6.5 156.571828 25 152.220802 45 155.442906 65 149.636741 85 133.5 105 144.522234 125 127.5 145 123.5 165 102.5 185 106.5 205 123.5 225 108.5 245 112.5 265 91.5 285 68.5 305 81.5 325 61.5 345 66.463451 365 59.5 385 63.5 405 24.5"></polyline>
        <circle id="Oval" stroke="#FFFFFE" stroke-width="1.5" fill="#0957CB" cx="85.5" cy="133.5" r="1.5"></circle>
        <circle id="Oval" stroke="#FFFFFE" stroke-width="1.5" fill="#0957CB" cx="65.5" cy="149.5" r="1.5"></circle>
        <circle id="Oval" stroke="#FFFFFE" stroke-width="1.5" fill="#0957CB" cx="45.5" cy="155.5" r="1.5"></circle>
        <circle id="Oval" stroke="#FFFFFE" stroke-width="1.5" fill="#0957CB" cx="25.5" cy="152.5" r="1.5"></circle>
        <circle id="Oval" stroke="#FFFFFE" stroke-width="1.5" fill="#0957CB" cx="5.5" cy="156.5" r="1.5"></circle>
        <circle id="Oval" stroke="#FFFFFE" stroke-width="1.5" fill="#0957CB" cx="105.5" cy="144.5" r="1.5"></circle>
        <circle id="Oval" stroke="#FFFFFE" stroke-width="1.5" fill="#0957CB" cx="125.5" cy="127.5" r="1.5"></circle>
        <circle id="Oval" stroke="#FFFFFE" stroke-width="1.5" fill="#0957CB" cx="145.5" cy="123.5" r="1.5"></circle>
        <circle id="Oval" stroke="#FFFFFE" stroke-width="1.5" fill="#0957CB" cx="165.5" cy="102.5" r="1.5"></circle>
        <circle id="Oval" stroke="#FFFFFE" stroke-width="1.5" fill="#0957CB" cx="185.5" cy="106.5" r="1.5"></circle>
        <circle id="Oval" stroke="#FFFFFE" stroke-width="1.5" fill="#0957CB" cx="205.5" cy="123.5" r="1.5"></circle>
        <circle id="Oval" stroke="#FFFFFE" stroke-width="1.5" fill="#0957CB" cx="225.5" cy="108.5" r="1.5"></circle>
        <circle id="Oval" stroke="#FFFFFE" stroke-width="1.5" fill="#0957CB" cx="245.5" cy="112.5" r="1.5"></circle>
        <circle id="Oval" stroke="#FFFFFE" stroke-width="1.5" fill="#0957CB" cx="265.5" cy="91.5" r="1.5"></circle>
        <circle id="Oval" stroke="#FFFFFE" stroke-width="1.5" fill="#0957CB" cx="285.5" cy="68.5" r="1.5"></circle>
        <circle id="Oval" stroke="#FFFFFE" stroke-width="1.5" fill="#0957CB" cx="305.5" cy="81.5" r="1.5"></circle>
        <circle id="Oval" stroke="#FFFFFE" stroke-width="1.5" fill="#0957CB" cx="325.5" cy="61.5" r="1.5"></circle>
        <circle id="Oval" stroke="#FFFFFE" stroke-width="1.5" fill="#0957CB" cx="345.5" cy="66.5" r="1.5"></circle>
        <circle id="Oval" stroke="#FFFFFE" stroke-width="1.5" fill="#0957CB" cx="365.5" cy="59.5" r="1.5"></circle>
        <circle id="Oval" stroke="#FFFFFE" stroke-width="1.5" fill="#0957CB" cx="385.5" cy="63.5" r="1.5"></circle>
        <circle id="Oval" stroke="#FFFFFE" stroke-width="1.5" fill="#0957CB" cx="405.5" cy="24.5" r="1.5"></circle>
        <g id="Group" transform="translate(4.000000, 120.400000)" fill="#34CE57">
            <circle id="Oval" cx="1.5" cy="36.1" r="1.5"></circle>
            <circle id="Oval" cx="21.5" cy="34.5" r="1.5"></circle>
            <circle id="Oval" cx="41.5" cy="32.7" r="1.5"></circle>
            <circle id="Oval" cx="61.5" cy="31" r="1.5"></circle>
            <circle id="Oval" cx="81.5" cy="29.2" r="1.5"></circle>
            <circle id="Oval" cx="101.5" cy="27.5" r="1.5"></circle>
            <circle id="Oval" cx="121.5" cy="25.8" r="1.5"></circle>
            <circle id="Oval" cx="141.5" cy="24" r="1.5"></circle>
            <circle id="Oval" cx="161.5" cy="22.3" r="1.5"></circle>
            <circle id="Oval" cx="181.5" cy="20.5" r="1.5"></circle>
            <circle id="Oval" cx="201.5" cy="18.8" r="1.5"></circle>
            <circle id="Oval" cx="221.5" cy="17.1" r="1.5"></circle>
            <circle id="Oval" cx="241.5" cy="15.1" r="1.5"></circle>
            <circle id="Oval" cx="261.5" cy="13.5" r="1.5"></circle>
            <circle id="Oval" cx="281.5" cy="11.8" r="1.5"></circle>
            <circle id="Oval" cx="301.5" cy="10.1" r="1.5"></circle>
            <circle id="Oval" cx="321.5" cy="8.3" r="1.5"></circle>
            <circle id="Oval" cx="273.5" cy="31.1" r="1.5"></circle>
            <circle id="Oval" cx="341.5" cy="6.6" r="1.5"></circle>
            <circle id="Oval" cx="361.5" cy="4.9" r="1.5"></circle>
            <circle id="Oval" cx="381.5" cy="3" r="1.5"></circle>
            <circle id="Oval" cx="399.5" cy="1.5" r="1.5"></circle>
        </g>
        <line x1="5.5" y1="156.571828" x2="403.5" y2="121.9" id="Line" stroke="#34CE57" stroke-width="1.5" fill="#28A745" stroke-linecap="round" stroke-linejoin="round"></line>
        <text id="Portfolio-Value" font-family="VarelaRound-Regular, Varela Round" font-size="6" font-weight="normal" fill="#FFFFFE">
            <tspan x="360.757" y="153">Portfolio Value</tspan>
        </text>
        <text id="Total-Invested" font-family="VarelaRound-Regular, Varela Round" font-size="6" font-weight="normal" fill="#FFFFFE">
            <tspan x="281.843" y="153">Total Invested</tspan>
        </text>
        <line x1="276.5" y1="151.5" x2="268.5" y2="151.5" id="Line-2" stroke="#34CE57" stroke-width="1.5" stroke-linecap="round" stroke-linejoin="round"></line>
        <line x1="356" y1="151.5" x2="348" y2="151.5" id="Line-2" stroke="#FFFFFE" stroke-width="1.5" stroke-linecap="round" stroke-linejoin="round"></line>
        <circle id="Oval" stroke="#FFFFFE" fill="#0957CB" cx="357.5" cy="151.5" r="1.5"></circle>
    </g>
</svg>