<svg xmlns="http://www.w3.org/2000/svg" viewBox="0 0 122 28">
  <g fill="#0A45A4" fill-rule="nonzero">
    <path fill-rule="evenodd" d="M10.3 23.9c1 0 1.8-.2 2.7-.5l1.7 2.6c-1.6.8-3.1 1.2-4.9 1.2-5 0-8.8-3.4-8.8-8.8s4-8.8 8.8-8.8c1.8 0 3.2.4 4.6 1.1l-1.6 2.7a7 7 0 00-2.6-.4c-3 0-5.4 1.9-5.4 5.4 0 3.4 2.3 5.5 5.5 5.5zm13-14.3c5 0 8.7 3.6 8.7 8.8 0 5.2-3.7 8.8-8.7 8.8-5 0-8.7-3.6-8.7-8.8 0-5.2 3.7-8.8 8.7-8.8zm0 3.2c-2.8 0-4.9 2.2-4.9 5.6 0 3.4 2 5.6 4.9 5.6 2.9 0 4.9-2.2 4.9-5.6 0-3.4-2-5.6-5-5.6zm11 14V10h3.8v16.8zm-.4-22a2.4 2.4 0 014.7 0c0 1.4-1.1 2.4-2.4 2.4-1.2 0-2.3-1-2.3-2.4zm7.5 6.3c2.3-1 5.2-1.5 7.7-1.5 4.3 0 7 1.6 7 6.4v10.8h-3.7V16.3c0-2.4-1.5-3.3-3.6-3.3a13 13 0 00-3.7.5v13.3h-3.7zM59.3 1H63v9.5c.8-.5 2.4-.9 3.9-.9 4.8 0 8.5 3.1 8.5 8.5s-3.7 9-9.9 9a18.7 18.7 0 01-6.2-1zM63 23.6c.7.3 1.7.4 2.6.4 3.5 0 6-2 6-5.8a5 5 0 00-5.2-5.2 7 7 0 00-3.4.8zm23.2-8c0-1.9-1.4-2.7-3.2-2.7-2 0-3.5.6-4.9 1.3V11c1.5-.9 3.4-1.4 5.5-1.4 3.7 0 6.3 1.5 6.3 5.7v11.2a25 25 0 01-5.8.7c-4.3 0-7.5-1.4-7.5-5.2 0-3.4 2.9-5 7.7-5h2zm0 3.8h-1.6c-2.6 0-4.3.8-4.3 2.5 0 1.8 1.6 2.4 3.9 2.4l2-.1zm6.4 2.9a8.8 8.8 0 005.1 1.9c1.7 0 2.8-.6 2.8-2 0-1.3-1-1.8-3.1-2.4-3.5-.8-5-2.2-5-5.1 0-3.4 2.6-5 6-5 1.9 0 3.4.3 4.8 1.2v3.5c-1.5-1.1-3-1.7-4.7-1.7-1.6 0-2.5.8-2.5 1.9 0 1 .7 1.6 2.7 2.2 3.8.8 5.5 2.2 5.5 5.3 0 3.5-2.7 5-6.4 5-2 0-4-.4-5.2-1.3zm16.7-3c.2 3 2.8 4.7 5.4 4.7 2.4 0 4-.6 5.7-1.7v3.3c-1.5 1.1-3.8 1.6-6 1.6-5.2 0-8.7-3.3-8.7-8.7 0-5.3 3.5-8.9 8-8.9 5 0 7.3 3.2 7.3 7.8v1.9zm8.2-2.5c-.1-2.6-1.4-4-3.8-4-2.2 0-3.8 1.5-4.3 4z"/>
  </g>
</svg>
