<svg height="815" width="660" xmlns="http://www.w3.org/2000/svg" xmlns:xlink="http://www.w3.org/1999/xlink"><defs><circle id="a" cx="482" cy="396.6" r="47"/><mask id="b" fill="#fff"><use fill="#fff" fill-rule="evenodd" xlink:href="#a"/></mask></defs><g fill="none" fill-rule="evenodd"><path d="m320.4 359.2c0-53.4-31.2-138-100.7-171.8-61-29.6-92.2 26.6-122.7 2-49.3-39.9-51-168.4 16.7-187.7 67.8-19.1 35.6 122.3 85.6 148.3 40.8 21 44.7-29.4 109.7-22.3 148.6 16.2 65.2 457.9 238.5 467.8 91.5 5.2 16.7 5.4-3.5 64.2-6.3 18.5-.2 34.5 18.4 48a58.9 58.9 0 0 1 -68.5 95.8c-21-14.7-30.4-35.1-33.9-58.2-13.4-88.3 60-215.3-84-208.6-77.1 3.5-55.6-86.8-55.6-177.5z" fill="#2655ab"/><circle cx="482" cy="396.6" fill="#0a45a4" r="97"/><path d="m570.1 408.6a88.9 88.9 0 0 0 -151.1-74.6 88.9 88.9 0 0 0 -25 76.6m91-91.2a78 78 0 1 0 13.6 154m-27.6-10.1a67 67 0 1 0 -42-108.7" stroke="#2655ab" stroke-linecap="round" stroke-width="5"/><use fill="#3e67b3" xlink:href="#a"/><g fill="#fff"><path d="m407.8 387 66-66 43.6 43.5a4.4 4.4 0 1 1 -6.3 6.3l-9.2-9.2a4.5 4.5 0 1 0 -6.4 6.4l2.4 2.4a4 4 0 1 1 -5.5 5.6l-9.7-9.7a4.2 4.2 0 0 0 -6 6l4.1 4a4.2 4.2 0 1 1 -6 6l-2.3-2.3a4.2 4.2 0 0 0 -6 0l-.3.4a3.7 3.7 0 0 0 0 5.3 3.7 3.7 0 0 1 0 5.3l-.4.3a4.2 4.2 0 0 1 -6 0l-2.7-2.8a4.2 4.2 0 0 0 -6 6l13 13a4.2 4.2 0 0 1 -6 6l-10.8-10.8a4.2 4.2 0 1 0 -6 6l6 6a4.2 4.2 0 0 1 -6 6l-33.4-33.7z" mask="url(#b)"/><circle cx="234.5" cy="97.1" r="9.5"/><circle cx="547.5" cy="145.1" r="3.5"/><circle cx="656.5" cy="353.1" r="3.5"/><circle cx="392" cy="629.6" r="2"/><circle cx="422" cy="209.6" r="2"/><circle cx="202" cy="269.6" r="2"/><circle cx="152" cy="199.6" r="2"/><circle cx="142" cy="379.6" r="2"/><circle cx="2" cy="429.6" r="2"/><circle cx="122" cy="489.6" r="2"/><circle cx="312" cy="229.6" r="2"/><circle cx="352" cy="69.6" r="2"/><circle cx="562" cy="129.6" r="2"/><circle cx="242" cy="479.6" r="2"/><circle cx="80" cy="285.6" r="5"/><circle cx="227.5" cy="465.1" r="7.5"/></g></g></svg>