<svg width="660" height="815" xmlns="http://www.w3.org/2000/svg" xmlns:xlink="http://www.w3.org/1999/xlink">
  <defs>
    <circle id="a" cx="482" cy="396.6" r="47"/>
  </defs>
  <g fill="none" fill-rule="evenodd">
    <path class="deep-space" style="display:none" d="M392.8 251.4c209 74.9 201 384 73.3 339.5s-308.4 53.6-363.4 47.5C25.7 630-19 552.1 18.5 468.8 70.5 353.1-72 243.9 103 106.5s80.8 70 289.8 144.9zm-216.1-3.8c-24 0-28.7 21.4-28.7 45.6 0 24 13 50.4 37 50.4s51-18.3 51-42.4c0-24.1-35.3-53.6-59.3-53.6z" fill="#1A388C"/>
    <path d="M320.4 359.2c0-53.4-31.2-138-100.7-171.8-61-29.6-92.2 26.6-122.7 2C47.7 149.5 46 21 113.7 1.7 181.5-17.4 149.3 124 199.3 150 240.1 171 244 120.6 309 127.7c148.6 16.2 65.2 457.9 238.5 467.8 91.5 5.2 16.7 5.4-3.5 64.2-6.3 18.5-.2 34.5 18.4 48a58.9 58.9 0 01-68.5 95.8c-21-14.7-30.4-35.1-33.9-58.2-13.4-88.3 60-215.3-84-208.6-77.1 3.5-55.6-86.8-55.6-177.5z" fill="#2655ab"/>
    <circle class="planet-background" fill="#0a45a4" cx="482" cy="396.6" r="97"/>
    <g class="planet-atmosphere" stroke="#2655ab" stroke-linecap="round" stroke-width="5">
      <path d="M570.1 408.6A88.9 88.9 0 00419 334a88.9 88.9 0 00-25 76.6M485 319.4a78 78 0 1013.6 154M471 463.3a67 67 0 10-42-108.7"/>
    </g>
    <mask id="b" fill="#fff">
      <use xlink:href="#a"/>
    </mask>
    <use fill="#3e67b3" xlink:href="#a"/>
    <path class="planet-shine" d="M407.8 387l66-66 43.6 43.5a4.4 4.4 0 11-6.3 6.3l-9.2-9.2a4.5 4.5 0 10-6.4 6.4l2.4 2.4a4 4 0 11-5.5 5.6l-9.7-9.7a4.2 4.2 0 00-6 6l4.1 4a4.2 4.2 0 11-6 6l-2.3-2.3a4.2 4.2 0 00-6 0l-.3.4a3.7 3.7 0 000 5.3 3.7 3.7 0 010 5.3l-.4.3a4.2 4.2 0 01-6 0l-2.7-2.8a4.2 4.2 0 00-6 6l13 13a4.2 4.2 0 01-6 6l-10.8-10.8a4.2 4.2 0 10-6 6l6 6a4.2 4.2 0 01-6 6L407.9 387z" fill="#FFF" mask="url(#b)"/>
    <circle fill="#FFF" cx="234.5" cy="97.1" r="9.5"/>
    <circle fill="#FFF" cx="547.5" cy="145.1" r="3.5"/>
    <circle fill="#FFF" cx="656.5" cy="353.1" r="3.5"/>
    <circle fill="#FFF" cx="392" cy="629.6" r="2"/>
    <circle fill="#FFF" cx="422" cy="209.6" r="2"/>
    <circle fill="#FFF" cx="202" cy="269.6" r="2"/>
    <circle fill="#FFF" cx="152" cy="199.6" r="2"/>
    <circle fill="#FFF" cx="142" cy="379.6" r="2"/>
    <circle fill="#FFF" cx="2" cy="429.6" r="2"/>
    <circle fill="#FFF" cx="122" cy="489.6" r="2"/>
    <circle fill="#FFF" cx="312" cy="229.6" r="2"/>
    <circle fill="#FFF" cx="352" cy="69.6" r="2"/>
    <circle fill="#FFF" cx="562" cy="129.6" r="2"/>
    <circle fill="#FFF" cx="242" cy="479.6" r="2"/>
    <circle fill="#FFF" cx="80" cy="285.6" r="5"/>
    <circle fill="#FFF" cx="227.5" cy="465.1" r="7.5"/>
  </g>
</svg>
