<?xml version="1.0" encoding="UTF-8"?>
<svg width="1516px" height="420px" viewBox="0 0 1516 420" version="1.1" xmlns="http://www.w3.org/2000/svg" xmlns:xlink="http://www.w3.org/1999/xlink">
    <!-- Generator: Sketch 59.1 (86144) - https://sketch.com -->
    <title>deribit-white</title>
    <desc>Created with Sketch.</desc>
    <g id="deribit" stroke="none" stroke-width="1" fill="none" fill-rule="evenodd">
        <g id="shape" transform="translate(39.000000, 0.000000)" fill="#FFFFFF" fill-rule="nonzero">
            <path d="M1411.11175,322 C1402.50043,322 1395.15285,320.454182 1389.06877,317.3625 C1382.98469,314.270818 1378.0239,309.964611 1374.18625,304.44375 C1370.3486,298.922889 1367.5617,280.59375 1367.5617,257.7375 L1367.5617,187.211668 L1344,187.211668 L1344,158 L1367.5617,158 L1367.5617,119 L1409.37249,119 L1409.37249,158 L1437.78797,158 L1437.78797,187.211668 L1409.37249,187.211668 L1409.37249,257.7375 C1409.37249,277.16392 1411.66721,280.268664 1414.94325,284.354101 C1418.2193,288.439538 1433.28943,287.097246 1435.16146,286.213908 L1437.78797,317.3625 C1434.04392,318.687507 1417.85104,322 1411.11175,322 Z" id="Path"></path>
            <path d="M1148.76119,86 L1148.76119,174.777633 C1153.03595,168.532232 1161.33865,161.199642 1168.29107,158 C1175.24348,154.800358 1183.03069,155.482215 1190.29441,155.482215 C1199.63347,155.482215 1210.21855,158.06466 1217.6898,162.036629 C1225.16106,166.008599 1229.88044,170.361878 1235.17257,177.53349 C1240.46471,184.705101 1242.75052,191.739079 1245.55224,202 C1248.35396,212.260921 1250.28506,220.212937 1250.28506,232.79084 C1250.28506,246.913397 1250.82867,262.255393 1247.19681,273.288641 C1243.56495,284.32189 1239.15664,292.872332 1233.03437,300.485273 C1226.91209,308.098215 1221.76404,312.5666 1213.98148,316.538569 C1206.19893,320.510539 1194.23956,322 1185.93817,322 C1179.08952,322 1172.18909,320.179541 1165.23667,316.538569 C1158.28426,312.897598 1151.79889,307.546552 1145.78038,300.485273 L1144.53518,300.485273 L1142.37755,318 L1105,318.02805 L1105,86 L1148.76119,86 Z M1177.83041,189 C1167.88104,189 1158.271,191.392804 1149,202 L1149,276.685714 C1153.52244,280.928593 1158.04481,283.874992 1162.56725,285.525 C1167.08969,287.175008 1171.499,288 1175.79532,288 C1184.38796,288 1192.77095,286.403124 1198.87624,278.270941 C1204.98154,270.138757 1207,254.528662 1207,236.378571 C1207,204.792699 1197.2769,189 1177.83041,189 Z" id="Path-4"></path>
            <path d="M1070,158 L1070,318 L1026,318 L1026,158 L1070,158 Z M1070,86 L1070,119 L1026,119 L1026,86 L1070,86 Z" id="Path-5"></path>
            <path d="M1324,158 L1324,318 L1280,318 L1280,158 L1324,158 Z M1324,86 L1324,119 L1280,119 L1280,86 L1324,86 Z" id="Path-5"></path>
            <path d="M917,318 L917,158 L958.131589,158 L958.131589,180.728108 L960.131737,180.728108 C965.4132,169.483958 965.475706,168.649477 977.406875,160.267079 C989.338043,151.884681 1004.54703,156.83464 1006.69873,157.937008 L1001.54238,195.307087 C998.803844,194.425192 978.756912,190.897616 972.790814,195.307087 C966.824717,199.716557 964.043932,199.255757 960.131737,210.499908 L960.131737,318 L917,318 Z" id="Path"></path>
            <path d="M825.14382,155 C836.339382,155 846.108947,156.926904 854.452809,160.780769 C862.796671,164.634635 869.767388,169.987145 875.365169,176.838462 C880.962949,183.689778 885.134818,191.772069 887.880899,201.085577 C890.62698,210.399085 892,220.51533 892,231.434615 C892,235.716688 891.471911,248.764786 891.128651,250.330419 L794.141177,250.330419 C794.141177,261.732842 801.875338,274.79479 809.163015,280.254433 C816.450692,285.714075 825.639989,287.355599 836.20184,287.355599 C847.397402,287.355599 863.95837,284.906766 875.365169,277.841346 L887.880899,302.847625 C879.853892,308.414319 869.344993,313.971154 859.522472,317.182692 C849.699951,320.394247 840.036003,322 830.530337,322 C819.334775,322 808.8787,320.126621 799.161798,316.379808 C789.444895,312.632994 780.995542,307.173433 773.813483,300.000962 C766.631425,292.82849 761.033728,284.103898 757.020225,273.826923 C753.006722,263.549949 751,251.774425 751,238.5 C751,225.653782 752.795484,211.469603 757.020225,201.085577 C761.244965,190.701551 765.04056,184.010933 771.905763,176.838462 C778.770966,169.66599 785.269223,164.634635 794.141177,160.780769 C803.013132,156.926904 815.638155,155 825.14382,155 Z M824.497207,187 C817.327711,187 811.028891,189.854581 805.600559,195.56383 C800.172226,201.273078 796.638742,210.085047 795,222 L850,222 C850,211.574416 848.054023,203.134784 844.162011,196.680851 C840.269999,190.226918 833.71513,187 824.497207,187 Z" id="Path-3"></path>
            <path d="M665.396282,106.897733 C678.468754,111.094073 688.872099,118.115047 698.240705,126.839017 C707.60931,135.562987 714.472252,147.496865 719.483366,160.969325 C724.49448,174.441785 727,190.453895 727,209.006135 C727,227.558375 724.49448,246.969145 719.483366,260.662465 C714.472252,274.355785 707.391435,284.285096 698.240705,293.229926 C689.089974,302.174756 678.141942,308.272944 665.396282,312.690144 C652.650621,317.107344 638.434521,318 622.747554,318 L560,318 L560,101.999857 L620.133072,101.999857 C636.473663,101.999857 652.323809,102.701393 665.396282,106.897733 Z M628.384977,135.999816 L603,135.999816 L603,285 L628.384977,285 C642.22283,285 664.675511,284.440585 675.843599,258.097584 C680.506167,247.099637 682,230.696584 682,209.42029 C682,188.652915 680.479998,174.716998 675.843599,164.034625 C664.35243,137.5587 641.102605,135.999816 628.384977,135.999816 Z" id="Path-2"></path>
            <path d="M430.995938,211.502146 C429.50111,147.811159 398.989051,112.216309 368.861699,92.5321888 C344.722202,77.0350134 316.593495,68.8929686 287.904959,69.0987124 L280.691707,69.0987124 L280.691707,0 L212.790955,0 L212.790955,69.0987124 L138.855114,69.0987124 L138.855114,0 L70.9303182,0 L70.9303182,69.0987124 L0,69.0987124 L0.312574283,140 L70.6417881,140 L70.6417881,279.711588 L0,279.711588 L0,348.497854 L70.9303182,348.497854 L70.9303182,420 L138.855114,420 L138.855114,348.497854 L212.790955,348.497854 L212.790955,420 L280.715751,420 L280.715751,348.497854 L292.737839,348.497854 C316.428581,348.638422 339.778427,342.854987 360.662635,331.67382 C432.795162,292.497854 430.995938,211.502146 430.995938,211.502146 L430.995938,211.502146 Z M353.593647,243.756223 C349.182419,252.366299 342.966037,259.924556 335.368162,265.91588 C323.26562,275.19749 308.39998,280.156317 293.14659,280 L139.047468,280 L139.047468,140.192275 L293.555341,139.807725 C300.801672,139.729685 308.020071,140.717658 314.978701,142.739914 C331.208881,147.514178 344.864559,158.560542 352.92041,173.43176 C364.894926,195.285943 365.147575,221.67698 353.593647,243.756223 L353.593647,243.756223 Z" id="Shape"></path>
        </g>
    </g>
</svg>