<svg xmlns="http://www.w3.org/2000/svg" viewBox="0 0 1516 420">
  <g fill="#0A45A4" fill-rule="nonzero">
    <path d="M1450 322c-8 0-16-2-22-5s-11-7-15-13c-4-5-6-23-6-46v-71h-24v-29h24v-39h41v39h29v29h-29v71c0 19 3 22 6 26s18 3 20 2l3 31c-4 2-20 5-27 5zM1188 86v89c4-6 12-14 19-17s15-3 22-3c10 0 20 3 28 7 7 4 12 8 17 16a104 104 0 0115 55c0 14 1 29-3 40-3 11-8 20-14 27-6 8-11 13-19 17s-20 5-28 5c-7 0-14-2-21-5-7-4-13-9-19-17h-1l-3 18h-37V86h44zm29 103c-10 0-20 2-29 13v75c5 4 9 7 14 9l13 2c8 0 17-2 23-10s8-23 8-42c0-31-10-47-29-47zM1109 158v160h-44V158h44zm0-72v33h-44V86h44zM1363 158v160h-44V158h44zm0-72v33h-44V86h44zM956 318V158h41v23h2c5-12 5-12 17-21 12-8 28-3 30-2l-5 37c-3-1-23-4-29 0-6 5-9 4-13 15v108h-43zM864 155c11 0 21 2 29 6 9 4 16 9 21 16 6 7 10 15 13 24s4 20 4 30l-1 19h-97c0 12 8 25 15 30 7 6 17 7 27 7 11 0 28-2 39-9l13 25c-8 5-19 11-28 14a93 93 0 01-61-1 72 72 0 01-42-42c-4-10-6-22-6-35s2-28 6-38a69 69 0 0168-46zm-1 32c-7 0-13 3-18 9-6 5-9 14-11 26h55c0-10-2-19-6-25-4-7-10-10-20-10zM704 107a86 86 0 0154 54 161 161 0 010 100 84 84 0 01-54 52c-12 4-27 5-42 5h-63V102h60c16 0 32 1 45 5zm-37 29h-25v149h25c14 0 37-1 48-27 5-11 6-27 6-49 0-20-2-34-6-45-12-26-35-28-48-28zM470 212c-1-64-32-100-62-119-24-16-52-24-81-24h-7V0h-68v69h-74V0h-68v69H39v71h71v140H39v68h71v72h68v-72h74v72h68v-72h12c23 1 47-5 68-16 72-40 70-120 70-120zm-77 32a68 68 0 01-60 36H177V140h155l21 3c16 5 30 16 38 30 12 22 12 49 1 71z"/>
  </g>
</svg>
