<svg xmlns="http://www.w3.org/2000/svg" viewBox="0 0 109 30">
  <path d="M17.6 21.8c0-.4-.3-.6-.6-.6l-2 .1a6.2 6.2 0 01-6.2-6.2V.2L8.6 0H.1L0 .1V15a15 15 0 0017.4 14.8l.2-.2v-7.8zM15 0l-2.5.2-.2.2v7.8c0 .4.3.7.6.6l2-.1c3.4 0 6.2 2.8 6.2 6.2v13.5l.1.1C26.4 26.2 30 21 30 15A15 15 0 0015 0zM63.2 6.2v-4l-4.8.4v3.7h4.8zM72 4.9l-4.6.4v15.3c0 3 1.4 4.8 4.9 4.8 1.5 0 2.6-.3 3.7-.7V21c-1 .4-1.8.5-2.7.5-.8 0-1.2-.4-1.2-1.2v-7.6H76V8.9h-4v-4zM58.4 25.1h4.8V8.9h-4.8v16.2zm-9.1-3.5c-.6.2-1.7.2-2.6.2l-3.6-.1V17h3.5c2.5 0 3.6.7 3.6 2.4a4 4 0 01-.9 2.2zM43 8.8l2.9-.1c2.6 0 3.7.8 3.7 2.4 0 .9-.4 1.6-1.2 2.2l-2.4.2-3-.1V8.8zm8.8 5.9c1.5-.9 2.8-2.3 2.8-4.4 0-3.5-2.7-5.4-8.4-5.4h-8.1v20.2h9.4c5 0 7.6-1.9 7.6-5.7 0-2.5-1.4-3.9-3.3-4.7zm34.2.8c-2.4-.4-3-.7-3-1.4 0-.4.1-.7.3-.9a9 9 0 012.5-.3c1.9 0 3.6.3 5 .7V9.7c-1.1-.6-2.9-1.1-5.4-1.1-4.2 0-6.9 2-6.9 5.4 0 3.3 1.9 4.3 5.5 4.9 2.6.5 3.2.8 3.2 1.6l-.2.8c-.6.2-1.6.4-2.9.4-1.8 0-3.9-.4-5.1-.8v3.7c1.3.5 3.4.8 5.3.8 4.5 0 7.4-1.4 7.4-5 0-3.1-1.9-4.2-5.7-4.9zm17.3 5.7c-.6.4-1.3.6-2.2.6-1.9 0-3-1.6-3-4.4 0-1.6.3-3 .9-3.7.6-.5 1.3-.7 2.2-.7 2 0 2.9 1.6 2.9 4 .1 1.7-.2 3.2-.8 4.2zm-1.8-12.6c-5.5 0-8 3.7-8 8.8 0 5 2.9 8 7.5 8 5.5 0 7.9-3.7 7.9-8.7 0-5-2.8-8.1-7.4-8.1z" fill="#fff"/>
</svg>
