<svg xmlns="http://www.w3.org/2000/svg" viewBox="0 0 632.01 126.61">
 <path fill="#fff" d="M38.17 53.2l24.59-24.58 24.6 24.6 14.31-14.31L62.76 0l-38.9 38.9zM13.76 49l14.3 14.3-14.3 14.3-14.3-14.3zM38.17 73.41L62.76 98l24.6-24.6 14.31 14.29v.01l-38.91 38.91-38.9-38.89-.02-.02zM126.07 63.3l-14.3 14.31-14.31-14.3 14.3-14.3z"/>
 <path fill="#fff" d="M77.27 63.3h.01L62.76 48.78 52.03 59.51l-1.23 1.23-2.55 2.54-.02.02.02.03 14.51 14.5 14.52-14.52v-.01zM148.37 30.68h31.12c7.72 0 13.56 1.98 17.52 5.94a15.52 15.52 0 014.6 11.42v.2c0 1.9-.25 3.6-.72 5.07a15.16 15.16 0 01-4.67 7.1c-1.05.9-2.18 1.66-3.39 2.3 3.89 1.47 6.94 3.47 9.17 6 2.23 2.53 3.34 6.03 3.34 10.5v.2c0 3.06-.59 5.75-1.77 8.05a15.65 15.65 0 01-5.07 5.76 23.78 23.78 0 01-7.95 3.45c-3.1.77-6.53 1.15-10.3 1.15h-31.88V30.68zm28 27.14c3.27 0 5.86-.56 7.78-1.68 1.91-1.11 2.87-2.92 2.87-5.41v-.2c0-2.23-.83-3.94-2.5-5.13-1.65-1.18-4.05-1.77-7.18-1.77h-14.58v14.2h13.62zm3.94 27.05c3.26 0 5.82-.59 7.67-1.77 1.86-1.19 2.78-3.02 2.78-5.52v-.19c0-2.24-.86-4.01-2.59-5.32-1.72-1.31-4.5-1.97-8.34-1.97h-17.07v14.77h17.55zM223.88 30.68h14.77v67.14h-14.78V30.68zM261.02 30.68h13.62l31.46 41.34V30.68h14.58v67.14H308.1L275.6 55.14v42.68h-14.58V30.68zM365.4 30.2h13.62l28.77 67.62h-15.44l-6.14-15.06h-28.39l-6.14 15.06h-15.06L365.4 30.2zm15.54 39.52L372 47.94l-8.91 21.78h17.84zM423.74 30.68h13.62l31.46 41.34V30.68h14.58v67.14h-12.57l-32.51-42.68v42.68h-14.58V30.68zM536.56 98.97c-4.93 0-9.5-.9-13.72-2.69s-7.87-4.23-10.93-7.33a33.36 33.36 0 01-7.2-10.98 35.37 35.37 0 01-2.59-13.53v-.2a35 35 0 019.79-24.5c3.06-3.16 6.74-5.66 11.02-7.48s9.02-2.73 14.2-2.73c3.13 0 6 .25 8.58.76 2.6.52 4.94 1.22 7.06 2.11 2.1.9 4.05 1.99 5.85 3.27a39.86 39.86 0 014.98 4.22l-9.4 10.83a35.63 35.63 0 00-8-5.56 20.41 20.41 0 00-9.16-2.01 18.7 18.7 0 00-14 6.14 21.07 21.07 0 00-4.04 6.66 22.7 22.7 0 00-1.43 8.1v.2c0 2.88.47 5.6 1.43 8.15.96 2.56 2.29 4.8 3.98 6.71a18.55 18.55 0 0014.05 6.24c3.84 0 7.08-.7 9.74-2.11 2.65-1.4 5.3-3.32 7.91-5.76l9.4 9.5a48.81 48.81 0 01-5.37 4.99 31.56 31.56 0 01-13.33 6.19c-2.62.54-5.56.81-8.82.81zM581.47 30.68H632v13.14h-35.96v13.62h31.65v13.14h-31.65v14.1h36.45v13.14h-51.03V30.68z"/>
</svg>
