<svg xmlns="http://www.w3.org/2000/svg" viewBox="0 0 1516 420">
  <g fill="#fff" fill-rule="nonzero">
    <path d="M332 96h37v96l98-96h48l-86 84 92 142h-49l-72-115-31 30v85h-37zM540 96h36v39c3-8 11-17 22-28a57 57 0 0144-16l8 1v40l-6-1h-6c-20 0-34 6-44 19a65 65 0 00-16 42v131h-38V96zM793 185c9-1 15-5 18-11l2-14c0-13-5-23-14-29s-22-9-40-9c-20 0-34 6-42 16-5 6-8 15-9 27h-36c1-28 10-48 27-58 18-11 38-17 61-17 27 0 48 5 65 16 16 10 25 25 25 47v131c0 3 0 7 2 9s5 4 10 4l6-1 7-1v28a87 87 0 01-27 4c-13 0-22-5-28-14-4-5-6-12-7-21-8 10-19 19-33 27-15 7-31 11-48 11-21 0-39-6-52-19a63 63 0 01-20-48c0-21 7-38 20-49 13-12 30-19 51-22l62-7zm-81 103c8 6 18 10 29 10 13 0 26-4 39-10 21-10 32-27 32-50v-31l-18 7c-7 2-14 4-22 4l-23 3c-13 2-24 5-31 9-12 7-18 17-18 31 0 12 5 21 12 27zM900 96h37v96l97-96h49l-87 84 92 143h-49l-71-115-31 29v85h-37V96zM1244 102c15 8 26 17 34 29s13 25 15 40c2 11 4 27 4 51h-165c0 23 6 41 16 55s25 21 47 21c19 0 35-7 47-20 7-7 11-16 14-26h38a112 112 0 01-28 53 87 87 0 01-44 22c-9 2-19 4-30 4-29 0-52-10-72-31s-29-49-29-86 9-66 29-89 45-34 77-34c16-1 32 3 47 11zm13 89c-1-16-5-30-10-40-11-18-28-27-52-27-18 0-32 6-44 19a71 71 0 00-19 48h125zM1330 96h36v32c11-13 22-23 34-29s25-9 40-9c32 0 54 12 65 34 7 12 10 30 10 53v145h-39V179c0-13-2-24-7-33-6-14-18-21-36-21a60 60 0 00-50 21c-6 8-11 15-12 23-2 8-3 20-3 35v118h-38V96zM147 95C67 95 2 160 2 240v62c0 12 9 21 21 21 11 0 20-9 20-21v-62c0-11 9-20 21-20 11 0 21 9 21 20v62c0 12 9 21 20 21 12 0 21-9 21-21v-62c0-11 9-20 20-20 12 0 21 9 21 20v62c0 12 9 21 21 21 11 0 20-9 20-21v-62c0-11 10-20 21-20 12 0 21 9 21 20v62c0 12 9 21 20 21 12 0 21-9 21-21v-62c1-80-64-145-144-145z"/>
  </g>
</svg>
