<?xml version="1.0" encoding="UTF-8"?>
<svg width="160px" height="160px" viewBox="0 0 160 160" version="1.1" xmlns="http://www.w3.org/2000/svg" xmlns:xlink="http://www.w3.org/1999/xlink">
    <!-- Generator: Sketch 58 (84663) - https://sketch.com -->
    <title>favicon</title>
    <desc>Created with Sketch.</desc>
    <g id="favicon" stroke="none" stroke-width="1" fill="none" fill-rule="evenodd">
        <path d="M80,1 C85.8127583,1 90.8532768,4.30635176 93.3434654,9.14096525 L93.3431062,9.14139946 L158.045504,121.5866 C159.289096,123.775366 160,126.304663 160,129 C160,137.284271 153.284271,144 145,144 L144.960437,143.999949 L15.078,143.999 L15,144 C6.71572875,144 0,137.284271 0,129 C0,126.063376 0.843880826,123.323852 2.30237004,121.010698 L66.6034305,9.24506251 C69.074572,4.35387525 74.1456162,1 80,1 Z M80,33 C79.2002917,33 78.510209,33.4693632 78.190202,34.1476396 L78.190202,34.1476396 L48.2358767,86.0542053 C48.0855469,86.3371558 48,86.6585876 48,87 C48,88.0543618 48.8158778,88.9181651 49.8507377,88.9945143 L49.8507377,88.9945143 L50,89 L110,89 L110.149262,88.9945143 C111.184122,88.9181651 112,88.0543618 112,87 C112,86.5978979 111.881336,86.2235113 111.677117,85.9099485 L111.677117,85.9099485 L81.8323493,34.1971835 C81.5230853,33.4923262 80.8190371,33 80,33 Z" fill="#3D6098"></path>
    </g>
</svg>