<?xml version="1.0" encoding="UTF-8"?>
<svg width="1516px" height="420px" viewBox="0 0 1516 420" version="1.1" xmlns="http://www.w3.org/2000/svg" xmlns:xlink="http://www.w3.org/1999/xlink">
    <!-- Generator: Sketch 59.1 (86144) - https://sketch.com -->
    <title>kraken</title>
    <desc>Created with Sketch.</desc>
    <g id="kraken" stroke="none" stroke-width="1" fill="none" fill-rule="evenodd">
        <g id="shape" transform="translate(2.000000, 90.000000)" fill="#0957CB" fill-rule="nonzero">
            <polygon id="Path" points="330.471836 5.73170755 366.92313 5.73170755 366.92313 102.102151 464.70908 5.73170755 513.426964 5.73170755 426.506309 89.8367288 518.684236 232.465531 469.966921 232.465531 398.467333 117.171472 366.923698 147.308976 366.923698 232.464962 330.471836 232.464962"></polygon>
            <path d="M538.311463,5.73170755 L574.411438,5.73170755 L574.411438,44.9806038 C577.215165,37.2714458 584.575802,28.1594858 596.142028,17.2962972 C607.708255,6.43310849 621.026527,0.825311321 636.097981,0.825311321 C636.798913,0.825311321 637.850595,0.825311321 639.60264,1.1754434 C641.355254,1.1754434 644.159549,1.52557547 648.36514,1.87627594 L648.36514,42.1761368 C646.262345,41.8260047 644.159549,41.4758726 642.056185,41.4758726 C640.303572,41.4758726 638.200777,41.1257406 635.747231,41.1257406 C616.470755,41.1257406 601.750051,47.4338019 591.585688,59.6992241 C581.421324,71.9646462 576.164052,86.3319976 576.164052,102.452283 L576.164052,232.816231 L537.960713,232.816231 L537.960713,5.73170755 L538.311463,5.73170755 Z" id="Path"></path>
            <path d="M791.013565,95.0932571 C799.774928,94.0422925 805.734269,90.1868608 808.537428,84.2300684 C810.289473,80.7253373 810.989836,75.8195094 810.989836,69.5114481 C810.989836,56.5451934 806.434064,47.0836698 796.971201,41.126309 C787.859088,35.1689481 774.539679,32.3650495 757.36543,32.3650495 C737.388022,32.3650495 723.368818,37.6221462 714.957068,48.4853349 C710.400728,54.4421274 707.246819,63.2039552 705.844387,75.1186769 L670.094593,75.1186769 C670.795525,47.0836698 679.908206,27.4586533 697.432637,16.5948962 C714.957068,5.73170755 734.935045,0.123910377 758.067498,0.123910377 C784.704611,0.123910377 806.434632,5.38100708 822.907382,15.5433632 C839.381268,25.7062877 847.792449,41.4758726 847.792449,62.8526863 L847.792449,193.566198 C847.792449,197.420493 848.492812,200.574524 850.245994,203.027722 C851.998039,205.480351 855.152517,206.531884 860.409789,206.531884 C862.161834,206.531884 863.913879,206.531884 866.017812,206.181752 C868.120607,205.831052 870.222265,205.48092 872.676379,205.130219 L872.676379,233.165226 C866.718743,234.917024 862.161834,235.969125 859.007357,236.319257 C855.85288,236.669389 851.647289,237.02009 846.390017,237.02009 C833.422495,237.02009 823.607745,232.463825 817.650678,223.002302 C814.4962,218.095906 812.392268,211.08758 810.989836,201.976189 C803.279587,212.139113 792.063542,220.899804 777.694156,228.608962 C762.973452,235.968557 747.202203,239.822851 729.677772,239.822851 C708.648682,239.822851 691.475001,233.51479 678.156161,220.549104 C664.837321,207.93355 658.178185,191.813264 658.178185,172.53838 C658.178185,151.512835 664.837321,135.391981 677.805411,123.82796 C690.77407,112.26337 708.298501,105.254476 729.327591,102.451146 L791.013565,95.0932571 Z M710.401296,198.122462 C718.462296,204.430524 727.925159,207.583986 739.141204,207.583986 C752.460044,207.583986 765.428135,204.429955 778.045475,198.122462 C799.074565,187.958969 809.93986,171.137851 809.93986,147.659108 L809.93986,116.820771 C805.382951,119.624101 799.425315,122.427432 792.06411,124.179229 C784.705179,126.282295 777.694725,127.683392 770.334088,128.384792 L747.202203,131.188123 C733.533181,132.940488 723.018636,135.744387 716.009319,139.948814 C704.092342,146.607575 698.484319,157.120632 698.484319,171.488552 C698.484319,183.05371 702.68991,191.814969 710.401296,198.122462 Z" id="Shape"></path>
            <polygon id="Path" points="898.262378 5.73170755 934.713672 5.73170755 934.713672 102.102151 1032.49962 5.73170755 1081.21637 5.73170755 993.944964 90.1868608 1086.12346 232.816231 1037.40558 232.816231 965.906557 117.521604 934.713672 147.308976 934.713672 232.464962 897.911628 232.464962 897.911628 5.73170755 898.262378 5.73170755"></polygon>
            <path d="M1241.73998,12.0397689 C1256.81143,19.7489269 1268.37709,29.2110189 1276.08847,41.476441 C1283.79929,53.0410307 1288.70581,66.3574175 1291.15879,81.4267382 C1293.26159,91.9392264 1294.66402,108.410212 1294.66402,131.539392 L1129.58464,131.539392 C1130.285,154.668002 1135.54228,173.241486 1145.70721,186.908005 C1155.871,200.925792 1171.29207,207.934686 1192.67191,207.934686 C1212.29857,207.934686 1228.07095,201.276493 1239.98736,188.310238 C1246.64707,180.600512 1251.20284,171.839252 1254.00713,161.676896 L1291.50897,161.676896 C1290.45729,170.088024 1287.30338,179.198847 1281.69593,189.361771 C1276.08791,199.524127 1269.77895,207.935255 1263.11925,214.593448 C1251.55302,225.807337 1237.53439,233.517064 1220.36014,237.371927 C1211.24689,239.474425 1201.08309,240.87609 1189.51686,240.87609 C1161.47846,240.87609 1137.6445,230.713733 1118.01785,210.037184 C1098.39005,189.361771 1088.57701,160.625363 1088.57701,123.829665 C1088.57701,87.3840991 1098.39005,57.9474269 1118.01785,35.1689481 C1137.6445,12.3904693 1163.2305,1.17601179 1195.12546,1.17601179 C1211.24745,0.475179245 1226.66966,4.32947406 1241.73998,12.0397689 Z M1255.41014,101.050618 C1254.0077,84.5802005 1250.15286,71.2632453 1244.54484,61.4510212 C1234.0303,43.2282382 1216.85605,33.7667146 1192.67248,33.7667146 C1175.14862,33.7667146 1160.77809,40.0747759 1148.86225,52.6903302 C1136.94528,65.3058844 1130.9865,81.4267382 1130.28557,101.050618 L1255.41014,101.050618 L1255.41014,101.050618 Z" id="Shape"></path>
            <path d="M1327.96084,5.73170755 L1364.06138,5.73170755 L1364.06138,37.9722783 C1374.92554,24.6553231 1386.14215,15.1937995 1398.05913,9.23587028 C1409.97497,3.27850943 1423.29438,0.475179245 1438.01338,0.475179245 C1470.25908,0.475179245 1491.98967,11.6890684 1503.20515,34.1174151 C1509.5141,46.3828373 1512.66801,63.9042193 1512.66801,87.0333986 L1512.66801,232.465531 L1473.76374,232.465531 L1473.76374,89.4865967 C1473.76374,75.8195094 1471.66094,64.6056203 1467.45478,55.8443608 C1460.79508,41.8265731 1448.52849,34.8182476 1430.65274,34.8182476 C1421.54063,34.8182476 1414.17999,35.8692123 1408.57197,37.6221462 C1398.05856,40.7761769 1388.94531,47.0836698 1380.88431,56.1950613 C1374.57536,63.5540873 1370.36977,71.2638137 1368.61772,79.3236722 C1366.86454,87.3840991 1365.81286,98.5979882 1365.81286,113.667309 L1365.81286,232.465531 L1327.60952,232.465531 L1327.60952,5.73227594 L1327.96084,5.73227594 L1327.96084,5.73170755 Z" id="Path"></path>
            <path d="M144.847895,5 C64.7263476,5 0,70.2433955 0,150.218712 L0,212.304536 C0,223.880592 9.09672495,233 20.6421316,233 C32.1881058,233 41.2848308,223.880592 41.2848308,212.304536 L41.2848308,150.218712 C41.2848308,138.643225 50.3815557,129.523248 61.9269624,129.523248 C73.4729366,129.523248 82.5696615,138.643225 82.5696615,150.218712 L82.5696615,212.304536 C82.5696615,223.880592 91.6663865,233 103.212361,233 C114.758335,233 123.85506,223.880592 123.85506,212.304536 L123.85506,150.218712 C123.85506,138.643225 132.951785,129.523248 144.497191,129.523248 C156.043166,129.523248 165.139323,138.643225 165.139323,150.218712 L165.139323,212.304536 C165.139323,223.880592 174.236048,233 185.782022,233 C197.327996,233 206.424721,223.880592 206.424721,212.304536 L206.424721,150.218712 C206.424721,138.643225 215.520879,129.523248 227.066853,129.523248 C238.612827,129.523248 247.709552,138.643225 247.709552,150.218712 L247.709552,212.304536 C247.709552,223.880592 256.806277,233 268.351684,233 C279.897658,233 288.994383,223.880592 288.994383,212.304536 L288.994383,150.218712 C289.69579,70.2433955 224.618739,5 144.847895,5 Z" id="Path"></path>
        </g>
    </g>
</svg>