<?xml version="1.0" encoding="UTF-8"?>
<svg width="78px" height="100px" viewBox="0 0 78 100" version="1.1" xmlns="http://www.w3.org/2000/svg" xmlns:xlink="http://www.w3.org/1999/xlink">
    <!-- Generator: Sketch 59.1 (86144) - https://sketch.com -->
    <title>lineart_mitigate_risk</title>
    <desc>Created with Sketch.</desc>
    <g id="lineart_mitigate_risk" stroke="none" stroke-width="1" fill="none" fill-rule="evenodd">
        <path d="M30.756,85.5 L16.759,85.5 C16.345,85.5 16.009,85.164 16.009,84.75 C16.009,84.336 16.345,84 16.759,84 L30.756,84 C31.17,84 31.506,84.336 31.506,84.75 C31.506,85.164 31.17,85.5 30.756,85.5" id="Fill-862" fill="#FFFFFE"></path>
        <path d="M53.757,85.5 L34.757,85.5 C34.343,85.5 34.007,85.164 34.007,84.75 C34.007,84.336 34.343,84 34.757,84 L53.757,84 C54.171,84 54.507,84.336 54.507,84.75 C54.507,85.164 54.171,85.5 53.757,85.5" id="Fill-863" fill="#FFFFFE"></path>
        <path d="M60.759,85.5 L57.757,85.5 C57.343,85.5 57.007,85.164 57.007,84.75 C57.007,84.336 57.343,84 57.757,84 L60.759,84 C61.173,84 61.509,84.336 61.509,84.75 C61.509,85.164 61.173,85.5 60.759,85.5" id="Fill-864" fill="#FFFFFE"></path>
        <path d="M36.017,33.88 C36.017,39.956 31.092,44.88 25.017,44.88 C24.391,44.88 23.782,44.816 23.184,44.715 C25.157,46.591 27.819,47.751 30.756,47.751 C32.4410327,47.751 34.0374655,47.3722197 35.4648451,46.6951763 C35.5642567,46.6480228 37.6677879,41.8416896 37.7366336,41.746 C38.5788779,40.5753517 39.893801,39.3396855 41.6814029,38.0390013 C41.7311343,37.4708096 41.756,37.0414758 41.756,36.751 C41.756,31.301 37.79,26.79 32.589,25.916 C34.697,27.92 36.017,30.743 36.017,33.88 Z" id="Fill-866" fill-opacity="0.304632867" fill="#FFFFFF"></path>
        <path d="M30.756,26.5 C25.104,26.5 20.506,31.097 20.506,36.75 C20.506,42.402 25.104,47 30.756,47 C32.6611372,47 34.446336,46.4777679 35.9760562,45.5689588 C37.4108996,44.716516 36.8631837,42.7119382 37.7366336,41.2912199 C38.3882744,40.2312872 40.6103408,39.8563828 40.8408084,38.5889454 C40.9493201,37.9921938 41.006,37.3775947 41.006,36.75 C41.006,31.097 36.409,26.5 30.756,26.5 Z M19.006,36.75 C19.006,30.271 24.278,25 30.756,25 C37.235,25 42.506,30.271 42.506,36.75 C42.506,36.9282685 42.4971139,37.1935209 42.4793417,37.5457574 C40.1838041,39.1770109 38.6029014,40.5770917 37.7366336,41.746 C37.0506104,42.6716931 36.5560931,44.4397886 36.2530815,47.0502865 C36.0803348,47.1954697 35.9394521,47.2942722 35.8304335,47.3466942 C34.293554,48.085708 32.5722414,48.5 30.756,48.5 C24.278,48.5 19.006,43.228 19.006,36.75 Z" id="Fill-867" fill="#FFFFFE"></path>
        <path d="M30.75,31.499 C30.336,31.499 30,31.163 30,30.749 L30,29.097 C30,28.683 30.336,28.347 30.75,28.347 C31.165,28.347 31.5,28.683 31.5,29.097 L31.5,30.749 C31.5,31.163 31.165,31.499 30.75,31.499" id="Fill-869" fill="#FFFFFE"></path>
        <path d="M48.59,36.917 C50.698,38.921 52.018,41.744 52.018,44.881 C52.018,50.957 47.093,55.881 41.018,55.881 C40.393,55.881 39.783,55.817 39.186,55.716 C41.159,57.592 43.821,58.752 46.758,58.752 C52.833,58.752 57.758,53.827 57.758,47.752 C57.758,42.302 53.792,37.791 48.59,36.917" id="Fill-872" fill-opacity="0.304632867" fill="#FFFFFF"></path>
        <path d="M46.758,37.501 C41.106,37.501 36.508,42.098 36.508,47.751 C36.508,53.403 41.106,58.001 46.758,58.001 C52.411,58.001 57.008,53.403 57.008,47.751 C57.008,42.098 52.411,37.501 46.758,37.501 Z M35.008,47.751 C35.008,41.272 40.28,36.001 46.758,36.001 C53.237,36.001 58.508,41.272 58.508,47.751 C58.508,54.229 53.237,59.501 46.758,59.501 C40.28,59.501 35.008,54.229 35.008,47.751 Z" id="Fill-873" fill="#FFFFFE"></path>
        <path d="M46.75,40 C47.165,40 47.5,40.336 47.5,40.75 L47.4995,41.825 L47.6863888,41.8288091 C49.7377751,41.8927658 51.1696863,42.8832653 51.1696863,44.7521713 C51.1696863,45.6970467 50.8355758,46.3980876 50.2778645,46.8907822 C51.4722307,47.5570832 51.9903818,48.7375661 51.9903818,50 C51.9903818,52.1558181 50.2415485,53.7525283 48.0751358,53.8230666 C48.0605872,53.8248917 48.0455581,53.8255 48.0304073,53.8255 L47.4995,53.825 L47.5,55.1274094 C47.5,55.5414094 47.165,55.8774094 46.75,55.8774094 C46.336,55.8774094 46,55.5414094 46,55.1274094 L45.9995,53.825 L42.3185927,53.8255 C41.9630536,53.8255 41.6745,53.4905 41.6745,53.0755 C41.6745,52.6615 41.9630536,52.3255 42.3185927,52.3255 L43.0000132,52.3251145 L43.0000132,52.3251145 L42.9995,43.325 L42.3185927,43.3255 C41.9939293,43.3255 41.6745,42.9905 41.6745,42.5755 C41.6745,42.1615 41.9939293,41.8255 42.3185927,41.8255 L45.9995,41.825 L46,40.75 C46,40.336 46.336,40 46.75,40 Z M46.9131427,47.8266709 L44.4995,47.825 L44.4995,52.325 L47.9253818,52.3255 L47.9253818,52.3255 C49.3323818,52.3255 50.4903818,51.3233804 50.4903818,50 C50.4903818,48.903759 49.8971459,47.8345 47.7771459,47.8345 C47.6584823,47.8345 47.5459176,47.8321201 47.4392865,47.8275493 C47.3327282,47.8323943 47.2242123,47.8345 47.1147,47.8345 C47.043705,47.8345 46.9765588,47.8318148 46.9131427,47.8266709 Z M47.110718,43.3232131 L47.0863416,43.3255 L47.0863416,43.3255 L44.4995,43.325 L44.4995,46.325 L46.9736088,46.3255 L46.9736088,46.3255 C48.3806088,46.3255 49.63732,46.0755518 49.63732,44.7521713 C49.63732,43.6559303 48.7572131,43.3255 47.3081402,43.3255 C47.2402644,43.3255 47.1744686,43.324726 47.110718,43.3232131 Z" id="Fill-888" fill="#FFFFFE"></path>
        <path d="M31.0755,29 C31.4905,29 31.8255,29.336 31.8255,29.75 L31.825,30.825 L32.0118888,30.8288091 C34.0632751,30.8927658 35.4951863,31.8832653 35.4951863,33.7521713 C35.4951863,34.6970467 35.1610758,35.3980876 34.6033645,35.8907822 C35.7977307,36.5570832 36.3158818,37.7375661 36.3158818,39 C36.3158818,41.1558181 34.5670485,42.7525283 32.4006358,42.8230666 C32.3860872,42.8248917 32.3710581,42.8255 32.3559073,42.8255 L31.825,42.825 L31.8255,44.1274094 C31.8255,44.5414094 31.4905,44.8774094 31.0755,44.8774094 C30.6615,44.8774094 30.3255,44.5414094 30.3255,44.1274094 L30.325,42.825 L26.6440927,42.8255 C26.2885536,42.8255 26,42.4905 26,42.0755 C26,41.6615 26.2885536,41.3255 26.6440927,41.3255 L27.3255132,41.3251145 L27.3255132,41.3251145 L27.325,32.325 L26.6440927,32.3255 C26.3194293,32.3255 26,31.9905 26,31.5755 C26,31.1615 26.3194293,30.8255 26.6440927,30.8255 L30.325,30.825 L30.3255,29.75 C30.3255,29.336 30.6615,29 31.0755,29 Z M31.2386427,36.8266709 L28.825,36.825 L28.825,41.325 L32.2508818,41.3255 L32.2508818,41.3255 C33.6578818,41.3255 34.8158818,40.3233804 34.8158818,39 C34.8158818,37.903759 34.2226459,36.8345 32.1026459,36.8345 C31.9839823,36.8345 31.8714176,36.8321201 31.7647865,36.8275493 C31.6582282,36.8323943 31.5497123,36.8345 31.4402,36.8345 C31.369205,36.8345 31.3020588,36.8318148 31.2386427,36.8266709 Z M31.436218,32.3232131 L31.4118416,32.3255 L31.4118416,32.3255 L28.825,32.325 L28.825,35.325 L31.2991088,35.3255 L31.2991088,35.3255 C32.7061088,35.3255 33.96282,35.0755518 33.96282,33.7521713 C33.96282,32.6559303 33.0827131,32.3255 31.6336402,32.3255 C31.5657644,32.3255 31.4999686,32.324726 31.436218,32.3232131 Z" id="Fill-888" fill="#FFFFFE"></path>
        <path d="M46.758,85.5 C46.344,85.5 46.008,85.164 46.008,84.75 L46.008,58.751 C46.008,58.337 46.344,58.001 46.758,58.001 C47.172,58.001 47.508,58.337 47.508,58.751 L47.508,84.75 C47.508,85.164 47.172,85.5 46.758,85.5" id="Fill-877" fill="#FFFFFE"></path>
        <path d="M30.756,65.5 C30.342,65.5 30.006,65.164 30.006,64.75 L30.006,47.75 C30.006,47.336 30.342,47 30.756,47 C31.17,47 31.506,47.336 31.506,47.75 L31.506,64.75 C31.506,65.026 31.256,65.276 30.756,65.5 Z" id="Fill-878" fill="#FFFFFE"></path>
        <path d="M30.006,84.75 L30.006,72.75 C30.006,72.336 30.342,72 30.756,72 C31.17,72 31.506,72.336 31.506,72.75 L31.506,84.75 C31.506,85.164 31.17,85.5 30.756,85.5 C30.342,85.5 30.006,85.164 30.006,84.75 Z" id="Fill-878" fill="#FFFFFE"></path>
        <path d="M66.756,69.75 C66.756,75.272 62.279,79.75 56.756,79.75 L56.756,79.75 L51.202,79.75 C56.725,79.75 61.202,75.272 61.202,69.75 Z" id="Fill-914" fill-opacity="0.304632867" fill="#FFFFFF"></path>
        <path d="M47.543,78.999 L56.756,78.999 C61.604,78.999 65.593,75.25 65.976,70.499 L56.763,70.499 C51.916,70.499 47.926,74.248 47.543,78.999 Z M56.756,80.499 L46.763,80.499 C46.349,80.499 46.013,80.163 46.013,79.749 C46.013,73.821 50.835,68.999 56.763,68.999 L66.756,68.999 C67.17,68.999 67.506,69.335 67.506,69.749 C67.506,75.676 62.684,80.499 56.756,80.499 L56.756,80.499 Z" id="Fill-881" fill="#FFFFFE"></path>
        <path d="M36.757,64.749 C42.28,64.749 46.757,69.226 46.757,74.749 L46.757,74.749 L41.201,74.749 C41.201,69.226 36.724,64.749 31.201,64.749 Z" id="Fill-913" fill-opacity="0.304632867" fill="#FFFFFF"></path>
        <path d="M27.538,65.499 C27.92,70.25 31.91,73.999 36.757,73.999 L45.977,73.999 C45.594,69.248 41.605,65.499 36.757,65.499 L27.538,65.499 Z M46.757,75.499 L36.757,75.499 C30.83,75.499 26.007,70.676 26.007,64.749 C26.007,64.335 26.343,63.999 26.757,63.999 L36.757,63.999 C42.685,63.999 47.507,68.821 47.507,74.749 C47.507,75.163 47.171,75.499 46.757,75.499 L46.757,75.499 Z" id="Fill-884" fill="#FFFFFE"></path>
        <path d="M20.755,49.748 C26.279,49.748 30.755,54.224 30.755,59.748 L30.755,59.748 L25.2,59.748 C25.2,54.224 20.722,49.748 15.2,49.748 Z" id="Fill-912" fill-opacity="0.304632867" fill="#FFFFFF"></path>
        <path d="M11.536,50.497 C11.918,55.248 15.908,58.997 20.755,58.997 L29.975,58.997 C29.592,54.246 25.603,50.497 20.755,50.497 L11.536,50.497 Z M30.755,60.497 L20.755,60.497 C14.828,60.497 10.005,55.674 10.005,49.747 C10.005,49.333 10.341,48.997 10.755,48.997 L20.755,48.997 C26.683,48.997 31.505,53.819 31.505,59.747 C31.505,60.161 31.169,60.497 30.755,60.497 L30.755,60.497 Z" id="Fill-887" fill="#FFFFFE"></path>
        <path d="M54.139,31.495 L52.755,31.495 C52.341,31.495 52.005,31.159 52.005,30.745 C52.005,30.331 52.341,29.995 52.755,29.995 L54.139,29.995 C54.553,29.995 54.889,30.331 54.889,30.745 C54.889,31.159 54.553,31.495 54.139,31.495" id="Fill-892" fill="#FFFFFE"></path>
        <path d="M58.755,31.495 L57.371,31.495 C56.957,31.495 56.621,31.159 56.621,30.745 C56.621,30.331 56.957,29.995 57.371,29.995 L58.755,29.995 C59.169,29.995 59.505,30.331 59.505,30.745 C59.505,31.159 59.169,31.495 58.755,31.495" id="Fill-893" fill="#FFFFFE"></path>
        <path d="M55.755,34.495 C55.341,34.495 55.005,34.159 55.005,33.745 L55.005,32.36 C55.005,31.946 55.341,31.61 55.755,31.61 C56.169,31.61 56.505,31.946 56.505,32.36 L56.505,33.745 C56.505,34.159 56.169,34.495 55.755,34.495" id="Fill-894" fill="#FFFFFE"></path>
        <path d="M55.755,29.879 C55.341,29.879 55.005,29.543 55.005,29.129 L55.005,27.745 C55.005,27.331 55.341,26.995 55.755,26.995 C56.169,26.995 56.505,27.331 56.505,27.745 L56.505,29.129 C56.505,29.543 56.169,29.879 55.755,29.879" id="Fill-895" fill="#FFFFFE"></path>
        <g id="Group" transform="translate(39.000000, 25.500000) scale(-1, -1) translate(-39.000000, -25.500000) translate(6.000000, 14.000000)">
            <path d="M61.13,6.769 L61.13,6.769 C60.879,8.411 59.765,9.793 58.214,10.387 L45.668,15.19 C43.149,16.155 40.346,14.746 39.618,12.148 C39.084,10.245 40.152,8.262 42.035,7.66 L44.515,6.867 C51.49,5.384 55.629,2.772 58.229,2.74 C60.63,2.711 61.599,4.792 61.13,6.769" id="Fill-567" fill="#0A45A4"></path>
            <path d="M59.585,3.015 C59.176,3.644 58.62,4.181 57.938,4.555 L46.164,11.022 C43.954,12.237 41.236,11.412 40.01,9.281 C39.511,10.117 39.335,11.141 39.618,12.148 C40.346,14.746 43.149,16.155 45.668,15.19 L58.214,10.387 C59.765,9.793 60.879,8.411 61.13,6.769 C61.496,5.224 60.972,3.63 59.585,3.015" id="Fill-568" fill-opacity="0.304632867" fill="#FFFFFF"></path>
            <path d="M58.28,3.49 L58.239,3.49 C57.134,3.504 55.573,4.094 53.597,4.841 C51.274,5.719 48.383,6.811 44.67,7.601 L42.264,8.375 C40.758,8.855 39.913,10.424 40.339,11.946 C40.634,12.997 41.333,13.846 42.308,14.335 C43.283,14.826 44.381,14.88 45.4,14.49 L57.946,9.686 C59.243,9.19 60.179,8.028 60.389,6.655 L60.4,6.596 C60.614,5.695 60.462,4.81 59.995,4.226 C59.604,3.737 59.028,3.49 58.28,3.49 Z M44.03,16.242 C43.206,16.242 42.384,16.053 41.634,15.676 C40.297,15.004 39.299,13.792 38.895,12.351 C38.25,10.048 39.529,7.674 41.807,6.945 L44.286,6.153 C47.959,5.368 50.791,4.298 53.067,3.437 C55.181,2.639 56.85,2.007 58.22,1.99 C59.432,1.949 60.484,2.435 61.166,3.288 C61.914,4.224 62.175,5.576 61.867,6.912 C61.566,8.805 60.272,10.402 58.482,11.087 L45.936,15.891 C45.323,16.126 44.676,16.242 44.03,16.242 L44.03,16.242 Z" id="Fill-569" fill="#FFFFFE"></path>
            <path d="M63.865,6.703 C61.933,5.098 56.586,10.02 42.674,12.647 C44.508,11.954 45.159,10.932 45.228,9.909 C45.541,5.3 41.546,5.511 41.546,5.511 C21.036,5.751 36.635,0.882 8.751,0.75 L8.751,18.727 C8.751,18.727 39.459,29.159 62.714,11.265 C62.714,11.265 66.39,8.803 63.865,6.703" id="Fill-580" fill="#0A45A4"></path>
            <path d="M63.865,6.703 C63.297,6.231 62.422,6.333 61.133,6.766 C60.563,7.644 59.696,8.277 59.696,8.277 C41.114,23.736 16.763,20.181 8.751,18.446 L8.751,18.727 C8.751,18.727 39.459,29.159 62.714,11.265 C62.714,11.265 66.39,8.803 63.865,6.703" id="Fill-581" fill-opacity="0.304632867" fill="#FFFFFF"></path>
            <path d="M9.5,18.176 C13.577,19.404 41.214,26.864 62.257,10.671 C62.723,10.354 63.953,9.321 63.999,8.391 C64.006,8.248 64.028,7.814 63.386,7.28 C62.828,6.817 61.079,7.536 58.66,8.53 C55.325,9.901 50.285,11.974 42.813,13.386 C42.43,13.46 42.057,13.226 41.952,12.852 C41.847,12.477 42.044,12.085 42.408,11.947 C43.723,11.449 44.419,10.747 44.48,9.859 C44.565,8.607 44.307,7.668 43.713,7.064 C42.878,6.217 41.603,6.262 41.585,6.26 C31.811,6.368 30.033,5.353 27.978,4.17 C25.897,2.973 23.543,1.618 9.5,1.505 L9.5,18.176 Z M29.496,22.452 C17.635,22.452 8.675,19.493 8.509,19.436 C8.205,19.333 8,19.048 8,18.727 L8,0.75 C8,0.551 8.08,0.359 8.221,0.219 C8.362,0.077 8.569,0.024 8.754,-5.32907052e-15 C23.865,0.072 26.447,1.559 28.726,2.87 C30.591,3.943 32.2,4.867 41.537,4.761 C41.584,4.763 43.465,4.676 44.781,6.012 C45.689,6.934 46.092,8.263 45.976,9.961 C45.949,10.356 45.849,10.808 45.607,11.265 C51.274,9.945 55.292,8.293 58.09,7.144 C61.315,5.817 63.094,5.088 64.344,6.126 C65.354,6.966 65.529,7.864 65.497,8.471 C65.402,10.316 63.364,11.733 63.132,11.889 C52.313,20.214 39.808,22.452 29.496,22.452 L29.496,22.452 Z" id="Fill-582" fill="#FFFFFF"></path>
            <path d="M35.696,14.23 C33.164,14.23 30.247,14.014 26.959,13.579 C26.548,13.525 26.259,13.148 26.313,12.738 C26.368,12.327 26.744,12.035 27.155,12.093 C35.707,13.22 40.194,12.627 42.453,11.932 C42.848,11.809 43.269,12.032 43.39,12.428 C43.513,12.823 43.29,13.243 42.894,13.365 C41.023,13.941 38.616,14.23 35.696,14.23" id="Fill-583" fill="#FFFFFE"></path>
            <path d="M8.751,0.75 L8.751,18.75 L0.751,18.75 L0.751,15.75 L4.75,15.75 C5.2635,15.75 5.68560204,15.3637143 5.74328243,14.8665685 L5.75,14.75 L5.75,0.75 L8.751,0.75 Z" id="Fill-587" fill-opacity="0.304632867" fill="#FFFFFF"></path>
            <path d="M1.5,18 L8,18 L8,1.5 L1.5,1.5 L1.5,18 Z M8.75,19.5 L0.75,19.5 C0.336,19.5 0,19.164 0,18.75 L0,0.75 C0,0.336 0.336,0 0.75,0 L8.75,0 C9.164,0 9.5,0.336 9.5,0.75 L9.5,18.75 C9.5,19.164 9.164,19.5 8.75,19.5 L8.75,19.5 Z" id="Fill-586" fill="#FFFFFE"></path>
        </g>
        <path d="M12.28075,40.21975 L13.25,41.189 L14.21975,40.21975 C14.51275,39.92675 14.98775,39.92675 15.28075,40.21975 C15.57375,40.51275 15.57375,40.98775 15.28075,41.28075 L14.311,42.25 L15.28075,43.21975 C15.57375,43.51275 15.57375,43.98775 15.28075,44.28075 C15.13375,44.42675 14.94275,44.49975 14.74975,44.49975 C14.55775,44.49975 14.36675,44.42675 14.21975,44.28075 L13.25,43.311 L12.28075,44.28075 C12.13375,44.42675 11.94275,44.49975 11.74975,44.49975 C11.55775,44.49975 11.36675,44.42675 11.21975,44.28075 C10.92675,43.98775 10.92675,43.51275 11.21975,43.21975 L12.189,42.25 L11.21975,41.28075 C10.92675,40.98775 10.92675,40.51275 11.21975,40.21975 C11.51275,39.92675 11.98775,39.92675 12.28075,40.21975 Z" id="Fill-233" fill="#FFFFFE"></path>
        <path d="M9.28075,64.21975 L10.25,65.189 L11.21975,64.21975 C11.51275,63.92675 11.98775,63.92675 12.28075,64.21975 C12.57375,64.51275 12.57375,64.98775 12.28075,65.28075 L11.311,66.25 L12.28075,67.21975 C12.57375,67.51275 12.57375,67.98775 12.28075,68.28075 C12.13375,68.42675 11.94275,68.49975 11.74975,68.49975 C11.55775,68.49975 11.36675,68.42675 11.21975,68.28075 L10.25,67.311 L9.28075,68.28075 C9.13375,68.42675 8.94275,68.49975 8.74975,68.49975 C8.55775,68.49975 8.36675,68.42675 8.21975,68.28075 C7.92675,67.98775 7.92675,67.51275 8.21975,67.21975 L9.189,66.25 L8.21975,65.28075 C7.92675,64.98775 7.92675,64.51275 8.21975,64.21975 C8.51275,63.92675 8.98775,63.92675 9.28075,64.21975 Z" id="Fill-233" fill="#FFFFFE"></path>
        <path d="M22.28075,75.21975 L23.25,76.189 L24.21975,75.21975 C24.51275,74.92675 24.98775,74.92675 25.28075,75.21975 C25.57375,75.51275 25.57375,75.98775 25.28075,76.28075 L24.311,77.25 L25.28075,78.21975 C25.57375,78.51275 25.57375,78.98775 25.28075,79.28075 C25.13375,79.42675 24.94275,79.49975 24.74975,79.49975 C24.55775,79.49975 24.36675,79.42675 24.21975,79.28075 L23.25,78.311 L22.28075,79.28075 C22.13375,79.42675 21.94275,79.49975 21.74975,79.49975 C21.55775,79.49975 21.36675,79.42675 21.21975,79.28075 C20.92675,78.98775 20.92675,78.51275 21.21975,78.21975 L22.189,77.25 L21.21975,76.28075 C20.92675,75.98775 20.92675,75.51275 21.21975,75.21975 C21.51275,74.92675 21.98775,74.92675 22.28075,75.21975 Z" id="Fill-233" fill="#FFFFFE"></path>
        <path d="M60.28075,59.21975 L61.25,60.189 L62.21975,59.21975 C62.51275,58.92675 62.98775,58.92675 63.28075,59.21975 C63.57375,59.51275 63.57375,59.98775 63.28075,60.28075 L62.311,61.25 L63.28075,62.21975 C63.57375,62.51275 63.57375,62.98775 63.28075,63.28075 C63.13375,63.42675 62.94275,63.49975 62.74975,63.49975 C62.55775,63.49975 62.36675,63.42675 62.21975,63.28075 L61.25,62.311 L60.28075,63.28075 C60.13375,63.42675 59.94275,63.49975 59.74975,63.49975 C59.55775,63.49975 59.36675,63.42675 59.21975,63.28075 C58.92675,62.98775 58.92675,62.51275 59.21975,62.21975 L60.189,61.25 L59.21975,60.28075 C58.92675,59.98775 58.92675,59.51275 59.21975,59.21975 C59.51275,58.92675 59.98775,58.92675 60.28075,59.21975 Z" id="Fill-233" fill="#FFFFFE"></path>
        <path d="M67.28075,45.21975 L68.25,46.189 L69.21975,45.21975 C69.51275,44.92675 69.98775,44.92675 70.28075,45.21975 C70.57375,45.51275 70.57375,45.98775 70.28075,46.28075 L69.311,47.25 L70.28075,48.21975 C70.57375,48.51275 70.57375,48.98775 70.28075,49.28075 C70.13375,49.42675 69.94275,49.49975 69.74975,49.49975 C69.55775,49.49975 69.36675,49.42675 69.21975,49.28075 L68.25,48.311 L67.28075,49.28075 C67.13375,49.42675 66.94275,49.49975 66.74975,49.49975 C66.55775,49.49975 66.36675,49.42675 66.21975,49.28075 C65.92675,48.98775 65.92675,48.51275 66.21975,48.21975 L67.189,47.25 L66.21975,46.28075 C65.92675,45.98775 65.92675,45.51275 66.21975,45.21975 C66.51275,44.92675 66.98775,44.92675 67.28075,45.21975 Z" id="Fill-233" fill="#FFFFFE"></path>
    </g>
</svg>
