<?xml version="1.0" encoding="UTF-8"?>
<svg width="78px" height="100px" viewBox="0 0 78 100" version="1.1" xmlns="http://www.w3.org/2000/svg" xmlns:xlink="http://www.w3.org/1999/xlink">
    <!-- Generator: Sketch 59.1 (86144) - https://sketch.com -->
    <title>lineart_set_up</title>
    <desc>Created with Sketch.</desc>
    <g id="lineart_set_up" stroke="none" stroke-width="1" fill="none" fill-rule="evenodd">
        <path d="M46.75,79.751 C47.854,79.751 48.75,78.855 48.75,77.751 L48.75,75.751 L52.75,75.751 L52.75,81.751 L26.75,81.751 L26.75,79.751 L46.75,79.751 Z" id="Fill-418" fill-opacity="0.304632867" fill="#FFFFFF"></path>
        <path d="M52.75,75.001 C53.164,75.001 53.5,75.337 53.5,75.751 L53.5,81.751 C53.5,82.165 53.164,82.501 52.75,82.501 L26.75,82.501 C26.336,82.501 26,82.165 26,81.751 L26,75.751 C26,75.337 26.336,75.001 26.75,75.001 L52.75,75.001 Z M52,76.501 L27.5,76.501 L27.5,81.001 L52,81.001 L52,76.501 Z" id="Fill-401" fill="#FFFFFE"></path>
        <path d="M71.75,69.751 L71.75,72.751 C71.75,74.408 70.407,75.751 68.75,75.751 L10.75,75.751 C9.4440029,75.751 8.33306618,74.9167131 7.92100877,73.7519583 L65.75,73.751 C66.854,73.751 67.75,72.855 67.75,71.751 L67.75,71.751 L67.75,69.751 L71.75,69.751 Z" id="Fill-419" fill-opacity="0.304632867" fill="#FFFFFF"></path>
        <path d="M71.75,69.001 C72.164,69.001 72.5,69.337 72.5,69.751 L72.5,72.751 C72.5,74.819 70.818,76.501 68.75,76.501 L10.75,76.501 C8.682,76.501 7,74.819 7,72.751 L7,69.751 C7,69.337 7.336,69.001 7.75,69.001 L71.75,69.001 Z M71,70.501 L8.5,70.501 L8.5,72.751 C8.5,73.992 9.509,75.001 10.75,75.001 L68.75,75.001 C69.991,75.001 71,73.992 71,72.751 L71,70.501 Z" id="Fill-404" fill="#FFFFFE"></path>
        <path d="M59.75,82.501 L19.75,82.501 C19.336,82.501 19,82.165 19,81.751 C19,81.337 19.336,81.001 19.75,81.001 L59.75,81.001 C60.164,81.001 60.5,81.337 60.5,81.751 C60.5,82.165 60.164,82.501 59.75,82.501" id="Fill-405" fill="#FFFFFE"></path>
        <path d="M7.75,63.751 L15.8579682,63.751 L15.8579682,69.751 L7.75,69.751 L7.75,63.751 Z M68.75,29.751 C70.407,29.751 71.75,31.095 71.75,32.751 L71.75,69.751 L63.75,69.751 L63.651591,63.751 L65.75,63.751 C66.854,63.751 67.75,62.855 67.75,61.751 L67.75,61.751 L67.75,29.751 L68.75,29.751 Z" id="Fill-415" fill-opacity="0.304632867" fill="#FFFFFF"></path>
        <path d="M71,69.001 L71,32.751 C71,31.511 69.991,30.501 68.75,30.501 L63,30.501 L63,29.001 L68.75,29.001 C70.818,29.001 72.5,30.684 72.5,32.751 L72.5,69.751 C72.5,70.165 72.164,70.501 71.75,70.501 L7.75,70.501 C7.336,70.501 7,70.165 7,69.751 L7,32.751 C7,30.684 8.682,29.001 10.75,29.001 L16.5,29.001 L16.5,30.501 L10.75,30.501 C9.509,30.501 8.5,31.511 8.5,32.751 L8.5,69.001 L71,69.001 Z" id="Fill-408" fill="#FFFFFE"></path>
        <path d="M61.75,17.75 C62.854,17.75 63.75,18.646 63.75,19.75 L63.75,25.75 L48.748,25.75 L48.748,17.75 L61.75,17.75 Z" id="Fill-417" fill-opacity="0.304632867" fill="#FFFFFF"></path>
        <path d="M16.5,25 L63,25 L63,19.75 C63,19.061 62.44,18.5 61.75,18.5 L17.75,18.5 C17.061,18.5 16.5,19.061 16.5,19.75 L16.5,25 Z M63.75,26.5 L15.75,26.5 C15.336,26.5 15,26.164 15,25.75 L15,19.75 C15,18.234 16.233,17 17.75,17 L61.75,17 C63.267,17 64.5,18.234 64.5,19.75 L64.5,25.75 C64.5,26.164 64.164,26.5 63.75,26.5 L63.75,26.5 Z" id="Fill-411" fill="#FFFFFE"></path>
        <path d="M51.749,22.503 C51.549,22.503 51.359,22.423 51.219,22.283 C51.079,22.142 50.999,21.953 50.999,21.753 C50.999,21.552 51.079,21.363 51.219,21.222 C51.499,20.943 51.999,20.943 52.279,21.222 C52.419,21.363 52.499,21.552 52.499,21.753 C52.499,21.943 52.419,22.142 52.279,22.283 C52.139,22.423 51.949,22.503 51.749,22.503" id="Fill-412" fill="#FFFFFE"></path>
        <path d="M54.999,21.753 C54.999,21.333 55.339,21.003 55.749,21.003 C56.169,21.003 56.499,21.333 56.499,21.753 C56.499,22.163 56.169,22.503 55.749,22.503 C55.339,22.503 54.999,22.163 54.999,21.753" id="Fill-413" fill="#FFFFFE"></path>
        <path d="M59.749,22.503 C59.549,22.503 59.359,22.423 59.219,22.283 C59.079,22.142 58.999,21.953 58.999,21.753 C58.999,21.552 59.079,21.363 59.219,21.222 C59.509,20.933 59.999,20.943 60.279,21.212 C60.419,21.363 60.499,21.552 60.499,21.753 C60.499,21.953 60.419,22.142 60.279,22.283 C60.139,22.423 59.949,22.503 59.749,22.503" id="Fill-414" fill="#FFFFFE"></path>
        <path d="M63.75,25 C64.164,25 64.5,25.336 64.5,25.75 L64.5,53.124 L63,52.609 L63,26.5 L16.5,26.5 L16.5,69.001 L63,69.001 L63,57.929 L64.5,57.261 L64.5,69.751 C64.5,70.165 64.164,70.501 63.75,70.501 L15.75,70.501 C15.336,70.501 15,70.165 15,69.751 L15,25.75 C15,25.336 15.336,25 15.75,25 L63.75,25 Z" id="Fill-215" fill="#FFFFFE"></path>
        <path d="M3.75,56.501 C3.336,56.501 3,56.165 3,55.751 L3,44.967 C3,44.553 3.336,44.217 3.75,44.217 C4.164,44.217 4.5,44.553 4.5,44.967 L4.5,55.751 C4.5,56.165 4.164,56.501 3.75,56.501" id="Fill-440" fill="#FFFFFE"></path>
        <path d="M3.75,41.716 C3.336,41.716 3,41.38 3,40.966 L3,38.752 C3,38.338 3.336,38.002 3.75,38.002 C4.164,38.002 4.5,38.338 4.5,38.752 L4.5,40.966 C4.5,41.38 4.164,41.716 3.75,41.716" id="Fill-441" fill="#FFFFFE"></path>
        <path d="M75.75,73.5 C75.336,73.5 75,73.164 75,72.75 L75,57.966 C75,57.552 75.336,57.216 75.75,57.216 C76.164,57.216 76.5,57.552 76.5,57.966 L76.5,72.75 C76.5,73.164 76.164,73.5 75.75,73.5" id="Fill-442" fill="#FFFFFE"></path>
        <path d="M75.75,54.715 C75.336,54.715 75,54.379 75,53.965 L75,51.751 C75,51.337 75.336,51.001 75.75,51.001 C76.164,51.001 76.5,51.337 76.5,51.751 L76.5,53.965 C76.5,54.379 76.164,54.715 75.75,54.715" id="Fill-443" fill="#FFFFFE"></path>
        <polyline id="Fill-213" fill-opacity="0.304632867" fill="#FFFFFF" points="51.7495467 48.7492901 61.5665467 58.5672901 57.9255467 66.7492901 51.7495467 48.7492901"></polyline>
        <path d="M52.9575467,49.9562901 L58.0165467,64.7022901 L60.8815467,58.2622901 C60.9575467,58.0922901 61.0925467,57.9572901 61.2625467,57.8812901 L67.7025467,55.0162901 L52.9575467,49.9562901 Z M57.9255467,67.4992901 L57.8925467,67.4992901 C57.5845467,67.4852901 57.3165467,67.2842901 57.2165467,66.9932901 L51.0405467,48.9932901 C50.9475467,48.7212901 51.0175467,48.4222901 51.2195467,48.2192901 C51.4225467,48.0162901 51.7225467,47.9482901 51.9935467,48.0402901 L69.9935467,54.2162901 C70.2855467,54.3162901 70.4855467,54.5852901 70.4995467,54.8932901 C70.5125467,55.2012901 70.3365467,55.4852901 70.0545467,55.6102901 L62.1345467,59.1342901 L58.6105467,67.0542901 C58.4905467,67.3262901 58.2215467,67.4992901 57.9255467,67.4992901 L57.9255467,67.4992901 Z" id="Fill-214" fill="#FFFFFE"></path>
        <circle id="Oval" stroke="#FFFFFE" stroke-width="1.5" fill="#0957CB" cx="9" cy="82" r="8"></circle>
        <text id="3" font-family="VarelaRound-Regular, Varela Round" font-size="12" font-weight="normal" letter-spacing="0.6" fill="#FFFFFE">
            <tspan x="5.432" y="86">3</tspan>
        </text>
    </g>
</svg>