<?xml version="1.0" encoding="UTF-8"?>
<svg width="78px" height="100px" viewBox="0 0 78 100" version="1.1" xmlns="http://www.w3.org/2000/svg" xmlns:xlink="http://www.w3.org/1999/xlink">
    <!-- Generator: Sketch 59.1 (86144) - https://sketch.com -->
    <title>lineart_exchange</title>
    <desc>Created with Sketch.</desc>
    <g id="lineart_exchange" stroke="none" stroke-width="1" fill="none" fill-rule="evenodd">
        <path d="M39.75,17.74975 L71.75,33.74975 L60.75,33.74975 L34.25,20.49975 L39.75,17.74975 Z" id="Fill-201" fill-opacity="0.304632867" fill="#FFFFFF"></path>
        <path d="M10.927,32.99875 L68.574,32.99875 L39.75,18.58775 L10.927,32.99875 Z M71.75,34.49875 L7.75,34.49875 C7.403,34.49875 7.1,34.25975 7.021,33.92175 C6.941,33.58275 7.104,33.23475 7.416,33.07775 L39.416,17.07875 C39.626,16.97375 39.875,16.97375 40.085,17.07875 L72.085,33.07775 C72.397,33.23475 72.56,33.58275 72.48,33.92175 C72.401,34.25975 72.098,34.49875 71.75,34.49875 L71.75,34.49875 Z" id="Fill-197" fill="#FFFFFE"></path>
        <path d="M30.927,28.49975 L48.574,28.49975 L39.75,24.08875 L30.927,28.49975 Z M51.751,29.99975 L27.75,29.99975 C27.402,29.99975 27.099,29.76175 27.02,29.42275 C26.94,29.08375 27.103,28.73575 27.415,28.57975 L39.416,22.57975 C39.626,22.47475 39.875,22.47475 40.085,22.57975 L52.086,28.57975 C52.398,28.73575 52.561,29.08375 52.481,29.42275 C52.402,29.76175 52.099,29.99975 51.751,29.99975 L51.751,29.99975 Z" id="Fill-199" fill="#FFFFFE"></path>
        <polygon id="Fill-200" fill-opacity="0.304632867" fill="#FFFFFF" points="60.75 39.74975 68.75 39.74975 68.75 33.74975 60.75 33.74975"></polygon>
        <path d="M11.5,38.99875 L68,38.99875 L68,34.49875 L11.5,34.49875 L11.5,38.99875 Z M10.75,40.49875 C10.336,40.49875 10,40.16275 10,39.74875 L10,33.74875 C10,33.33475 10.336,32.99875 10.75,32.99875 L68.75,32.99875 C69.165,32.99875 69.5,33.33475 69.5,33.74875 L69.5,39.74875 C69.5,40.16275 69.165,40.49875 68.75,40.49875 L10.75,40.49875 Z" id="Fill-202" fill="#FFFFFE"></path>
        <polygon id="Fill-203" fill-opacity="0.304632867" fill="#FFFFFF" points="60.75 81.74975 68.75 81.74975 68.75 75.74975 60.75 75.74975"></polygon>
        <path d="M11.5,80.99975 L68,80.99975 L68,76.49975 L11.5,76.49975 L11.5,80.99975 Z M10.75,82.49975 C10.336,82.49975 10,82.16375 10,81.74975 L10,75.74975 C10,75.33575 10.336,74.99975 10.75,74.99975 L68.75,74.99975 C69.165,74.99975 69.5,75.33575 69.5,75.74975 L69.5,81.74975 C69.5,82.16375 69.165,82.49975 68.75,82.49975 L10.75,82.49975 Z" id="Fill-205" fill="#FFFFFE"></path>
        <path d="M7.75,82.49975 C7.336,82.49975 7,82.16375 7,81.74975 C7,81.33575 7.336,80.99975 7.75,80.99975 L71.75,80.99975 C72.165,80.99975 72.5,81.33575 72.5,81.74975 C72.5,82.16375 72.165,82.49975 71.75,82.49975 L7.75,82.49975 Z" id="Fill-206" fill="#FFFFFE"></path>
        <path d="M14,75.74975 L14,69.12475 C14,68.71075 14.336,68.37475 14.75,68.37475 C15.165,68.37475 15.5,68.71075 15.5,69.12475 L15.5,75.74975 C15.5,76.16375 15.165,76.49975 14.75,76.49975 C14.336,76.49975 14,76.16375 14,75.74975 Z" id="Fill-207" fill="#FFFFFE"></path>
        <path d="M14,60.12475 L14,39.74975 C14,39.33575 14.336,38.99975 14.75,38.99975 C15.165,38.99975 15.5,39.33575 15.5,39.74975 L15.5,60.12475 C15.5,60.53875 15.165,60.87475 14.75,60.87475 C14.336,60.87475 14,60.53875 14,60.12475 Z" id="Fill-208" fill="#FFFFFE"></path>
        <path d="M21.144,75.74975 L21.144,63.12475 C21.144,62.71075 21.48,62.37475 21.894,62.37475 C22.308,62.37475 22.644,62.71075 22.644,63.12475 L22.644,75.74975 C22.644,76.16375 22.308,76.49975 21.894,76.49975 C21.48,76.49975 21.144,76.16375 21.144,75.74975 Z" id="Fill-209" fill="#FFFFFE"></path>
        <path d="M21.144,54.12475 L21.144,39.74975 C21.144,39.33575 21.48,38.99975 21.894,38.99975 C22.308,38.99975 22.644,39.33575 22.644,39.74975 L22.644,54.12475 C22.644,54.53875 22.308,54.87475 21.894,54.87475 C21.48,54.87475 21.144,54.53875 21.144,54.12475 Z" id="Fill-210" fill="#FFFFFE"></path>
        <path d="M28.287,75.74975 L28.287,66.99975 C28.287,66.58575 28.623,66.24975 29.037,66.24975 C29.451,66.24975 29.787,66.58575 29.787,66.99975 L29.787,75.74975 C29.787,76.16375 29.451,76.49975 29.037,76.49975 C28.623,76.49975 28.287,76.16375 28.287,75.74975 Z" id="Fill-211" fill="#FFFFFE"></path>
        <path d="M28.287,56.99875 L28.287,39.74975 C28.287,39.33575 28.623,38.99975 29.037,38.99975 C29.451,38.99975 29.787,39.33575 29.787,39.74975 L29.787,56.99875 C29.787,57.41275 29.451,57.74875 29.037,57.74875 C28.623,57.74875 28.287,57.41275 28.287,56.99875 Z" id="Fill-212" fill="#FFFFFE"></path>
        <path d="M35.429,75.74975 L35.429,60.74975 C35.429,60.33575 35.765,59.99975 36.179,59.99975 C36.593,59.99975 36.929,60.33575 36.929,60.74975 L36.929,75.74975 C36.929,76.16375 36.593,76.49975 36.179,76.49975 C35.765,76.49975 35.429,76.16375 35.429,75.74975 Z" id="Fill-213" fill="#FFFFFE"></path>
        <path d="M35.429,46.74975 L35.429,39.74975 C35.429,39.33575 35.765,38.99975 36.179,38.99975 C36.593,38.99975 36.929,39.33575 36.929,39.74975 L36.929,46.74975 C36.929,47.16375 36.593,47.49975 36.179,47.49975 C35.765,47.49975 35.429,47.16375 35.429,46.74975 Z" id="Fill-214" fill="#FFFFFE"></path>
        <path d="M42.572,75.74975 L42.572,69.74975 C42.572,69.33575 42.908,68.99975 43.322,68.99975 C43.736,68.99975 44.072,69.33575 44.072,69.74975 L44.072,75.74975 C44.072,76.16375 43.736,76.49975 43.322,76.49975 C42.908,76.49975 42.572,76.16375 42.572,75.74975 Z" id="Fill-215" fill="#FFFFFE"></path>
        <path d="M42.572,58.74975 L42.572,39.74975 C42.572,39.33575 42.908,38.99975 43.322,38.99975 C43.736,38.99975 44.072,39.33575 44.072,39.74975 L44.072,58.74975 C44.072,59.16375 43.736,59.49975 43.322,59.49975 C42.908,59.49975 42.572,59.16375 42.572,58.74975 Z" id="Fill-216" fill="#FFFFFE"></path>
        <path d="M49.714,75.74975 L49.714,64.37475 C49.714,63.96075 50.05,63.62475 50.464,63.62475 C50.878,63.62475 51.214,63.96075 51.214,64.37475 L51.214,75.74975 C51.214,76.16375 50.878,76.49975 50.464,76.49975 C50.05,76.49975 49.714,76.16375 49.714,75.74975 Z" id="Fill-217" fill="#FFFFFE"></path>
        <path d="M49.714,55.37475 L49.714,39.74975 C49.714,39.33575 50.05,38.99975 50.464,38.99975 C50.878,38.99975 51.214,39.33575 51.214,39.74975 L51.214,55.37475 C51.214,55.78875 50.878,56.12475 50.464,56.12475 C50.05,56.12475 49.714,55.78875 49.714,55.37475 Z" id="Fill-218" fill="#FFFFFE"></path>
        <path d="M56.857,75.74975 L56.857,67.62475 C56.857,67.21075 57.193,66.87475 57.607,66.87475 C58.021,66.87475 58.357,67.21075 58.357,67.62475 L58.357,75.74975 C58.357,76.16375 58.021,76.49975 57.607,76.49975 C57.193,76.49975 56.857,76.16375 56.857,75.74975 Z" id="Fill-219" fill="#FFFFFE"></path>
        <path d="M56.857,56.62475 L56.857,39.74975 C56.857,39.33575 57.193,38.99975 57.607,38.99975 C58.021,38.99975 58.357,39.33575 58.357,39.74975 L58.357,56.62475 C58.357,57.03875 58.021,57.37475 57.607,57.37475 C57.193,57.37475 56.857,57.03875 56.857,56.62475 Z" id="Fill-220" fill="#FFFFFE"></path>
        <path d="M64,75.74975 L64,58.74975 C64,58.33575 64.336,57.99975 64.75,57.99975 C65.165,57.99975 65.5,58.33575 65.5,58.74975 L65.5,75.74975 C65.5,76.16375 65.165,76.49975 64.75,76.49975 C64.336,76.49975 64,76.16375 64,75.74975 Z" id="Fill-221" fill="#FFFFFE"></path>
        <path d="M64,47.74975 L64,39.74975 C64,39.33575 64.336,38.99975 64.75,38.99975 C65.165,38.99975 65.5,39.33575 65.5,39.74975 L65.5,47.74975 C65.5,48.16375 65.165,48.49975 64.75,48.49975 C64.336,48.49975 64,48.16375 64,47.74975 Z" id="Fill-222" fill="#FFFFFE"></path>
        <path d="M65.14,51.10975 C65.494,51.32475 65.607,51.78575 65.391,52.14075 C62.692,56.57875 58.609,63.32475 58.298,63.91375 C58.235,64.06775 58.121,64.19875 57.972,64.28175 C57.5,64.54575 57.494,64.55875 50.548,60.30575 L43.821,66.30975 C43.683,66.43375 43.504,66.49975 43.322,66.49975 L43.198,66.49075 C42.974,66.45275 42.779,66.31475 42.667,66.11675 L37.2982663,56.5341687 C37.7771663,56.3416029 38.1948751,56.0291042 38.5141959,55.6337611 L43.519,64.56875 L49.965,58.81575 C50.211,58.59575 50.575,58.56275 50.856,58.73575 C52.896,59.98475 56.031,61.88675 57.317,62.62675 C58.011,61.41075 59.75,58.53175 64.11,51.36175 C64.324,51.00675 64.786,50.89375 65.14,51.10975 Z M33.6122281,55.3041253 C33.8783055,55.7427206 34.2536354,56.1075522 34.7004793,56.3609916 L29.647,63.43575 C29.41,63.76875 28.952,63.84975 28.614,63.61975 L21.979,59.09175 L15.275,65.65975 C14.981,65.95075 14.506,65.94575 14.214,65.64975 C13.925,65.35375 13.93,64.87875 14.226,64.58875 L21.369,57.58975 C21.625,57.33875 22.021,57.30475 22.317,57.50575 L28.853,61.96675 Z" id="Fill-234" fill="#FFFFFE"></path>
        <path d="M37.039,50.89075 C37.122,51.16375 37.179,51.44975 37.179,51.74975 C37.179,53.40775 35.835,54.74975 34.179,54.74975 C33.878,54.74975 33.593,54.69375 33.32,54.61075 C33.691,55.84575 34.824,56.74975 36.179,56.74975 C37.836,56.74975 39.179,55.40775 39.179,53.74975 C39.179,52.39475 38.274,51.26175 37.039,50.89075" id="Fill-225" fill-opacity="0.304632867" fill="#FFFFFF"></path>
        <path d="M36.179,51.49975 C34.939,51.49975 33.929,52.50975 33.929,53.74975 C33.929,54.99175 34.939,55.99975 36.179,55.99975 C37.419,55.99975 38.429,54.99175 38.429,53.74975 C38.429,52.50975 37.419,51.49975 36.179,51.49975 Z M36.179,57.49975 C34.112,57.49975 32.429,55.81875 32.429,53.74975 C32.429,51.68275 34.112,49.99975 36.179,49.99975 C38.247,49.99975 39.929,51.68275 39.929,53.74975 C39.929,55.81875 38.247,57.49975 36.179,57.49975 L36.179,57.49975 Z" id="Fill-226" fill="#FFFFFE"></path>
        <path d="M11.28075,22.21975 L12.25,23.189 L13.21975,22.21975 C13.51275,21.92675 13.98775,21.92675 14.28075,22.21975 C14.57375,22.51275 14.57375,22.98775 14.28075,23.28075 L13.311,24.25 L14.28075,25.21975 C14.57375,25.51275 14.57375,25.98775 14.28075,26.28075 C14.13375,26.42675 13.94275,26.49975 13.74975,26.49975 C13.55775,26.49975 13.36675,26.42675 13.21975,26.28075 L12.25,25.311 L11.28075,26.28075 C11.13375,26.42675 10.94275,26.49975 10.74975,26.49975 C10.55775,26.49975 10.36675,26.42675 10.21975,26.28075 C9.92675,25.98775 9.92675,25.51275 10.21975,25.21975 L11.189,24.25 L10.21975,23.28075 C9.92675,22.98775 9.92675,22.51275 10.21975,22.21975 C10.51275,21.92675 10.98775,21.92675 11.28075,22.21975 Z" id="Fill-233" fill="#FFFFFE"></path>
        <path d="M25.74975,17.49975 C25.55775,17.49975 25.36675,17.42675 25.21975,17.28075 L22.21975,14.28075 C21.92675,13.98775 21.92675,13.51275 22.21975,13.21975 C22.51275,12.92675 22.98775,12.92675 23.28075,13.21975 L26.28075,16.21975 C26.57375,16.51275 26.57375,16.98775 26.28075,17.28075 C26.13375,17.42675 25.94275,17.49975 25.74975,17.49975" id="Fill-229" fill="#FFFFFE"></path>
        <path d="M22.74975,17.49975 C22.55775,17.49975 22.36675,17.42675 22.21975,17.28075 C21.92675,16.98775 21.92675,16.51275 22.21975,16.21975 L25.21975,13.21975 C25.51275,12.92675 25.98775,12.92675 26.28075,13.21975 C26.57375,13.51275 26.57375,13.98775 26.28075,14.28075 L23.28075,17.28075 C23.13375,17.42675 22.94275,17.49975 22.74975,17.49975" id="Fill-230" fill="#FFFFFE"></path>
        <path d="M63.74975,23.49875 C63.55775,23.49875 63.36675,23.42675 63.21975,23.28075 L60.21975,20.28075 C59.92675,19.98775 59.92675,19.51275 60.21975,19.21975 C60.51275,18.92675 60.98775,18.92675 61.28075,19.21975 L64.28075,22.21975 C64.57375,22.51275 64.57375,22.98775 64.28075,23.28075 C64.13375,23.42675 63.94275,23.49875 63.74975,23.49875" id="Fill-231" fill="#FFFFFE"></path>
        <path d="M60.74975,23.49875 C60.55775,23.49875 60.36675,23.42675 60.21975,23.28075 C59.92675,22.98775 59.92675,22.51275 60.21975,22.21975 L63.21975,19.21975 C63.51275,18.92675 63.98775,18.92675 64.28075,19.21975 C64.57375,19.51275 64.57375,19.98775 64.28075,20.28075 L61.28075,23.28075 C61.13375,23.42675 60.94275,23.49875 60.74975,23.49875" id="Fill-232" fill="#FFFFFE"></path>
        <circle id="Oval" stroke="#FFFFFE" stroke-width="1.5" fill="#0A45A4" cx="9" cy="82" r="8"></circle>
        <text id="1" font-family="VarelaRound-Regular, Varela Round" font-size="12" font-weight="normal" letter-spacing="0.6" fill="#FFFFFE">
            <tspan x="5.432" y="86">1</tspan>
        </text>
    </g>
</svg>
