<?xml version="1.0" encoding="UTF-8"?>
<svg width="78px" height="100px" viewBox="0 0 78 100" version="1.1" xmlns="http://www.w3.org/2000/svg" xmlns:xlink="http://www.w3.org/1999/xlink">
    <!-- Generator: Sketch 59.1 (86144) - https://sketch.com -->
    <title>lineart_mitigate_risk</title>
    <desc>Created with Sketch.</desc>
    <g id="lineart_mitigate_risk" stroke="none" stroke-width="1" fill="none" fill-rule="evenodd">
        <path d="M30.756,85.5 L16.759,85.5 C16.345,85.5 16.009,85.164 16.009,84.75 C16.009,84.336 16.345,84 16.759,84 L30.756,84 C31.17,84 31.506,84.336 31.506,84.75 C31.506,85.164 31.17,85.5 30.756,85.5" id="Fill-862" fill="#FFFFFE"></path>
        <path d="M53.757,85.5 L34.757,85.5 C34.343,85.5 34.007,85.164 34.007,84.75 C34.007,84.336 34.343,84 34.757,84 L53.757,84 C54.171,84 54.507,84.336 54.507,84.75 C54.507,85.164 54.171,85.5 53.757,85.5" id="Fill-863" fill="#FFFFFE"></path>
        <path d="M60.759,85.5 L57.757,85.5 C57.343,85.5 57.007,85.164 57.007,84.75 C57.007,84.336 57.343,84 57.757,84 L60.759,84 C61.173,84 61.509,84.336 61.509,84.75 C61.509,85.164 61.173,85.5 60.759,85.5" id="Fill-864" fill="#FFFFFE"></path>
        <path d="M36.017,33.88 C36.017,39.956 31.092,44.88 25.017,44.88 C24.391,44.88 23.782,44.816 23.184,44.715 C25.157,46.591 27.819,47.751 30.756,47.751 C32.4410327,47.751 34.0374655,47.3722197 35.4648451,46.6951763 C35.5642567,46.6480228 37.6677879,41.8416896 37.7366336,41.746 C38.5788779,40.5753517 39.893801,39.3396855 41.6814029,38.0390013 C41.7311343,37.4708096 41.756,37.0414758 41.756,36.751 C41.756,31.301 37.79,26.79 32.589,25.916 C34.697,27.92 36.017,30.743 36.017,33.88 Z" id="Fill-866" fill-opacity="0.304632867" fill="#FFFFFF"></path>
        <path d="M30.756,26.5 C25.104,26.5 20.506,31.097 20.506,36.75 C20.506,42.402 25.104,47 30.756,47 C32.6611372,47 34.446336,46.4777679 35.9760562,45.5689588 C37.4108996,44.716516 36.8631837,42.7119382 37.7366336,41.2912199 C38.3882744,40.2312872 40.6103408,39.8563828 40.8408084,38.5889454 C40.9493201,37.9921938 41.006,37.3775947 41.006,36.75 C41.006,31.097 36.409,26.5 30.756,26.5 Z M19.006,36.75 C19.006,30.271 24.278,25 30.756,25 C37.235,25 42.506,30.271 42.506,36.75 C42.506,36.9282685 42.4971139,37.1935209 42.4793417,37.5457574 C40.1838041,39.1770109 38.6029014,40.5770917 37.7366336,41.746 C37.0506104,42.6716931 36.5560931,44.4397886 36.2530815,47.0502865 C36.0803348,47.1954697 35.9394521,47.2942722 35.8304335,47.3466942 C34.293554,48.085708 32.5722414,48.5 30.756,48.5 C24.278,48.5 19.006,43.228 19.006,36.75 Z" id="Fill-867" fill="#FFFFFE"></path>
        <path d="M30.762,43.502 C29.079,43.502 27.595,42.564 26.985,41.113 C26.825,40.731 27.003,40.292 27.385,40.13 C27.763,39.97 28.207,40.148 28.368,40.531 C28.738,41.411 29.7,42.002 30.762,42.002 C32.169,42.002 33.315,40.992 33.315,39.751 C33.315,38.723 32.87,37.5 30.75,37.5 C27.762,37.5 26.698,35.563 26.698,33.749 C26.698,31.681 28.516,29.999 30.75,29.999 C32.435,29.999 33.917,30.936 34.528,32.387 C34.688,32.769 34.509,33.21 34.127,33.37 C33.744,33.53 33.306,33.351 33.145,32.969 C32.775,32.089 31.813,31.499 30.75,31.499 C29.343,31.499 28.198,32.508 28.198,33.749 C28.198,34.776 28.641,36 30.75,36 C33.748,36 34.815,37.938 34.815,39.751 C34.815,41.819 32.997,43.502 30.762,43.502" id="Fill-868" fill="#FFFFFE"></path>
        <path d="M30.75,31.499 C30.336,31.499 30,31.163 30,30.749 L30,29.097 C30,28.683 30.336,28.347 30.75,28.347 C31.165,28.347 31.5,28.683 31.5,29.097 L31.5,30.749 C31.5,31.163 31.165,31.499 30.75,31.499" id="Fill-869" fill="#FFFFFE"></path>
        <path d="M30.75,45.152 C30.336,45.152 30,44.816 30,44.402 L30,42.752 C30,42.338 30.336,42.002 30.75,42.002 C31.165,42.002 31.5,42.338 31.5,42.752 L31.5,44.402 C31.5,44.816 31.165,45.152 30.75,45.152" id="Fill-870" fill="#FFFFFE"></path>
        <path d="M48.59,36.917 C50.698,38.921 52.018,41.744 52.018,44.881 C52.018,50.957 47.093,55.881 41.018,55.881 C40.393,55.881 39.783,55.817 39.186,55.716 C41.159,57.592 43.821,58.752 46.758,58.752 C52.833,58.752 57.758,53.827 57.758,47.752 C57.758,42.302 53.792,37.791 48.59,36.917" id="Fill-872" fill-opacity="0.304632867" fill="#FFFFFF"></path>
        <path d="M46.758,37.501 C41.106,37.501 36.508,42.098 36.508,47.751 C36.508,53.403 41.106,58.001 46.758,58.001 C52.411,58.001 57.008,53.403 57.008,47.751 C57.008,42.098 52.411,37.501 46.758,37.501 Z M35.008,47.751 C35.008,41.272 40.28,36.001 46.758,36.001 C53.237,36.001 58.508,41.272 58.508,47.751 C58.508,54.229 53.237,59.501 46.758,59.501 C40.28,59.501 35.008,54.229 35.008,47.751 Z" id="Fill-873" fill="#FFFFFE"></path>
        <path d="M46.764,54.503 C45.081,54.503 43.597,53.565 42.987,52.114 C42.827,51.732 43.005,51.293 43.387,51.131 C43.766,50.972 44.208,51.149 44.37,51.532 C44.74,52.412 45.702,53.003 46.764,53.003 C48.171,53.003 49.316,51.993 49.316,50.752 C49.316,49.724 48.872,48.501 46.752,48.501 C43.764,48.501 42.7,46.563 42.7,44.751 C42.7,42.682 44.518,41 46.752,41 C48.437,41 49.919,41.938 50.53,43.388 C50.69,43.77 50.511,44.211 50.129,44.371 C49.748,44.532 49.309,44.352 49.147,43.97 C48.777,43.09 47.815,42.5 46.752,42.5 C45.345,42.5 44.2,43.509 44.2,44.751 C44.2,45.777 44.643,47.001 46.752,47.001 C49.749,47.001 50.816,48.938 50.816,50.752 C50.816,52.82 48.999,54.503 46.764,54.503" id="Fill-874" fill="#FFFFFE"></path>
        <path d="M46.752,42.5 C46.338,42.5 46.002,42.164 46.002,41.75 L46.002,40.099 C46.002,39.685 46.338,39.349 46.752,39.349 C47.167,39.349 47.502,39.685 47.502,40.099 L47.502,41.75 C47.502,42.164 47.167,42.5 46.752,42.5" id="Fill-875" fill="#FFFFFE"></path>
        <path d="M46.752,56.153 C46.338,56.153 46.002,55.817 46.002,55.403 L46.002,53.753 C46.002,53.338 46.338,53.003 46.752,53.003 C47.167,53.003 47.502,53.338 47.502,53.753 L47.502,55.403 C47.502,55.817 47.167,56.153 46.752,56.153" id="Fill-876" fill="#FFFFFE"></path>
        <path d="M46.758,85.5 C46.344,85.5 46.008,85.164 46.008,84.75 L46.008,58.751 C46.008,58.337 46.344,58.001 46.758,58.001 C47.172,58.001 47.508,58.337 47.508,58.751 L47.508,84.75 C47.508,85.164 47.172,85.5 46.758,85.5" id="Fill-877" fill="#FFFFFE"></path>
        <path d="M30.756,65.5 C30.342,65.5 30.006,65.164 30.006,64.75 L30.006,47.75 C30.006,47.336 30.342,47 30.756,47 C31.17,47 31.506,47.336 31.506,47.75 L31.506,64.75 C31.506,65.026 31.256,65.276 30.756,65.5 Z" id="Fill-878" fill="#FFFFFE"></path>
        <path d="M30.006,84.75 L30.006,72.75 C30.006,72.336 30.342,72 30.756,72 C31.17,72 31.506,72.336 31.506,72.75 L31.506,84.75 C31.506,85.164 31.17,85.5 30.756,85.5 C30.342,85.5 30.006,85.164 30.006,84.75 Z" id="Fill-878" fill="#FFFFFE"></path>
        <path d="M66.756,69.75 C66.756,75.272 62.279,79.75 56.756,79.75 L56.756,79.75 L51.202,79.75 C56.725,79.75 61.202,75.272 61.202,69.75 Z" id="Fill-914" fill-opacity="0.304632867" fill="#FFFFFF"></path>
        <path d="M47.543,78.999 L56.756,78.999 C61.604,78.999 65.593,75.25 65.976,70.499 L56.763,70.499 C51.916,70.499 47.926,74.248 47.543,78.999 Z M56.756,80.499 L46.763,80.499 C46.349,80.499 46.013,80.163 46.013,79.749 C46.013,73.821 50.835,68.999 56.763,68.999 L66.756,68.999 C67.17,68.999 67.506,69.335 67.506,69.749 C67.506,75.676 62.684,80.499 56.756,80.499 L56.756,80.499 Z" id="Fill-881" fill="#FFFFFE"></path>
        <path d="M36.757,64.749 C42.28,64.749 46.757,69.226 46.757,74.749 L46.757,74.749 L41.201,74.749 C41.201,69.226 36.724,64.749 31.201,64.749 Z" id="Fill-913" fill-opacity="0.304632867" fill="#FFFFFF"></path>
        <path d="M27.538,65.499 C27.92,70.25 31.91,73.999 36.757,73.999 L45.977,73.999 C45.594,69.248 41.605,65.499 36.757,65.499 L27.538,65.499 Z M46.757,75.499 L36.757,75.499 C30.83,75.499 26.007,70.676 26.007,64.749 C26.007,64.335 26.343,63.999 26.757,63.999 L36.757,63.999 C42.685,63.999 47.507,68.821 47.507,74.749 C47.507,75.163 47.171,75.499 46.757,75.499 L46.757,75.499 Z" id="Fill-884" fill="#FFFFFE"></path>
        <path d="M20.755,49.748 C26.279,49.748 30.755,54.224 30.755,59.748 L30.755,59.748 L25.2,59.748 C25.2,54.224 20.722,49.748 15.2,49.748 Z" id="Fill-912" fill-opacity="0.304632867" fill="#FFFFFF"></path>
        <path d="M11.536,50.497 C11.918,55.248 15.908,58.997 20.755,58.997 L29.975,58.997 C29.592,54.246 25.603,50.497 20.755,50.497 L11.536,50.497 Z M30.755,60.497 L20.755,60.497 C14.828,60.497 10.005,55.674 10.005,49.747 C10.005,49.333 10.341,48.997 10.755,48.997 L20.755,48.997 C26.683,48.997 31.505,53.819 31.505,59.747 C31.505,60.161 31.169,60.497 30.755,60.497 L30.755,60.497 Z" id="Fill-887" fill="#FFFFFE"></path>
        <path d="M66.141,47.496 L64.756,47.496 C64.342,47.496 64.006,47.16 64.006,46.746 C64.006,46.332 64.342,45.996 64.756,45.996 L66.141,45.996 C66.555,45.996 66.891,46.332 66.891,46.746 C66.891,47.16 66.555,47.496 66.141,47.496" id="Fill-888" fill="#FFFFFE"></path>
        <path d="M70.756,47.496 L69.372,47.496 C68.958,47.496 68.622,47.16 68.622,46.746 C68.622,46.332 68.958,45.996 69.372,45.996 L70.756,45.996 C71.17,45.996 71.506,46.332 71.506,46.746 C71.506,47.16 71.17,47.496 70.756,47.496" id="Fill-889" fill="#FFFFFE"></path>
        <path d="M67.756,50.496 C67.342,50.496 67.006,50.16 67.006,49.746 L67.006,48.362 C67.006,47.948 67.342,47.612 67.756,47.612 C68.17,47.612 68.506,47.948 68.506,48.362 L68.506,49.746 C68.506,50.16 68.17,50.496 67.756,50.496" id="Fill-890" fill="#FFFFFE"></path>
        <path d="M67.756,45.88 C67.342,45.88 67.006,45.545 67.006,45.13 L67.006,43.746 C67.006,43.332 67.342,42.996 67.756,42.996 C68.17,42.996 68.506,43.332 68.506,43.746 L68.506,45.13 C68.506,45.545 68.17,45.88 67.756,45.88" id="Fill-891" fill="#FFFFFE"></path>
        <path d="M54.139,31.495 L52.755,31.495 C52.341,31.495 52.005,31.159 52.005,30.745 C52.005,30.331 52.341,29.995 52.755,29.995 L54.139,29.995 C54.553,29.995 54.889,30.331 54.889,30.745 C54.889,31.159 54.553,31.495 54.139,31.495" id="Fill-892" fill="#FFFFFE"></path>
        <path d="M58.755,31.495 L57.371,31.495 C56.957,31.495 56.621,31.159 56.621,30.745 C56.621,30.331 56.957,29.995 57.371,29.995 L58.755,29.995 C59.169,29.995 59.505,30.331 59.505,30.745 C59.505,31.159 59.169,31.495 58.755,31.495" id="Fill-893" fill="#FFFFFE"></path>
        <path d="M55.755,34.495 C55.341,34.495 55.005,34.159 55.005,33.745 L55.005,32.36 C55.005,31.946 55.341,31.61 55.755,31.61 C56.169,31.61 56.505,31.946 56.505,32.36 L56.505,33.745 C56.505,34.159 56.169,34.495 55.755,34.495" id="Fill-894" fill="#FFFFFE"></path>
        <path d="M55.755,29.879 C55.341,29.879 55.005,29.543 55.005,29.129 L55.005,27.745 C55.005,27.331 55.341,26.995 55.755,26.995 C56.169,26.995 56.505,27.331 56.505,27.745 L56.505,29.129 C56.505,29.543 56.169,29.879 55.755,29.879" id="Fill-895" fill="#FFFFFE"></path>
        <path d="M59.14,61.498 L57.755,61.498 C57.341,61.498 57.005,61.162 57.005,60.748 C57.005,60.334 57.341,59.998 57.755,59.998 L59.14,59.998 C59.554,59.998 59.89,60.334 59.89,60.748 C59.89,61.162 59.554,61.498 59.14,61.498" id="Fill-896" fill="#FFFFFE"></path>
        <path d="M63.755,61.498 L62.371,61.498 C61.957,61.498 61.621,61.162 61.621,60.748 C61.621,60.334 61.957,59.998 62.371,59.998 L63.755,59.998 C64.169,59.998 64.505,60.334 64.505,60.748 C64.505,61.162 64.169,61.498 63.755,61.498" id="Fill-897" fill="#FFFFFE"></path>
        <path d="M60.755,64.498 C60.341,64.498 60.005,64.162 60.005,63.748 L60.005,62.363 C60.005,61.949 60.341,61.613 60.755,61.613 C61.169,61.613 61.505,61.949 61.505,62.363 L61.505,63.748 C61.505,64.162 61.169,64.498 60.755,64.498" id="Fill-898" fill="#FFFFFE"></path>
        <path d="M60.755,59.882 C60.341,59.882 60.005,59.546 60.005,59.132 L60.005,57.748 C60.005,57.334 60.341,56.998 60.755,56.998 C61.169,56.998 61.505,57.334 61.505,57.748 L61.505,59.132 C61.505,59.546 61.169,59.882 60.755,59.882" id="Fill-899" fill="#FFFFFE"></path>
        <path d="M21.136,77.499 L19.751,77.499 C19.337,77.499 19.001,77.163 19.001,76.749 C19.001,76.335 19.337,75.999 19.751,75.999 L21.136,75.999 C21.55,75.999 21.886,76.335 21.886,76.749 C21.886,77.163 21.55,77.499 21.136,77.499" id="Fill-900" fill="#FFFFFE"></path>
        <path d="M25.751,77.499 L24.367,77.499 C23.953,77.499 23.617,77.163 23.617,76.749 C23.617,76.335 23.953,75.999 24.367,75.999 L25.751,75.999 C26.166,75.999 26.501,76.335 26.501,76.749 C26.501,77.163 26.166,77.499 25.751,77.499" id="Fill-901" fill="#FFFFFE"></path>
        <path d="M22.751,80.499 C22.337,80.499 22.001,80.163 22.001,79.749 L22.001,78.365 C22.001,77.951 22.337,77.615 22.751,77.615 C23.166,77.615 23.501,77.951 23.501,78.365 L23.501,79.749 C23.501,80.163 23.166,80.499 22.751,80.499" id="Fill-902" fill="#FFFFFE"></path>
        <path d="M22.751,75.883 C22.337,75.883 22.001,75.547 22.001,75.133 L22.001,73.749 C22.001,73.335 22.337,72.999 22.751,72.999 C23.166,72.999 23.501,73.335 23.501,73.749 L23.501,75.133 C23.501,75.547 23.166,75.883 22.751,75.883" id="Fill-903" fill="#FFFFFE"></path>
        <path d="M8.135,66.498 L6.75,66.498 C6.336,66.498 6,66.162 6,65.748 C6,65.334 6.336,64.998 6.75,64.998 L8.135,64.998 C8.549,64.998 8.885,65.334 8.885,65.748 C8.885,66.162 8.549,66.498 8.135,66.498" id="Fill-904" fill="#FFFFFE"></path>
        <path d="M12.75,66.498 L11.366,66.498 C10.952,66.498 10.616,66.162 10.616,65.748 C10.616,65.334 10.952,64.998 11.366,64.998 L12.75,64.998 C13.165,64.998 13.5,65.334 13.5,65.748 C13.5,66.162 13.165,66.498 12.75,66.498" id="Fill-905" fill="#FFFFFE"></path>
        <path d="M9.75,69.498 C9.336,69.498 9,69.162 9,68.748 L9,67.364 C9,66.95 9.336,66.614 9.75,66.614 C10.165,66.614 10.5,66.95 10.5,67.364 L10.5,68.748 C10.5,69.162 10.165,69.498 9.75,69.498" id="Fill-906" fill="#FFFFFE"></path>
        <path d="M9.75,64.882 C9.336,64.882 9,64.546 9,64.132 L9,62.748 C9,62.334 9.336,61.998 9.75,61.998 C10.165,61.998 10.5,62.334 10.5,62.748 L10.5,64.132 C10.5,64.546 10.165,64.882 9.75,64.882" id="Fill-907" fill="#FFFFFE"></path>
        <path d="M11.135,42.496 L9.75,42.496 C9.336,42.496 9,42.16 9,41.746 C9,41.332 9.336,40.996 9.75,40.996 L11.135,40.996 C11.549,40.996 11.885,41.332 11.885,41.746 C11.885,42.16 11.549,42.496 11.135,42.496" id="Fill-908" fill="#FFFFFE"></path>
        <path d="M15.75,42.496 L14.366,42.496 C13.952,42.496 13.616,42.16 13.616,41.746 C13.616,41.332 13.952,40.996 14.366,40.996 L15.75,40.996 C16.165,40.996 16.5,41.332 16.5,41.746 C16.5,42.16 16.165,42.496 15.75,42.496" id="Fill-909" fill="#FFFFFE"></path>
        <path d="M12.75,45.496 C12.336,45.496 12,45.16 12,44.746 L12,43.361 C12,42.947 12.336,42.611 12.75,42.611 C13.165,42.611 13.5,42.947 13.5,43.361 L13.5,44.746 C13.5,45.16 13.165,45.496 12.75,45.496" id="Fill-910" fill="#FFFFFE"></path>
        <path d="M12.75,40.88 C12.336,40.88 12,40.545 12,40.13 L12,38.746 C12,38.332 12.336,37.996 12.75,37.996 C13.165,37.996 13.5,38.332 13.5,38.746 L13.5,40.13 C13.5,40.545 13.165,40.88 12.75,40.88" id="Fill-911" fill="#FFFFFE"></path>
        <g id="Group" transform="translate(39.000000, 25.500000) scale(-1, -1) translate(-39.000000, -25.500000) translate(6.000000, 14.000000)">
            <path d="M61.13,6.769 L61.13,6.769 C60.879,8.411 59.765,9.793 58.214,10.387 L45.668,15.19 C43.149,16.155 40.346,14.746 39.618,12.148 C39.084,10.245 40.152,8.262 42.035,7.66 L44.515,6.867 C51.49,5.384 55.629,2.772 58.229,2.74 C60.63,2.711 61.599,4.792 61.13,6.769" id="Fill-567" fill="#0957CB"></path>
            <path d="M59.585,3.015 C59.176,3.644 58.62,4.181 57.938,4.555 L46.164,11.022 C43.954,12.237 41.236,11.412 40.01,9.281 C39.511,10.117 39.335,11.141 39.618,12.148 C40.346,14.746 43.149,16.155 45.668,15.19 L58.214,10.387 C59.765,9.793 60.879,8.411 61.13,6.769 C61.496,5.224 60.972,3.63 59.585,3.015" id="Fill-568" fill-opacity="0.304632867" fill="#FFFFFF"></path>
            <path d="M58.28,3.49 L58.239,3.49 C57.134,3.504 55.573,4.094 53.597,4.841 C51.274,5.719 48.383,6.811 44.67,7.601 L42.264,8.375 C40.758,8.855 39.913,10.424 40.339,11.946 C40.634,12.997 41.333,13.846 42.308,14.335 C43.283,14.826 44.381,14.88 45.4,14.49 L57.946,9.686 C59.243,9.19 60.179,8.028 60.389,6.655 L60.4,6.596 C60.614,5.695 60.462,4.81 59.995,4.226 C59.604,3.737 59.028,3.49 58.28,3.49 Z M44.03,16.242 C43.206,16.242 42.384,16.053 41.634,15.676 C40.297,15.004 39.299,13.792 38.895,12.351 C38.25,10.048 39.529,7.674 41.807,6.945 L44.286,6.153 C47.959,5.368 50.791,4.298 53.067,3.437 C55.181,2.639 56.85,2.007 58.22,1.99 C59.432,1.949 60.484,2.435 61.166,3.288 C61.914,4.224 62.175,5.576 61.867,6.912 C61.566,8.805 60.272,10.402 58.482,11.087 L45.936,15.891 C45.323,16.126 44.676,16.242 44.03,16.242 L44.03,16.242 Z" id="Fill-569" fill="#FFFFFE"></path>
            <path d="M63.865,6.703 C61.933,5.098 56.586,10.02 42.674,12.647 C44.508,11.954 45.159,10.932 45.228,9.909 C45.541,5.3 41.546,5.511 41.546,5.511 C21.036,5.751 36.635,0.882 8.751,0.75 L8.751,18.727 C8.751,18.727 39.459,29.159 62.714,11.265 C62.714,11.265 66.39,8.803 63.865,6.703" id="Fill-580" fill="#0957CB"></path>
            <path d="M63.865,6.703 C63.297,6.231 62.422,6.333 61.133,6.766 C60.563,7.644 59.696,8.277 59.696,8.277 C41.114,23.736 16.763,20.181 8.751,18.446 L8.751,18.727 C8.751,18.727 39.459,29.159 62.714,11.265 C62.714,11.265 66.39,8.803 63.865,6.703" id="Fill-581" fill-opacity="0.304632867" fill="#FFFFFF"></path>
            <path d="M9.5,18.176 C13.577,19.404 41.214,26.864 62.257,10.671 C62.723,10.354 63.953,9.321 63.999,8.391 C64.006,8.248 64.028,7.814 63.386,7.28 C62.828,6.817 61.079,7.536 58.66,8.53 C55.325,9.901 50.285,11.974 42.813,13.386 C42.43,13.46 42.057,13.226 41.952,12.852 C41.847,12.477 42.044,12.085 42.408,11.947 C43.723,11.449 44.419,10.747 44.48,9.859 C44.565,8.607 44.307,7.668 43.713,7.064 C42.878,6.217 41.603,6.262 41.585,6.26 C31.811,6.368 30.033,5.353 27.978,4.17 C25.897,2.973 23.543,1.618 9.5,1.505 L9.5,18.176 Z M29.496,22.452 C17.635,22.452 8.675,19.493 8.509,19.436 C8.205,19.333 8,19.048 8,18.727 L8,0.75 C8,0.551 8.08,0.359 8.221,0.219 C8.362,0.077 8.569,0.024 8.754,-5.32907052e-15 C23.865,0.072 26.447,1.559 28.726,2.87 C30.591,3.943 32.2,4.867 41.537,4.761 C41.584,4.763 43.465,4.676 44.781,6.012 C45.689,6.934 46.092,8.263 45.976,9.961 C45.949,10.356 45.849,10.808 45.607,11.265 C51.274,9.945 55.292,8.293 58.09,7.144 C61.315,5.817 63.094,5.088 64.344,6.126 C65.354,6.966 65.529,7.864 65.497,8.471 C65.402,10.316 63.364,11.733 63.132,11.889 C52.313,20.214 39.808,22.452 29.496,22.452 L29.496,22.452 Z" id="Fill-582" fill="#FFFFFF"></path>
            <path d="M35.696,14.23 C33.164,14.23 30.247,14.014 26.959,13.579 C26.548,13.525 26.259,13.148 26.313,12.738 C26.368,12.327 26.744,12.035 27.155,12.093 C35.707,13.22 40.194,12.627 42.453,11.932 C42.848,11.809 43.269,12.032 43.39,12.428 C43.513,12.823 43.29,13.243 42.894,13.365 C41.023,13.941 38.616,14.23 35.696,14.23" id="Fill-583" fill="#FFFFFE"></path>
            <path d="M8.751,0.75 L8.751,18.75 L0.751,18.75 L0.751,15.75 L4.75,15.75 C5.2635,15.75 5.68560204,15.3637143 5.74328243,14.8665685 L5.75,14.75 L5.75,0.75 L8.751,0.75 Z" id="Fill-587" fill-opacity="0.304632867" fill="#FFFFFF"></path>
            <path d="M1.5,18 L8,18 L8,1.5 L1.5,1.5 L1.5,18 Z M8.75,19.5 L0.75,19.5 C0.336,19.5 0,19.164 0,18.75 L0,0.75 C0,0.336 0.336,0 0.75,0 L8.75,0 C9.164,0 9.5,0.336 9.5,0.75 L9.5,18.75 C9.5,19.164 9.164,19.5 8.75,19.5 L8.75,19.5 Z" id="Fill-586" fill="#FFFFFE"></path>
        </g>
    </g>
</svg>