<?xml version="1.0" encoding="UTF-8"?>
<svg width="78px" height="100px" viewBox="0 0 78 100" version="1.1" xmlns="http://www.w3.org/2000/svg" xmlns:xlink="http://www.w3.org/1999/xlink">
    <!-- Generator: Sketch 59.1 (86144) - https://sketch.com -->
    <title>lineart_api_keys</title>
    <desc>Created with Sketch.</desc>
    <g id="lineart_api_keys" stroke="none" stroke-width="1" fill="none" fill-rule="evenodd">
        <path d="M68.135,66.775 L68.135,66.775 C67.884,68.417 66.77,69.799 65.219,70.393 L52.673,75.196 C50.154,76.161 47.351,74.752 46.623,72.154 C46.089,70.251 47.157,68.268 49.04,67.666 L51.52,66.873 C58.495,65.39 62.634,62.778 65.234,62.746 C67.635,62.717 68.604,64.798 68.135,66.775" id="Fill-567" fill="#0A45A4"></path>
        <path d="M66.59,63.021 C66.181,63.65 65.625,64.187 64.943,64.561 L53.169,71.028 C50.959,72.243 48.241,71.418 47.015,69.287 C46.516,70.123 46.34,71.147 46.623,72.154 C47.351,74.752 50.154,76.161 52.673,75.196 L65.219,70.393 C66.77,69.799 67.884,68.417 68.135,66.775 C68.501,65.23 67.977,63.636 66.59,63.021" id="Fill-568" fill-opacity="0.304632867" fill="#FFFFFF"></path>
        <path d="M65.285,63.496 L65.244,63.496 C64.139,63.51 62.578,64.1 60.602,64.847 C58.279,65.725 55.388,66.817 51.675,67.607 L49.269,68.381 C47.763,68.861 46.918,70.43 47.344,71.952 C47.639,73.003 48.338,73.852 49.313,74.341 C50.288,74.832 51.386,74.886 52.405,74.496 L64.951,69.692 C66.248,69.196 67.184,68.034 67.394,66.661 L67.405,66.602 C67.619,65.701 67.467,64.816 67,64.232 C66.609,63.743 66.033,63.496 65.285,63.496 Z M51.035,76.248 C50.211,76.248 49.389,76.059 48.639,75.682 C47.302,75.01 46.304,73.798 45.9,72.357 C45.255,70.054 46.534,67.68 48.812,66.951 L51.291,66.159 C54.964,65.374 57.796,64.304 60.072,63.443 C62.186,62.645 63.855,62.013 65.225,61.996 C66.437,61.955 67.489,62.441 68.171,63.294 C68.919,64.23 69.18,65.582 68.872,66.918 C68.571,68.811 67.277,70.408 65.487,71.093 L52.941,75.897 C52.328,76.132 51.681,76.248 51.035,76.248 L51.035,76.248 Z" id="Fill-569" fill="#FFFFFE"></path>
        <path d="M40.862,22.991 C45.054,25.919 46.958,30.885 46.204,35.616 L65.204,48.889 C66.234,49.608 66.926,50.718 67.12,51.959 L67.693,55.629 L71.756,55.004 L70.554,47.31 L49.941,32.909 C50.696,28.179 48.791,23.213 44.6,20.285 C39.315,16.593 32.239,17.42 27.911,21.93 C31.968,19.999 36.916,20.234 40.862,22.991" id="Fill-571" fill-opacity="0.304632867" fill="#FFFFFF"></path>
        <path d="M63.979,50.673 C64.132,50.673 64.282,50.72 64.409,50.808 C64.572,50.922 64.683,51.096 64.718,51.292 L65.415,55.221 L70.898,54.377 L69.862,47.741 L49.512,33.525 C49.276,33.36 49.156,33.076 49.201,32.792 C49.942,28.143 48.015,23.585 44.17,20.9 C41.508,19.04 38.279,18.33 35.083,18.896 C31.884,19.463 29.099,21.241 27.239,23.904 C23.399,29.4 24.747,36.996 30.243,40.836 C34.087,43.523 39.029,43.765 43.14,41.468 C43.391,41.328 43.699,41.342 43.935,41.508 L47.489,43.99 L52.736,43.061 C53.142,42.988 53.533,43.261 53.605,43.668 L54.3,47.582 L58.215,46.888 C58.412,46.855 58.613,46.899 58.775,47.011 C58.938,47.125 59.049,47.299 59.084,47.495 L59.778,51.407 L63.849,50.685 L63.979,50.673 Z M64.804,56.823 C64.446,56.823 64.13,56.567 64.066,56.204 L63.372,52.292 L59.302,53.015 C59.107,53.052 58.904,53.005 58.741,52.892 C58.578,52.777 58.467,52.604 58.433,52.407 L57.738,48.495 L53.823,49.191 C53.604,49.229 53.38,49.169 53.21,49.027 C53.066,48.906 52.973,48.736 52.949,48.552 L52.259,44.668 L47.445,45.522 C47.251,45.559 47.048,45.512 46.885,45.399 L43.454,43.002 C38.923,45.336 33.574,44.991 29.384,42.066 C23.209,37.752 21.696,29.219 26.009,23.045 C28.099,20.054 31.228,18.056 34.82,17.419 C38.412,16.778 42.038,17.581 45.03,19.67 C49.219,22.598 51.383,27.501 50.749,32.56 L70.983,46.694 C71.151,46.812 71.263,46.992 71.295,47.193 L72.497,54.888 C72.527,55.085 72.479,55.286 72.361,55.446 C72.243,55.608 72.066,55.715 71.87,55.745 L64.919,56.815 L64.804,56.823 L64.804,56.823 Z" id="Fill-572" fill="#FFFFFE"></path>
        <path d="M37.215,25.165 C35.413,25.165 33.638,26.015 32.53,27.602 C31.658,28.851 31.323,30.364 31.59,31.865 C31.856,33.365 32.69,34.672 33.939,35.544 C35.189,36.418 36.702,36.752 38.204,36.485 C39.704,36.219 41.011,35.385 41.883,34.135 C43.685,31.557 43.052,27.993 40.474,26.191 C39.481,25.498 38.343,25.165 37.215,25.165 Z M37.192,38.075 C35.729,38.075 34.305,37.629 33.081,36.775 C31.503,35.672 30.449,34.022 30.113,32.127 C29.776,30.232 30.198,28.319 31.301,26.742 C33.575,23.485 38.076,22.688 41.333,24.961 C44.59,27.237 45.388,31.737 43.113,34.994 C42.011,36.572 40.36,37.626 38.465,37.962 C38.041,38.037 37.615,38.075 37.192,38.075 L37.192,38.075 Z" id="Fill-573" fill="#FFFFFE"></path>
        <path d="M36.238,47.528 C39.077,43.669 39.659,38.383 37.276,33.859 C33.953,27.552 26.145,25.133 19.837,28.456 C13.529,31.779 11.11,39.587 14.434,45.896 C16.817,50.418 21.506,52.927 26.295,52.767 L28.461,56.878 L33.847,58.547 L32.45,63.059 L32.448,63.062 L36.963,64.46 L35.565,68.972 L40.23,70.417 L38.832,74.928 L45.5,77.163 L47.958,69.774 L36.238,47.528" id="Fill-574" fill="#0A45A4"></path>
        <path d="M47.958,69.774 L36.238,47.528 C39.077,43.669 39.659,38.383 37.276,33.859 C34.202,28.025 27.292,25.528 21.281,27.816 C25.895,27.839 30.346,30.338 32.646,34.705 C35.03,39.229 34.447,44.515 31.608,48.374 L42.412,68.879 C42.998,69.99 43.105,71.293 42.708,72.485 L41.588,75.852 L45.5,77.163 L47.958,69.774" id="Fill-575" fill-opacity="0.304632867" fill="#FFFFFF"></path>
        <path d="M39.766,74.45 L45.026,76.213 L47.146,69.841 L35.574,47.878 C35.44,47.624 35.463,47.316 35.634,47.084 C38.424,43.292 38.799,38.358 36.612,34.21 C35.099,31.336 32.556,29.224 29.454,28.263 C26.352,27.302 23.06,27.606 20.187,29.119 C14.255,32.246 11.972,39.614 15.097,45.546 C17.283,49.694 21.569,52.187 26.27,52.018 C26.55,52.024 26.825,52.164 26.958,52.418 L28.979,56.254 L34.069,57.83 C34.465,57.953 34.686,58.373 34.563,58.769 L33.387,62.567 L37.185,63.743 C37.375,63.803 37.534,63.935 37.626,64.11 C37.719,64.286 37.738,64.492 37.679,64.682 L36.503,68.478 L40.452,69.7 C40.642,69.76 40.801,69.892 40.894,70.067 C40.986,70.243 41.005,70.449 40.946,70.639 L39.766,74.45 Z M45.5,77.913 L45.262,77.874 L38.594,75.64 C38.208,75.511 37.995,75.096 38.116,74.707 L39.291,70.911 L35.343,69.689 C35.153,69.629 34.994,69.497 34.901,69.321 C34.809,69.146 34.79,68.94 34.849,68.75 L36.024,64.954 L32.226,63.778 C32.016,63.713 31.844,63.559 31.758,63.356 C31.684,63.183 31.678,62.988 31.74,62.813 L32.909,59.041 L28.239,57.595 C28.049,57.535 27.89,57.403 27.797,57.228 L25.846,53.525 C20.749,53.525 16.152,50.767 13.77,46.245 C10.259,39.582 12.824,31.305 19.487,27.793 C22.716,26.091 26.413,25.749 29.898,26.83 C33.383,27.91 36.239,30.282 37.939,33.511 C40.322,38.032 39.998,43.383 37.116,47.587 L48.622,69.425 C48.717,69.606 48.735,69.817 48.67,70.011 L46.211,77.4 C46.149,77.589 46.013,77.745 45.835,77.834 C45.73,77.887 45.615,77.913 45.5,77.913 L45.5,77.913 Z" id="Fill-576" fill="#FFFFFE"></path>
        <path d="M25.848,34.17 C24.934,34.17 24.027,34.393 23.195,34.83 C20.413,36.297 19.342,39.754 20.808,42.537 C22.274,45.319 25.73,46.389 28.514,44.925 L28.514,44.924 C29.862,44.214 30.853,43.022 31.304,41.566 C31.755,40.11 31.612,38.566 30.902,37.219 C30.191,35.87 28.999,34.879 27.543,34.429 C26.986,34.256 26.416,34.17 25.848,34.17 Z M25.867,47.081 C23.277,47.081 20.77,45.683 19.48,43.236 C17.629,39.722 18.982,35.356 22.496,33.504 C24.198,32.607 26.149,32.427 27.987,32.995 C29.826,33.566 31.332,34.816 32.229,36.52 C33.126,38.222 33.306,40.172 32.737,42.01 C32.167,43.849 30.916,45.355 29.213,46.252 C28.145,46.815 26.998,47.081 25.867,47.081 L25.867,47.081 Z" id="Fill-577" fill="#FFFFFE"></path>
        <path d="M14.165,35.151 C13.88,35.151 13.607,34.988 13.481,34.711 C12.711,33.014 12.337,31.202 12.368,29.325 C12.483,22.485 18.084,17 24.898,17 L25.112,17.002 C27.37,17.04 29.572,17.684 31.481,18.864 C31.834,19.082 31.943,19.544 31.726,19.897 C31.507,20.25 31.044,20.358 30.693,20.14 C29.013,19.102 27.075,18.535 25.087,18.502 C19.012,18.38 13.971,23.267 13.868,29.351 C13.84,31.003 14.17,32.598 14.848,34.092 C15.019,34.469 14.852,34.913 14.475,35.084 C14.374,35.13 14.269,35.151 14.165,35.151" id="Fill-578" fill="#FFFFFE"></path>
        <path d="M24.908,42.071 L24.691,42.069 C22.7,42.036 20.803,41.55 19.053,40.626 C18.687,40.433 18.546,39.979 18.74,39.612 C18.933,39.247 19.387,39.105 19.753,39.3 C21.293,40.112 22.963,40.54 24.717,40.569 C27.644,40.613 30.454,39.518 32.573,37.469 C34.692,35.42 35.886,32.668 35.936,29.721 C35.964,28.048 35.626,26.436 34.932,24.928 C34.759,24.552 34.923,24.107 35.3,23.933 C35.675,23.758 36.121,23.925 36.294,24.301 C37.083,26.015 37.467,27.847 37.436,29.746 C37.379,33.094 36.022,36.22 33.616,38.547 C31.261,40.824 28.175,42.071 24.908,42.071" id="Fill-579" fill="#FFFFFE"></path>
        <path d="M70.87,66.709 C68.938,65.104 63.591,70.026 49.679,72.653 C51.513,71.96 52.164,70.938 52.233,69.915 C52.546,65.306 48.551,65.517 48.551,65.517 C28.041,65.757 43.64,60.888 15.756,60.756 L15.756,78.733 C15.756,78.733 46.464,89.165 69.719,71.271 C69.719,71.271 73.395,68.809 70.87,66.709" id="Fill-580" fill="#0A45A4"></path>
        <path d="M70.87,66.709 C70.302,66.237 69.427,66.339 68.138,66.772 C67.568,67.65 66.701,68.283 66.701,68.283 C48.119,83.742 23.768,80.187 15.756,78.452 L15.756,78.733 C15.756,78.733 46.464,89.165 69.719,71.271 C69.719,71.271 73.395,68.809 70.87,66.709" id="Fill-581" fill-opacity="0.304632867" fill="#FFFFFF"></path>
        <path d="M16.505,78.182 C20.582,79.41 48.219,86.87 69.262,70.677 C69.728,70.36 70.958,69.327 71.004,68.397 C71.011,68.254 71.033,67.82 70.391,67.286 C69.833,66.823 68.084,67.542 65.665,68.536 C62.33,69.907 57.29,71.98 49.818,73.392 C49.435,73.466 49.062,73.232 48.957,72.858 C48.852,72.483 49.049,72.091 49.413,71.953 C50.728,71.455 51.424,70.753 51.485,69.865 C51.57,68.613 51.312,67.674 50.718,67.07 C49.883,66.223 48.608,66.268 48.59,66.266 C38.816,66.374 37.038,65.359 34.983,64.176 C32.902,62.979 30.548,61.624 16.505,61.511 L16.505,78.182 Z M36.501,82.458 C24.64,82.458 15.68,79.499 15.514,79.442 C15.21,79.339 15.005,79.054 15.005,78.733 L15.005,60.756 C15.005,60.557 15.085,60.365 15.226,60.225 C15.367,60.083 15.574,60.03 15.759,60.006 C30.87,60.078 33.452,61.565 35.731,62.876 C37.596,63.949 39.205,64.873 48.542,64.767 C48.589,64.769 50.47,64.682 51.786,66.018 C52.694,66.94 53.097,68.269 52.981,69.967 C52.954,70.362 52.854,70.814 52.612,71.271 C58.279,69.951 62.297,68.299 65.095,67.15 C68.32,65.823 70.099,65.094 71.349,66.132 C72.359,66.972 72.534,67.87 72.502,68.477 C72.407,70.322 70.369,71.739 70.137,71.895 C59.318,80.22 46.813,82.458 36.501,82.458 L36.501,82.458 Z" id="Fill-582" fill="#FFFFFF"></path>
        <path d="M42.701,74.236 C40.169,74.236 37.252,74.02 33.964,73.585 C33.553,73.531 33.264,73.154 33.318,72.744 C33.373,72.333 33.749,72.041 34.16,72.099 C42.712,73.226 47.199,72.633 49.458,71.938 C49.853,71.815 50.274,72.038 50.395,72.434 C50.518,72.829 50.295,73.249 49.899,73.371 C48.028,73.947 45.621,74.236 42.701,74.236" id="Fill-583" fill="#FFFFFE"></path>
        <path d="M15.756,60.756 L15.756,78.756 L7.756,78.756 L7.756,75.756 L11.755,75.756 C12.2685,75.756 12.690602,75.3697143 12.7482824,74.8725685 L12.755,74.756 L12.755,60.756 L15.756,60.756 Z" id="Fill-587" fill-opacity="0.304632867" fill="#FFFFFF"></path>
        <path d="M8.505,78.006 L15.005,78.006 L15.005,61.506 L8.505,61.506 L8.505,78.006 Z M15.755,79.506 L7.755,79.506 C7.341,79.506 7.005,79.17 7.005,78.756 L7.005,60.756 C7.005,60.342 7.341,60.006 7.755,60.006 L15.755,60.006 C16.169,60.006 16.505,60.342 16.505,60.756 L16.505,78.756 C16.505,79.17 16.169,79.506 15.755,79.506 L15.755,79.506 Z" id="Fill-586" fill="#FFFFFE"></path>
        <path d="M67.28075,30.21975 L68.25,31.189 L69.21975,30.21975 C69.51275,29.92675 69.98775,29.92675 70.28075,30.21975 C70.57375,30.51275 70.57375,30.98775 70.28075,31.28075 L69.311,32.25 L70.28075,33.21975 C70.57375,33.51275 70.57375,33.98775 70.28075,34.28075 C70.13375,34.42675 69.94275,34.49975 69.74975,34.49975 C69.55775,34.49975 69.36675,34.42675 69.21975,34.28075 L68.25,33.311 L67.28075,34.28075 C67.13375,34.42675 66.94275,34.49975 66.74975,34.49975 C66.55775,34.49975 66.36675,34.42675 66.21975,34.28075 C65.92675,33.98775 65.92675,33.51275 66.21975,33.21975 L67.189,32.25 L66.21975,31.28075 C65.92675,30.98775 65.92675,30.51275 66.21975,30.21975 C66.51275,29.92675 66.98775,29.92675 67.28075,30.21975 Z" id="Fill-233" fill="#FFFFFE"></path>
        <path d="M51.28075,55.21975 L52.25,56.189 L53.21975,55.21975 C53.51275,54.92675 53.98775,54.92675 54.28075,55.21975 C54.57375,55.51275 54.57375,55.98775 54.28075,56.28075 L53.311,57.25 L54.28075,58.21975 C54.57375,58.51275 54.57375,58.98775 54.28075,59.28075 C54.13375,59.42675 53.94275,59.49975 53.74975,59.49975 C53.55775,59.49975 53.36675,59.42675 53.21975,59.28075 L52.25,58.311 L51.28075,59.28075 C51.13375,59.42675 50.94275,59.49975 50.74975,59.49975 C50.55775,59.49975 50.36675,59.42675 50.21975,59.28075 C49.92675,58.98775 49.92675,58.51275 50.21975,58.21975 L51.189,57.25 L50.21975,56.28075 C49.92675,55.98775 49.92675,55.51275 50.21975,55.21975 C50.51275,54.92675 50.98775,54.92675 51.28075,55.21975 Z" id="Fill-233" fill="#FFFFFE"></path>
        <path d="M56.28075,18.21975 L57.25,19.189 L58.21975,18.21975 C58.51275,17.92675 58.98775,17.92675 59.28075,18.21975 C59.57375,18.51275 59.57375,18.98775 59.28075,19.28075 L58.311,20.25 L59.28075,21.21975 C59.57375,21.51275 59.57375,21.98775 59.28075,22.28075 C59.13375,22.42675 58.94275,22.49975 58.74975,22.49975 C58.55775,22.49975 58.36675,22.42675 58.21975,22.28075 L57.25,21.311 L56.28075,22.28075 C56.13375,22.42675 55.94275,22.49975 55.74975,22.49975 C55.55775,22.49975 55.36675,22.42675 55.21975,22.28075 C54.92675,21.98775 54.92675,21.51275 55.21975,21.21975 L56.189,20.25 L55.21975,19.28075 C54.92675,18.98775 54.92675,18.51275 55.21975,18.21975 C55.51275,17.92675 55.98775,17.92675 56.28075,18.21975 Z" id="Fill-233" fill="#FFFFFE"></path>
        <path d="M9.28075,50.21975 L10.25,51.189 L11.21975,50.21975 C11.51275,49.92675 11.98775,49.92675 12.28075,50.21975 C12.57375,50.51275 12.57375,50.98775 12.28075,51.28075 L11.311,52.25 L12.28075,53.21975 C12.57375,53.51275 12.57375,53.98775 12.28075,54.28075 C12.13375,54.42675 11.94275,54.49975 11.74975,54.49975 C11.55775,54.49975 11.36675,54.42675 11.21975,54.28075 L10.25,53.311 L9.28075,54.28075 C9.13375,54.42675 8.94275,54.49975 8.74975,54.49975 C8.55775,54.49975 8.36675,54.42675 8.21975,54.28075 C7.92675,53.98775 7.92675,53.51275 8.21975,53.21975 L9.189,52.25 L8.21975,51.28075 C7.92675,50.98775 7.92675,50.51275 8.21975,50.21975 C8.51275,49.92675 8.98775,49.92675 9.28075,50.21975 Z" id="Fill-233" fill="#FFFFFE"></path>
        <circle id="Oval" stroke="#FFFFFE" stroke-width="1.5" fill="#0A45A4" cx="9" cy="82" r="8"></circle>
        <text id="2" font-family="VarelaRound-Regular, Varela Round" font-size="12" font-weight="normal" letter-spacing="0.6" fill="#FFFFFE">
            <tspan x="5.432" y="86">2</tspan>
        </text>
    </g>
</svg>
