<?xml version="1.0" encoding="UTF-8"?>
<svg width="78px" height="100px" viewBox="0 0 78 100" version="1.1" xmlns="http://www.w3.org/2000/svg" xmlns:xlink="http://www.w3.org/1999/xlink">
    <!-- Generator: Sketch 59.1 (86144) - https://sketch.com -->
    <title>lineart_smart_intervals</title>
    <desc>Created with Sketch.</desc>
    <g id="lineart_smart_intervals" stroke="none" stroke-width="1" fill="none" fill-rule="evenodd">
        <path d="M57.75,38.4008614 C57.75,44.5598614 56.0881963,49.5 51.274,53.7563051 C48.8587036,55.8917059 46.274,59.6593051 46.274,63.0053051 L46.274,65.7503051 L51.274,65.7503051 L51.274,64.2643051 C51.274,60.9183051 52.735,57.7913051 55.128,55.4533051 C59.21,51.4653051 61.75,45.9103051 61.75,39.7503051 C61.75,31.6463051 57.365,24.5703051 50.839,20.7533051 C54.504,24.6833051 57.75,32.6038614 57.75,38.4008614 Z" id="Fill-595" fill-opacity="0.304632867" fill="#FFFFFF"></path>
        <path d="M28.977,65.0003051 L50.524,65.0003051 L50.524,64.2643051 C50.524,60.8073051 51.973,57.4873051 54.604,54.9163051 C58.729,50.8873051 61,45.5013051 61,39.7503051 C61,33.8603051 58.645,28.3813051 54.368,24.3263051 C50.093,20.2743051 44.48,18.2173051 38.583,18.5313051 C27.68,19.1153051 18.864,28.1273051 18.512,39.0513051 C18.319,45.0593051 20.699,50.8943051 25.041,55.0573051 C27.542,57.4553051 28.977,60.8993051 28.977,64.5053051 L28.977,65.0003051 Z M51.274,66.5003051 L28.227,66.5003051 C27.813,66.5003051 27.477,66.1643051 27.477,65.7503051 L27.477,64.5053051 C27.477,61.3063051 26.211,58.2563051 24.003,56.1413051 C19.354,51.6823051 16.805,45.4363051 17.012,39.0023051 C17.389,27.3083051 26.828,17.6583051 38.503,17.0333051 C44.818,16.6983051 50.824,18.8993051 55.4,23.2383051 C59.979,27.5783051 62.5,33.4443051 62.5,39.7503051 C62.5,45.9083051 60.069,51.6763051 55.653,55.9903051 C53.313,58.2763051 52.024,61.2143051 52.024,64.2643051 L52.024,65.7503051 C52.024,66.1643051 51.688,66.5003051 51.274,66.5003051 L51.274,66.5003051 Z" id="Fill-596" fill="#FFFFFE"></path>
        <path d="M47.75,69.7503051 C48.855,69.7503051 49.75,70.6473051 49.75,71.7503051 C49.75,72.8563051 48.855,73.7503051 47.75,73.7503051 L43.749,73.7503051 C44.855,73.7503051 45.749,72.8563051 45.749,71.7503051 C45.749,70.6473051 44.855,69.7503051 43.749,69.7503051 L43.749,69.7503051 L47.75,69.7503051 Z" id="Fill-616" fill-opacity="0.304632867" fill="#FFFFFF"></path>
        <path d="M31.75,70.5003051 C31.061,70.5003051 30.5,71.0613051 30.5,71.7503051 C30.5,72.4403051 31.061,73.0003051 31.75,73.0003051 L47.75,73.0003051 C48.44,73.0003051 49,72.4403051 49,71.7503051 C49,71.0613051 48.44,70.5003051 47.75,70.5003051 L31.75,70.5003051 Z M47.75,74.5003051 L31.75,74.5003051 C30.234,74.5003051 29,73.2683051 29,71.7503051 C29,70.2353051 30.234,69.0003051 31.75,69.0003051 L47.75,69.0003051 C49.267,69.0003051 50.5,70.2353051 50.5,71.7503051 C50.5,73.2683051 49.267,74.5003051 47.75,74.5003051 L47.75,74.5003051 Z" id="Fill-599" fill="#FFFFFE"></path>
        <path d="M47.75,73.7503051 C48.855,73.7503051 49.75,74.6473051 49.75,75.7503051 C49.75,76.8563051 48.855,77.7503051 47.75,77.7503051 L40.749,77.7503051 C41.854,77.7503051 42.749,76.8563051 42.749,75.7503051 C42.749,74.6473051 41.854,73.7503051 40.749,73.7503051 L40.749,73.7503051 L47.75,73.7503051 Z" id="Fill-611" fill-opacity="0.304632867" fill="#FFFFFF"></path>
        <path d="M31.75,74.5003051 C31.061,74.5003051 30.5,75.0613051 30.5,75.7503051 C30.5,76.4403051 31.061,77.0003051 31.75,77.0003051 L47.75,77.0003051 C48.44,77.0003051 49,76.4403051 49,75.7503051 C49,75.0613051 48.44,74.5003051 47.75,74.5003051 L31.75,74.5003051 Z M47.75,78.5003051 L31.75,78.5003051 C30.234,78.5003051 29,77.2683051 29,75.7503051 C29,74.2353051 30.234,73.0003051 31.75,73.0003051 L47.75,73.0003051 C49.267,73.0003051 50.5,74.2353051 50.5,75.7503051 C50.5,77.2683051 49.267,78.5003051 47.75,78.5003051 L47.75,78.5003051 Z" id="Fill-602" fill="#FFFFFE"></path>
        <path d="M49.75,65.7503051 L49.75,67.7503051 C49.75,68.8563051 48.855,69.7503051 47.75,69.7503051 L41.749,69.7503051 C42.854,69.7503051 43.749,68.8563051 43.749,67.7503051 L43.749,67.7503051 L43.749,65.7503051 L49.75,65.7503051 Z" id="Fill-608" fill-opacity="0.304632867" fill="#FFFFFF"></path>
        <path d="M30.5,66.5003051 L30.5,67.7503051 C30.5,68.4403051 31.061,69.0003051 31.75,69.0003051 L47.75,69.0003051 C48.44,69.0003051 49,68.4403051 49,67.7503051 L49,66.5003051 L30.5,66.5003051 Z M47.75,70.5003051 L31.75,70.5003051 C30.234,70.5003051 29,69.2683051 29,67.7503051 L29,65.7503051 C29,65.3363051 29.336,65.0003051 29.75,65.0003051 L49.75,65.0003051 C50.164,65.0003051 50.5,65.3363051 50.5,65.7503051 L50.5,67.7503051 C50.5,69.2683051 49.267,70.5003051 47.75,70.5003051 L47.75,70.5003051 Z" id="Fill-605" fill="#FFFFFE"></path>
        <path d="M45.75,82.5013051 L33.75,82.5013051 C33.336,82.5013051 33,82.1653051 33,81.7513051 C33,81.3373051 33.336,81.0013051 33.75,81.0013051 L45.75,81.0013051 C46.164,81.0013051 46.5,81.3373051 46.5,81.7513051 C46.5,82.1653051 46.164,82.5013051 45.75,82.5013051" id="Fill-606" fill="#FFFFFE"></path>
        <path d="M11.409,51.7723051 C11.621,52.2243051 11.749,52.7233051 11.749,53.2563051 C11.749,55.1893051 10.183,56.7563051 8.249,56.7563051 L8.091,56.7393051 C8.651,57.9283051 9.85,58.7563051 11.25,58.7563051 C13.183,58.7563051 14.75,57.1903051 14.75,55.2563051 C14.75,53.3773051 13.267,51.8573051 11.409,51.7723051" id="Fill-617" fill-opacity="0.304632867" fill="#FFFFFF"></path>
        <path d="M11.25,52.5063051 C9.734,52.5063051 8.5,53.7393051 8.5,55.2563051 C8.5,56.7733051 9.734,58.0063051 11.25,58.0063051 C12.767,58.0063051 14,56.7733051 14,55.2563051 C14,53.7393051 12.767,52.5063051 11.25,52.5063051 Z M11.25,59.5063051 C8.907,59.5063051 7,57.6003051 7,55.2563051 C7,52.9123051 8.907,51.0063051 11.25,51.0063051 C13.594,51.0063051 15.5,52.9123051 15.5,55.2563051 C15.5,57.6003051 13.594,59.5063051 11.25,59.5063051 L11.25,59.5063051 Z" id="Fill-618" fill="#FFFFFE"></path>
        <path d="M20.251,82.5023051 C19.837,82.5023051 19.501,82.1663051 19.501,81.7523051 L19.501,73.5763051 L10.72,64.7873051 C10.579,64.6473051 10.5,64.4553051 10.5,64.2573051 L10.5,58.7563051 C10.5,58.3423051 10.836,58.0063051 11.25,58.0063051 C11.664,58.0063051 12,58.3423051 12,58.7563051 L12,63.9463051 L20.782,72.7353051 C20.922,72.8753051 21.001,73.0673051 21.001,73.2663051 L21.001,81.7523051 C21.001,82.1663051 20.665,82.5023051 20.251,82.5023051" id="Fill-619" fill="#FFFFFE"></path>
        <path d="M68.41,46.7723051 C68.622,47.2233051 68.75,47.7233051 68.75,48.2553051 C68.75,50.1883051 67.183,51.7553051 65.25,51.7553051 L65.091,51.7383051 C65.651,52.9283051 66.85,53.7563051 68.25,53.7563051 C70.183,53.7563051 71.75,52.1893051 71.75,50.2563051 C71.75,48.3773051 70.267,46.8563051 68.41,46.7723051" id="Fill-621" fill-opacity="0.304632867" fill="#FFFFFF"></path>
        <path d="M68.25,47.5063051 C66.734,47.5063051 65.5,48.7383051 65.5,50.2563051 C65.5,51.7723051 66.734,53.0063051 68.25,53.0063051 C69.767,53.0063051 71,51.7723051 71,50.2563051 C71,48.7383051 69.767,47.5063051 68.25,47.5063051 Z M68.25,54.5063051 C65.907,54.5063051 64,52.5993051 64,50.2563051 C64,47.9123051 65.907,46.0063051 68.25,46.0063051 C70.594,46.0063051 72.5,47.9123051 72.5,50.2563051 C72.5,52.5993051 70.594,54.5063051 68.25,54.5063051 L68.25,54.5063051 Z" id="Fill-622" fill="#FFFFFE"></path>
        <path d="M59.249,82.5023051 C58.835,82.5023051 58.499,82.1663051 58.499,81.7523051 L58.499,72.2663051 C58.499,72.0673051 58.578,71.8753051 58.719,71.7353051 L67.5,62.9463051 L67.5,53.7563051 C67.5,53.3423051 67.836,53.0063051 68.25,53.0063051 C68.664,53.0063051 69,53.3423051 69,53.7563051 L69,63.2573051 C69,63.4553051 68.921,63.6473051 68.781,63.7873051 L59.999,72.5763051 L59.999,81.7523051 C59.999,82.1663051 59.663,82.5023051 59.249,82.5023051" id="Fill-623" fill="#FFFFFE"></path>
        <path d="M18.751,17.0003051 C19.165,17.0003051 19.501,17.3363051 19.501,17.7503051 L19.501,19.0003051 L20.751,19.0003051 C21.165,19.0003051 21.501,19.3363051 21.501,19.7503051 C21.501,20.1643051 21.165,20.5003051 20.751,20.5003051 L19.501,20.5003051 L19.501,21.7503051 C19.501,22.1643051 19.165,22.5003051 18.751,22.5003051 C18.337,22.5003051 18.001,22.1643051 18.001,21.7503051 L18.001,20.5003051 L16.751,20.5003051 C16.337,20.5003051 16.001,20.1643051 16.001,19.7503051 C16.001,19.3363051 16.337,19.0003051 16.751,19.0003051 L18.001,19.0003051 L18.001,17.7503051 C18.001,17.3363051 18.337,17.0003051 18.751,17.0003051 Z" id="Fill-641" fill="#FFFFFE" transform="translate(18.751000, 19.750305) rotate(45.000000) translate(-18.751000, -19.750305) "></path>
        <path d="M65.749,25.0023051 C66.163,25.0023051 66.499,25.3383051 66.499,25.7523051 L66.499,27.0023051 L67.749,27.0023051 C68.163,27.0023051 68.499,27.3383051 68.499,27.7523051 C68.499,28.1663051 68.163,28.5023051 67.749,28.5023051 L66.499,28.5023051 L66.499,29.7523051 C66.499,30.1663051 66.163,30.5023051 65.749,30.5023051 C65.335,30.5023051 64.999,30.1663051 64.999,29.7523051 L64.999,28.5023051 L63.749,28.5023051 C63.335,28.5023051 62.999,28.1663051 62.999,27.7523051 C62.999,27.3383051 63.335,27.0023051 63.749,27.0023051 L64.999,27.0023051 L64.999,25.7523051 C64.999,25.3383051 65.335,25.0023051 65.749,25.0023051 Z" id="Fill-640" fill="#FFFFFE" transform="translate(65.749000, 27.752305) rotate(45.000000) translate(-65.749000, -27.752305) "></path>
        <path d="M69.75,74.0063051 C70.164,74.0063051 70.5,74.3423051 70.5,74.7563051 L70.5,76.0063051 L71.75,76.0063051 C72.164,76.0063051 72.5,76.3423051 72.5,76.7563051 C72.5,77.1703051 72.164,77.5063051 71.75,77.5063051 L70.5,77.5063051 L70.5,78.7563051 C70.5,79.1703051 70.164,79.5063051 69.75,79.5063051 C69.336,79.5063051 69,79.1703051 69,78.7563051 L69,77.5063051 L67.75,77.5063051 C67.336,77.5063051 67,77.1703051 67,76.7563051 C67,76.3423051 67.336,76.0063051 67.75,76.0063051 L69,76.0063051 L69,74.7563051 C69,74.3423051 69.336,74.0063051 69.75,74.0063051 Z" id="Fill-639" fill="#FFFFFE" transform="translate(69.750000, 76.756305) rotate(45.000000) translate(-69.750000, -76.756305) "></path>
        <path d="M9.75,30.0023051 C10.164,30.0023051 10.5,30.3383051 10.5,30.7523051 L10.5,32.0023051 L11.75,32.0023051 C12.164,32.0023051 12.5,32.3383051 12.5,32.7523051 C12.5,33.1663051 12.164,33.5023051 11.75,33.5023051 L10.5,33.5023051 L10.5,34.7523051 C10.5,35.1663051 10.164,35.5023051 9.75,35.5023051 C9.336,35.5023051 9,35.1663051 9,34.7523051 L9,33.5023051 L7.75,33.5023051 C7.336,33.5023051 7,33.1663051 7,32.7523051 C7,32.3383051 7.336,32.0023051 7.75,32.0023051 L9,32.0023051 L9,30.7523051 C9,30.3383051 9.336,30.0023051 9.75,30.0023051 Z" id="Fill-638" fill="#FFFFFE" transform="translate(9.750000, 32.752305) rotate(45.000000) translate(-9.750000, -32.752305) "></path>
        <path d="M20.751,61.0053051 C21.165,61.0053051 21.501,61.3413051 21.501,61.7553051 L21.501,63.0053051 L22.751,63.0053051 C23.165,63.0053051 23.501,63.3413051 23.501,63.7553051 C23.501,64.1693051 23.165,64.5053051 22.751,64.5053051 L21.501,64.5053051 L21.501,65.7553051 C21.501,66.1693051 21.165,66.5053051 20.751,66.5053051 C20.337,66.5053051 20.001,66.1693051 20.001,65.7553051 L20.001,64.5053051 L18.751,64.5053051 C18.337,64.5053051 18.001,64.1693051 18.001,63.7553051 C18.001,63.3413051 18.337,63.0053051 18.751,63.0053051 L20.001,63.0053051 L20.001,61.7553051 C20.001,61.3413051 20.337,61.0053051 20.751,61.0053051 Z" id="Fill-637" fill="#FFFFFE" transform="translate(20.751000, 63.755305) rotate(45.000000) translate(-20.751000, -63.755305) "></path>
        <g id="Group" transform="translate(21.000000, 21.000000)">
            <path d="M28.728,3.773 C30.634,6.629 31.749,10.059 31.749,13.75 C31.749,23.692 23.691,31.75 13.749,31.75 C10.057,31.75 6.628,30.635 3.772,28.729 C6.999,33.564 12.501,36.751 18.75,36.751 C28.691,36.751 36.75,28.692 36.75,18.751 C36.75,12.501 33.563,7 28.728,3.773" id="Fill-573" fill-opacity="0.304632867" fill="#FFFFFF"></path>
            <path d="M18.75,1.5 C9.238,1.5 1.5,9.239 1.5,18.75 C1.5,28.262 9.238,36 18.75,36 C28.262,36 36,28.262 36,18.75 C36,9.239 28.262,1.5 18.75,1.5 Z M18.75,37.5 C8.411,37.5 -3.55271368e-15,29.089 -3.55271368e-15,18.75 C-3.55271368e-15,8.411 8.411,0 18.75,0 C29.089,0 37.5,8.411 37.5,18.75 C37.5,29.089 29.089,37.5 18.75,37.5 L18.75,37.5 Z" id="Fill-574" fill="#FFFFFE"></path>
            <path d="M3.749,19.5 L0.75,19.5 C0.336,19.5 7.10542736e-15,19.164 7.10542736e-15,18.75 C7.10542736e-15,18.336 0.336,18 0.75,18 L3.749,18 C4.163,18 4.499,18.336 4.499,18.75 C4.499,19.164 4.163,19.5 3.749,19.5" id="Fill-591" fill="#FFFFFE"></path>
            <path d="M36.75,19.5 L33.75,19.5 C33.336,19.5 33,19.164 33,18.75 C33,18.336 33.336,18 33.75,18 L36.75,18 C37.164,18 37.5,18.336 37.5,18.75 C37.5,19.164 37.164,19.5 36.75,19.5" id="Fill-592" fill="#FFFFFE"></path>
            <path d="M18.75,37.5 C18.336,37.5 18,37.164 18,36.75 L18,33.75 C18,33.336 18.336,33 18.75,33 C19.164,33 19.5,33.336 19.5,33.75 L19.5,36.75 C19.5,37.164 19.164,37.5 18.75,37.5" id="Fill-593" fill="#FFFFFE"></path>
            <path d="M18.75,4.5 C18.336,4.5 18,4.164 18,3.75 L18,0.75 C18,0.336 18.336,0 18.75,0 C19.164,0 19.5,0.336 19.5,0.75 L19.5,3.75 C19.5,4.164 19.164,4.5 18.75,4.5" id="Fill-594" fill="#FFFFFE"></path>
            <path d="M3.162,28.5 C2.903,28.5 2.651,28.366 2.512,28.125 C2.305,27.767 2.428,27.308 2.787,27.101 L5.384,25.601 C5.742,25.393 6.202,25.517 6.408,25.875 C6.616,26.234 6.493,26.693 6.134,26.9 L3.537,28.4 C3.419,28.468 3.29,28.5 3.162,28.5" id="Fill-595" fill="#FFFFFE"></path>
            <path d="M31.741,12 C31.482,12 31.229,11.866 31.091,11.625 C30.883,11.267 31.007,10.808 31.365,10.601 L33.963,9.101 C34.321,8.893 34.781,9.017 34.987,9.375 C35.195,9.734 35.072,10.193 34.713,10.4 L32.115,11.9 C31.997,11.968 31.868,12 31.741,12" id="Fill-596" fill="#FFFFFE"></path>
            <path d="M27.75,35.089 C27.491,35.089 27.239,34.954 27.1,34.714 L25.6,32.116 C25.394,31.757 25.516,31.298 25.875,31.091 C26.233,30.883 26.692,31.007 26.899,31.366 L28.399,33.964 C28.607,34.323 28.484,34.782 28.125,34.989 C28.007,35.057 27.878,35.089 27.75,35.089" id="Fill-597" fill="#FFFFFE"></path>
            <path d="M11.25,6.51 C10.991,6.51 10.739,6.375 10.6,6.135 L9.1,3.537 C8.894,3.179 9.016,2.72 9.375,2.513 C9.733,2.305 10.192,2.429 10.399,2.787 L11.899,5.385 C12.107,5.744 11.984,6.202 11.625,6.41 C11.507,6.478 11.378,6.51 11.25,6.51" id="Fill-598" fill="#FFFFFE"></path>
            <path d="M9.749,35.089 C9.622,35.089 9.493,35.057 9.375,34.989 C9.016,34.782 8.894,34.323 9.1,33.964 L10.6,31.366 C10.808,31.007 11.266,30.883 11.625,31.091 C11.984,31.298 12.107,31.757 11.899,32.116 L10.399,34.714 C10.261,34.954 10.008,35.089 9.749,35.089" id="Fill-599" fill="#FFFFFE"></path>
            <path d="M26.249,6.51 C26.122,6.51 25.993,6.478 25.875,6.41 C25.516,6.202 25.394,5.744 25.6,5.385 L27.1,2.787 C27.308,2.429 27.766,2.305 28.125,2.513 C28.484,2.72 28.607,3.179 28.399,3.537 L26.899,6.135 C26.761,6.375 26.508,6.51 26.249,6.51" id="Fill-600" fill="#FFFFFE"></path>
            <path d="M34.338,28.5 C34.211,28.5 34.082,28.468 33.963,28.4 L31.365,26.9 C31.007,26.693 30.883,26.234 31.091,25.875 C31.298,25.517 31.757,25.393 32.115,25.601 L34.713,27.101 C35.072,27.308 35.195,27.767 34.987,28.125 C34.849,28.366 34.596,28.5 34.338,28.5" id="Fill-601" fill="#FFFFFE"></path>
            <path d="M5.758,12 C5.632,12 5.503,11.968 5.384,11.9 L2.787,10.4 C2.428,10.193 2.305,9.734 2.512,9.375 C2.719,9.017 3.179,8.893 3.537,9.101 L6.134,10.601 C6.493,10.808 6.616,11.267 6.408,11.625 C6.27,11.866 6.017,12 5.758,12" id="Fill-602" fill="#FFFFFE"></path>
            <path d="M25.749,19.5 L18.75,19.5 C18.336,19.5 18,19.164 18,18.75 L18,8.751 C18,8.337 18.336,8.001 18.75,8.001 C19.164,8.001 19.5,8.337 19.5,8.751 L19.5,18 L25.749,18 C26.163,18 26.499,18.336 26.499,18.75 C26.499,19.164 26.163,19.5 25.749,19.5" id="Fill-603" fill="#FFFFFE"></path>
        </g>
    </g>
</svg>