<?xml version="1.0" encoding="UTF-8"?>
<svg width="78px" height="100px" viewBox="0 0 78 100" version="1.1" xmlns="http://www.w3.org/2000/svg" xmlns:xlink="http://www.w3.org/1999/xlink">
    <!-- Generator: Sketch 59.1 (86144) - https://sketch.com -->
    <title>lineart_proven_strategy</title>
    <desc>Created with Sketch.</desc>
    <g id="lineart_proven_strategy" stroke="none" stroke-width="1" fill="none" fill-rule="evenodd">
        <path d="M2.751,17.75 L46.748,17.75 L59.75,30.75 L46.748,43.75 L2.751,43.75 L2.751,43.75 L46.748,43.75 L55.249,35.25 L44.334,24.337 C43.959,23.962 43.45,23.751 42.92,23.751 L42.92,23.751 L2.751,23.751 L2.751,17.75 Z" id="Fill-561" fill-opacity="0.304632867" fill="#FFFFFF"></path>
        <path d="M3.5,43 L46.438,43 L58.689,30.75 L46.438,18.5 L3.5,18.5 L3.5,43 Z M46.748,44.5 L2.75,44.5 C2.336,44.5 2,44.164 2,43.75 L2,17.75 C2,17.336 2.336,17 2.75,17 L46.748,17 C46.947,17 47.138,17.079 47.279,17.219 L60.28,30.219 C60.421,30.36 60.5,30.55 60.5,30.75 C60.5,30.949 60.421,31.139 60.28,31.28 L47.279,44.28 C47.138,44.421 46.947,44.5 46.748,44.5 L46.748,44.5 Z" id="Fill-531" fill="#FFFFFE"></path>
        <path d="M62.749,81.749 L62.75,81.75 L2.751,81.75 L2.751,81.75 L62.749,81.749 Z M2.751,68.749 L8.742,62.756 L14.719,68.733 L26.767,56.686 L32.809,62.728 L44.685,50.852 L50.749,50.852 L62.75,38.851 L62.749,47.852 L50.3443841,59.3918465 L45.0160421,59.3918465 L32.809,71.729 L26.767,65.687 L14.719,77.734 L8.742,71.757 L2.751,77.75 L2.751,68.749 Z" id="Fill-564" fill-opacity="0.304632867" fill="#FFFFFF"></path>
        <path d="M63.037,38.158 C63.317,38.274 63.5,38.547 63.5,38.851 L63.5003958,54.6069347 C63.0076891,54.5463174 62.5072837,54.5109495 62.0005183,54.5021689 L62,40.662 L51.279,51.382 C51.138,51.523 50.948,51.602 50.749,51.602 L44.996,51.602 L33.34,63.258 C33.047,63.551 32.572,63.551 32.279,63.258 L26.766,57.746 L15.249,69.263 C14.968,69.545 14.47,69.545 14.189,69.263 L8.742,63.817 L3.5,69.059 L3.5,81 L54.4758488,80.9999609 C55.5662561,81.6499142 56.7503114,82.1584594 58.0025295,82.5000959 L2.75,82.5 C2.336,82.5 2,82.164 2,81.75 L2,68.749 C2,68.549 2.079,68.359 2.22,68.218 L8.212,62.226 C8.505,61.933 8.98,61.933 9.273,62.226 L14.719,67.672 L26.236,56.155 C26.517,55.874 27.015,55.874 27.297,56.155 L32.809,61.668 L44.155,50.322 C44.296,50.181 44.487,50.102 44.685,50.102 L50.438,50.102 L62.22,38.321 C62.434,38.107 62.757,38.044 63.037,38.158 Z M51.2156255,78.3366486 L51.2072118,78.3436632 C51.0804583,78.4416667 50.9215,78.5 50.749,78.5 C50.335,78.5 49.999,78.164 49.999,77.75 L49.9976827,76.8008091 C50.3686469,77.3406468 50.7758042,77.8537704 51.2156255,78.3366486 Z M44.748,55.003 C45.162,55.003 45.498,55.338 45.498,55.753 L45.498,77.75 C45.498,78.164 45.162,78.5 44.748,78.5 C44.334,78.5 43.998,78.164 43.998,77.75 L43.998,55.753 C43.998,55.338 44.334,55.003 44.748,55.003 Z M38.748,61.003 C39.162,61.003 39.498,61.338 39.498,61.753 L39.498,77.75 C39.498,78.164 39.162,78.5 38.748,78.5 C38.334,78.5 37.998,78.164 37.998,77.75 L37.998,61.753 C37.998,61.338 38.334,61.003 38.748,61.003 Z M32.747,66.004 C33.161,66.004 33.497,66.339 33.497,66.754 L33.497,77.75 C33.497,78.164 33.161,78.5 32.747,78.5 C32.333,78.5 31.997,78.164 31.997,77.75 L31.997,66.754 C31.997,66.339 32.333,66.004 32.747,66.004 Z M26.746,62.003 C27.16,62.003 27.496,62.338 27.496,62.753 L27.496,77.75 C27.496,78.164 27.16,78.5 26.746,78.5 C26.332,78.5 25.996,78.164 25.996,77.75 L25.996,62.753 C25.996,62.338 26.332,62.003 26.746,62.003 Z M20.746,67.004 C21.16,67.004 21.496,67.339 21.496,67.754 L21.496,77.75 C21.496,78.164 21.16,78.5 20.746,78.5 C20.332,78.5 19.996,78.164 19.996,77.75 L19.996,67.754 C19.996,67.339 20.332,67.004 20.746,67.004 Z M14.745,72.004 C15.159,72.004 15.495,72.339 15.495,72.754 L15.495,77.75 C15.495,78.164 15.159,78.5 14.745,78.5 C14.331,78.5 13.995,78.164 13.995,77.75 L13.995,72.754 C13.995,72.339 14.331,72.004 14.745,72.004 Z M8.744,68.004 C9.158,68.004 9.494,68.339 9.494,68.754 L9.494,77.75 C9.494,78.164 9.158,78.5 8.744,78.5 C8.33,78.5 7.994,78.164 7.994,77.75 L7.994,68.754 C7.994,68.339 8.33,68.004 8.744,68.004 Z M50.749,55.003 C51.163,55.003 51.499,55.338 51.499,55.753 L51.498404,58.8613352 C50.9492615,59.4304402 50.4469318,60.0450019 49.9976827,60.6987526 L49.999,55.753 C49.999,55.338 50.335,55.003 50.749,55.003 Z M56.749,50.002 C57.163,50.002 57.499,50.338 57.499,50.752 L57.4986285,55.1474133 C56.9854624,55.3081201 56.4846933,55.497124 55.9981568,55.7125892 L55.999,50.752 C55.999,50.338 56.335,50.002 56.749,50.002 Z" id="Fill-534" fill="#FFFFFE"></path>
        <path d="M2.75,82.5 C2.336,82.5 2,82.164 2,81.75 L2,17.75 C2,17.336 2.336,17 2.75,17 C3.164,17 3.5,17.336 3.5,17.75 L3.5,81 L53.75,81 C54.164,81 54.5,81.336 54.5,81.75 C54.5,82.164 54.164,82.5 53.75,82.5 L2.75,82.5 Z" id="Fill-544" fill="#FFFFFE"></path>
        <path d="M38.752,29.75 C39.304,29.75 39.752,29.301 39.752,28.75 L39.752,28.75 L39.752,23.75 L40.753,23.75 C41.857,23.75 42.753,24.645 42.753,25.75 L42.753,30.75 C42.753,31.854 41.857,32.75 40.753,32.75 L36.753,32.75 C35.648,32.75 34.753,31.854 34.753,30.75 L34.753,29.75 Z" id="Fill-563" fill-opacity="0.304632867" fill="#FFFFFF" transform="translate(38.753000, 28.250000) scale(1, -1) translate(-38.753000, -28.250000) "></path>
        <path d="M23.753,38.5 C22.236,38.5 21.003,37.266 21.003,35.75 L21.003,25.75 C21.003,24.233 22.236,23 23.753,23 L27.753,23 C29.269,23 30.503,24 30.503,26.0588837 C30.503,26.4346209 30.0819057,26.75 29.7710824,26.75 C29.4602591,26.75 29.003,26.5044337 29.003,26.0588837 C29.003,25.1395943 28.6956083,24.5 27.753,24.5 C26.8103917,24.5 24.4213838,24.5 23.753,24.5 C23.0846162,24.5 22.503,24.9168997 22.503,25.75 C22.503,26.099677 22.503,35.0166732 22.503,35.75 C22.503,36.4833268 23.126313,37 23.753,37 C23.8276142,37 25.2865679,37 27.753,37 C28.7589896,37 29.003,36.1961785 29.003,35.75 C29.003,35.2818522 29.4642432,35.0652597 29.7710824,35.072741 C29.989345,35.0780627 30.4686311,35.2852207 30.503,35.75 C30.6182603,37.308694 29.269,38.5 27.753,38.5 C25.0863333,38.5 23.753,38.5 23.753,38.5 Z" id="Fill-547" fill="#FFFFFE"></path>
        <path d="M22,26.75 C22,24.2245115 22.7747075,24 23.8797075,24 L27.8797075,24 C28.9837075,24 30.503,24.645 30.503,25.75 C30.4204503,26.4036675 30.0111754,26.7305012 29.2751754,26.7305012 L22,26.75 Z" id="Fill-545" fill-opacity="0.304632867" fill="#FFFFFF"></path>
        <path d="M36.753,24.5 C36.063,24.5 35.503,25.06 35.503,25.75 L35.503,31.75 L42.003,31.75 L42.003,25.75 C42.003,25.06 41.442,24.5 40.753,24.5 L36.753,24.5 Z M42.003,33.151789 L35.503,33.151789 C35.4994279,36.0573808 35.4976418,37.57699 35.4976418,37.7106165 C35.4976418,38.3446714 35.0319259,38.5 34.7233202,38.5 C34.4147144,38.5 34.003,38.260148 34.003,37.7106165 L34.003,25.75 C34.003,24.233 35.236,23 36.753,23 L40.753,23 C42.269,23 43.5030128,24.233 43.5030128,25.75 L43.5030128,37.751 C43.5030128,38.2085192 43.2761169,38.5 42.769192,38.5 C42.2824589,38.5 42.0153853,38.2085192 42.0153853,37.751 L42.003,33.151789 Z" id="Fill-547" fill="#FFFFFE"></path>
        <path d="M12.752,34.75 C13.304,34.75 13.752,34.302 13.752,33.75 L13.752,33.75 L13.752,23.75 L14.752,23.751 C15.857,23.751 16.752,24.646 16.752,25.751 L16.752,35.751 C16.752,36.855 15.857,37.751 14.752,37.751 L8.752,37.751 L8.752,34.75 Z" id="Fill-562" fill-opacity="0.304632867" fill="#FFFFFF" transform="translate(12.752000, 30.750500) scale(1, -1) translate(-12.752000, -30.750500) "></path>
        <path d="M9.502,37 L14.752,37 C15.442,37 16.002,36.439 16.002,35.75 L16.002,25.75 C16.002,25.06 15.442,24.5 14.752,24.5 L9.502,24.5 L9.502,37 Z M8.752,38.5 C8.338,38.5 8.002,38.164 8.002,37.75 L8.002,23.75 C8.002,23.336 8.338,23 8.752,23 L14.752,23 C16.269,23 17.502,24.233 17.502,25.75 L17.502,35.75 C17.502,37.266 16.269,38.5 14.752,38.5 L8.752,38.5 Z" id="Fill-550" fill="#FFFFFE"></path>
        <path d="M11.751,51.5 C11.559,51.5 11.367,51.426 11.221,51.28 L8.221,48.28 C7.928,47.987 7.928,47.512 8.221,47.219 C8.513,46.926 8.988,46.926 9.281,47.219 L12.281,50.219 C12.574,50.512 12.574,50.987 12.281,51.28 C12.135,51.426 11.943,51.5 11.751,51.5" id="Fill-553" fill="#FFFFFE"></path>
        <path d="M8.751,51.5 C8.559,51.5 8.367,51.426 8.221,51.28 C7.928,50.987 7.928,50.512 8.221,50.219 L11.221,47.219 C11.513,46.926 11.988,46.926 12.281,47.219 C12.574,47.512 12.574,47.987 12.281,48.28 L9.281,51.28 C9.135,51.426 8.943,51.5 8.751,51.5" id="Fill-554" fill="#FFFFFE"></path>
        <path d="M20.752,58.501 C20.56,58.501 20.368,58.427 20.221,58.281 L17.221,55.281 C16.929,54.988 16.929,54.513 17.221,54.22 C17.514,53.927 17.989,53.927 18.282,54.22 L21.282,57.22 C21.575,57.513 21.575,57.988 21.282,58.281 C21.136,58.427 20.944,58.501 20.752,58.501" id="Fill-555" fill="#FFFFFE"></path>
        <path d="M17.752,58.501 C17.56,58.501 17.368,58.427 17.221,58.281 C16.929,57.988 16.929,57.513 17.221,57.22 L20.221,54.22 C20.514,53.927 20.989,53.927 21.282,54.22 C21.575,54.513 21.575,54.988 21.282,55.281 L18.282,58.281 C18.136,58.427 17.944,58.501 17.752,58.501" id="Fill-556" fill="#FFFFFE"></path>
        <path d="M36.754,53.5 C36.562,53.5 36.37,53.426 36.223,53.28 L33.223,50.28 C32.93,49.987 32.93,49.512 33.223,49.219 C33.516,48.926 33.991,48.926 34.284,49.219 L37.284,52.219 C37.577,52.512 37.577,52.987 37.284,53.28 C37.137,53.426 36.946,53.5 36.754,53.5" id="Fill-557" fill="#FFFFFE"></path>
        <path d="M33.754,53.5 C33.562,53.5 33.37,53.426 33.223,53.28 C32.93,52.987 32.93,52.512 33.223,52.219 L36.223,49.219 C36.516,48.926 36.991,48.926 37.284,49.219 C37.577,49.512 37.577,49.987 37.284,50.28 L34.284,53.28 C34.137,53.426 33.946,53.5 33.754,53.5" id="Fill-558" fill="#FFFFFE"></path>
        <path d="M60.756,23.497 C60.564,23.497 60.372,23.423 60.226,23.277 L57.226,20.277 C56.933,19.984 56.933,19.509 57.226,19.216 C57.519,18.923 57.993,18.923 58.286,19.216 L61.286,22.216 C61.579,22.509 61.579,22.984 61.286,23.277 C61.14,23.423 60.948,23.497 60.756,23.497" id="Fill-559" fill="#FFFFFE"></path>
        <path d="M57.756,23.497 C57.564,23.497 57.372,23.423 57.226,23.277 C56.933,22.984 56.933,22.509 57.226,22.216 L60.226,19.216 C60.519,18.923 60.993,18.923 61.286,19.216 C61.579,19.509 61.579,19.984 61.286,20.277 L58.286,23.277 C58.14,23.423 57.948,23.497 57.756,23.497" id="Fill-560" fill="#FFFFFE"></path>
        <path d="M54.5,81.001 L54.5,92.537 L61.414,89.079 C61.52,89.026 61.635,89 61.75,89 C61.865,89 61.98,89.026 62.085,89.079 L69,92.537 L69,81.001 L69.75,81.001 C70.164,81.001 70.5,81.336 70.5,81.751 L70.5,93.751 C70.5,94.01 70.365,94.252 70.144,94.388 C70.024,94.462 69.887,94.501 69.75,94.501 C69.635,94.501 69.52,94.473 69.414,94.42 L61.75,90.588 L54.085,94.42 C53.852,94.536 53.576,94.524 53.356,94.388 C53.135,94.252 53,94.01 53,93.751 L53,81.751 C53,81.336 53.336,81.001 53.75,81.001 L54.5,81.001 Z" id="Path-3" fill="#FFFFFE"></path>
        <path d="M60.877,86.807 C61.428,86.532 62.074,86.526 62.631,86.79 L62.631,86.79 L66.034,88.409 C66.366,88.567 66.749,88.325 66.749,87.958 L66.749,87.958 L66.749,82.751 L69.75,82.751 L69.75,93.751 L61.75,89.75 L61.75,89.75 L53.75,93.751 L53.75,90.372 Z" id="Fill-324" fill-opacity="0.304632867" fill="#FFFFFF"></path>
        <path d="M70.547,56.618 C72.344,59.091 73.416,62.125 73.416,65.416 C73.416,73.7 66.7,80.416 58.416,80.416 C55.125,80.416 52.092,79.343 49.618,77.546 C52.345,81.299 56.756,83.749 61.75,83.749 C70.034,83.749 76.75,77.034 76.75,68.749 C76.75,63.756 74.3,59.344 70.547,56.618" id="Fill-325" fill-opacity="0.304632867" fill="#FFFFFF"></path>
        <path d="M61.75,54.5 C53.892,54.5 47.5,60.892 47.5,68.75 C47.5,76.607 53.892,83 61.75,83 C69.607,83 76,76.607 76,68.75 C76,60.892 69.607,54.5 61.75,54.5 Z M61.75,84.5 C53.065,84.5 46,77.434 46,68.75 C46,60.065 53.065,53 61.75,53 C70.434,53 77.5,60.065 77.5,68.75 C77.5,77.434 70.434,84.5 61.75,84.5 L61.75,84.5 Z" id="Fill-326" fill="#FFFFFE"></path>
        <path d="M71.031,68.981 C71.331,68.752 71.321,68.295 71.009,68.081 L69.898,67.315 C69.659,67.149 69.587,66.829 69.734,66.577 L70.412,65.411 C70.603,65.085 70.418,64.667 70.049,64.588 L68.729,64.305 C68.613,64.281 68.519,64.215 68.444,64.133 C68.451,64.297 68.469,64.46 68.469,64.626 C68.469,70.7 63.543,75.626 57.469,75.626 L57.422,75.623 C57.525,75.696 57.606,75.799 57.64,75.93 L57.985,77.235 C58.081,77.6 58.507,77.766 58.824,77.559 L59.957,76.827 C60.2,76.668 60.525,76.725 60.701,76.957 L61.518,78.03 C61.748,78.331 62.204,78.321 62.419,78.008 L63.184,76.898 C63.349,76.659 63.671,76.586 63.922,76.733 L65.088,77.413 C65.415,77.602 65.832,77.418 65.911,77.047 L66.194,75.729 C66.254,75.444 66.524,75.254 66.812,75.293 L68.149,75.475 C68.524,75.526 68.839,75.196 68.77,74.824 L68.526,73.497 C68.473,73.211 68.65,72.932 68.931,72.858 L70.236,72.514 C70.601,72.418 70.766,71.993 70.56,71.674 L69.827,70.542 C69.669,70.298 69.726,69.973 69.957,69.797 L71.031,68.981" id="Fill-328" fill-opacity="0.304632867" fill="#FFFFFF"></path>
        <path d="M60.256,75.989 C60.652,75.989 61.044,76.168 61.298,76.502 L61.953,77.363 L62.567,76.472 C62.953,75.915 63.714,75.743 64.299,76.085 L65.234,76.629 L65.46,75.571 C65.601,74.908 66.241,74.46 66.912,74.551 L67.984,74.696 L67.788,73.633 C67.665,72.965 68.083,72.307 68.74,72.133 L69.785,71.858 L69.198,70.95 C68.829,70.379 68.963,69.612 69.503,69.202 L70.363,68.545 L69.472,67.932 C68.914,67.547 68.744,66.787 69.085,66.201 L69.63,65.265 L68.572,65.04 C67.909,64.897 67.461,64.259 67.551,63.588 L67.697,62.515 L66.633,62.711 C65.968,62.833 65.307,62.415 65.134,61.759 L64.858,60.713 L63.95,61.301 C63.382,61.67 62.613,61.536 62.201,60.997 L61.546,60.135 L60.933,61.026 C60.547,61.585 59.787,61.756 59.2,61.414 L58.265,60.87 L58.039,61.926 C57.897,62.59 57.263,63.037 56.587,62.948 L55.515,62.803 L55.711,63.866 C55.833,64.535 55.415,65.193 54.759,65.366 L53.714,65.641 L54.302,66.549 C54.671,67.118 54.537,67.887 53.996,68.297 L53.137,68.953 L54.027,69.567 C54.586,69.952 54.756,70.712 54.414,71.299 L53.87,72.233 L54.927,72.46 C55.591,72.602 56.039,73.241 55.948,73.913 L55.803,74.984 L56.866,74.788 C57.538,74.666 58.192,75.083 58.366,75.739 L58.641,76.785 L59.549,76.198 C59.766,76.057 60.012,75.989 60.256,75.989 Z M61.961,79 C61.555,79 61.169,78.809 60.922,78.485 L60.213,77.554 L59.232,78.19 C58.882,78.417 58.439,78.462 58.051,78.311 C57.661,78.161 57.366,77.831 57.26,77.426 L56.961,76.295 L55.811,76.508 C55.401,76.583 54.975,76.456 54.673,76.168 C54.371,75.88 54.224,75.461 54.281,75.047 L54.438,73.889 L53.294,73.644 C52.886,73.557 52.541,73.277 52.373,72.895 C52.204,72.513 52.229,72.071 52.439,71.71 L53.027,70.7 L52.064,70.036 C51.721,69.799 51.51,69.409 51.5,68.991 C51.49,68.574 51.683,68.174 52.015,67.92 L52.945,67.213 L52.309,66.231 C52.082,65.881 52.037,65.44 52.188,65.05 C52.339,64.661 52.669,64.366 53.073,64.259 L54.203,63.96 L53.991,62.811 C53.916,62.4 54.043,61.975 54.331,61.672 C54.619,61.372 55.035,61.225 55.451,61.28 L56.61,61.437 L56.855,60.293 C56.942,59.885 57.222,59.542 57.604,59.373 C57.986,59.204 58.429,59.229 58.789,59.438 L59.8,60.027 L60.463,59.064 C60.7,58.72 61.091,58.509 61.508,58.5 C61.922,58.501 62.324,58.682 62.577,59.014 L63.286,59.945 L64.267,59.309 C64.617,59.083 65.058,59.036 65.448,59.187 C65.837,59.337 66.133,59.668 66.24,60.072 L66.538,61.204 L67.688,60.991 C68.099,60.918 68.525,61.043 68.826,61.331 C69.128,61.62 69.275,62.038 69.219,62.451 L69.062,63.61 L70.205,63.854 C70.614,63.942 70.958,64.221 71.127,64.604 C71.295,64.985 71.27,65.428 71.06,65.79 L70.472,66.799 L71.435,67.463 C71.778,67.7 71.989,68.089 71.999,68.506 C72.009,68.924 71.817,69.325 71.485,69.577 L70.554,70.286 L71.19,71.267 C71.417,71.618 71.462,72.059 71.312,72.448 C71.161,72.836 70.831,73.133 70.428,73.24 L69.296,73.538 L69.508,74.688 C69.583,75.098 69.456,75.524 69.169,75.826 C68.881,76.127 68.463,76.274 68.048,76.218 L66.889,76.061 L66.644,77.206 C66.557,77.614 66.277,77.958 65.895,78.127 C65.514,78.295 65.071,78.27 64.71,78.06 L63.7,77.471 L63.036,78.434 C62.799,78.778 62.409,78.989 61.992,78.999 L61.961,79 L61.961,79 Z" id="Fill-329" fill="#FFFFFF"></path>
        <text id="1" font-family="VarelaRound-Regular, Varela Round" font-size="200" font-weight="normal" fill="#FFFFFF">
            <tspan x="-59.8" y="256">1</tspan>
        </text>
    </g>
</svg>