<?xml version="1.0" encoding="UTF-8"?>
<svg width="78px" height="100px" viewBox="0 0 78 100" version="1.1" xmlns="http://www.w3.org/2000/svg" xmlns:xlink="http://www.w3.org/1999/xlink">
    <!-- Generator: Sketch 59.1 (86144) - https://sketch.com -->
    <title>lineart_track_it</title>
    <desc>Created with Sketch.</desc>
    <g id="lineart_track_it" stroke="none" stroke-width="1" fill="none" fill-rule="evenodd">
        <path d="M58.9999608,78 C60.1049825,78 61,77.2234537 61,76.2666378 L61,76.2666378 L61,26 L66,26 L66,80.2499727 C66,81.2168628 65.104,82 64,82 L12,82 C10.895,82 10,81.2168628 10,80.2499727 L10,78 Z" id="Fill-758" fill-opacity="0.304632867" fill="#FFFFFF"></path>
        <path d="M49,17 L49,18.5 L17.75,18.5 C13.752,18.5 10.5,21.752 10.5,25.75 L10.5,79.749 C10.5,80.439 11.06,80.999 11.75,80.999 L63.75,80.999 C64.439,80.999 65,80.439 65,79.749 L65,26 L66.5,26 L66.5,79.749 C66.5,81.266 65.266,82.499 63.75,82.499 L11.75,82.499 C10.233,82.499 9,81.266 9,79.749 L9,25.75 C9,20.925 12.925,17 17.75,17 L49,17 Z" id="Fill-718" fill="#FFFFFE"></path>
        <path d="M65.75,17.75 C70.168,17.75 73.75,21.332 73.75,25.75 L73.75,25.75 L66.749,25.75 C66.749,21.332 63.167,17.75 58.749,17.75 Z" id="Fill-757" fill-opacity="0.304632867" fill="#FFFFFF"></path>
        <path d="M26.468,25 L72.961,25 C72.585,21.354 69.494,18.5 65.75,18.5 L22.644,18.5 C24.774,19.943 26.237,22.298 26.468,25 Z M73.75,26.5 L25.75,26.5 C25.336,26.5 25,26.165 25,25.75 C25,21.752 21.747,18.5 17.75,18.5 C17.336,18.5 17,18.165 17,17.75 C17,17.336 17.336,17 17.75,17 L65.75,17 C70.574,17 74.5,20.925 74.5,25.75 C74.5,26.165 74.164,26.5 73.75,26.5 L73.75,26.5 Z" id="Fill-721" fill="#FFFFFE"></path>
        <path d="M69.755,64.708 C69.341,64.708 69.005,64.373 69.005,63.958 L69.005,46.259 C69.005,45.845 69.341,45.509 69.755,45.509 C70.17,45.509 70.505,45.845 70.505,46.259 L70.505,63.958 C70.505,64.373 70.17,64.708 69.755,64.708" id="Fill-722" fill="#FFFFFE"></path>
        <path d="M69.755,71.009 C69.341,71.009 69.005,70.673 69.005,70.259 L69.005,67.958 C69.005,67.544 69.341,67.208 69.755,67.208 C70.17,67.208 70.505,67.544 70.505,67.958 L70.505,70.259 C70.505,70.673 70.17,71.009 69.755,71.009" id="Fill-723" fill="#FFFFFE"></path>
        <path d="M42.75,71.748 C43.302,71.748 43.75,71.3 43.75,70.748 L43.75,70.748 L43.75,53.749 L46.751,53.749 L46.751,75.749 L40.75,75.749 L40.75,71.748 Z" id="Fill-765" fill-opacity="0.304632867" fill="#FFFFFF"></path>
        <path d="M41.5,74.999 L46.001,74.999 L46.001,54.499 L41.5,54.499 L41.5,74.999 Z M46.751,76.499 L40.75,76.499 C40.336,76.499 40,76.163 40,75.749 L40,53.749 C40,53.334 40.336,52.999 40.75,52.999 L46.751,52.999 C47.165,52.999 47.501,53.334 47.501,53.749 L47.501,75.749 C47.501,76.163 47.165,76.499 46.751,76.499 L46.751,76.499 Z" id="Fill-726" fill="#FFFFFE"></path>
        <path d="M48.751,71.748 C49.303,71.748 49.751,71.3 49.751,70.748 L49.751,70.748 L49.751,57.749 L52.751,57.749 L52.751,75.749 L46.751,75.749 L46.751,71.748 Z" id="Fill-764" fill-opacity="0.304632867" fill="#FFFFFF"></path>
        <path d="M47.501,74.999 L52.001,74.999 L52.001,58.499 L47.501,58.499 L47.501,74.999 Z M52.751,76.499 L46.751,76.499 C46.337,76.499 46.001,76.163 46.001,75.749 L46.001,57.749 C46.001,57.334 46.337,56.999 46.751,56.999 L52.751,56.999 C53.165,56.999 53.501,57.334 53.501,57.749 L53.501,75.749 C53.501,76.163 53.165,76.499 52.751,76.499 L52.751,76.499 Z" id="Fill-729" fill="#FFFFFE"></path>
        <path d="M54.752,71.748 C55.304,71.748 55.752,71.3 55.752,70.748 L55.752,70.748 L55.752,51.748 L58.752,51.748 L58.752,75.749 L52.752,75.749 L52.751,71.748 Z" id="Fill-763" fill-opacity="0.304632867" fill="#FFFFFF"></path>
        <path d="M53.501,74.999 L58.002,74.999 L58.002,52.498 L53.501,52.498 L53.501,74.999 Z M58.752,76.499 L52.751,76.499 C52.337,76.499 52.001,76.163 52.001,75.749 L52.001,51.748 C52.001,51.333 52.337,50.998 52.751,50.998 L58.752,50.998 C59.166,50.998 59.502,51.333 59.502,51.748 L59.502,75.749 C59.502,76.163 59.166,76.499 58.752,76.499 L58.752,76.499 Z" id="Fill-732" fill="#FFFFFE"></path>
        <path d="M40.754,59.749 L40.754,75.749 L34.754,75.749 L34.754,71.749 L36.754,71.749 C37.2665714,71.749 37.6894694,71.361852 37.7472682,70.8653837 L37.754,70.749 L37.754,59.749 L40.754,59.749 Z" id="Fill-762" fill-opacity="0.304632867" fill="#FFFFFF"></path>
        <path d="M35.504,74.999 L40.004,74.999 L40.004,60.499 L35.504,60.499 L35.504,74.999 Z M40.754,76.499 L34.754,76.499 C34.339,76.499 34.004,76.163 34.004,75.749 L34.004,59.749 C34.004,59.334 34.339,58.999 34.754,58.999 L40.754,58.999 C41.168,58.999 41.504,59.334 41.504,59.749 L41.504,75.749 C41.504,76.163 41.168,76.499 40.754,76.499 L40.754,76.499 Z" id="Fill-735" fill="#FFFFFE"></path>
        <path d="M30.751,71.749 C31.303,71.749 31.751,71.3 31.751,70.749 L31.751,70.749 L31.751,63.749 L34.751,63.749 L34.751,75.749 L28.751,75.749 L28.751,71.749 Z" id="Fill-761" fill-opacity="0.304632867" fill="#FFFFFF"></path>
        <path d="M29.501,74.999 L34.001,74.999 L34.001,64.499 L29.501,64.499 L29.501,74.999 Z M34.751,76.499 L28.751,76.499 C28.337,76.499 28.001,76.163 28.001,75.749 L28.001,63.749 C28.001,63.334 28.337,62.999 28.751,62.999 L34.751,62.999 C35.165,62.999 35.501,63.334 35.501,63.749 L35.501,75.749 C35.501,76.163 35.165,76.499 34.751,76.499 L34.751,76.499 Z" id="Fill-738" fill="#FFFFFE"></path>
        <path d="M24.752,71.748 C25.304,71.748 25.752,71.3 25.752,70.748 L25.752,70.748 L25.752,57.749 L28.752,57.749 L28.752,75.749 L22.752,75.749 L22.752,71.748 Z" id="Fill-760" fill-opacity="0.304632867" fill="#FFFFFF"></path>
        <path d="M23.502,74.999 L28.002,74.999 L28.002,58.499 L23.502,58.499 L23.502,74.999 Z M28.752,76.499 L22.752,76.499 C22.337,76.499 22.002,76.163 22.002,75.749 L22.002,57.749 C22.002,57.334 22.337,56.999 22.752,56.999 L28.752,56.999 C29.166,56.999 29.502,57.334 29.502,57.749 L29.502,75.749 C29.502,76.163 29.166,76.499 28.752,76.499 L28.752,76.499 Z" id="Fill-741" fill="#FFFFFE"></path>
        <path d="M18.751,71.749 C19.303,71.749 19.751,71.3 19.751,70.749 L19.751,70.749 L19.751,67.749 L22.751,67.749 L22.751,75.749 L16.751,75.749 L16.751,71.749 Z" id="Fill-759" fill-opacity="0.304632867" fill="#FFFFFF"></path>
        <path d="M17.501,74.999 L22.001,74.999 L22.001,68.499 L17.501,68.499 L17.501,74.999 Z M22.751,76.499 L16.751,76.499 C16.337,76.499 16.001,76.163 16.001,75.749 L16.001,67.749 C16.001,67.335 16.337,66.999 16.751,66.999 L22.751,66.999 C23.165,66.999 23.501,67.335 23.501,67.749 L23.501,75.749 C23.501,76.163 23.165,76.499 22.751,76.499 L22.751,76.499 Z" id="Fill-744" fill="#FFFFFE"></path>
        <path d="M23.7200387,48.2045406 C24.015711,48.6162696 24.4334204,48.9345372 24.9202927,49.1062843 L17.351,59.199 C17.203,59.395 16.978,59.499 16.75,59.499 C16.593,59.499 16.436,59.45 16.3,59.348 C15.969,59.1 15.902,58.63 16.15,58.298 Z M41.8051774,44.3134509 C42.1214756,44.7066628 42.5542887,45.0023493 43.0512438,45.1477711 L38.378,52.164 C38.285,52.302 38.149,52.407 37.991,52.459 L31.988,54.459 C31.698,54.553 31.379,54.467 31.181,54.236 L26.734406,49.0473538 C27.2068074,48.8450935 27.6044567,48.5014578 27.8740517,48.069749 L31.992,52.876 L37.272,51.118 Z M59.312,38.249 C59.587,38.558 59.56,39.032 59.25,39.307 L50.249,47.308 C49.993,47.535 49.617,47.559 49.335,47.372 L45.32013,44.6959823 C45.7134119,44.3792488 46.0089581,43.9459962 46.1541412,43.4490354 L49.685,45.802 L58.254,38.186 C58.563,37.91 59.038,37.938 59.312,38.249 Z" id="Fill-766" fill="#FFFFFE"></path>
        <path d="M25.752,44.998 C24.787,44.998 24.002,45.783 24.002,46.748 C24.002,47.712 24.787,48.498 25.752,48.498 C26.717,48.498 27.502,47.712 27.502,46.748 C27.502,45.783 26.717,44.998 25.752,44.998 Z M25.752,49.998 C23.96,49.998 22.502,48.54 22.502,46.748 C22.502,44.956 23.96,43.498 25.752,43.498 C27.544,43.498 29.002,44.956 29.002,46.748 C29.002,48.54 27.544,49.998 25.752,49.998 L25.752,49.998 Z" id="Fill-747" fill="#FFFFFE"></path>
        <path d="M43.754,40.998 C42.789,40.998 42.004,41.783 42.004,42.748 C42.004,43.712 42.789,44.498 43.754,44.498 C44.718,44.498 45.504,43.712 45.504,42.748 C45.504,41.783 44.718,40.998 43.754,40.998 Z M43.754,45.998 C41.962,45.998 40.504,44.54 40.504,42.748 C40.504,40.956 41.962,39.498 43.754,39.498 C45.545,39.498 47.004,40.956 47.004,42.748 C47.004,44.54 45.545,45.998 43.754,45.998 L43.754,45.998 Z" id="Fill-749" fill="#FFFFFE"></path>
        <path d="M24.252,40.998 L16.251,40.998 C15.837,40.998 15.501,40.662 15.501,40.248 C15.501,39.833 15.837,39.498 16.251,39.498 L24.252,39.498 C24.666,39.498 25.002,39.833 25.002,40.248 C25.002,40.662 24.666,40.998 24.252,40.998" id="Fill-750" fill="#FFFFFE"></path>
        <path d="M28.252,32.997 L16.251,32.997 C15.837,32.997 15.501,32.661 15.501,32.247 C15.501,31.832 15.837,31.497 16.251,31.497 L28.252,31.497 C28.666,31.497 29.002,31.832 29.002,32.247 C29.002,32.661 28.666,32.997 28.252,32.997" id="Fill-751" fill="#FFFFFE"></path>
        <path d="M28.252,36.997 L23.252,36.997 C22.837,36.997 22.502,36.661 22.502,36.247 C22.502,35.832 22.837,35.497 23.252,35.497 L28.252,35.497 C28.666,35.497 29.002,35.832 29.002,36.247 C29.002,36.661 28.666,36.997 28.252,36.997" id="Fill-752" fill="#FFFFFE"></path>
        <path d="M19.251,36.997 L16.251,36.997 C15.837,36.997 15.501,36.661 15.501,36.247 C15.501,35.832 15.837,35.497 16.251,35.497 L19.251,35.497 C19.665,35.497 20.001,35.832 20.001,36.247 C20.001,36.661 19.665,36.997 19.251,36.997" id="Fill-753" fill="#FFFFFE"></path>
        <path d="M42.254,36.997 L34.252,36.997 C33.838,36.997 33.502,36.661 33.502,36.247 C33.502,35.832 33.838,35.497 34.252,35.497 L42.254,35.497 C42.668,35.497 43.004,35.832 43.004,36.247 C43.004,36.661 42.668,36.997 42.254,36.997" id="Fill-754" fill="#FFFFFE"></path>
        <path d="M46.254,32.997 L41.253,32.997 C40.839,32.997 40.503,32.661 40.503,32.247 C40.503,31.832 40.839,31.497 41.253,31.497 L46.254,31.497 C46.668,31.497 47.004,31.832 47.004,32.247 C47.004,32.661 46.668,32.997 46.254,32.997" id="Fill-755" fill="#FFFFFE"></path>
        <path d="M37.253,32.997 L34.252,32.997 C33.838,32.997 33.502,32.661 33.502,32.247 C33.502,31.832 33.838,31.497 34.252,31.497 L37.253,31.497 C37.667,31.497 38.003,31.832 38.003,32.247 C38.003,32.661 37.667,32.997 37.253,32.997" id="Fill-756" fill="#FFFFFE"></path>
        <circle id="Oval" stroke="#FFFFFE" stroke-width="1.5" fill="#0957CB" cx="9" cy="82" r="8"></circle>
        <text id="4" font-family="VarelaRound-Regular, Varela Round" font-size="12" font-weight="normal" letter-spacing="0.6" fill="#FFFFFE">
            <tspan x="5.432" y="86">4</tspan>
        </text>
    </g>
</svg>