<?xml version="1.0" encoding="UTF-8"?>
<svg width="78px" height="100px" viewBox="0 0 78 100" version="1.1" xmlns="http://www.w3.org/2000/svg" xmlns:xlink="http://www.w3.org/1999/xlink">
    <!-- Generator: Sketch 59.1 (86144) - https://sketch.com -->
    <title>lineart_set_forget</title>
    <desc>Created with Sketch.</desc>
    <g id="lineart_set_forget" stroke="none" stroke-width="1" fill="none" fill-rule="evenodd">
        <path d="M37.02,21.478 C39.353,24.633 40.749,28.524 40.749,32.75 C40.749,43.243 32.243,51.75 21.749,51.75 C17.524,51.75 13.634,50.353 10.479,48.02 C13.939,52.701 19.482,55.75 25.75,55.75 C36.243,55.75 44.75,47.243 44.75,36.75 C44.75,30.481 41.701,24.939 37.02,21.478" id="Fill-562" fill-opacity="0.304632867" fill="#FFFFFF"></path>
        <path d="M25.75,18.5 C15.687,18.5 7.5,26.686 7.5,36.75 C7.5,46.813 15.687,55 25.75,55 C35.813,55 44,46.813 44,36.75 C44,26.686 35.813,18.5 25.75,18.5 Z M25.75,56.5 C14.86,56.5 6,47.64 6,36.75 C6,25.859 14.86,17 25.75,17 C36.64,17 45.5,25.859 45.5,36.75 C45.5,47.64 36.64,56.5 25.75,56.5 L25.75,56.5 Z" id="Fill-563" fill="#FFFFFE"></path>
        <path d="M32.472,26.027 C33.697,27.977 34.416,30.277 34.416,32.75 C34.416,39.745 28.745,45.416 21.749,45.416 C19.277,45.416 16.977,44.696 15.028,43.471 C17.268,47.038 21.226,49.417 25.75,49.417 C32.745,49.417 38.416,43.745 38.416,36.75 C38.416,32.226 36.038,28.268 32.472,26.027" id="Fill-565" fill-opacity="0.304632867" fill="#FFFFFF"></path>
        <path d="M25.75,24.833 C19.179,24.833 13.833,30.178 13.833,36.75 C13.833,43.32 19.179,48.666 25.75,48.666 C32.321,48.666 37.666,43.32 37.666,36.75 C37.666,30.178 32.321,24.833 25.75,24.833 Z M25.75,50.166 C18.352,50.166 12.333,44.147 12.333,36.75 C12.333,29.351 18.352,23.333 25.75,23.333 C33.148,23.333 39.166,29.351 39.166,36.75 C39.166,44.147 33.148,50.166 25.75,50.166 L25.75,50.166 Z" id="Fill-566" fill="#FFFFFE"></path>
        <path d="M25.75,24.833 C25.336,24.833 25,24.497 25,24.083 L25,17.75 C25,17.336 25.336,17 25.75,17 C26.164,17 26.5,17.336 26.5,17.75 L26.5,24.083 C26.5,24.497 26.164,24.833 25.75,24.833" id="Fill-567" fill="#FFFFFE"></path>
        <path d="M13.083,37.5 L6.75,37.5 C6.336,37.5 6,37.164 6,36.75 C6,36.336 6.336,36 6.75,36 L13.083,36 C13.497,36 13.833,36.336 13.833,36.75 C13.833,37.164 13.497,37.5 13.083,37.5" id="Fill-568" fill="#FFFFFE"></path>
        <path d="M36.72,31.166 C36.461,31.166 36.209,31.031 36.07,30.791 C35.863,30.432 35.986,29.973 36.345,29.766 L41.829,26.6 C42.187,26.392 42.647,26.516 42.854,26.875 C43.061,27.233 42.938,27.692 42.579,27.899 L37.095,31.065 C36.976,31.133 36.848,31.166 36.72,31.166" id="Fill-569" fill="#FFFFFE"></path>
        <path d="M9.296,47 C9.037,47 8.785,46.865 8.646,46.625 C8.439,46.266 8.561,45.807 8.92,45.6 L14.405,42.433 C14.764,42.226 15.223,42.349 15.43,42.708 C15.637,43.066 15.514,43.525 15.155,43.732 L9.67,46.899 C9.552,46.967 9.423,47 9.296,47" id="Fill-570" fill="#FFFFFE"></path>
        <path d="M32.083,26.53 C31.955,26.53 31.827,26.498 31.708,26.429 C31.349,26.222 31.227,25.763 31.434,25.405 L34.6,19.92 C34.808,19.561 35.266,19.437 35.625,19.645 C35.984,19.852 36.106,20.311 35.899,20.67 L32.733,26.155 C32.594,26.395 32.342,26.53 32.083,26.53" id="Fill-571" fill="#FFFFFE"></path>
        <path d="M16.249,53.954 C16.122,53.954 15.993,53.922 15.875,53.853 C15.516,53.646 15.393,53.187 15.6,52.829 L18.767,47.344 C18.974,46.986 19.434,46.863 19.791,47.07 C20.15,47.277 20.273,47.736 20.066,48.094 L16.899,53.579 C16.761,53.819 16.508,53.954 16.249,53.954" id="Fill-572" fill="#FFFFFE"></path>
        <path d="M19.417,26.53 C19.158,26.53 18.906,26.395 18.767,26.155 L15.6,20.67 C15.393,20.311 15.516,19.852 15.875,19.645 C16.233,19.437 16.693,19.561 16.899,19.92 L20.066,25.405 C20.273,25.763 20.15,26.222 19.791,26.429 C19.673,26.498 19.544,26.53 19.417,26.53" id="Fill-573" fill="#FFFFFE"></path>
        <path d="M14.78,31.166 C14.652,31.166 14.523,31.133 14.405,31.065 L8.92,27.899 C8.561,27.692 8.439,27.233 8.646,26.875 C8.853,26.516 9.312,26.392 9.67,26.6 L15.155,29.766 C15.514,29.973 15.637,30.432 15.43,30.791 C15.291,31.031 15.038,31.166 14.78,31.166" id="Fill-574" fill="#FFFFFE"></path>
        <path d="M33.78,36.75 C33.78,37.25 33.375,37.654 32.875,37.654 C32.376,37.654 31.971,37.25 31.971,36.75 C31.971,36.25 32.376,35.845 32.875,35.845 C33.375,35.845 33.78,36.25 33.78,36.75" id="Fill-578" fill="#FFFFFE"></path>
        <path d="M19.529,36.75 C19.529,37.25 19.123,37.654 18.624,37.654 C18.124,37.654 17.719,37.25 17.719,36.75 C17.719,36.25 18.124,35.845 18.624,35.845 C19.123,35.845 19.529,36.25 19.529,36.75" id="Fill-579" fill="#FFFFFE"></path>
        <path d="M40.752,81.752 L58.752,81.752 C65.38,81.752 70.752,76.38 70.752,69.752 L70.752,51.752 C70.752,45.125 65.38,39.752 58.752,39.752 L40.752,39.752 C34.125,39.752 28.752,45.125 28.752,51.752 L28.752,69.752 C28.752,76.38 34.125,81.752 40.752,81.752" id="Fill-580" fill-opacity="0.304632867" fill="#FFFFFF"></path>
        <path d="M38.752,77.752 L58.752,77.752 C63.17,77.752 66.752,74.17 66.752,69.752 L66.752,49.752 C66.752,44.229 62.275,39.752 56.752,39.752 L40.752,39.752 C34.125,39.752 28.752,45.125 28.752,51.752 L28.752,67.752 C28.752,73.274 33.229,77.752 38.752,77.752" id="Fill-581" fill="#0A45A4"></path>
        <path d="M40.752,40.502 C34.549,40.502 29.502,45.548 29.502,51.752 L29.502,69.752 C29.502,75.955 34.549,81.002 40.752,81.002 L58.752,81.002 C64.955,81.002 70.002,75.955 70.002,69.752 L70.002,51.752 C70.002,45.548 64.955,40.502 58.752,40.502 L40.752,40.502 Z M58.752,82.502 L40.752,82.502 C33.722,82.502 28.002,76.782 28.002,69.752 L28.002,51.752 C28.002,44.721 33.722,39.002 40.752,39.002 L58.752,39.002 C65.783,39.002 71.502,44.721 71.502,51.752 L71.502,69.752 C71.502,76.782 65.783,82.502 58.752,82.502 L58.752,82.502 Z" id="Fill-582" fill="#FFFFFE"></path>
        <path d="M58.752,39.752 L58.752,42.752 C58.752,44.409 57.409,45.752 55.752,45.752 L55.752,45.752 L49.751,45.752 C51.409,45.752 52.751,44.409 52.751,42.752 L52.751,39.752 L58.752,39.752 Z" id="Fill-586" fill-opacity="0.304632867" fill="#FFFFFF"></path>
        <path d="M41.502,40.502 L41.502,42.752 C41.502,43.992 42.512,45.002 43.752,45.002 L55.752,45.002 C56.993,45.002 58.002,43.992 58.002,42.752 L58.002,40.502 L41.502,40.502 Z M55.752,46.502 L43.752,46.502 C41.684,46.502 40.002,44.819 40.002,42.752 L40.002,39.752 C40.002,39.338 40.338,39.002 40.752,39.002 L58.752,39.002 C59.166,39.002 59.502,39.338 59.502,39.752 L59.502,42.752 C59.502,44.819 57.82,46.502 55.752,46.502 L55.752,46.502 Z" id="Fill-585" fill="#FFFFFE"></path>
        <path d="M56.502,74.005 L58.752,74.005 C59.993,74.005 61.002,72.995 61.002,71.755 C61.002,70.514 59.993,69.505 58.752,69.505 L56.502,69.505 L56.502,74.005 Z M58.752,75.505 L55.752,75.505 C55.338,75.505 55.002,75.169 55.002,74.755 L55.002,68.755 C55.002,68.34 55.338,68.005 55.752,68.005 L58.752,68.005 C60.82,68.005 62.502,69.687 62.502,71.755 C62.502,73.822 60.82,75.505 58.752,75.505 L58.752,75.505 Z" id="Fill-587" fill="#FFFFFE"></path>
        <path d="M50.502,74.005 L55.002,74.005 L55.002,69.505 L50.502,69.505 L50.502,74.005 Z M55.752,75.505 L49.752,75.505 C49.338,75.505 49.002,75.169 49.002,74.755 L49.002,68.755 C49.002,68.34 49.338,68.005 49.752,68.005 L55.752,68.005 C56.166,68.005 56.502,68.34 56.502,68.755 L56.502,74.755 C56.502,75.169 56.166,75.505 55.752,75.505 L55.752,75.505 Z" id="Fill-589" fill="#FFFFFE"></path>
        <path d="M40.752,69.505 C39.512,69.505 38.502,70.514 38.502,71.755 C38.502,72.995 39.512,74.005 40.752,74.005 L43.002,74.005 L43.002,69.505 L40.752,69.505 Z M43.752,75.505 L40.752,75.505 C38.684,75.505 37.002,73.822 37.002,71.755 C37.002,69.687 38.684,68.005 40.752,68.005 L43.752,68.005 C44.166,68.005 44.502,68.34 44.502,68.755 L44.502,74.755 C44.502,75.169 44.166,75.505 43.752,75.505 L43.752,75.505 Z" id="Fill-591" fill="#FFFFFE"></path>
        <path d="M44.502,74.005 L49.002,74.005 L49.002,69.505 L44.502,69.505 L44.502,74.005 Z M49.752,75.505 L43.752,75.505 C43.338,75.505 43.002,75.169 43.002,74.755 L43.002,68.755 C43.002,68.34 43.338,68.005 43.752,68.005 L49.752,68.005 C50.166,68.005 50.502,68.34 50.502,68.755 L50.502,74.755 C50.502,75.169 50.166,75.505 49.752,75.505 L49.752,75.505 Z" id="Fill-593" fill="#FFFFFE"></path>
        <path d="M60.191,52.143 C60.216,52.345 60.253,52.545 60.253,52.753 C60.253,55.514 58.014,57.753 55.253,57.753 C54.565,57.753 53.911,57.613 53.314,57.362 C53.618,59.833 55.7,61.754 58.253,61.754 C61.015,61.754 63.253,59.514 63.253,56.754 C63.253,54.679 61.99,52.901 60.191,52.143" id="Fill-595" fill-opacity="0.304632867" fill="#FFFFFF"></path>
        <path d="M58.253,52.503 C55.91,52.503 54.003,54.409 54.003,56.753 C54.003,59.096 55.91,61.003 58.253,61.003 C60.596,61.003 62.503,59.096 62.503,56.753 C62.503,54.409 60.596,52.503 58.253,52.503 Z M58.253,62.503 C55.082,62.503 52.503,59.923 52.503,56.753 C52.503,53.582 55.082,51.003 58.253,51.003 C61.423,51.003 64.003,53.582 64.003,56.753 C64.003,59.923 61.423,62.503 58.253,62.503 L58.253,62.503 Z" id="Fill-596" fill="#FFFFFE"></path>
        <path d="M43.189,52.143 C43.214,52.345 43.251,52.545 43.251,52.753 C43.251,55.514 41.013,57.753 38.251,57.753 C37.563,57.753 36.909,57.613 36.313,57.362 C36.617,59.833 38.699,61.754 41.251,61.754 C44.013,61.754 46.251,59.514 46.251,56.754 C46.251,54.679 44.988,52.901 43.189,52.143" id="Fill-598" fill-opacity="0.304632867" fill="#FFFFFF"></path>
        <path d="M41.251,52.503 C38.908,52.503 37.001,54.409 37.001,56.753 C37.001,59.096 38.908,61.003 41.251,61.003 C43.595,61.003 45.501,59.096 45.501,56.753 C45.501,54.409 43.595,52.503 41.251,52.503 Z M41.251,62.503 C38.081,62.503 35.501,59.923 35.501,56.753 C35.501,53.582 38.081,51.003 41.251,51.003 C44.422,51.003 47.001,53.582 47.001,56.753 C47.001,59.923 44.422,62.503 41.251,62.503 L41.251,62.503 Z" id="Fill-599" fill="#FFFFFE"></path>
        <path d="M23.752,75.505 C23.338,75.505 23.002,75.169 23.002,74.755 L23.002,64.751 C23.002,64.337 23.338,64.001 23.752,64.001 C24.166,64.001 24.502,64.337 24.502,64.751 L24.502,74.755 C24.502,75.169 24.166,75.505 23.752,75.505" id="Fill-600" fill="#FFFFFE"></path>
        <path d="M23.752,82.502 C23.338,82.502 23.002,82.166 23.002,81.752 L23.002,78.756 C23.002,78.341 23.338,78.006 23.752,78.006 C24.166,78.006 24.502,78.341 24.502,78.756 L24.502,81.752 C24.502,82.166 24.166,82.502 23.752,82.502" id="Fill-601" fill="#FFFFFE"></path>
        <path d="M18.751,82.502 C18.337,82.502 18.001,82.166 18.001,81.752 L18.001,68.751 C18.001,68.337 18.337,68.001 18.751,68.001 C19.165,68.001 19.501,68.337 19.501,68.751 L19.501,81.752 C19.501,82.166 19.165,82.502 18.751,82.502" id="Fill-602" fill="#FFFFFE"></path>
        <path d="M13.751,82.502 C13.337,82.502 13.001,82.166 13.001,81.752 L13.001,66.751 C13.001,66.337 13.337,66.001 13.751,66.001 C14.165,66.001 14.501,66.337 14.501,66.751 L14.501,81.752 C14.501,82.166 14.165,82.502 13.751,82.502" id="Fill-603" fill="#FFFFFE"></path>
        <path d="M8.75,82.502 C8.336,82.502 8,82.166 8,81.752 L8,71.751 C8,71.337 8.336,71.001 8.75,71.001 C9.164,71.001 9.5,71.337 9.5,71.751 L9.5,81.752 C9.5,82.166 9.164,82.502 8.75,82.502" id="Fill-604" fill="#FFFFFE"></path>
        <path d="M12.25,57 C12.25,58.242 11.243,59.25 10,59.25 C8.757,59.25 7.75,58.242 7.75,57 C7.75,55.756 8.757,54.75 10,54.75 C11.243,54.75 12.25,55.756 12.25,57" id="Fill-605" fill="#0A45A4"></path>
        <path d="M10,55.499 C9.173,55.499 8.5,56.172 8.5,56.999 C8.5,57.826 9.173,58.499 10,58.499 C10.827,58.499 11.5,57.826 11.5,56.999 C11.5,56.172 10.827,55.499 10,55.499 Z M10,59.999 C8.346,59.999 7,58.653 7,56.999 C7,55.344 8.346,53.999 10,53.999 C11.654,53.999 13,55.344 13,56.999 C13,58.653 11.654,59.999 10,59.999 L10,59.999 Z" id="Fill-606" fill="#FFFFFE"></path>
        <path d="M21.251,61 C21.251,62.243 20.244,63.25 19.001,63.25 C17.758,63.25 16.751,62.243 16.751,61 C16.751,59.757 17.758,58.75 19.001,58.75 C20.244,58.75 21.251,59.757 21.251,61" id="Fill-607" fill="#0A45A4"></path>
        <path d="M19.001,59.5 C18.174,59.5 17.501,60.172 17.501,61 C17.501,61.827 18.174,62.5 19.001,62.5 C19.828,62.5 20.501,61.827 20.501,61 C20.501,60.172 19.828,59.5 19.001,59.5 Z M19.001,64 C17.347,64 16.001,62.654 16.001,61 C16.001,59.345 17.347,58 19.001,58 C20.655,58 22.001,59.345 22.001,61 C22.001,62.654 20.655,64 19.001,64 L19.001,64 Z" id="Fill-608" fill="#FFFFFE"></path>
        <path d="M54.1061507,24.7450894 C54.3551177,25.2037987 54.7589091,25.5659923 55.2472441,25.7619343 L49.533,35.371 C49.393,35.606 49.143,35.737 48.888,35.737 C48.757,35.737 48.625,35.703 48.505,35.631 C48.149,35.42 48.032,34.96 48.244,34.603 Z M58.0810995,24.7130423 L61.0035399,29.6265763 C60.510778,29.8048589 60.0981188,30.1503455 59.8339563,30.5943762 L56.9530856,25.7496817 C57.4393166,25.5464117 57.8388459,25.177432 58.0810995,24.7130423 Z M69.319,19.602 C69.675,19.814 69.792,20.274 69.58,20.631 L63.6793526,30.5538516 C63.4071472,30.1175098 62.9895995,29.7810869 62.4943624,29.612499 L68.291,19.863 C68.504,19.507 68.965,19.391 69.319,19.602 Z" id="Fill-615" fill="#FFFFFE"></path>
        <polyline id="Fill-610" fill="#FFFFFE" points="70.37 21.788 70.422 17.75 66.898 19.723 70.37 21.788"></polyline>
        <path d="M61.769,30.243 C60.942,30.243 60.269,30.916 60.269,31.743 C60.269,32.57 60.942,33.243 61.769,33.243 C62.596,33.243 63.269,32.57 63.269,31.743 C63.269,30.916 62.596,30.243 61.769,30.243 Z M61.769,34.743 C60.115,34.743 58.769,33.397 58.769,31.743 C58.769,30.089 60.115,28.743 61.769,28.743 C63.423,28.743 64.769,30.089 64.769,31.743 C64.769,33.397 63.423,34.743 61.769,34.743 L61.769,34.743 Z" id="Fill-612" fill="#FFFFFE"></path>
        <path d="M56.085,22.173 C55.258,22.173 54.585,22.846 54.585,23.673 C54.585,24.501 55.258,25.173 56.085,25.173 C56.912,25.173 57.585,24.501 57.585,23.673 C57.585,22.846 56.912,22.173 56.085,22.173 Z M56.085,26.673 C54.431,26.673 53.085,25.328 53.085,23.673 C53.085,22.019 54.431,20.673 56.085,20.673 C57.74,20.673 59.085,22.019 59.085,23.673 C59.085,25.328 57.74,26.673 56.085,26.673 L56.085,26.673 Z" id="Fill-614" fill="#FFFFFE"></path>
        <path d="M26.0755,29 C26.4905,29 26.8255,29.336 26.8255,29.75 L26.825,30.825 L27.0118888,30.8288091 C29.0632751,30.8927658 30.4951863,31.8832653 30.4951863,33.7521713 C30.4951863,34.6970467 30.1610758,35.3980876 29.6033645,35.8907822 C30.7977307,36.5570832 31.3158818,37.7375661 31.3158818,39 C31.3158818,41.1558181 29.5670485,42.7525283 27.4006358,42.8230666 C27.3860872,42.8248917 27.3710581,42.8255 27.3559073,42.8255 L26.825,42.825 L26.8255,44.1274094 C26.8255,44.5414094 26.4905,44.8774094 26.0755,44.8774094 C25.6615,44.8774094 25.3255,44.5414094 25.3255,44.1274094 L25.325,42.825 L21.6440927,42.8255 C21.2885536,42.8255 21,42.4905 21,42.0755 C21,41.6615 21.2885536,41.3255 21.6440927,41.3255 L22.3255132,41.3251145 L22.3255132,41.3251145 L22.325,32.325 L21.6440927,32.3255 C21.3194293,32.3255 21,31.9905 21,31.5755 C21,31.1615 21.3194293,30.8255 21.6440927,30.8255 L25.325,30.825 L25.3255,29.75 C25.3255,29.336 25.6615,29 26.0755,29 Z M26.2386427,36.8266709 L23.825,36.825 L23.825,41.325 L27.2508818,41.3255 L27.2508818,41.3255 C28.6578818,41.3255 29.8158818,40.3233804 29.8158818,39 C29.8158818,37.903759 29.2226459,36.8345 27.1026459,36.8345 C26.9839823,36.8345 26.8714176,36.8321201 26.7647865,36.8275493 C26.6582282,36.8323943 26.5497123,36.8345 26.4402,36.8345 C26.369205,36.8345 26.3020588,36.8318148 26.2386427,36.8266709 Z M26.436218,32.3232131 L26.4118416,32.3255 L26.4118416,32.3255 L23.825,32.325 L23.825,35.325 L26.2991088,35.3255 L26.2991088,35.3255 C27.7061088,35.3255 28.96282,35.0755518 28.96282,33.7521713 C28.96282,32.6559303 28.0827131,32.3255 26.6336402,32.3255 C26.5657644,32.3255 26.4999686,32.324726 26.436218,32.3232131 Z" id="Fill-888" fill="#FFFFFE"></path>
    </g>
</svg>
