<svg width="200" height="200" xmlns="http://www.w3.org/2000/svg">
  <g fill="none" fill-rule="evenodd">
    <path d="M100 8a92 92 0 0190.7 107.7L185 107a7 7 0 00-12.1.5l-9.4 18.3a7 7 0 01-12.4 0l-.2-.3V100a50 50 0 00-49.2-50h-.8a50 50 0 00-50 50v46.9a7 7 0 01-.7-.8l-3.6-5.3a3.9 3.9 0 00-6.6.4 3.2 3.2 0 01-5.7-.2L23.2 117a7 7 0 00-12.5-.5l-1 1.7A92 92 0 01100 8z" fill="#3e67b3"/>
    <path d="M144.9 114c1 .6 2 1.5 2.6 2.6l3.5 7V170a5 5 0 110 10H51a5 5 0 110-10v-23.6a7 7 0 0011.7-2l2.6-6.1a5.2 5.2 0 019.4-.4 5.8 5.8 0 0010.3 0v-.2a6.3 6.3 0 0111.2-.3l5.3 9a7 7 0 0012.4-.6l10.7-23.6a3 3 0 015.3-.3 3 3 0 005.3-.2l2.4-5c1.3-2.7 4.5-4 7.3-2.6z" fill="#2655ab"/>
    <path stroke="#FFF" stroke-width="4" stroke-linecap="round" stroke-linejoin="round" d="M101 127l.3 41.1"/>
    <circle fill="#FFF" cx="101" cy="127" r="5"/>
    <path stroke="#FFF" stroke-width="4" stroke-linecap="round" stroke-linejoin="round" d="M81 147l.3 21.1"/>
    <circle fill="#FFF" cx="81" cy="147" r="5"/>
    <path stroke="#FFF" stroke-width="4" stroke-linecap="round" stroke-linejoin="round" d="M121 107l.3 61.1"/>
    <circle fill="#FFF" cx="121" cy="107" r="5"/>
  </g>
</svg>
