<svg width="200" height="200" xmlns="http://www.w3.org/2000/svg">
  <g fill="none" fill-rule="evenodd">
    <path d="M98.9 158c34.3 0 19.2-8.6 35-25.2a46.8 46.8 0 00-34-79.4A47 47 0 0066 133c15.9 16.3-1.5 25 32.8 25z" fill="#3e67b3"/>
    <path d="M188.1 112A88.9 88.9 0 0037 37.4 88.9 88.9 0 0012 114M177.8 103.9a78 78 0 10-154 13.6M161.4 127a67 67 0 10-116 12.5" stroke="#2655ab" stroke-width="5" stroke-linecap="round"/>
    <path d="M150 125.4a56 56 0 00-89.7-64.6 57.7 57.7 0 001 80.6" stroke="#2655ab" stroke-width="5" stroke-linecap="round" stroke-linejoin="round"/>
    <circle fill="#FFF" cx="111" cy="144" r="5"/>
    <path d="M89 146.4c-5.1-15.4-9-31.5-11.5-48.2-3.9-25.3 10.7-20.6 12.4-5 1.6 15.4-4.6 24.3-6.4 1.8C81.7 72.5 102 73.8 102 93c0 19.4-6.3 20.8-6.3 0 0-20.7 20.8-17.3 19.4 0-1.5 17.4-8.4 21-6.4 0 2-20.8 16.2-15.7 12.2 7-2.6 14.5-6 30-10.2 46.3" stroke="#FFF" stroke-width="4" stroke-linecap="round" stroke-linejoin="round"/>
  </g>
</svg>
