<svg width="200" height="200" xmlns="http://www.w3.org/2000/svg" xmlns:xlink="http://www.w3.org/1999/xlink">
  <defs>
    <path d="M124.3 152.2c1-2.5 4-2.1 5.1 0 1.2 2 4 1.9 5 0l2.4-4.8c2.7-5.1 8.7-5.1 11-.3 2.4 4.9.8 1.4 3.7 7.6 3 6.2 10.2 6.2 13.3 0l9.3-18.2c1.4-2.8 4.8-4.6 8.2-2.3A72.2 72.2 0 00192 100 92 92 0 008.5 90.2c2.4-5 3.8-7.8 8.8-7.8 4.9 0 6.2 4.6 7.7 7.8l9.4 20.2c1.4 3 4.4 2.7 6 .3 1.5-2.3 4.6-2 5.7.3 8.8 17.3 19.7 39.1 28.4 56.7 2.1 4.2 7.3 4.6 10.6 0 3.8-5.4 9-2.9 10.5 0l4.4 8.7c2.4 5 9.8 5 12.2 0 2.5-5 11-21.8 12-24.2z" id="a"/>
  </defs>
  <g fill="none" fill-rule="evenodd">
    <mask id="b" fill="#fff">
      <use xlink:href="#a"/>
    </mask>
    <use fill="#3e67b3" xlink:href="#a"/>
    <path d="M5 200l49.7-73.4a7 7 0 0111-.9l4.6 5A7 7 0 0081 130l34.2-48.6a4.1 4.1 0 016.6-.1 4 4 0 006.6-.2L142 61a7 7 0 0111.8.2l46.2 74.1V200H5z" fill="#2655ab" mask="url(#b)"/>
    <path d="M23.5 160h19.3a2 2 0 002-2v-1.7c0-1.1.8-2 2-2h16.7a2 2 0 002-2v-1.7c0-1.1.9-2 2-2h16.8a2 2 0 002-2v-1.7c0-1.1.8-2 2-2H105a2 2 0 002-2V139c0-1 .9-2 2-2h16.8a2 2 0 002-2v-1.7c0-1 .8-2 2-2h16.7a2 2 0 002-2v-1.7c0-1 .9-2 2-2h16.8a2 2 0 002-2V122c0-1.1.8-2 2-2H190" stroke="#FFF" stroke-width="4" stroke-linecap="round" stroke-linejoin="round"/>
    <circle fill="#FFF" cx="190" cy="120" r="5"/>
  </g>
</svg>
