<svg xmlns="http://www.w3.org/2000/svg" fill="none" viewBox="0 0 49 20">
  <path fill="#32325D" fill-rule="evenodd" d="M48.274 10.334c0-3.418-1.656-6.115-4.82-6.115-3.178 0-5.1 2.697-5.1 6.088 0 4.019 2.27 6.048 5.527 6.048 1.589 0 2.79-.36 3.699-.868v-2.67c-.908.454-1.95.734-3.271.734-1.296 0-2.444-.454-2.59-2.03h6.528c0-.173.027-.867.027-1.187Zm-6.596-1.269c0-1.508.922-2.136 1.763-2.136.814 0 1.682.628 1.682 2.136h-3.445ZM33.2 4.219c-1.308 0-2.15.614-2.617 1.041l-.173-.828h-2.937V20l3.338-.708.013-3.778c.48.347 1.188.84 2.363.84 2.39 0 4.566-1.922 4.566-6.154C37.74 6.328 35.537 4.22 33.2 4.22Zm-.8 9.199c-.788 0-1.256-.28-1.576-.628l-.014-4.953c.348-.387.828-.654 1.59-.654 1.214 0 2.055 1.362 2.055 3.11 0 1.79-.827 3.125-2.056 3.125ZM22.88 3.431l3.351-.72V0L22.88.708V3.43Z" clip-rule="evenodd"/>
  <path fill="#32325D" d="M26.231 4.446H22.88v11.682h3.351V4.446Z"/>
  <path fill="#32325D" fill-rule="evenodd" d="m19.288 5.434-.213-.988H16.19v11.682h3.338V8.21c.788-1.028 2.123-.841 2.537-.695v-3.07c-.428-.16-1.99-.454-2.777.988ZM12.613 1.549l-3.258.694-.013 10.694c0 1.976 1.482 3.432 3.458 3.432 1.095 0 1.896-.2 2.336-.441v-2.71c-.427.173-2.536.787-2.536-1.188V7.29h2.536V4.446H12.6l.013-2.897ZM3.588 7.837c0-.52.427-.721 1.134-.721 1.015 0 2.297.307 3.311.854V4.833a8.805 8.805 0 0 0-3.31-.614C2.012 4.219.21 5.634.21 7.997c0 3.685 5.073 3.098 5.073 4.686 0 .614-.534.815-1.282.815-1.108 0-2.523-.454-3.644-1.068v3.177A9.256 9.256 0 0 0 4 16.368c2.777 0 4.687-1.375 4.687-3.765-.014-3.978-5.1-3.27-5.1-4.766Z" clip-rule="evenodd"/>
</svg>
