<svg xmlns="http://www.w3.org/2000/svg" viewBox="0 0 516 516"><path fill="url(#a)" filter="url(#b)" opacity=".08" d="M258 32C133.18 32 32 133.18 32 258c0 39.52 10.15 76.68 27.97 109-9.47-49.5 127.53-66 194.53-67s211.5 16.5 201.52 67A224.98 224.98 0 0 0 484 258c0-124.82-101.18-226-226-226Z" /><path fill="#2948A1" fill-rule="evenodd" clip-rule="evenodd" d="M232.4 304a2 2 0 0 0-.2-4c-17.9.7-35 2.1-51.2 4.2a2 2 0 0 0 .5 4c16-2 33-3.5 50.9-4.2ZM159.6 311.4a2 2 0 1 0-.7-4 330 330 0 0 0-53.6 13.4l-.8.3a2 2 0 1 0 1.4 3.8l.8-.3a326 326 0 0 1 53-13.2ZM373.8 310.4a2 2 0 1 0-.7 4c11.9 2.2 30 7.5 37.5 10.4a2 2 0 1 0 1.4-3.7c-7.6-3-26-8.4-38.2-10.7ZM436.7 332.3a2 2 0 0 0-2 3.4c13.7 8 20.7 16.7 20.7 25.3 0 2.2-.4 4.4-1.3 6.6h-.1l-3.3 5.7a46.9 46.9 0 0 1-10.1 9.3c-9.8 6.9-24.2 13.2-42 18.6-35.9 10.7-85.5 17.3-140.3 17.3-54.8 0-104.4-6.6-140.2-17.3-18-5.4-32.3-11.7-42.1-18.6-4.3-3.1-7.7-6.2-10.2-9.4l-3-5.4h-.2c-1-2.2-1.4-4.5-1.4-6.8 0-8.2 6.3-16.4 18.8-24.2l.8-.4a2 2 0 1 0-2-3.5l-.9.5c-12.8 8-20.7 17.3-20.7 27.6 0 5.1 1.9 10 5.3 14.4a227.9 227.9 0 0 0 391.5.2c3.5-4.6 5.4-9.5 5.4-14.6 0-10.8-8.7-20.5-22.7-28.7Zm5.6 54a154.3 154.3 0 0 1-42.6 18.7c-36.3 10.8-86.3 17.5-141.4 17.5-55.1 0-105.1-6.7-141.4-17.5a154.2 154.2 0 0 1-42.7-18.8 223.7 223.7 0 0 0 184 96.3c76.3 0 143.7-38 184.1-96.3Z"/><path fill="url(#a)" d="M306.3 364.5a2 2 0 0 1-2-2V239.1a5 5 0 1 1 4 0v123.4a2 2 0 0 1-2 2ZM284.3 362.5a2 2 0 0 0 4 0V259.1a5 5 0 1 0-4 0v103.4ZM246.3 364.5a2 2 0 0 1-2-2v-79.4a5 5 0 1 1 4 0v79.4a2 2 0 0 1-2 2ZM224.3 362.5a2 2 0 0 0 4 0v-40.4a5 5 0 1 0-4 0v40.4ZM204.3 362.5a2 2 0 0 0 4 0v-23.4a5 5 0 1 0-4 0v23.4ZM266.3 364.5a2 2 0 0 1-2-2v-75.4a5 5 0 1 1 4 0v75.4a2 2 0 0 1-2 2ZM139.3 371.5a2 2 0 0 1-2-2v-7.4a5 5 0 1 1 4 0v7.4a2 2 0 0 1-2 2ZM92.3 339.5a2 2 0 0 1-2-2v-4.4a5 5 0 1 1 4 0v4.4a2 2 0 0 1-2 2ZM170.3 322.5a2 2 0 0 1-2-2v-18.4a5 5 0 1 1 4 0v18.4a2 2 0 0 1-2 2ZM423.3 355.5a2 2 0 0 1-2-2v-20.4a5 5 0 1 1 4 0v20.4a2 2 0 0 1-2 2ZM311.3 394.5c2 0 5-.5 5-2a5 5 0 1 0-10 0c0 1.5 3 2 5 2ZM403.3 377.5c0 1.5-3 2-5 2s-5-.5-5-2a5 5 0 1 1 10 0ZM122.3 382.5c2 0 5-.5 5-2a5 5 0 1 0-10 0c0 1.5 3 2 5 2ZM184.3 362.5a2 2 0 0 0 4 0v-7.4a5 5 0 1 0-4 0v7.4ZM351 122a5 5 0 0 1-3.7 4.8c-.6 6.8 1 10.6 3.6 13 3.3 3.2 8.6 4.5 15.1 5.4l5 .6c5 .6 10.3 1.2 15 2.6 6.3 1.9 12 5.3 14.9 12.4 2.7 6.9 1.6 13.6-1.5 20-3 6.3-8.1 12.5-13.5 18.8l-3 3.5c-4.4 5-8.7 10-12.5 15.2 3.7 0 7.4.4 10.8 1.3A61.2 61.2 0 0 1 395 225a5 5 0 1 1-2 3.5 64.8 64.8 0 0 0-12.8-5c-4.1-1-8.5-1.5-12.7-.9-3.5 5.6-6 11.2-7 17.2-2.5 15.2-.6 35.5 1.9 57.3l1.1 9.9c2.2 18.7 4.5 37.9 4.5 55a2 2 0 0 1-4 0c0-16.9-2.2-35.8-4.5-54.5l-1.1-9.9c-2.5-21.7-4.4-42.6-1.9-58.4.9-5.3 2.8-10.2 5.4-15a21.9 21.9 0 0 0-8.8 7.5c-3.6 5-5.8 13-6.9 23.3-1 10.1-1 22-.6 34.6l1.2 25.7c1 17 1.9 33.6 1.2 46.8a2 2 0 1 1-4-.2c.7-13-.2-29.2-1.2-46v-.1c-.4-8.6-1-17.4-1.2-26-.5-12.7-.5-24.8.7-35.2a54.2 54.2 0 0 1 7.6-25.3c4.3-6 9.6-9 15.2-10.3l1.6-2.4c4-5.7 8.7-11 13.2-16.2l3-3.5a89.7 89.7 0 0 0 12.9-17.9c2.8-5.7 3.6-11.2 1.3-16.8-2.1-5.4-6.6-8.3-12.3-10-4.3-1.2-9-1.8-14-2.4l-5.3-.6c-6.5-1-13-2.3-17.4-6.4-3.8-3.6-5.5-9-4.8-16.6a5 5 0 1 1 7.7-4.2ZM337 167a5 5 0 0 0 2.2-.5c5.6 4.4 7.6 7.5 8 10.3.3 1.6 0 3.4-1 5.5-.8 2.2-2.2 4.6-4 7.6l-.1.4c-7 12.1-18.1 31.3-18.1 71.2V362a2 2 0 1 0 4 0V261.5c0-38.8 10.7-57.3 17.5-69.1l.2-.5a70 70 0 0 0 4.3-8c1-2.6 1.6-5 1.2-7.7-.6-4.2-3.6-8.2-9.4-12.8a5 5 0 0 0-4.8-6.4 5 5 0 0 0 0 10Z"/><defs><linearGradient id="c" x1="443.81" x2="668.53" y1="-136.25" y2="128.1" gradientUnits="userSpaceOnUse"><stop stop-color="red"/><stop offset=".34" stop-color="#F0F"/><stop offset=".67" stop-color="#0FF"/><stop offset="1" stop-color="#00F"/></linearGradient><linearGradient id="a" x1="55" x2="446" y1="0" y2="0" gradientUnits="userSpaceOnUse"><stop stop-color="red"/><stop offset=".33" stop-color="#F0F"/><stop offset=".67" stop-color="#0FF"/><stop offset="1" stop-color="#00F"/></linearGradient><filter id="b" width="200%" height="200%" x="-50%" y="-50%"><feGaussianBlur in="SourceGraphic" stdDeviation="20"/></filter><linearGradient id="a" x1="513.996" x2="738.191" y1="-168.592" y2="211.891" gradientUnits="userSpaceOnUse"><stop stop-color="red"/><stop offset=".34" stop-color="#F0F"/><stop offset=".673" stop-color="#0FF"/><stop offset="1" stop-color="#00F"/></linearGradient></defs></svg>