<svg xmlns="http://www.w3.org/2000/svg" viewBox="0 0 516 516"><path fill="url(#a)" filter="url(#b)" opacity=".08" d="M258 32C133.18 32 32 133.18 32 258c0 39.52 10.15 76.68 27.97 109-9.47-49.5 127.53-66 194.53-67s211.5 16.5 201.52 67A224.98 224.98 0 0 0 484 258c0-124.82-101.18-226-226-226Z" /><path fill="#2948A1" d="M131.21 363.35c-.92 3.47-4.63 2.6-5.06 0l-.09-.56a136.92 136.92 0 0 1-1.87-27.17c-1.91 1.2-3.57-.6-3.11-9.18.5-9.44 3.71-21.24 10.6-25.02.5-.27 1.16-.96 2-1.84 2.56-2.66 6.77-7.04 12.8-6.54 8 .67 11.28 7.78 10.78 9.35-.63 1.99-5.88 2.57-5.88 2.57s2.46 2.26 4.03 5.57c.63 1.33 1.22 3.5 1.86 5.9.97 3.58 2.06 7.64 3.63 10.01 1.12 1.71 1.8 2.5 2.2 2.98.53.63.6.7.6 1.58 0 1.55-1.33 1.9-5.5 1a12.63 12.63 0 0 1-6.32-4c-.7 8.67-2.42 28.76-3.62 32.77a1.56 1.56 0 0 1-1.79 1.05c-1.58-.32-2.05-3.2-2.54-6.14-.54-3.3-1.1-6.68-3.24-6.68-3 0-7 5-9.48 14.35Zm-66.8 7.56a2 2 0 0 1 .51.57l.56.95c2.45 3.25 5.9 6.47 10.36 9.62 9.83 6.94 24.18 13.28 42.09 18.63 35.8 10.7 85.37 17.34 140.21 17.34s104.42-6.64 140.21-17.34c17.91-5.35 32.26-11.69 42.09-18.63 4.2-2.96 7.5-5.98 9.9-9.03l.92-1.53a2 2 0 0 1 .69-.7c2.2-3.4 3.3-6.84 3.3-10.26 0-8.53-6.86-17.14-20.42-25.13-13.43-7.92-32.86-14.87-56.64-20.28a2 2 0 1 1 .88-3.9c24 5.45 43.87 12.52 57.8 20.73 13.8 8.15 22.37 17.79 22.37 28.58 0 5.2-2 10.13-5.59 14.75C413.8 441.6 341.13 486 258.1 486c-83.3 0-156.16-44.67-195.94-111.35-3.3-4.44-5.1-9.15-5.1-14.12 0-8.65 5.5-16.55 14.7-23.49 9.22-6.96 22.48-13.2 38.76-18.53a2 2 0 1 1 1.24 3.8c-16.07 5.25-28.86 11.34-37.6 17.93-8.76 6.61-13.11 13.48-13.11 20.29 0 3.46 1.12 6.94 3.38 10.38ZM74 385.64C114.44 443.88 181.82 482 258.09 482c76.22 0 143.54-38.06 184-96.23-10.28 7.11-24.85 13.44-42.6 18.74-36.25 10.84-86.23 17.51-141.35 17.51-55.12 0-105.1-6.67-141.36-17.5-17.85-5.34-32.49-11.72-42.8-18.88Zm100.91-77.15a2 2 0 1 0-.54-3.96c-2.71.37-5.4.77-8.04 1.18a2 2 0 0 0 .62 3.95c2.62-.4 5.28-.8 7.96-1.17Z"/><path fill="#2948A1" fill-rule="evenodd" d="M131.214 363.349c-.921 3.474-4.634 2.593-5.059 0l-.092-.554c-.564-3.348-2.258-13.415-1.869-27.179-1.915 1.207-3.575-.591-3.117-9.172.503-9.439 3.714-21.245 10.61-25.027.491-.269 1.155-.961 1.998-1.838 2.56-2.664 6.768-7.043 12.787-6.539 8.003.669 11.288 7.778 10.787 9.353-.632 1.987-5.876 2.565-5.876 2.565s2.454 2.264 4.031 5.576c.63 1.324 1.216 3.5 1.86 5.889.965 3.584 2.059 7.645 3.623 10.021 1.125 1.708 1.8 2.501 2.204 2.976.532.626.593.698.593 1.58 0 1.552-1.327 1.894-5.5 1-2.274-.487-5.174-2.447-6.316-4-.701 8.674-2.421 28.759-3.613 32.774-.328.934-1.207 1.164-1.793 1.046-1.581-.317-2.055-3.192-2.54-6.139-.543-3.296-1.101-6.681-3.238-6.681-3 0-7 5-9.48 14.349Zm-67.033 7.408c.298.167.557.413.743.728.334.569.672 1.136 1.011 1.702 2.398 2.993 5.654 5.958 9.772 8.867 9.827 6.942 24.176 13.276 42.088 18.628 35.798 10.696 85.372 17.341 140.215 17.341s104.417-6.645 140.215-17.341c17.912-5.352 32.262-11.686 42.089-18.628 4.538-3.206 8.03-6.481 10.479-9.786.155-.26.309-.522.463-.783a2 2 0 0 1 .456-.533c2.27-3.46 3.402-6.948 3.402-10.422 0-8.652-7.047-17.38-20.969-25.461-13.79-8.006-33.722-15.005-58.078-20.402a2 2 0 0 1 .866-3.906c24.557 5.443 44.932 12.554 59.22 20.848 14.158 8.218 22.961 17.979 22.961 28.921 0 4.9-1.77 9.561-4.979 13.944C414.376 441.252 341.459 486 258.09 486c-82.959 0-155.567-44.308-195.455-110.54-3.682-4.669-5.729-9.661-5.729-14.93 0-8.648 5.518-16.554 14.709-23.489 9.225-6.962 22.48-13.211 38.763-18.535a2 2 0 1 1 1.244 3.801c-16.073 5.255-28.865 11.337-37.598 17.927-8.767 6.616-13.118 13.483-13.118 20.296 0 3.408 1.09 6.831 3.275 10.227Zm9.933 15.063C114.582 443.956 181.894 482 258.09 482c76.289 0 143.672-38.137 184.123-96.393-10.304 7.177-24.961 13.564-42.842 18.907-36.264 10.836-86.242 17.509-141.361 17.509-55.119 0-105.097-6.673-141.36-17.509-17.705-5.29-32.248-11.604-42.536-18.694Zm157.964-82.282a2 2 0 0 0-.156-3.997c-23.417.913-45.569 3.038-65.728 6.161a1.999 1.999 0 1 0 .612 3.953c19.997-3.097 41.995-5.21 65.272-6.117Z"/><path fill="url(#a)" d="M371.004 181.998a5 5 0 0 1-3.008 4.587V362a2 2 0 1 1-4 0V186.579a5.002 5.002 0 0 1 2.008-9.581 5 5 0 0 1 5 5ZM343.996 362a2 2 0 0 0 4 0V206.589a5 5 0 1 0-4-.007V362Zm-18 2a2 2 0 0 1-2-2V226.585a5 5 0 1 1 4 .004V362a2 2 0 0 1-2 2Zm-22-2a2 2 0 0 0 4 0V246.585a5 5 0 1 0-4-.006V362Zm-18 2a2 2 0 0 1-2-2v-95.419a5 5 0 1 1 4 .007V362a2 2 0 0 1-2 2Zm-42-2a2 2 0 0 0 4 0v-55.407a5.002 5.002 0 0 0-1.992-9.588 5 5 0 0 0-2.008 9.581V362Zm-18 2a2 2 0 0 1-2-2v-35.42a5.002 5.002 0 0 1 2.004-9.582 5 5 0 0 1 1.996 9.585V362a2 2 0 0 1-2 2Zm-20 0a2 2 0 0 1-2-2v-15.416a5.002 5.002 0 0 1 2-9.584 5 5 0 0 1 2 9.584V362a2 2 0 0 1-2 2Zm58-2a2 2 0 0 0 4 0v-75.36a5.002 5.002 0 0 0-1.992-9.587 5 5 0 0 0-2.008 9.58V362ZM186 364c2 0 5-.5 5-2a5 5 0 0 0-10 0c0 1.5 3 2 5 2Z"/><defs><linearGradient id="c" x1="443.81" x2="668.53" y1="-136.25" y2="128.1" gradientUnits="userSpaceOnUse"><stop stop-color="red"/><stop offset=".34" stop-color="#F0F"/><stop offset=".67" stop-color="#0FF"/><stop offset="1" stop-color="#00F"/></linearGradient><linearGradient id="a" x1="55" x2="446" y1="0" y2="0" gradientUnits="userSpaceOnUse"><stop stop-color="red"/><stop offset=".33" stop-color="#F0F"/><stop offset=".67" stop-color="#0FF"/><stop offset="1" stop-color="#00F"/></linearGradient><filter id="b" width="200%" height="200%" x="-50%" y="-50%"><feGaussianBlur in="SourceGraphic" stdDeviation="20"/></filter><linearGradient id="a" x1="418.76" x2="621.72" y1="-87.923" y2="151.21" gradientUnits="userSpaceOnUse"><stop stop-color="red"/><stop offset=".34" stop-color="#F0F"/><stop offset=".673" stop-color="#0FF"/><stop offset="1" stop-color="#00F"/></linearGradient></defs></svg>