<svg xmlns="http://www.w3.org/2000/svg" viewBox="0 0 516 516"><path fill="url(#a)" filter="url(#b)" opacity=".08" d="M258 32C133.18 32 32 133.18 32 258c0 39.52 10.15 76.68 27.97 109-9.47-49.5 127.53-66 194.53-67s211.5 16.5 201.52 67A224.98 224.98 0 0 0 484 258c0-124.82-101.18-226-226-226Z" /><path fill="#2948A1" d="M131.21 363.35c-.92 3.47-4.63 2.6-5.06 0l-.09-.56a136.92 136.92 0 0 1-1.87-27.17c-1.91 1.2-3.57-.6-3.11-9.18.5-9.44 3.71-21.24 10.6-25.02.5-.27 1.16-.96 2-1.84 2.56-2.66 6.77-7.04 12.8-6.54 8 .67 11.28 7.78 10.78 9.35-.63 1.99-5.88 2.57-5.88 2.57s2.46 2.26 4.03 5.57c.63 1.33 1.22 3.5 1.86 5.9.97 3.58 2.06 7.64 3.63 10.01 1.12 1.71 1.8 2.5 2.2 2.98.53.63.6.7.6 1.58 0 1.55-1.33 1.9-5.5 1a12.63 12.63 0 0 1-6.32-4c-.7 8.67-2.42 28.76-3.62 32.77a1.56 1.56 0 0 1-1.79 1.05c-1.58-.32-2.05-3.2-2.54-6.14-.54-3.3-1.1-6.68-3.24-6.68-3 0-7 5-9.48 14.35Zm-66.8 7.56a2 2 0 0 1 .51.57l.56.95c2.45 3.25 5.9 6.47 10.36 9.62 9.83 6.94 24.18 13.28 42.09 18.63 35.8 10.7 85.37 17.34 140.21 17.34s104.42-6.64 140.21-17.34c17.91-5.35 32.26-11.69 42.09-18.63 4.2-2.96 7.5-5.98 9.9-9.03l.92-1.53a2 2 0 0 1 .69-.7c2.2-3.4 3.3-6.84 3.3-10.26 0-8.53-6.86-17.14-20.42-25.13-13.43-7.92-32.86-14.87-56.64-20.28a2 2 0 1 1 .88-3.9c24 5.45 43.87 12.52 57.8 20.73 13.8 8.15 22.37 17.79 22.37 28.58 0 5.2-2 10.13-5.59 14.75C413.8 441.6 341.13 486 258.1 486c-83.3 0-156.16-44.67-195.94-111.35-3.3-4.44-5.1-9.15-5.1-14.12 0-8.65 5.5-16.55 14.7-23.49 9.22-6.96 22.48-13.2 38.76-18.53a2 2 0 1 1 1.24 3.8c-16.07 5.25-28.86 11.34-37.6 17.93-8.76 6.61-13.11 13.48-13.11 20.29 0 3.46 1.12 6.94 3.38 10.38ZM74 385.64C114.44 443.88 181.82 482 258.09 482c76.22 0 143.54-38.06 184-96.23-10.28 7.11-24.85 13.44-42.6 18.74-36.25 10.84-86.23 17.51-141.35 17.51-55.12 0-105.1-6.67-141.36-17.5-17.85-5.34-32.49-11.72-42.8-18.88Zm100.91-77.15a2 2 0 1 0-.54-3.96c-2.71.37-5.4.77-8.04 1.18a2 2 0 0 0 .62 3.95c2.62-.4 5.28-.8 7.96-1.17Z"/><path fill="#2948A1" fill-rule="evenodd" d="M131.214 363.349c-.921 3.474-4.634 2.593-5.059 0l-.093-.555c-.563-3.348-2.257-13.414-1.868-27.178-1.915 1.207-3.575-.591-3.117-9.172.503-9.439 3.714-21.245 10.61-25.027.491-.269 1.155-.961 1.998-1.838 2.56-2.664 6.768-7.043 12.787-6.539 8.003.669 11.288 7.778 10.787 9.353-.632 1.987-5.876 2.565-5.876 2.565s2.454 2.264 4.031 5.576c.63 1.324 1.216 3.5 1.86 5.889.965 3.584 2.059 7.645 3.623 10.021 1.125 1.708 1.8 2.501 2.204 2.976.532.626.593.698.593 1.58 0 1.552-1.327 1.894-5.5 1-2.274-.487-5.174-2.447-6.316-4-.701 8.674-2.421 28.759-3.613 32.774-.328.934-1.207 1.164-1.793 1.046-1.581-.317-2.055-3.192-2.54-6.139-.543-3.296-1.101-6.681-3.238-6.681-3 0-7 5-9.48 14.349Zm-66.875 7.506a2 2 0 0 1 .585.63c.235.4.472.799.71 1.196 2.43 3.165 5.817 6.3 10.166 9.372 9.827 6.942 24.176 13.275 42.088 18.627 35.797 10.696 85.37 17.34 140.212 17.34 54.842 0 104.415-6.644 140.212-17.34 17.912-5.352 32.261-11.685 42.088-18.627 4.298-3.036 7.657-6.134 10.081-9.26.26-.435.519-.871.776-1.308a1.98 1.98 0 0 1 .619-.653c2.218-3.421 3.324-6.868 3.324-10.302 0-8.262-6.422-16.598-19.173-24.391-12.644-7.727-30.97-14.567-53.496-19.996a2 2 0 1 1 .938-3.888c22.727 5.477 41.501 12.44 54.643 20.471 13.036 7.966 21.088 17.343 21.088 27.804 0 5.11-1.925 9.96-5.401 14.507C413.966 441.504 341.225 486 258.09 486c-83.185 0-155.962-44.549-195.78-111.082-3.419-4.512-5.31-9.323-5.31-14.388 0-8.648 5.518-16.552 14.707-23.487 9.225-6.961 22.479-13.21 38.761-18.534a2.001 2.001 0 0 1 1.243 3.802c-16.071 5.255-28.862 11.336-37.594 17.925C65.35 346.852 61 353.718 61 360.53c0 3.441 1.111 6.897 3.339 10.325Zm9.688 14.839C114.485 443.901 181.839 482 258.09 482c76.24 0 143.586-38.087 184.046-96.28-10.296 7.13-24.892 13.478-42.678 18.792-36.263 10.835-86.24 17.508-141.358 17.508-55.118 0-105.095-6.673-141.358-17.508-17.808-5.321-32.418-11.678-42.715-18.818Zm100.837-77.203a2 2 0 1 0-.548-3.962 493.73 493.73 0 0 0-8.032 1.177 2 2 0 1 0 .612 3.953c2.622-.407 5.278-.796 7.968-1.168Z" clip-rule="evenodd"/><path fill="url(#a)" fill-rule="evenodd" d="M261 164a5.002 5.002 0 0 1-3 4.584V192a4 4 0 0 1-4 4h-28a2 2 0 1 1 0-4h28v-23.416a5.002 5.002 0 0 1 2-9.584 5 5 0 0 1 5 5Zm-35 55a5.002 5.002 0 0 0 4.584-3H244v96h-18a2 2 0 1 0 0 4h18a4 4 0 0 0 4-4v-96a4 4 0 0 0-4-4h-13.416a5.002 5.002 0 0 0-9.584 2 5 5 0 0 0 5 5Zm15-55a5.002 5.002 0 0 1-3 4.584V170a6 6 0 0 1-6 6h-22a2 2 0 0 0-2 2v52a2 2 0 0 0 2 2h12a6 6 0 0 1 6 6v52a6 6 0 0 1-6 6h-12a2 2 0 0 0-2 2v55.5a2 2 0 1 1-4 0V298a6 6 0 0 1 6-6h12a2 2 0 0 0 2-2v-52a2 2 0 0 0-2-2h-12a6 6 0 0 1-6-6v-52a6 6 0 0 1 6-6h22a2 2 0 0 0 2-2v-1.416a5.002 5.002 0 0 1 2-9.584 5 5 0 0 1 5 5Zm41 0a5.002 5.002 0 0 1-3 4.584v22.417l.005.008.004.006.005.004a.165.165 0 0 0 .108.047c19.861 1.23 40.378 19.562 40.378 42.934 0 16.72-7.142 25.511-11.647 29.362-.071.061-.227.29-.232.692-.004.403.145.606.194.648 4.677 4.005 12.685 13.235 12.685 29.298 0 14.316-5.594 24.885-13.637 31.959-7.994 7.032-18.32 10.539-27.77 10.991a.118.118 0 0 0-.082.035l-.005.004-.002.004-.004.005V354a2 2 0 1 1-4 0v-17c0-2.23 1.792-3.945 3.903-4.046 8.665-.414 18.091-3.641 25.318-9.998 7.18-6.315 12.279-15.79 12.279-28.956 0-14.558-7.205-22.764-11.287-26.26-1.167-.999-1.606-2.466-1.591-3.733.015-1.267.487-2.707 1.632-3.686 3.734-3.192 10.246-10.918 10.246-26.321 0-21.06-18.669-37.83-36.625-38.942-2.079-.128-3.875-1.82-3.875-4.058v-22.416a5.002 5.002 0 0 1 2-9.584 5 5 0 0 1 5 5Zm19 4.584a5.002 5.002 0 0 0-2-9.584 5 5 0 0 0-2 9.584V170c0 3.344 2.645 5.801 5.402 6.55C314.54 179.848 340.5 197.549 340.5 234c0 12.601-4.334 21.282-6.989 25.419-1.564 2.437-1.529 5.754.169 8.144 3.081 4.335 8.32 13.6 8.32 26.437 0 22.924-8.754 37.4-18.174 46.16-4.732 4.401-9.656 7.38-13.772 9.254-4.192 1.909-7.352 2.586-8.554 2.586a2 2 0 1 0 0 4c2.048 0 5.825-.948 10.212-2.945 4.462-2.033 9.757-5.241 14.837-9.965C336.754 333.6 346 318.076 346 294c0-13.944-5.688-24.01-9.06-28.754-.731-1.03-.764-2.573-.063-3.667 2.957-4.606 7.623-14.027 7.623-27.579 0-38.603-27.528-57.636-41.049-61.31-1.508-.41-2.451-1.616-2.451-2.69v-1.416ZM226 339a5.002 5.002 0 0 0 4.584-3H254v18.5a2 2 0 1 0 4 0V336a4 4 0 0 0-4-4h-23.416a5.002 5.002 0 0 0-9.584 2 5 5 0 0 0 5 5Zm-15-65a5 5 0 0 1-9.319 2.521C193.826 278.456 188 285.548 188 294v60a2 2 0 1 1-4 0v-60c0-10.51 7.369-19.298 17.223-21.48A5 5 0 0 1 211 274Zm157.848 32.647a5 5 0 1 0-4-.132c-.741 11.065-4.106 21.021-8.072 28.898-4.537 9.012-9.728 15.055-12.426 16.951a2 2 0 1 0 2.3 3.272c3.469-2.437 9.027-9.144 13.699-18.424 4.168-8.28 7.734-18.806 8.499-30.565ZM264 215.99a3.992 3.992 0 0 1 4-3.99h8c12.15 0 22 9.85 22 22s-9.85 22-22 22h-8c-2.196 0-4-1.768-4-3.99v-36.02Zm4 .01v36h8c9.941 0 18-8.059 18-18s-8.059-18-18-18h-8Zm-4 59.99a3.992 3.992 0 0 1 4-3.99h8c12.15 0 22 9.85 22 22s-9.85 22-22 22h-8c-2.196 0-4-1.768-4-3.99v-36.02Zm3.995.01.005-.011V276h-.005Zm.005 36v-36h8c9.941 0 18 8.059 18 18s-8.059 18-18 18h-8Z" clip-rule="evenodd"/><defs><linearGradient id="c" x1="443.81" x2="668.53" y1="-136.25" y2="128.1" gradientUnits="userSpaceOnUse"><stop stop-color="red"/><stop offset=".34" stop-color="#F0F"/><stop offset=".67" stop-color="#0FF"/><stop offset="1" stop-color="#00F"/></linearGradient><linearGradient id="a" x1="55" x2="446" y1="0" y2="0" gradientUnits="userSpaceOnUse"><stop stop-color="red"/><stop offset=".33" stop-color="#F0F"/><stop offset=".67" stop-color="#0FF"/><stop offset="1" stop-color="#00F"/></linearGradient><filter id="b" width="200%" height="200%" x="-50%" y="-50%"><feGaussianBlur in="SourceGraphic" stdDeviation="20"/></filter><linearGradient id="a" x1="419.253" x2="635.439" y1="-120.793" y2="117.842" gradientUnits="userSpaceOnUse"><stop stop-color="red"/><stop offset=".34" stop-color="#F0F"/><stop offset=".673" stop-color="#0FF"/><stop offset="1" stop-color="#00F"/></linearGradient></defs></svg>