<svg xmlns="http://www.w3.org/2000/svg" viewBox="0 0 516 516"><path fill="url(#a)" filter="url(#b)" opacity=".08" d="M258 32C133.18 32 32 133.18 32 258c0 39.52 10.15 76.68 27.97 109-9.47-49.5 127.53-66 194.53-67s211.5 16.5 201.52 67A224.98 224.98 0 0 0 484 258c0-124.82-101.18-226-226-226Z" /><path fill="#2948A1" d="M131.21 363.35c-.92 3.47-4.63 2.6-5.06 0l-.09-.56a136.92 136.92 0 0 1-1.87-27.17c-1.91 1.2-3.57-.6-3.11-9.18.5-9.44 3.71-21.24 10.6-25.02.5-.27 1.16-.96 2-1.84 2.56-2.66 6.77-7.04 12.8-6.54 8 .67 11.28 7.78 10.78 9.35-.63 1.99-5.88 2.57-5.88 2.57s2.46 2.26 4.03 5.57c.63 1.33 1.22 3.5 1.86 5.9.97 3.58 2.06 7.64 3.63 10.01 1.12 1.71 1.8 2.5 2.2 2.98.53.63.6.7.6 1.58 0 1.55-1.33 1.9-5.5 1a12.63 12.63 0 0 1-6.32-4c-.7 8.67-2.42 28.76-3.62 32.77a1.56 1.56 0 0 1-1.79 1.05c-1.58-.32-2.05-3.2-2.54-6.14-.54-3.3-1.1-6.68-3.24-6.68-3 0-7 5-9.48 14.35Zm-66.8 7.56a2 2 0 0 1 .51.57l.56.95c2.45 3.25 5.9 6.47 10.36 9.62 9.83 6.94 24.18 13.28 42.09 18.63 35.8 10.7 85.37 17.34 140.21 17.34s104.42-6.64 140.21-17.34c17.91-5.35 32.26-11.69 42.09-18.63 4.2-2.96 7.5-5.98 9.9-9.03l.92-1.53a2 2 0 0 1 .69-.7c2.2-3.4 3.3-6.84 3.3-10.26 0-8.53-6.86-17.14-20.42-25.13-13.43-7.92-32.86-14.87-56.64-20.28a2 2 0 1 1 .88-3.9c24 5.45 43.87 12.52 57.8 20.73 13.8 8.15 22.37 17.79 22.37 28.58 0 5.2-2 10.13-5.59 14.75C413.8 441.6 341.13 486 258.1 486c-83.3 0-156.16-44.67-195.94-111.35-3.3-4.44-5.1-9.15-5.1-14.12 0-8.65 5.5-16.55 14.7-23.49 9.22-6.96 22.48-13.2 38.76-18.53a2 2 0 1 1 1.24 3.8c-16.07 5.25-28.86 11.34-37.6 17.93-8.76 6.61-13.11 13.48-13.11 20.29 0 3.46 1.12 6.94 3.38 10.38ZM74 385.64C114.44 443.88 181.82 482 258.09 482c76.22 0 143.54-38.06 184-96.23-10.28 7.11-24.85 13.44-42.6 18.74-36.25 10.84-86.23 17.51-141.35 17.51-55.12 0-105.1-6.67-141.36-17.5-17.85-5.34-32.49-11.72-42.8-18.88Zm100.91-77.15a2 2 0 1 0-.54-3.96c-2.71.37-5.4.77-8.04 1.18a2 2 0 0 0 .62 3.95c2.62-.4 5.28-.8 7.96-1.17Z"/><path fill="#2948A1" fill-rule="evenodd" d="M131.214 363.349c-.921 3.474-4.634 2.593-5.059 0l-.092-.554c-.564-3.348-2.258-13.415-1.869-27.179-1.915 1.207-3.575-.591-3.117-9.172.503-9.439 3.714-21.245 10.61-25.027.491-.269 1.155-.961 1.998-1.838 2.56-2.664 6.768-7.043 12.787-6.539 8.003.669 11.288 7.778 10.787 9.353-.632 1.987-5.876 2.565-5.876 2.565s2.454 2.264 4.031 5.576c.63 1.324 1.216 3.5 1.86 5.889.965 3.584 2.059 7.645 3.623 10.021 1.125 1.708 1.8 2.501 2.204 2.976.532.626.593.698.593 1.58 0 1.552-1.327 1.894-5.5 1-2.274-.487-5.174-2.447-6.316-4-.701 8.674-2.421 28.759-3.613 32.774-.328.934-1.207 1.164-1.793 1.046-1.581-.317-2.055-3.192-2.54-6.139-.543-3.296-1.101-6.681-3.238-6.681-3 0-7 5-9.48 14.349Zm-67.033 7.408c.298.167.557.413.743.728.334.569.672 1.136 1.011 1.702 2.398 2.993 5.654 5.958 9.772 8.867 9.827 6.942 24.176 13.276 42.088 18.628 35.798 10.696 85.372 17.341 140.215 17.341s104.417-6.645 140.215-17.341c17.912-5.352 32.262-11.686 42.089-18.628 4.538-3.206 8.03-6.481 10.479-9.786.155-.26.309-.522.463-.783a2 2 0 0 1 .456-.533c2.27-3.46 3.402-6.948 3.402-10.422 0-7.592-5.414-15.252-16.247-22.52-10.763-7.221-26.439-13.744-45.902-19.147a2 2 0 0 1 1.07-3.854c19.668 5.46 35.799 12.124 47.061 19.68 11.191 7.508 18.018 16.213 18.018 25.841 0 4.9-1.77 9.561-4.979 13.944C414.376 441.252 341.459 486 258.09 486c-82.959 0-155.567-44.308-195.455-110.54-3.682-4.669-5.729-9.661-5.729-14.93 0-8.648 5.518-16.554 14.709-23.489 9.225-6.962 22.48-13.211 38.763-18.535a2 2 0 1 1 1.244 3.801c-16.073 5.255-28.865 11.337-37.598 17.927-8.767 6.616-13.118 13.483-13.118 20.296 0 3.408 1.09 6.831 3.275 10.227Zm9.933 15.063C114.582 443.956 181.894 482 258.09 482c76.289 0 143.672-38.137 184.123-96.393-10.304 7.177-24.961 13.564-42.842 18.907-36.264 10.836-86.242 17.509-141.361 17.509-55.119 0-105.097-6.673-141.36-17.509-17.705-5.29-32.248-11.604-42.536-18.694Zm139.024-81.262a2 2 0 1 0-.276-3.99c-16.416 1.133-32.065 2.872-46.668 5.134a1.999 1.999 0 1 0 .612 3.953c14.484-2.244 30.02-3.97 46.332-5.097Zm93.009-3.776a2 2 0 1 0-.294 3.989c24.753 1.83 47.655 5.047 67.728 9.353a2 2 0 1 0 .838-3.911c-20.276-4.349-43.362-7.589-68.272-9.431Z" clip-rule="evenodd"/><path fill="url(#a)" fill-rule="evenodd" d="M123 258c0-74.558 60.442-135 135-135 42.898 0 81.122 20.006 105.853 51.205a5 5 0 1 0 3.4-2.15C341.803 139.749 302.325 119 258 119c-76.768 0-139 62.232-139 139 0 11.722 1.452 23.109 4.186 33.987a2 2 0 1 0 3.879-.974A135.275 135.275 0 0 1 123 258Zm257.082-66.516a2 2 0 0 0-3.511 1.917c.157.288.313.576.468.865a2 2 0 0 0 3.525-1.891c-.16-.298-.321-.594-.482-.891Zm7.289 15.582a2 2 0 1 0-3.721 1.466c.12.305.239.61.357.916a2 2 0 1 0 3.732-1.439c-.121-.315-.244-.629-.368-.943Zm5.296 16.366a2 2 0 0 0-3.875.992c.082.318.162.635.241.954a1.999 1.999 0 1 0 3.882-.964 117.56 117.56 0 0 0-.248-.982Zm3.221 16.898a2 2 0 0 0-3.969.503c.042.326.082.651.121.978a2 2 0 0 0 3.971-.475c-.04-.336-.081-.671-.123-1.006Zm1.111 17.163a2 2 0 1 0-4 .014l.001.272V258l-.001.491a2 2 0 0 0 4 .014L397 258l-.001-.507Zm-.977 17.082a2 2 0 0 0-3.972-.472c-.039.324-.078.648-.119.972a2 2 0 0 0 3.969.5c.042-.333.082-.666.122-1Zm-3.063 16.832a2 2 0 1 0-3.883-.959c-.078.317-.157.632-.238.948a2 2 0 0 0 3.877.986c.082-.325.164-.65.244-.975Zm-5.12 16.324a2 2 0 1 0-3.735-1.432c-.117.305-.234.609-.353.912a2 2 0 1 0 3.724 1.459c.123-.312.244-.626.364-.939Zm-7.099 15.565a2.001 2.001 0 0 0-.824-2.706 2.001 2.001 0 0 0-2.706.824c-.153.288-.308.575-.463.862a2 2 0 0 0 3.516 1.907l.247-.458.23-.429Zm-8.962 14.572a2 2 0 0 0-3.272-2.301l-.565.798a2 2 0 1 0 3.255 2.324c.195-.273.389-.547.582-.821Zm-10.679 13.363a2 2 0 0 0-2.966-2.684c-.219.242-.438.483-.659.723a2 2 0 1 0 2.947 2.705c.227-.247.453-.495.678-.744Zm-12.231 11.958a2 2 0 0 0-2.616-3.026 47.8 47.8 0 0 1-.25.215l-.121.104a2.001 2.001 0 0 0 2.605 3.036l.382-.329ZM208 252.985C208 225.38 230.385 203 258 203c27.646 0 50 21.187 50 49.985 0 14.591-3.29 22.764-7.134 29.498-.971 1.702-2.012 3.358-3.066 5.034-3.073 4.887-6.255 9.947-8.127 16.825-1.872 5.1-2.059 10.507-2.214 14.983v.004c-.034.992-.067 1.938-.116 2.826-.143 2.566-.407 4.575-1.034 6.086-.305.734-.691 1.343-1.211 1.834a5 5 0 1 0 1.892 3.613c1.4-1.007 2.366-2.354 3.013-3.914.909-2.19 1.189-4.798 1.334-7.398.057-1.039.095-2.093.134-3.156.162-4.476.33-9.116 1.984-13.574l.032-.086.024-.088c1.699-6.297 4.456-10.683 7.449-15.445 1.108-1.763 2.249-3.578 3.381-5.561 4.158-7.286 7.659-16.137 7.659-31.481C312 221.916 287.792 199 258 199c-29.823 0-54 24.17-54 53.985 0 12.404 3.86 21.265 8.4 29.202 1.241 2.169 2.509 4.238 3.758 6.274 3.374 5.502 6.604 10.77 8.747 17.128l.029.088.038.085c2.085 4.699 2.765 9.279 3.425 13.734l.001.001c.173 1.171.346 2.333.542 3.486.92 5.408 2.407 10.668 7.808 14.062 2.081 1.308 5.28 2.139 8.849 2.665 3.642.537 7.936.79 12.403.79 8.742 0 11.535-.322 12.485-.56a1.999 1.999 0 1 0-.97-3.88c-.383.096-2.657.44-11.515.44-4.333 0-8.424-.247-11.82-.747-3.47-.512-5.966-1.254-7.304-2.095-3.852-2.421-5.104-6.125-5.993-11.346-.17-1.001-.326-2.059-.488-3.163l-.001-.002v-.001c-.659-4.477-1.428-9.701-3.728-14.922-2.3-6.784-5.858-12.584-9.289-18.179-1.204-1.962-2.392-3.899-3.505-5.844-4.35-7.604-7.872-15.767-7.872-27.216Zm32.713-5.852c-.402-5.129.234-9.289 1.632-12.428-.625-.443-1.159-.605-1.522-.601-.409.004-1.42.271-2.157 2.807-.732 2.518-.956 6.718.006 13.051 1.922 12.65 4.779 24.834 7.159 33.866a358.234 358.234 0 0 0 3.029 10.82 260.314 260.314 0 0 0 1.217 3.968l.021.063a2.044 2.044 0 0 1-1.288 2.571 2.012 2.012 0 0 1-2.543-1.303l1.915-.634-1.915.634-.024-.073-.02-.064-.046-.144a236.573 236.573 0 0 1-1.177-3.843 362.722 362.722 0 0 1-3.064-10.946c-2.403-9.116-5.297-21.452-7.248-34.296-1.002-6.592-.862-11.475.11-14.819.967-3.326 2.998-5.7 5.98-5.733 1.333-.015 2.596.457 3.738 1.24 1.855-2.095 4.239-3.236 6.784-3.268 2.527-.032 4.899.974 6.856 2.823 2.116-1.771 4.664-2.544 7.209-2.33 2.189.185 4.253 1.062 5.995 2.518a6.46 6.46 0 0 1 1.773-1.022 5.247 5.247 0 0 1 4.119.168c2.5 1.166 4.198 4.086 5.054 7.733.881 3.751.991 8.709-.063 14.69-1.96 11.117-4.518 22.928-6.584 31.948a932.451 932.451 0 0 1-2.011 8.59 5.106 5.106 0 0 1 1.669 3.787c0 2.813-2.256 5.094-5.039 5.094s-5.039-2.281-5.039-5.094c0-2.653 2.007-4.833 4.569-5.073.552-2.31 1.209-5.099 1.924-8.223 2.059-8.99 4.6-20.724 6.542-31.744.984-5.582.832-9.957.11-13.034-.747-3.183-1.994-4.588-2.82-4.973a1.257 1.257 0 0 0-1.037-.044 2.23 2.23 0 0 0-.51.276c1.785 2.858 2.752 6.678 2.389 11.166-.368 4.544-1.098 8.26-1.992 10.95-.445 1.339-.953 2.493-1.521 3.384-.508.796-1.311 1.78-2.498 2.094a2.82 2.82 0 0 1-2.031-.221c-.6-.309-1.021-.783-1.314-1.233-.566-.872-.906-2.048-1.12-3.337-.437-2.639-.477-6.61.038-11.999.437-4.569 1.436-8.157 2.836-10.704-1.188-.99-2.523-1.53-3.774-1.635-1.491-.126-3.037.313-4.383 1.474 1.649 2.868 2.645 6.642 2.645 11.061 0 5.014-.402 8.964-1.045 11.742-.319 1.377-.719 2.567-1.22 3.474-.429.776-1.266 1.953-2.703 2.115-1.605.181-2.617-.997-3.098-1.775-.541-.873-.951-2.048-1.27-3.403-.647-2.746-1.047-6.794-1.047-12.153 0-4.654.957-8.381 2.612-11.14-1.364-1.305-2.886-1.891-4.171-1.875-1.332.017-2.762.618-3.977 2.079.069.096.137.194.204.292 1.768 2.592 3.096 6.193 3.542 10.429.431 4.091.355 7.788-.053 10.687-.203 1.446-.495 2.739-.87 3.802-.352.996-.866 2.053-1.67 2.748-.435.375-1.039.715-1.793.763-.77.049-1.436-.223-1.946-.599-.915-.674-1.515-1.809-1.954-2.959-.921-2.417-1.667-6.396-2.12-12.185Zm4.018-.322c-.266-3.398-.014-6.134.545-8.275.869 1.802 1.552 4.091 1.835 6.771.401 3.805.319 7.161-.036 9.683-.15 1.071-.345 1.959-.559 2.651-.679-1.9-1.355-5.349-1.785-10.83Zm25.249-1.523c.296-3.086.852-5.488 1.521-7.286.738 1.832 1.113 4.135.887 6.923-.349 4.316-1.033 7.69-1.795 9.984a15.599 15.599 0 0 1-.632 1.622 10.807 10.807 0 0 1-.055-.311c-.352-2.123-.428-5.685.074-10.932Zm-13.04-.197c0-2.98.443-5.339 1.134-7.16.729 1.877 1.187 4.245 1.187 7.16 0 4.832-.391 8.445-.939 10.814-.091.393-.184.741-.277 1.047a17.215 17.215 0 0 1-.168-.652c-.544-2.311-.937-6.005-.937-11.209Z" clip-rule="evenodd"/><defs><linearGradient id="c" x1="443.81" x2="668.53" y1="-136.25" y2="128.1" gradientUnits="userSpaceOnUse"><stop stop-color="red"/><stop offset=".34" stop-color="#F0F"/><stop offset=".67" stop-color="#0FF"/><stop offset="1" stop-color="#00F"/></linearGradient><linearGradient id="a" x1="55" x2="446" y1="0" y2="0" gradientUnits="userSpaceOnUse"><stop stop-color="red"/><stop offset=".33" stop-color="#F0F"/><stop offset=".67" stop-color="#0FF"/><stop offset="1" stop-color="#00F"/></linearGradient><filter id="b" width="200%" height="200%" x="-50%" y="-50%"><feGaussianBlur in="SourceGraphic" stdDeviation="20"/></filter><linearGradient id="a" x1="466.874" x2="726.524" y1="-228.085" y2="113.565" gradientUnits="userSpaceOnUse"><stop stop-color="red"/><stop offset=".34" stop-color="#F0F"/><stop offset=".673" stop-color="#0FF"/><stop offset="1" stop-color="#00F"/></linearGradient></defs></svg>