<svg xmlns="http://www.w3.org/2000/svg" viewBox="0 0 516 516"><path fill="url(#a)" filter="url(#b)" opacity=".08" d="M258 32C133.18 32 32 133.18 32 258c0 39.52 10.15 76.68 27.97 109-9.47-49.5 127.53-66 194.53-67s211.5 16.5 201.52 67A224.98 224.98 0 0 0 484 258c0-124.82-101.18-226-226-226Z" /><path fill="#2948A1" d="M131.21 363.35c-.92 3.47-4.63 2.6-5.06 0l-.09-.56a136.92 136.92 0 0 1-1.87-27.17c-1.91 1.2-3.57-.6-3.11-9.18.5-9.44 3.71-21.24 10.6-25.02.5-.27 1.16-.96 2-1.84 2.56-2.66 6.77-7.04 12.8-6.54 8 .67 11.28 7.78 10.78 9.35-.63 1.99-5.88 2.57-5.88 2.57s2.46 2.26 4.03 5.57c.63 1.33 1.22 3.5 1.86 5.9.97 3.58 2.06 7.64 3.63 10.01 1.12 1.71 1.8 2.5 2.2 2.98.53.63.6.7.6 1.58 0 1.55-1.33 1.9-5.5 1a12.63 12.63 0 0 1-6.32-4c-.7 8.67-2.42 28.76-3.62 32.77a1.56 1.56 0 0 1-1.79 1.05c-1.58-.32-2.05-3.2-2.54-6.14-.54-3.3-1.1-6.68-3.24-6.68-3 0-7 5-9.48 14.35Zm-66.8 7.56a2 2 0 0 1 .51.57l.56.95c2.45 3.25 5.9 6.47 10.36 9.62 9.83 6.94 24.18 13.28 42.09 18.63 35.8 10.7 85.37 17.34 140.21 17.34s104.42-6.64 140.21-17.34c17.91-5.35 32.26-11.69 42.09-18.63 4.2-2.96 7.5-5.98 9.9-9.03l.92-1.53a2 2 0 0 1 .69-.7c2.2-3.4 3.3-6.84 3.3-10.26 0-8.53-6.86-17.14-20.42-25.13-13.43-7.92-32.86-14.87-56.64-20.28a2 2 0 1 1 .88-3.9c24 5.45 43.87 12.52 57.8 20.73 13.8 8.15 22.37 17.79 22.37 28.58 0 5.2-2 10.13-5.59 14.75C413.8 441.6 341.13 486 258.1 486c-83.3 0-156.16-44.67-195.94-111.35-3.3-4.44-5.1-9.15-5.1-14.12 0-8.65 5.5-16.55 14.7-23.49 9.22-6.96 22.48-13.2 38.76-18.53a2 2 0 1 1 1.24 3.8c-16.07 5.25-28.86 11.34-37.6 17.93-8.76 6.61-13.11 13.48-13.11 20.29 0 3.46 1.12 6.94 3.38 10.38ZM74 385.64C114.44 443.88 181.82 482 258.09 482c76.22 0 143.54-38.06 184-96.23-10.28 7.11-24.85 13.44-42.6 18.74-36.25 10.84-86.23 17.51-141.35 17.51-55.12 0-105.1-6.67-141.36-17.5-17.85-5.34-32.49-11.72-42.8-18.88Zm100.91-77.15a2 2 0 1 0-.54-3.96c-2.71.37-5.4.77-8.04 1.18a2 2 0 0 0 .62 3.95c2.62-.4 5.28-.8 7.96-1.17Z"/><path fill="#2948A1" fill-rule="evenodd" d="M131.214 363.349c-.921 3.474-4.634 2.593-5.059 0l-.092-.554c-.564-3.348-2.258-13.415-1.869-27.179-1.915 1.207-3.575-.591-3.117-9.172.503-9.439 3.714-21.245 10.61-25.027.491-.269 1.155-.961 1.998-1.838 2.56-2.664 6.768-7.043 12.787-6.539 8.003.669 11.288 7.778 10.787 9.353-.632 1.987-5.876 2.565-5.876 2.565s2.454 2.264 4.031 5.576c.63 1.324 1.216 3.5 1.86 5.889.965 3.584 2.059 7.645 3.623 10.021 1.125 1.708 1.8 2.501 2.204 2.976.532.626.593.698.593 1.58 0 1.552-1.327 1.894-5.5 1-2.274-.487-5.174-2.447-6.316-4-.701 8.674-2.421 28.759-3.613 32.774-.328.934-1.207 1.164-1.793 1.046-1.581-.317-2.055-3.192-2.54-6.139-.543-3.296-1.101-6.681-3.238-6.681-3 0-7 5-9.48 14.349Zm41.765-56.634a2 2 0 0 1-1.691 2.267c-1.505.219-2.999.443-4.482.673a2 2 0 0 1-.612-3.953c1.495-.231 3.001-.457 4.518-.678a2 2 0 0 1 2.267 1.691Zm197.564 4.723a2 2 0 0 1 2.369-1.545c25.689 5.405 47.063 12.597 62.068 21.046 14.859 8.366 24.134 18.357 24.134 29.591 0 4.9-1.77 9.561-4.98 13.945C414.375 441.253 341.459 486 258.09 486c-82.959 0-155.567-44.307-195.455-110.539-3.682-4.669-5.729-9.662-5.729-14.931 0-8.648 5.518-16.553 14.709-23.489 9.225-6.962 22.48-13.211 38.763-18.535a2 2 0 1 1 1.244 3.802c-16.073 5.255-28.865 11.336-37.598 17.926-8.767 6.616-13.118 13.483-13.118 20.296 0 3.408 1.09 6.831 3.275 10.227.298.167.557.413.743.728.334.569.672 1.136 1.012 1.702 2.397 2.993 5.653 5.958 9.77 8.867 9.828 6.942 24.177 13.276 42.089 18.628 35.798 10.696 85.372 17.341 140.215 17.341s104.417-6.645 140.215-17.341c17.912-5.352 32.262-11.686 42.089-18.628 4.538-3.206 8.029-6.48 10.479-9.785l.463-.784a2 2 0 0 1 .456-.533c2.27-3.46 3.402-6.948 3.402-10.422 0-8.89-7.443-17.855-22.097-26.106-14.507-8.169-35.441-15.255-60.929-20.617a2 2 0 0 1-1.545-2.369Zm71.67 74.169c-10.304 7.177-24.961 13.564-42.842 18.907-36.264 10.836-86.242 17.509-141.361 17.509-55.119 0-105.097-6.673-141.36-17.509-17.705-5.29-32.248-11.604-42.536-18.694C114.582 443.956 181.894 482 258.09 482c76.289 0 143.672-38.137 184.123-96.393Z" clip-rule="evenodd"/><path fill="url(#a)" d="M351 122a5.003 5.003 0 0 1-3.714 4.833c-.633 6.723 1.006 10.595 3.587 13.033 3.297 3.115 8.621 4.43 15.153 5.34 1.616.226 3.304.426 5.028.629 4.976.589 10.243 1.212 14.887 2.582 6.385 1.885 12.102 5.306 14.916 12.34 2.771 6.927 1.636 13.594-1.464 19.99-3.065 6.326-8.137 12.569-13.502 18.807a900.163 900.163 0 0 1-3.036 3.506c-4.328 4.981-8.704 10.018-12.479 15.283 3.725-.136 7.405.384 10.782 1.215 5.017 1.235 9.493 3.176 12.702 4.797.415.21.81.415 1.183.613a5 5 0 1 1-2.011 3.461c-.31-.163-.635-.331-.976-.503-3.039-1.536-7.223-3.344-11.854-4.484-4.12-1.014-8.493-1.485-12.713-.819-3.482 5.529-6.051 11.22-7.015 17.195-2.448 15.18-.619 35.524 1.888 57.329.373 3.249.761 6.529 1.152 9.826C365.726 325.661 368 344.873 368 362a2 2 0 0 1-4 0c0-16.869-2.24-35.805-4.453-54.507l-.001-.009c-.391-3.305-.781-6.603-1.158-9.881-2.494-21.695-4.414-42.601-1.863-58.421.845-5.238 2.778-10.189 5.344-14.893-3.2 1.457-6.184 3.815-8.745 7.378-3.637 5.06-5.792 13.122-6.884 23.319-1.086 10.132-1.096 22.066-.671 34.634.283 8.379.763 17.059 1.237 25.644.94 17.007 1.859 33.643 1.191 46.837a1.999 1.999 0 1 1-3.994-.202c.657-12.988-.242-29.235-1.175-46.094v-.001c-.478-8.641-.966-17.443-1.257-26.049-.426-12.62-.424-24.779.691-35.195 1.109-10.349 3.345-19.288 7.614-25.227 4.316-6.005 9.659-9.065 15.177-10.312a91.055 91.055 0 0 1 1.657-2.425c3.991-5.65 8.688-11.054 13.177-16.219 1.004-1.156 1.998-2.3 2.971-3.431 5.385-6.262 10.126-12.145 12.936-17.943 2.776-5.729 3.578-11.188 1.349-16.76-2.187-5.467-6.594-8.295-12.334-9.989-4.291-1.266-9.046-1.829-13.917-2.406-1.796-.213-3.608-.427-5.418-.68-6.468-.902-13.02-2.305-17.348-6.394-3.801-3.59-5.56-8.885-4.797-16.547A5 5 0 1 1 351 122Zm-50 10a5 5 0 0 1-6.026 4.895c-2.372 4.427-2.636 7.871-1.876 10.745.948 3.588 3.593 6.734 7.093 10.063 1.031.981 2.151 1.988 3.301 3.023l.001.001c2.589 2.328 5.334 4.797 7.582 7.426 3.336 3.901 5.925 8.504 5.925 14.347 0 3.636-.706 6.749-2.177 9.39-1.474 2.646-3.643 4.683-6.357 6.278a26.246 26.246 0 0 1-2.939 1.474A31.904 31.904 0 0 1 308 212v150a2 2 0 1 1-4 0V212c0-3.901-.798-7.616-2.239-10.99-4.398 1.352-9.627 2.239-15.513 2.974-9.341 1.168-13.735 5.506-15.935 10.234-2.288 4.92-2.313 10.489-2.313 14.282V362a2 2 0 0 1-4 0V228.398c0-3.722-.001-10.089 2.687-15.867 2.8-6.021 8.406-11.183 19.065-12.516 5.581-.697 10.288-1.507 14.141-2.621C294.972 189.36 286.112 184 276 184c-15.464 0-28 12.536-28 28v17.416a5.002 5.002 0 0 1-2 9.584 5 5 0 0 1-2-9.584V212c0-17.673 14.327-32 32-32 11.866 0 22.224 6.459 27.749 16.053.974-.409 1.87-.852 2.69-1.334 2.219-1.303 3.824-2.863 4.89-4.776 1.069-1.92 1.671-4.329 1.671-7.443 0-4.537-1.973-8.249-4.965-11.747-2.077-2.428-4.484-4.591-6.969-6.824a174.984 174.984 0 0 1-3.632-3.327c-3.562-3.389-6.949-7.194-8.204-11.94-1.109-4.197-.482-8.809 2.468-14.112A5 5 0 1 1 301 132Zm-115 35a5 5 0 0 0 2.186-9.498c1.337-15.664 9.651-23.717 17.975-25.744 9.174-2.233 18.899 2.594 21.388 13.68 1.009 4.495.205 8.219-1.663 11.965-1.554 3.114-3.778 6.135-6.334 9.607-.622.845-1.263 1.717-1.92 2.623-6.652 9.183-14.02 20.935-14.02 40.867v.005l.388 151.5a2 2 0 0 0 4-.01l-.388-151.495v-.003c.001-18.726 6.837-29.651 13.259-38.517.6-.828 1.203-1.646 1.802-2.458l.003-.006.002-.002.001-.001c2.577-3.497 5.064-6.871 6.786-10.324 2.186-4.383 3.238-9.05 1.986-14.627-3.011-13.414-15.036-19.417-26.237-16.69-10.38 2.527-19.609 12.334-21.026 29.466A5.003 5.003 0 0 0 186 167Zm65 87a5.002 5.002 0 0 1-3 4.584V362a2 2 0 1 1-4 0V258.584a5.002 5.002 0 0 1 2-9.584 5 5 0 0 1 5 5Zm9-87a5 5 0 0 1-8.407 3.659C237.467 179.017 228 194.405 228 212v150a2 2 0 1 1-4 0V212c0-19.25 10.46-36.054 26-45.043a5 5 0 0 1 10 .043Zm-98 46c.63 0 1.233-.117 1.788-.329 2.021 2.304 4.056 5.828 6.008 10.774 2.834 7.186 5.368 17.05 7.481 29.697C181.501 278.426 184 314.553 184 362a2 2 0 0 0 4 0c0-47.553-2.502-83.926-6.778-109.517-2.137-12.791-4.728-22.958-7.705-30.506-2.036-5.161-4.314-9.259-6.875-12.116A5 5 0 1 0 162 213Zm126 15.584a5.002 5.002 0 0 0-2-9.584 5 5 0 0 0-2 9.584V362a2 2 0 0 0 4 0V228.584ZM337 167c.786 0 1.529-.181 2.19-.504 5.579 4.424 7.638 7.525 8.033 10.281.236 1.641-.083 3.385-.957 5.539-.886 2.183-2.263 4.609-3.999 7.623l-.199.346C335.085 202.406 324 221.648 324 261.5V362a2 2 0 1 0 4 0V261.5c0-38.789 10.687-57.336 17.484-69.131l.249-.433c1.702-2.955 3.231-5.63 4.239-8.117 1.021-2.516 1.584-5.01 1.211-7.611-.611-4.251-3.63-8.173-9.396-12.76A5 5 0 1 0 337 167Z"/><defs><linearGradient id="c" x1="443.81" x2="668.53" y1="-136.25" y2="128.1" gradientUnits="userSpaceOnUse"><stop stop-color="red"/><stop offset=".34" stop-color="#F0F"/><stop offset=".67" stop-color="#0FF"/><stop offset="1" stop-color="#00F"/></linearGradient><linearGradient id="a" x1="55" x2="446" y1="0" y2="0" gradientUnits="userSpaceOnUse"><stop stop-color="red"/><stop offset=".33" stop-color="#F0F"/><stop offset=".67" stop-color="#0FF"/><stop offset="1" stop-color="#00F"/></linearGradient><filter id="b" width="200%" height="200%" x="-50%" y="-50%"><feGaussianBlur in="SourceGraphic" stdDeviation="20"/></filter><linearGradient id="a" x1="464.831" x2="733.727" y1="-232.918" y2="77.636" gradientUnits="userSpaceOnUse"><stop stop-color="red"/><stop offset=".34" stop-color="#F0F"/><stop offset=".673" stop-color="#0FF"/><stop offset="1" stop-color="#00F"/></linearGradient></defs></svg>