<svg xmlns="http://www.w3.org/2000/svg" viewBox="0 0 516 516"><path fill="url(#a)" filter="url(#b)" opacity=".08" d="M258 32C133.18 32 32 133.18 32 258c0 39.52 10.15 76.68 27.97 109-9.47-49.5 127.53-66 194.53-67s211.5 16.5 201.52 67A224.98 224.98 0 0 0 484 258c0-124.82-101.18-226-226-226Z" /><path fill="#2948A1" d="M131.21 363.35c-.92 3.47-4.63 2.6-5.06 0l-.09-.56a136.92 136.92 0 0 1-1.87-27.17c-1.91 1.2-3.57-.6-3.11-9.18.5-9.44 3.71-21.24 10.6-25.02.5-.27 1.16-.96 2-1.84 2.56-2.66 6.77-7.04 12.8-6.54 8 .67 11.28 7.78 10.78 9.35-.63 1.99-5.88 2.57-5.88 2.57s2.46 2.26 4.03 5.57c.63 1.33 1.22 3.5 1.86 5.9.97 3.58 2.06 7.64 3.63 10.01 1.12 1.71 1.8 2.5 2.2 2.98.53.63.6.7.6 1.58 0 1.55-1.33 1.9-5.5 1a12.63 12.63 0 0 1-6.32-4c-.7 8.67-2.42 28.76-3.62 32.77a1.56 1.56 0 0 1-1.79 1.05c-1.58-.32-2.05-3.2-2.54-6.14-.54-3.3-1.1-6.68-3.24-6.68-3 0-7 5-9.48 14.35Zm-66.8 7.56a2 2 0 0 1 .51.57l.56.95c2.45 3.25 5.9 6.47 10.36 9.62 9.83 6.94 24.18 13.28 42.09 18.63 35.8 10.7 85.37 17.34 140.21 17.34s104.42-6.64 140.21-17.34c17.91-5.35 32.26-11.69 42.09-18.63 4.2-2.96 7.5-5.98 9.9-9.03l.92-1.53a2 2 0 0 1 .69-.7c2.2-3.4 3.3-6.84 3.3-10.26 0-8.53-6.86-17.14-20.42-25.13-13.43-7.92-32.86-14.87-56.64-20.28a2 2 0 1 1 .88-3.9c24 5.45 43.87 12.52 57.8 20.73 13.8 8.15 22.37 17.79 22.37 28.58 0 5.2-2 10.13-5.59 14.75C413.8 441.6 341.13 486 258.1 486c-83.3 0-156.16-44.67-195.94-111.35-3.3-4.44-5.1-9.15-5.1-14.12 0-8.65 5.5-16.55 14.7-23.49 9.22-6.96 22.48-13.2 38.76-18.53a2 2 0 1 1 1.24 3.8c-16.07 5.25-28.86 11.34-37.6 17.93-8.76 6.61-13.11 13.48-13.11 20.29 0 3.46 1.12 6.94 3.38 10.38ZM74 385.64C114.44 443.88 181.82 482 258.09 482c76.22 0 143.54-38.06 184-96.23-10.28 7.11-24.85 13.44-42.6 18.74-36.25 10.84-86.23 17.51-141.35 17.51-55.12 0-105.1-6.67-141.36-17.5-17.85-5.34-32.49-11.72-42.8-18.88Zm100.91-77.15a2 2 0 1 0-.54-3.96c-2.71.37-5.4.77-8.04 1.18a2 2 0 0 0 .62 3.95c2.62-.4 5.28-.8 7.96-1.17Z"/><path fill="#2948A1" fill-rule="evenodd" d="M131.214 363.349c-.921 3.474-4.634 2.593-5.059 0l-.092-.554c-.564-3.348-2.258-13.415-1.869-27.179-1.915 1.207-3.575-.591-3.117-9.172.503-9.439 3.714-21.245 10.61-25.027.491-.269 1.155-.961 1.998-1.838 2.56-2.664 6.768-7.043 12.787-6.539 8.003.669 11.288 7.778 10.787 9.353-.632 1.987-5.876 2.565-5.876 2.565s2.454 2.264 4.031 5.576c.63 1.324 1.216 3.5 1.86 5.889.965 3.584 2.059 7.645 3.623 10.021 1.125 1.708 1.8 2.501 2.204 2.976.532.626.593.698.593 1.58 0 1.552-1.327 1.894-5.5 1-2.274-.487-5.174-2.447-6.316-4-.701 8.674-2.421 28.759-3.613 32.774-.328.934-1.207 1.164-1.793 1.046-1.581-.317-2.055-3.192-2.54-6.139-.543-3.296-1.101-6.681-3.238-6.681-3 0-7 5-9.48 14.349Zm68.277-59.705a2 2 0 0 1-1.801 2.181c-10.723 1.021-21.046 2.306-30.884 3.83a2 2 0 0 1-.612-3.953c9.919-1.536 20.32-2.831 31.116-3.859a2 2 0 0 1 2.181 1.801Zm117.038 0a2 2 0 0 1 2.181-1.801c40.299 3.837 75.154 11.401 99.995 21.396 12.413 4.994 22.433 10.638 29.385 16.811 6.946 6.169 11.024 13.053 11.024 20.48 0 4.898-1.769 9.558-4.976 13.94C414.379 441.251 341.462 486 258.09 486c-82.958 0-155.565-44.306-195.453-110.537-3.684-4.67-5.73-9.663-5.73-14.933 0-8.648 5.517-16.553 14.708-23.489 9.225-6.962 22.48-13.211 38.763-18.535a2 2 0 1 1 1.244 3.802c-16.073 5.255-28.865 11.336-37.598 17.926-8.767 6.616-13.118 13.483-13.118 20.296 0 3.408 1.09 6.831 3.275 10.227.298.167.557.413.743.728.335.57.673 1.138 1.013 1.704 2.398 2.992 5.653 5.957 9.77 8.865 9.827 6.942 24.176 13.276 42.088 18.628 35.798 10.696 85.372 17.341 140.215 17.341s104.417-6.645 140.215-17.341c17.912-5.352 32.262-11.686 42.089-18.628 4.54-3.207 8.032-6.483 10.482-9.79l.461-.779c.123-.208.277-.387.454-.532 2.27-3.46 3.403-6.949 3.403-10.423 0-5.85-3.199-11.734-9.68-17.489-6.476-5.751-16.034-11.187-28.222-16.091-24.362-9.802-58.805-17.309-98.881-21.125a2.001 2.001 0 0 1-1.802-2.181Zm125.685 81.962c-10.304 7.177-24.961 13.565-42.843 18.908-36.264 10.836-86.242 17.509-141.361 17.509-55.119 0-105.097-6.673-141.36-17.509-17.704-5.29-32.248-11.603-42.535-18.693C114.582 443.957 181.895 482 258.09 482c76.29 0 143.674-38.137 184.124-96.394Z" clip-rule="evenodd"/><path fill="url(#a)" d="M200 258c0-32.033 25.967-58 58-58 11.442 0 22.108 3.312 31.094 9.03a5 5 0 1 0 2.283-3.288C281.742 199.576 270.287 196 258 196c-34.242 0-62 27.758-62 62 0 34.242 27.758 62 62 62 34.242 0 62-27.758 62-62a61.747 61.747 0 0 0-13.951-39.185 2 2 0 1 0-3.098 2.529A57.753 57.753 0 0 1 316 258c0 32.033-25.967 58-58 58s-58-25.967-58-58Zm20 0c0-20.987 17.013-38 38-38s38 17.013 38 38c0 19.048-14.016 34.825-32.298 37.575a2.001 2.001 0 0 0 .595 3.956C284.507 296.491 300 279.057 300 258c0-23.196-18.804-42-42-42s-42 18.804-42 42c0 18.695 12.213 34.535 29.096 39.98A5.001 5.001 0 0 0 255 297a5 5 0 0 0-9.04-2.946C230.875 289.018 220 274.778 220 258Zm23.875-11.16c3.298-4.167 8.401-6.84 14.125-6.84 9.941 0 18 8.059 18 18s-8.059 18-18 18c-8.057 0-14.882-5.295-17.176-12.599a2 2 0 0 0-3.817 1.198C239.81 273.523 248.146 280 258 280c12.15 0 22-9.85 22-22s-9.85-22-22-22c-7.291 0-13.751 3.546-17.754 9.006a5 5 0 1 0 3.629 1.834Z"/><defs><linearGradient id="c" x1="443.81" x2="668.53" y1="-136.25" y2="128.1" gradientUnits="userSpaceOnUse"><stop stop-color="red"/><stop offset=".34" stop-color="#F0F"/><stop offset=".67" stop-color="#0FF"/><stop offset="1" stop-color="#00F"/></linearGradient><linearGradient id="a" x1="55" x2="446" y1="0" y2="0" gradientUnits="userSpaceOnUse"><stop stop-color="red"/><stop offset=".33" stop-color="#F0F"/><stop offset=".67" stop-color="#0FF"/><stop offset="1" stop-color="#00F"/></linearGradient><filter id="b" width="200%" height="200%" x="-50%" y="-50%"><feGaussianBlur in="SourceGraphic" stdDeviation="20"/></filter><linearGradient id="a" x1="351.167" x2="486.08" y1="20.332" y2="176.78" gradientUnits="userSpaceOnUse"><stop stop-color="red"/><stop offset=".34" stop-color="#F0F"/><stop offset=".673" stop-color="#0FF"/><stop offset="1" stop-color="#00F"/></linearGradient></defs></svg>