<svg xmlns="http://www.w3.org/2000/svg" viewBox="0 0 516 516"><path fill="url(#a)" filter="url(#b)" opacity=".08" d="M258 32C133.18 32 32 133.18 32 258c0 39.52 10.15 76.68 27.97 109-9.47-49.5 127.53-66 194.53-67s211.5 16.5 201.52 67A224.98 224.98 0 0 0 484 258c0-124.82-101.18-226-226-226Z" /><path fill="#2948A1" d="M131.21 363.35c-.92 3.47-4.63 2.6-5.06 0l-.09-.56a136.92 136.92 0 0 1-1.87-27.17c-1.91 1.2-3.57-.6-3.11-9.18.5-9.44 3.71-21.24 10.6-25.02.5-.27 1.16-.96 2-1.84 2.56-2.66 6.77-7.04 12.8-6.54 8 .67 11.28 7.78 10.78 9.35-.63 1.99-5.88 2.57-5.88 2.57s2.46 2.26 4.03 5.57c.63 1.33 1.22 3.5 1.86 5.9.97 3.58 2.06 7.64 3.63 10.01 1.12 1.71 1.8 2.5 2.2 2.98.53.63.6.7.6 1.58 0 1.55-1.33 1.9-5.5 1a12.63 12.63 0 0 1-6.32-4c-.7 8.67-2.42 28.76-3.62 32.77a1.56 1.56 0 0 1-1.79 1.05c-1.58-.32-2.05-3.2-2.54-6.14-.54-3.3-1.1-6.68-3.24-6.68-3 0-7 5-9.48 14.35Zm-66.8 7.56a2 2 0 0 1 .51.57l.56.95c2.45 3.25 5.9 6.47 10.36 9.62 9.83 6.94 24.18 13.28 42.09 18.63 35.8 10.7 85.37 17.34 140.21 17.34s104.42-6.64 140.21-17.34c17.91-5.35 32.26-11.69 42.09-18.63 4.2-2.96 7.5-5.98 9.9-9.03l.92-1.53a2 2 0 0 1 .69-.7c2.2-3.4 3.3-6.84 3.3-10.26 0-8.53-6.86-17.14-20.42-25.13-13.43-7.92-32.86-14.87-56.64-20.28a2 2 0 1 1 .88-3.9c24 5.45 43.87 12.52 57.8 20.73 13.8 8.15 22.37 17.79 22.37 28.58 0 5.2-2 10.13-5.59 14.75C413.8 441.6 341.13 486 258.1 486c-83.3 0-156.16-44.67-195.94-111.35-3.3-4.44-5.1-9.15-5.1-14.12 0-8.65 5.5-16.55 14.7-23.49 9.22-6.96 22.48-13.2 38.76-18.53a2 2 0 1 1 1.24 3.8c-16.07 5.25-28.86 11.34-37.6 17.93-8.76 6.61-13.11 13.48-13.11 20.29 0 3.46 1.12 6.94 3.38 10.38ZM74 385.64C114.44 443.88 181.82 482 258.09 482c76.22 0 143.54-38.06 184-96.23-10.28 7.11-24.85 13.44-42.6 18.74-36.25 10.84-86.23 17.51-141.35 17.51-55.12 0-105.1-6.67-141.36-17.5-17.85-5.34-32.49-11.72-42.8-18.88Zm100.91-77.15a2 2 0 1 0-.54-3.96c-2.71.37-5.4.77-8.04 1.18a2 2 0 0 0 .62 3.95c2.62-.4 5.28-.8 7.96-1.17Z"/><path fill="#2948A1" fill-rule="evenodd" d="M131.214 363.349c-.921 3.474-4.634 2.593-5.059 0l-.092-.554c-.564-3.348-2.258-13.415-1.869-27.179-1.915 1.207-3.575-.591-3.117-9.172.503-9.439 3.714-21.245 10.61-25.027.491-.269 1.155-.961 1.998-1.838 2.56-2.664 6.768-7.043 12.787-6.539 8.003.669 11.288 7.778 10.787 9.353-.632 1.987-5.876 2.565-5.876 2.565s2.454 2.264 4.031 5.576c.63 1.324 1.216 3.5 1.86 5.889.965 3.584 2.059 7.645 3.623 10.021 1.125 1.708 1.8 2.501 2.204 2.976.532.626.593.698.593 1.58 0 1.552-1.327 1.894-5.5 1-2.274-.487-5.174-2.447-6.316-4-.701 8.674-2.421 28.759-3.613 32.774-.328.934-1.207 1.164-1.793 1.046-1.581-.317-2.055-3.192-2.54-6.139-.543-3.296-1.101-6.681-3.238-6.681-3 0-7 5-9.48 14.349Zm152.288-61.832a1.999 1.999 0 0 1 2.08-1.916c32.378 1.336 62.301 4.992 87.832 10.398a2 2 0 1 1-.828 3.913c-25.282-5.353-54.98-8.986-87.168-10.315a1.999 1.999 0 0 1-1.916-2.08Zm-66.506.78a2 2 0 0 1-1.865 2.127c-17.04 1.121-33.252 2.896-48.325 5.231a2 2 0 1 1-.612-3.953c15.197-2.354 31.526-4.141 48.675-5.269a2 2 0 0 1 2.127 1.864Zm-104.095 17.488a2.001 2.001 0 0 1-1.279 2.523c-16.073 5.255-28.865 11.336-37.598 17.926-8.767 6.616-13.118 13.483-13.118 20.296 0 3.409 1.09 6.831 3.275 10.227.298.167.557.413.743.728.334.569.672 1.137 1.012 1.702 2.397 2.993 5.653 5.958 9.77 8.867 9.828 6.942 24.177 13.276 42.089 18.628 35.798 10.697 85.372 17.341 140.215 17.341s104.417-6.644 140.215-17.341c17.912-5.352 32.262-11.686 42.089-18.628 4.537-3.206 8.029-6.48 10.478-9.785l.464-.784a2 2 0 0 1 .456-.533c2.27-3.46 3.402-6.948 3.402-10.422 0-6.6-4.081-13.251-12.319-19.682-8.21-6.411-20.257-12.359-35.442-17.553a1.999 1.999 0 1 1 1.294-3.784c15.399 5.266 27.909 11.39 36.61 18.184 8.674 6.772 13.857 14.455 13.857 22.835 0 4.9-1.77 9.561-4.98 13.946C414.375 441.253 341.459 486 258.09 486c-82.959 0-155.566-44.307-195.454-110.539-3.683-4.669-5.73-9.662-5.73-14.931 0-8.648 5.518-16.553 14.709-23.489 9.225-6.962 22.48-13.211 38.763-18.535a2 2 0 0 1 2.523 1.279ZM74.115 385.82C114.582 443.956 181.894 482 258.09 482c76.289 0 143.672-38.136 184.123-96.393-10.304 7.177-24.961 13.564-42.842 18.907-36.264 10.836-86.242 17.509-141.361 17.509-55.119 0-105.097-6.673-141.36-17.509-17.704-5.29-32.248-11.604-42.535-18.694Z" clip-rule="evenodd"/><path fill="url(#a)" d="M244.17 95.76a5 5 0 1 1 .685-3.96c3.12.824 5.652 2.197 7.689 3.925 2.958 2.509 4.753 5.666 5.838 8.684 1.084 3.013 1.482 5.947 1.614 8.109.067 1.086.067 1.991.05 2.631-.008.321-.021.576-.032.756-.005.084-.017.231-.021.291l-.001.01a2.001 2.001 0 0 1-3.984-.365l.001-.005c.008-.137.032-.523.039-.792.014-.542.014-1.328-.044-2.281-.118-1.917-.469-4.451-1.386-7.001-.915-2.544-2.37-5.043-4.662-6.987-1.484-1.259-3.369-2.328-5.786-3.015Zm90.657 37.131a1.999 1.999 0 0 0-1.931-.517l-19.802 5.306a2 2 0 0 0-1.414 1.414l-5.306 19.801a2.001 2.001 0 0 0 .523 1.938l10.44 10.358a5 5 0 1 0 2.818-2.839l-9.617-9.542 4.707-17.566 17.57-4.708 12.863 12.863-4.708 17.57-5.986 1.599a2 2 0 0 0 1.032 3.864l7.103-1.897a2 2 0 0 0 1.416-1.415l5.306-19.801a2 2 0 0 0-.518-1.932l-14.496-14.496Zm-138.92 9.213a2 2 0 0 0-2.271-.608l-43.9 16.851a2 2 0 0 0-1.28 1.972l2.461 46.958a2 2 0 0 0 1.479 1.828l45.421 12.17a2 2 0 0 0 2.195-.843l2.263-3.484a5 5 0 1 0-3.396-2.116l-1.43 2.203-42.614-11.418-2.309-44.056 41.187-15.81 27.763 34.285-12.014 18.5a2 2 0 0 0 3.355 2.178l12.805-19.718a2 2 0 0 0-.123-2.348l-29.592-36.544ZM351.182 244.54a2 2 0 0 0-2.449-2.449l-30.115 8.069a1.999 1.999 0 0 0-.922 3.32l7.431 7.703a2 2 0 1 0 2.879-2.777l-5.075-5.261 23.491-6.294-6.276 23.422-1.351-1.35a5 5 0 1 0-9.729-1.628 5 5 0 0 0 7.02 4.575l3.681 3.681a1.998 1.998 0 0 0 3.346-.896l8.069-30.115ZM262 279c.532 0 1.044-.083 1.525-.237a2 2 0 0 0 .311.401l13.336 13.336-26.672 26.672-26.672-26.672 28.086-28.086a2 2 0 1 0-2.828-2.828l-29.5 29.5a2 2 0 0 0 0 2.828l29.5 29.5a2 2 0 0 0 2.828 0l29.5-29.5a2 2 0 0 0 0-2.828l-14.75-14.75a1.924 1.924 0 0 0-.166-.149A5 5 0 1 0 262 279Zm142.318-81.175a5 5 0 1 0-4.073-.652c-.571 1.164-1.196 1.759-1.75 2.077-1.117.643-2.634.601-4.931.161a87.425 87.425 0 0 1-1.301-.266h-.002a66.553 66.553 0 0 0-2.175-.43c-1.206-.209-2.52-.361-3.833-.256-1.337.108-2.703.487-3.965 1.357-1.259.868-2.287 2.136-3.092 3.821a2 2 0 1 0 3.608 1.726c.57-1.191 1.183-1.86 1.754-2.254.568-.391 1.221-.598 2.017-.663.82-.066 1.752.024 2.83.21.661.114 1.257.24 1.887.373.473.1.965.204 1.519.31 2.265.434 5.154.83 7.678-.621 1.678-.965 2.936-2.578 3.829-4.893Zm-13.653 117.372A5.002 5.002 0 0 0 381 317a5 5 0 0 0 9.492 2.198c2.576-.005 4.659-.203 6.341-.542 2.672-.54 4.517-1.477 5.662-2.765a5.103 5.103 0 0 0 1.309-3.926 5.514 5.514 0 0 0-.438-1.698 3.703 3.703 0 0 0-.084-.174l-.009-.019-.004-.008-.002-.004c-.001-.001-.002-.003-1.767.938l1.765-.941a2 2 0 0 0-3.549 1.844l.018.045.01.028c.03.086.064.212.077.356.023.253-.009.556-.316.902-.355.399-1.26 1.056-3.463 1.501-1.34.27-3.095.449-5.377.462ZM105 241a5 5 0 1 1-10.001-.001A5 5 0 0 1 105 241Zm201 120c2 0 5-.5 5-2a5 5 0 0 0-10 0c0 1.5 3 2 5 2Z"/><defs><linearGradient id="c" x1="443.81" x2="668.53" y1="-136.25" y2="128.1" gradientUnits="userSpaceOnUse"><stop stop-color="red"/><stop offset=".34" stop-color="#F0F"/><stop offset=".67" stop-color="#0FF"/><stop offset="1" stop-color="#00F"/></linearGradient><linearGradient id="a" x1="55" x2="446" y1="0" y2="0" gradientUnits="userSpaceOnUse"><stop stop-color="red"/><stop offset=".33" stop-color="#F0F"/><stop offset=".67" stop-color="#0FF"/><stop offset="1" stop-color="#00F"/></linearGradient><filter id="b" width="200%" height="200%" x="-50%" y="-50%"><feGaussianBlur in="SourceGraphic" stdDeviation="20"/></filter><linearGradient id="a" x1="486.671" x2="775.178" y1="-298.751" y2="84.827" gradientUnits="userSpaceOnUse"><stop stop-color="red"/><stop offset=".34" stop-color="#F0F"/><stop offset=".673" stop-color="#0FF"/><stop offset="1" stop-color="#00F"/></linearGradient></defs></svg>