<svg xmlns="http://www.w3.org/2000/svg" viewBox="0 0 516 516"><path fill="url(#a)" filter="url(#b)" opacity=".08" d="M258 32C133.18 32 32 133.18 32 258c0 39.52 10.15 76.68 27.97 109-9.47-49.5 127.53-66 194.53-67s211.5 16.5 201.52 67A224.98 224.98 0 0 0 484 258c0-124.82-101.18-226-226-226Z" /><path fill="#2948A1" d="M131.21 363.35c-.92 3.47-4.63 2.6-5.06 0l-.09-.56a136.92 136.92 0 0 1-1.87-27.17c-1.91 1.2-3.57-.6-3.11-9.18.5-9.44 3.71-21.24 10.6-25.02.5-.27 1.16-.96 2-1.84 2.56-2.66 6.77-7.04 12.8-6.54 8 .67 11.28 7.78 10.78 9.35-.63 1.99-5.88 2.57-5.88 2.57s2.46 2.26 4.03 5.57c.63 1.33 1.22 3.5 1.86 5.9.97 3.58 2.06 7.64 3.63 10.01 1.12 1.71 1.8 2.5 2.2 2.98.53.63.6.7.6 1.58 0 1.55-1.33 1.9-5.5 1a12.63 12.63 0 0 1-6.32-4c-.7 8.67-2.42 28.76-3.62 32.77a1.56 1.56 0 0 1-1.79 1.05c-1.58-.32-2.05-3.2-2.54-6.14-.54-3.3-1.1-6.68-3.24-6.68-3 0-7 5-9.48 14.35Zm-66.8 7.56a2 2 0 0 1 .51.57l.56.95c2.45 3.25 5.9 6.47 10.36 9.62 9.83 6.94 24.18 13.28 42.09 18.63 35.8 10.7 85.37 17.34 140.21 17.34s104.42-6.64 140.21-17.34c17.91-5.35 32.26-11.69 42.09-18.63 4.2-2.96 7.5-5.98 9.9-9.03l.92-1.53a2 2 0 0 1 .69-.7c2.2-3.4 3.3-6.84 3.3-10.26 0-8.53-6.86-17.14-20.42-25.13-13.43-7.92-32.86-14.87-56.64-20.28a2 2 0 1 1 .88-3.9c24 5.45 43.87 12.52 57.8 20.73 13.8 8.15 22.37 17.79 22.37 28.58 0 5.2-2 10.13-5.59 14.75C413.8 441.6 341.13 486 258.1 486c-83.3 0-156.16-44.67-195.94-111.35-3.3-4.44-5.1-9.15-5.1-14.12 0-8.65 5.5-16.55 14.7-23.49 9.22-6.96 22.48-13.2 38.76-18.53a2 2 0 1 1 1.24 3.8c-16.07 5.25-28.86 11.34-37.6 17.93-8.76 6.61-13.11 13.48-13.11 20.29 0 3.46 1.12 6.94 3.38 10.38ZM74 385.64C114.44 443.88 181.82 482 258.09 482c76.22 0 143.54-38.06 184-96.23-10.28 7.11-24.85 13.44-42.6 18.74-36.25 10.84-86.23 17.51-141.35 17.51-55.12 0-105.1-6.67-141.36-17.5-17.85-5.34-32.49-11.72-42.8-18.88Zm100.91-77.15a2 2 0 1 0-.54-3.96c-2.71.37-5.4.77-8.04 1.18a2 2 0 0 0 .62 3.95c2.62-.4 5.28-.8 7.96-1.17Z"/><path fill="#2948A1" fill-rule="evenodd" d="M126.155 363.349c.425 2.593 4.138 3.474 5.059 0 2.48-9.349 6.48-14.349 9.48-14.349 2.137 0 2.695 3.385 3.238 6.681.485 2.947.959 5.822 2.54 6.139.586.118 1.465-.112 1.793-1.046 1.192-4.015 2.912-24.1 3.613-32.774 1.142 1.553 4.042 3.513 6.316 4 4.173.894 5.5.552 5.5-1 0-.882-.061-.954-.593-1.58-.404-.475-1.079-1.268-2.204-2.976-1.564-2.376-2.658-6.437-3.623-10.021-.644-2.389-1.23-4.565-1.86-5.889-1.577-3.312-4.031-5.576-4.031-5.576s5.244-.578 5.876-2.565c.501-1.575-2.784-8.684-10.787-9.353-6.019-.504-10.227 3.875-12.787 6.539-.843.877-1.507 1.569-1.998 1.838-6.896 3.782-10.107 15.588-10.61 25.027-.458 8.581 1.202 10.379 3.117 9.172-.389 13.764 1.305 23.83 1.868 27.178l.093.555Zm50.416-57.113a2 2 0 0 1-1.707 2.255c-2.69.372-5.346.761-7.968 1.167a2 2 0 1 1-.612-3.953c2.643-.409 5.321-.801 8.032-1.176a2 2 0 0 1 2.255 1.707Zm200.069 6.487a2 2 0 0 1 2.393-1.507c23.988 5.456 43.863 12.524 57.793 20.738 13.806 8.141 22.374 17.783 22.374 28.576 0 5.11-1.925 9.961-5.402 14.509C413.965 441.504 341.225 486 258.09 486c-83.186 0-155.964-44.55-195.781-111.084C58.89 370.404 57 365.595 57 360.53c0-8.648 5.518-16.552 14.707-23.487 9.225-6.961 22.479-13.211 38.761-18.534a2 2 0 1 1 1.243 3.802c-16.071 5.254-28.862 11.335-37.594 17.925C65.35 346.851 61 353.718 61 360.53c0 3.441 1.112 6.897 3.339 10.325a2 2 0 0 1 .585.63c.235.399.47.797.708 1.195 2.43 3.165 5.819 6.3 10.168 9.373 9.827 6.941 24.176 13.274 42.088 18.626 35.797 10.696 85.37 17.341 140.212 17.341 54.842 0 104.415-6.645 140.212-17.341 17.912-5.352 32.261-11.685 42.088-18.626 4.297-3.036 7.656-6.133 10.08-9.259.26-.435.519-.872.776-1.309.16-.271.374-.491.62-.654 2.218-3.42 3.324-6.868 3.324-10.301 0-8.531-6.851-17.138-20.406-25.131-13.432-7.92-32.862-14.872-56.648-20.283a1.999 1.999 0 0 1-1.506-2.393Zm22.818 91.789c17.786-5.315 32.382-11.662 42.677-18.792C401.676 443.913 334.33 482 258.09 482c-76.251 0-143.606-38.099-184.063-96.307 10.297 7.141 24.907 13.498 42.715 18.819 36.263 10.835 86.24 17.508 141.358 17.508 55.118 0 105.095-6.673 141.358-17.508Z" clip-rule="evenodd"/><path fill="url(#a)" d="M206.652 104c-21.725 0-40.335 13.136-47.912 31.765a24.68 24.68 0 0 0-14.855-3.184c-11.365 1.104-20.547 10.034-21.683 21.215a23.42 23.42 0 0 0 .144 5.956C105.348 161.398 92 175.397 92 192.523v.003c.002 1.597.123 3.192.362 4.773a2 2 0 0 0 3.955-.598 28.276 28.276 0 0 1-.317-4.179c0-15.651 12.783-28.463 28.824-28.92l2.511-.071-.633-2.432a19.406 19.406 0 0 1-.521-6.892l.001-.005c.935-9.222 8.557-16.716 18.093-17.64l.01-.001c5.088-.517 10.184.862 14.266 3.852l2.182 1.598.888-2.555C167.977 121.184 185.718 108 206.652 108c21.48 0 39.595 13.884 45.497 32.892a5 5 0 1 0 3.947-.771C249.81 119.218 230.029 104 206.652 104ZM417 187a5 5 0 1 1-9.205-2.706 39.244 39.244 0 0 0-5.255-6.503l-.001-.001c-14.933-14.924-38.716-15.207-53.125-.799a2 2 0 1 1-2.828-2.828c16.046-16.047 42.363-15.61 58.78.797a43.329 43.329 0 0 1 5.759 7.116A5 5 0 0 1 417 187Zm-141-23c-48.601 0-88 39.399-88 88v5.416a5.002 5.002 0 0 1-2 9.584 5 5 0 0 1-2-9.584V252c0-50.81 41.19-92 92-92s92 41.19 92 92v110a2 2 0 1 1-4 0V252c0-48.601-39.399-88-88-88Zm-85 118a5.002 5.002 0 0 1-3 4.584V362a2 2 0 1 1-4 0v-75.416a5.002 5.002 0 0 1 2-9.584 5 5 0 0 1 5 5Zm17-30c0-37.555 30.445-68 68-68 35.71 0 64.991 27.526 67.782 62.518a5 5 0 1 0 3.998-.192C344.887 209.214 313.855 180 276 180c-39.764 0-72 32.235-72 72v110a2 2 0 1 0 4 0V252Zm133 19a5.002 5.002 0 0 0 3 4.584V362a2 2 0 1 0 4 0v-86.416a5.002 5.002 0 0 0-2-9.584 5 5 0 0 0-5 5Zm-60.331-70.793A5.002 5.002 0 0 0 271 202a5 5 0 0 0 9.488 2.207C304.893 206.47 324 227.004 324 252v110a2 2 0 1 0 4 0V252c0-27.145-20.8-49.432-47.331-51.793ZM228 252c0-17.595 9.467-32.983 23.593-41.341a5 5 0 1 0-1.593-3.702c-15.54 8.989-26 25.793-26 45.043v110a2 2 0 1 0 4 0V252Zm26.586 16.588a2 2 0 0 1 2.828 0l18.587 18.592 18.589-18.588a2 2 0 1 1 2.828 2.829l-18.589 18.588 18.576 18.582a2 2 0 1 1-2.829 2.828l-18.575-18.581-18.587 18.586a2 2 0 0 1-2.828-2.829l18.587-18.586-18.587-18.593a2 2 0 0 1 0-2.828Z"/><defs><linearGradient id="c" x1="443.81" x2="668.53" y1="-136.25" y2="128.1" gradientUnits="userSpaceOnUse"><stop stop-color="red"/><stop offset=".34" stop-color="#F0F"/><stop offset=".67" stop-color="#0FF"/><stop offset="1" stop-color="#00F"/></linearGradient><linearGradient id="a" x1="55" x2="446" y1="0" y2="0" gradientUnits="userSpaceOnUse"><stop stop-color="red"/><stop offset=".33" stop-color="#F0F"/><stop offset=".67" stop-color="#0FF"/><stop offset="1" stop-color="#00F"/></linearGradient><filter id="b" width="200%" height="200%" x="-50%" y="-50%"><feGaussianBlur in="SourceGraphic" stdDeviation="20"/></filter><linearGradient id="a" x1="498.687" x2="766.042" y1="-264.335" y2="123.201" gradientUnits="userSpaceOnUse"><stop stop-color="red"/><stop offset=".34" stop-color="#F0F"/><stop offset=".673" stop-color="#0FF"/><stop offset="1" stop-color="#00F"/></linearGradient></defs></svg>