<svg xmlns="http://www.w3.org/2000/svg" viewBox="0 0 516 516"><path fill="url(#a)" filter="url(#b)" opacity=".08" d="M258 32C133.18 32 32 133.18 32 258c0 39.52 10.15 76.68 27.97 109-9.47-49.5 127.53-66 194.53-67s211.5 16.5 201.52 67A224.98 224.98 0 0 0 484 258c0-124.82-101.18-226-226-226Z" /><path fill="#2948A1" d="M131.21 363.35c-.92 3.47-4.63 2.6-5.06 0l-.09-.56a136.92 136.92 0 0 1-1.87-27.17c-1.91 1.2-3.57-.6-3.11-9.18.5-9.44 3.71-21.24 10.6-25.02.5-.27 1.16-.96 2-1.84 2.56-2.66 6.77-7.04 12.8-6.54 8 .67 11.28 7.78 10.78 9.35-.63 1.99-5.88 2.57-5.88 2.57s2.46 2.26 4.03 5.57c.63 1.33 1.22 3.5 1.86 5.9.97 3.58 2.06 7.64 3.63 10.01 1.12 1.71 1.8 2.5 2.2 2.98.53.63.6.7.6 1.58 0 1.55-1.33 1.9-5.5 1a12.63 12.63 0 0 1-6.32-4c-.7 8.67-2.42 28.76-3.62 32.77a1.56 1.56 0 0 1-1.79 1.05c-1.58-.32-2.05-3.2-2.54-6.14-.54-3.3-1.1-6.68-3.24-6.68-3 0-7 5-9.48 14.35Zm-66.8 7.56a2 2 0 0 1 .51.57l.56.95c2.45 3.25 5.9 6.47 10.36 9.62 9.83 6.94 24.18 13.28 42.09 18.63 35.8 10.7 85.37 17.34 140.21 17.34s104.42-6.64 140.21-17.34c17.91-5.35 32.26-11.69 42.09-18.63 4.2-2.96 7.5-5.98 9.9-9.03l.92-1.53a2 2 0 0 1 .69-.7c2.2-3.4 3.3-6.84 3.3-10.26 0-8.53-6.86-17.14-20.42-25.13-13.43-7.92-32.86-14.87-56.64-20.28a2 2 0 1 1 .88-3.9c24 5.45 43.87 12.52 57.8 20.73 13.8 8.15 22.37 17.79 22.37 28.58 0 5.2-2 10.13-5.59 14.75C413.8 441.6 341.13 486 258.1 486c-83.3 0-156.16-44.67-195.94-111.35-3.3-4.44-5.1-9.15-5.1-14.12 0-8.65 5.5-16.55 14.7-23.49 9.22-6.96 22.48-13.2 38.76-18.53a2 2 0 1 1 1.24 3.8c-16.07 5.25-28.86 11.34-37.6 17.93-8.76 6.61-13.11 13.48-13.11 20.29 0 3.46 1.12 6.94 3.38 10.38ZM74 385.64C114.44 443.88 181.82 482 258.09 482c76.22 0 143.54-38.06 184-96.23-10.28 7.11-24.85 13.44-42.6 18.74-36.25 10.84-86.23 17.51-141.35 17.51-55.12 0-105.1-6.67-141.36-17.5-17.85-5.34-32.49-11.72-42.8-18.88Zm100.91-77.15a2 2 0 1 0-.54-3.96c-2.71.37-5.4.77-8.04 1.18a2 2 0 0 0 .62 3.95c2.62-.4 5.28-.8 7.96-1.17Z"/><path fill="#2948A1" fill-rule="evenodd" d="M131.214 363.349c-.921 3.474-4.634 2.593-5.059 0l-.093-.555c-.563-3.348-2.257-13.414-1.868-27.178-1.915 1.207-3.575-.591-3.117-9.172.503-9.439 3.714-21.245 10.61-25.027.491-.269 1.155-.961 1.998-1.838 2.56-2.664 6.768-7.043 12.787-6.539 8.003.669 11.288 7.778 10.787 9.353-.632 1.987-5.876 2.565-5.876 2.565s2.454 2.264 4.031 5.576c.63 1.324 1.216 3.5 1.86 5.889.965 3.584 2.059 7.645 3.623 10.021 1.125 1.708 1.8 2.501 2.204 2.976.532.626.593.698.593 1.58 0 1.552-1.327 1.894-5.5 1-2.274-.487-5.174-2.447-6.316-4-.701 8.674-2.421 28.759-3.613 32.774-.328.934-1.207 1.164-1.793 1.046-1.581-.317-2.055-3.192-2.54-6.139-.543-3.296-1.101-6.681-3.238-6.681-3 0-7 5-9.48 14.349Zm-67.032 7.408c.297.167.556.413.742.728.334.568.67 1.134 1.01 1.699 2.398 2.994 5.655 5.96 9.773 8.87 9.827 6.942 24.177 13.276 42.089 18.628 35.798 10.696 85.372 17.341 140.215 17.341s104.417-6.645 140.215-17.341c17.912-5.352 32.261-11.686 42.088-18.628 4.537-3.205 8.028-6.478 10.477-9.782.155-.262.311-.524.465-.787.124-.21.279-.388.457-.534 2.269-3.46 3.402-6.947 3.402-10.421 0-7.01-4.609-14.078-13.882-20.863-9.229-6.754-22.73-12.954-39.642-18.259a1.999 1.999 0 1 1 1.197-3.816c17.121 5.37 31.083 11.731 40.807 18.847 9.682 7.084 15.52 15.194 15.52 24.091 0 4.901-1.771 9.563-4.982 13.948C414.373 441.254 341.458 486 258.09 486c-82.96 0-155.569-44.309-195.456-110.542-3.682-4.668-5.727-9.66-5.727-14.928 0-8.648 5.518-16.553 14.708-23.489 9.226-6.962 22.48-13.211 38.764-18.535a2 2 0 0 1 1.243 3.802c-16.073 5.255-28.865 11.336-37.597 17.926-8.768 6.616-13.118 13.483-13.118 20.296 0 3.409 1.09 6.831 3.275 10.227Zm9.932 15.062C114.58 443.956 181.894 482 258.09 482c76.288 0 143.672-38.136 184.123-96.392-10.304 7.176-24.961 13.563-42.842 18.906-36.263 10.836-86.241 17.509-141.36 17.509-55.119 0-105.097-6.673-141.361-17.509-17.705-5.29-32.249-11.604-42.536-18.695Zm196.925-86.657a1.999 1.999 0 1 0-.077 3.999c11.073.213 21.897.697 32.399 1.431a2 2 0 0 0 .279-3.991 647.062 647.062 0 0 0-32.601-1.439Zm-51.92 5.012a2 2 0 1 0-.237-3.992c-3.375.2-6.72.426-10.032.676a2 2 0 0 0 .301 3.989c3.291-.249 6.614-.473 9.968-.673Zm110.108-1.232a2.001 2.001 0 0 0-.453 3.975c3.879.442 7.7.92 11.457 1.431a1.999 1.999 0 1 0 .539-3.963 533.22 533.22 0 0 0-11.543-1.443Zm-145.487 4.386a2 2 0 1 0-.479-3.971 513.326 513.326 0 0 0-16.063 2.191 2.001 2.001 0 0 0 .605 3.954c5.183-.792 10.5-1.518 15.937-2.174Zm181.133.959a2 2 0 1 0-.745 3.93c2.871.544 5.691 1.109 8.458 1.695a2 2 0 1 0 .829-3.913 406.682 406.682 0 0 0-8.542-1.712Z" clip-rule="evenodd"/><path fill="url(#a)" fill-rule="evenodd" d="M326.194 120.723a5 5 0 1 1 .65-3.966c3.108.796 5.636 2.114 7.673 3.781 2.965 2.427 4.769 5.492 5.86 8.459 1.089 2.959 1.487 5.869 1.62 8.079a33.087 33.087 0 0 1 .018 3.612L342 141a2 2 0 1 1-4 0c0-.073.006-.196.013-.363v-.001c.061-1.381.257-5.782-1.39-10.258-.909-2.471-2.355-4.874-4.64-6.744-1.481-1.213-3.367-2.244-5.789-2.911ZM259 201a5.003 5.003 0 0 1-3.683 4.825c-.892 2.315-2.15 3.928-3.828 4.893-2.524 1.451-5.413 1.055-7.678.621a77.53 77.53 0 0 1-1.519-.31c-.63-.133-1.226-.259-1.887-.373-1.078-.186-2.01-.276-2.83-.21-.796.065-1.449.272-2.017.663-.571.394-1.184 1.063-1.754 2.254a2 2 0 1 1-3.608-1.726c.805-1.685 1.833-2.953 3.092-3.821 1.262-.87 2.628-1.249 3.965-1.357 1.313-.105 2.627.047 3.833.256.683.118 1.453.279 2.175.43h.001c.467.098.914.191 1.302.266 2.297.44 3.814.482 4.931-.161.554-.318 1.179-.913 1.75-2.077A5 5 0 1 1 259 201Zm44 21a5 5 0 0 1-5.327 4.989c-1.56 4.009-2.296 7.871-2.375 11.718 5.091-.975 9.129-2.218 12.141-3.988 2.219-1.303 3.824-2.862 4.89-4.776 1.069-1.92 1.671-4.329 1.671-7.443 0-4.537-1.973-8.248-4.965-11.747-2.077-2.428-4.484-4.591-6.969-6.824a174.984 174.984 0 0 1-3.632-3.327c-3.562-3.389-6.949-7.193-8.204-11.94-1.109-4.196-.482-8.809 2.468-14.112a5 5 0 1 1 3.277 2.345c-2.373 4.428-2.637 7.871-1.877 10.745.948 3.588 3.593 6.734 7.093 10.064a167.7 167.7 0 0 0 3.301 3.023c2.589 2.328 5.335 4.798 7.583 7.426 3.336 3.901 5.925 8.504 5.925 14.347 0 3.636-.706 6.75-2.177 9.39-1.474 2.646-3.643 4.684-6.357 6.278-3.659 2.149-8.405 3.544-14.017 4.582.91 9.735 5.636 19.674 11.473 31.95l.507 1.067c9.66 20.324 21.567 46.278 21.567 86.233a2 2 0 0 1-4 0c0-39.045-11.591-64.341-21.179-84.517l-.444-.932-.406-.854c-5.546-11.647-10.43-21.905-11.468-32.292-1.375.206-2.793.397-4.251.58-9.553 1.194-18.343 5.728-24.119 12.557-5.742 6.788-8.567 15.901-6.178 26.519l.476 2.114C262.427 307.372 269 336.549 269 362a2 2 0 1 1-4 0c0-24.995-6.486-53.795-11.511-76.105l-.44-1.956c-2.674-11.882.502-22.268 7.026-29.98 6.488-7.671 16.23-12.637 26.677-13.943 1.585-.198 3.1-.406 4.544-.626.002-4.644.845-9.351 2.809-14.255A5 5 0 1 1 303 222Zm90.568 55.396a2 2 0 0 1 .036-2.828c10.176-9.922 17.904-13.451 23.317-14.353 1.566-.261 2.926-.3 4.078-.214a5 5 0 1 1-.907 3.961 13.778 13.778 0 0 0-2.513.198c-4.337.723-11.359 3.694-21.183 13.272a2 2 0 0 1-2.828-.036ZM191 344a4.993 4.993 0 0 0 4.133-2.186c1.738.695 3.465 1.863 4.977 3.617 2.735 3.174 4.888 8.417 4.886 16.569a2 2 0 1 0 4 .001c.002-8.849-2.343-15.105-5.857-19.181-2.151-2.497-4.696-4.119-7.279-5A5 5 0 1 0 191 344Zm-90.508-48.802a5 5 0 1 1 .173-4.001c2.282-.013 4.037-.192 5.377-.462 2.203-.445 3.108-1.102 3.463-1.501.307-.346.339-.649.316-.902a1.519 1.519 0 0 0-.077-.356c-.013-.037-.024-.062-.028-.073a2 2 0 0 1 3.551-1.841c.017.035.076.154.099.205a5.514 5.514 0 0 1 .438 1.698 5.103 5.103 0 0 1-1.309 3.926c-1.145 1.288-2.99 2.225-5.662 2.765-1.682.339-3.765.537-6.341.542Zm248.21-24.495A5.004 5.004 0 0 1 342 266a5 5 0 1 1 9.607 1.946c3.671 4.289 5.743 8.549 6.636 13.167 1.11 5.742.348 11.835-1.033 18.837-.493 2.497-1.07 5.135-1.686 7.948-2.85 13.029-6.528 29.843-6.528 54.102a2 2 0 1 1-4 0c0-24.728 3.78-41.989 6.635-55.028.609-2.781 1.175-5.369 1.654-7.797 1.369-6.935 1.983-12.374 1.03-17.303-.73-3.778-2.408-7.379-5.613-11.169ZM366.996 364a2 2 0 0 1-2-2c0-17.779 2.602-34.522 18.087-46.089a5 5 0 1 1 2.246 3.316c-13.793 10.406-16.333 25.4-16.333 42.773a2 2 0 0 1-2 2ZM202 310c0 .352-.036.695-.105 1.026 27.079 20.513 27.106 49.363 27.101 50.98a2 2 0 1 1-4-.011c.004-1.254.023-28.355-25.422-47.707A5 5 0 1 1 202 310Zm227.241-123.155a5 5 0 1 0-3.952-.643c-2.244 19.969-13.9 32.77-19.439 36.662a2 2 0 0 0 2.3 3.272c6.316-4.438 18.65-18.139 21.091-39.291Zm-306.269 82.176a5 5 0 1 1 2.002-3.507c10.004 3.919 16.724 2.713 21.007.572a18.241 18.241 0 0 0 5.434-4.169 18.664 18.664 0 0 0 1.714-2.234l.013-.019.001-.001c.046-.07.099-.149.146-.215l.003-.005c.023-.033.141-.205.294-.357a2 2 0 0 1 2.966 2.676 3.414 3.414 0 0 0-.085.126l-.015.022a22.772 22.772 0 0 1-2.054 2.672 22.242 22.242 0 0 1-6.629 5.082c-5.54 2.77-13.617 3.877-24.797-.643Zm33.612-7.305-.016.023.016-.023ZM191 363c0 1.5-3 2-5 2s-5-.5-5-2a5 5 0 0 1 10 0Zm117 2c2 0 5-.5 5-2a5 5 0 0 0-10 0c0 1.5 3 2 5 2Zm-16-2c0 1.5-3 2-5 2s-5-.5-5-2a5 5 0 0 1 10 0ZM165.905 186.07a5 5 0 1 0-3.914.828c4.968 25.367 20.5 45.9 36.587 67.168 2.688 3.553 5.391 7.126 8.063 10.747 19.303 26.152 37.374 55.112 38.359 97.234a2 2 0 0 0 3.999-.094c-1.014-43.379-19.693-73.168-39.14-99.516a1212.404 1212.404 0 0 0-8.167-10.895c-16.129-21.349-31.034-41.078-35.787-65.472Z" clip-rule="evenodd"/><defs><linearGradient id="c" x1="443.81" x2="668.53" y1="-136.25" y2="128.1" gradientUnits="userSpaceOnUse"><stop stop-color="red"/><stop offset=".34" stop-color="#F0F"/><stop offset=".67" stop-color="#0FF"/><stop offset="1" stop-color="#00F"/></linearGradient><linearGradient id="a" x1="55" x2="446" y1="0" y2="0" gradientUnits="userSpaceOnUse"><stop stop-color="red"/><stop offset=".33" stop-color="#F0F"/><stop offset=".67" stop-color="#0FF"/><stop offset="1" stop-color="#00F"/></linearGradient><filter id="b" width="200%" height="200%" x="-50%" y="-50%"><feGaussianBlur in="SourceGraphic" stdDeviation="20"/></filter><linearGradient id="a" x1="518.96" x2="769.903" y1="-244.001" y2="150.925" gradientUnits="userSpaceOnUse"><stop stop-color="red"/><stop offset=".34" stop-color="#F0F"/><stop offset=".673" stop-color="#0FF"/><stop offset="1" stop-color="#00F"/></linearGradient></defs></svg>