<svg xmlns="http://www.w3.org/2000/svg" viewBox="0 0 516 516"><path fill="url(#a)" filter="url(#b)" opacity=".08" d="M258 32C133.18 32 32 133.18 32 258c0 39.52 10.15 76.68 27.97 109-9.47-49.5 127.53-66 194.53-67s211.5 16.5 201.52 67A224.98 224.98 0 0 0 484 258c0-124.82-101.18-226-226-226Z" /><path fill="#2948A1" d="M131.21 363.35c-.92 3.47-4.63 2.6-5.06 0l-.09-.56a136.92 136.92 0 0 1-1.87-27.17c-1.91 1.2-3.57-.6-3.11-9.18.5-9.44 3.71-21.24 10.6-25.02.5-.27 1.16-.96 2-1.84 2.56-2.66 6.77-7.04 12.8-6.54 8 .67 11.28 7.78 10.78 9.35-.63 1.99-5.88 2.57-5.88 2.57s2.46 2.26 4.03 5.57c.63 1.33 1.22 3.5 1.86 5.9.97 3.58 2.06 7.64 3.63 10.01 1.12 1.71 1.8 2.5 2.2 2.98.53.63.6.7.6 1.58 0 1.55-1.33 1.9-5.5 1a12.63 12.63 0 0 1-6.32-4c-.7 8.67-2.42 28.76-3.62 32.77a1.56 1.56 0 0 1-1.79 1.05c-1.58-.32-2.05-3.2-2.54-6.14-.54-3.3-1.1-6.68-3.24-6.68-3 0-7 5-9.48 14.35Zm-66.8 7.56a2 2 0 0 1 .51.57l.56.95c2.45 3.25 5.9 6.47 10.36 9.62 9.83 6.94 24.18 13.28 42.09 18.63 35.8 10.7 85.37 17.34 140.21 17.34s104.42-6.64 140.21-17.34c17.91-5.35 32.26-11.69 42.09-18.63 4.2-2.96 7.5-5.98 9.9-9.03l.92-1.53a2 2 0 0 1 .69-.7c2.2-3.4 3.3-6.84 3.3-10.26 0-8.53-6.86-17.14-20.42-25.13-13.43-7.92-32.86-14.87-56.64-20.28a2 2 0 1 1 .88-3.9c24 5.45 43.87 12.52 57.8 20.73 13.8 8.15 22.37 17.79 22.37 28.58 0 5.2-2 10.13-5.59 14.75C413.8 441.6 341.13 486 258.1 486c-83.3 0-156.16-44.67-195.94-111.35-3.3-4.44-5.1-9.15-5.1-14.12 0-8.65 5.5-16.55 14.7-23.49 9.22-6.96 22.48-13.2 38.76-18.53a2 2 0 1 1 1.24 3.8c-16.07 5.25-28.86 11.34-37.6 17.93-8.76 6.61-13.11 13.48-13.11 20.29 0 3.46 1.12 6.94 3.38 10.38ZM74 385.64C114.44 443.88 181.82 482 258.09 482c76.22 0 143.54-38.06 184-96.23-10.28 7.11-24.85 13.44-42.6 18.74-36.25 10.84-86.23 17.51-141.35 17.51-55.12 0-105.1-6.67-141.36-17.5-17.85-5.34-32.49-11.72-42.8-18.88Zm100.91-77.15a2 2 0 1 0-.54-3.96c-2.71.37-5.4.77-8.04 1.18a2 2 0 0 0 .62 3.95c2.62-.4 5.28-.8 7.96-1.17Z"/><path fill="#2948A1" fill-rule="evenodd" d="M131.214 363.349c-.921 3.474-4.634 2.593-5.059 0l-.092-.554c-.564-3.348-2.258-13.415-1.869-27.179-1.915 1.207-3.575-.591-3.117-9.172.503-9.439 3.714-21.245 10.61-25.027.491-.269 1.155-.961 1.998-1.838 2.56-2.664 6.768-7.043 12.787-6.539 8.003.669 11.288 7.778 10.787 9.353-.632 1.987-5.876 2.565-5.876 2.565s2.454 2.264 4.031 5.576c.63 1.324 1.216 3.5 1.86 5.889.965 3.584 2.059 7.645 3.623 10.021 1.125 1.708 1.8 2.501 2.204 2.976.532.626.593.698.593 1.58 0 1.552-1.327 1.894-5.5 1-2.274-.487-5.174-2.447-6.316-4-.701 8.674-2.421 28.759-3.613 32.774-.328.934-1.207 1.164-1.793 1.046-1.581-.317-2.055-3.192-2.54-6.139-.543-3.296-1.101-6.681-3.238-6.681-3 0-7 5-9.48 14.349Zm45.357-57.113a2 2 0 0 1-1.707 2.255c-2.69.372-5.346.761-7.968 1.167a2 2 0 1 1-.612-3.953c2.643-.409 5.321-.801 8.032-1.176a2 2 0 0 1 2.255 1.707Zm200.069 6.487a2 2 0 0 1 2.393-1.507c23.988 5.456 43.863 12.524 57.793 20.738 13.806 8.141 22.374 17.783 22.374 28.576 0 5.111-1.926 9.962-5.403 14.51C413.963 441.505 341.224 486 258.09 486c-83.186 0-155.965-44.551-195.782-111.085C58.89 370.403 57 365.594 57 360.53c0-8.648 5.518-16.552 14.707-23.487 9.225-6.961 22.479-13.211 38.761-18.534a2 2 0 1 1 1.243 3.802c-16.071 5.254-28.862 11.335-37.594 17.925C65.35 346.851 61 353.718 61 360.53c0 3.441 1.112 6.897 3.34 10.325.23.16.431.372.584.63.234.399.47.796.707 1.193 2.43 3.166 5.82 6.301 10.17 9.375 9.826 6.941 24.175 13.274 42.087 18.626 35.797 10.696 85.37 17.341 140.212 17.341 54.842 0 104.415-6.645 140.212-17.341 17.912-5.352 32.261-11.685 42.088-18.626 4.296-3.036 7.655-6.132 10.079-9.258.26-.436.519-.872.777-1.31.16-.272.374-.491.621-.654 2.217-3.42 3.323-6.868 3.323-10.301 0-8.531-6.851-17.138-20.406-25.131-13.432-7.92-32.862-14.872-56.648-20.283a1.999 1.999 0 0 1-1.506-2.393Zm65.495 72.997c-10.295 7.13-24.891 13.478-42.677 18.792-36.263 10.835-86.24 17.508-141.358 17.508-55.118 0-105.095-6.673-141.358-17.508-17.808-5.321-32.419-11.678-42.716-18.819C114.484 443.901 181.838 482 258.09 482c76.239 0 143.585-38.087 184.045-96.28Z" clip-rule="evenodd"/><path fill="url(#a)" d="M158.74 135.765C166.317 117.136 184.927 104 206.652 104c23.377 0 43.158 15.218 49.444 36.121a5.001 5.001 0 1 1-3.947.771C246.247 121.884 228.132 108 206.652 108c-20.934 0-38.675 13.184-45.031 31.456l-.888 2.555-2.182-1.598c-4.082-2.99-9.178-4.369-14.266-3.852l-.01.001c-9.536.924-17.158 8.418-18.093 17.64l-.001.005c-.24 2.31-.064 4.642.521 6.892l.633 2.432-2.511.071c-16.041.457-28.823 13.269-28.824 28.92a28.25 28.25 0 0 0 .317 4.179 2 2 0 0 1-3.955.598 32.293 32.293 0 0 1-.362-4.773v-.003c0-17.126 13.348-31.125 30.346-32.771a23.42 23.42 0 0 1-.144-5.956c1.136-11.181 10.318-20.111 21.683-21.215a24.68 24.68 0 0 1 14.855 3.184ZM412 192a5 5 0 1 0-.875-9.924 43.329 43.329 0 0 0-5.759-7.116c-16.417-16.407-42.734-16.844-58.78-.797a2 2 0 1 0 2.828 2.828c14.409-14.408 38.192-14.125 53.125.799l.001.001a39.244 39.244 0 0 1 5.255 6.503A5 5 0 0 0 412 192Zm-136-28c-48.601 0-88 39.399-88 88v5.416a5.002 5.002 0 0 1-2 9.584 5 5 0 0 1-2-9.584V252c0-50.81 41.19-92 92-92s92 41.19 92 92v110a2 2 0 1 1-4 0V252c0-48.601-39.399-88-88-88Zm-88 122.584a5.002 5.002 0 0 0-2-9.584 5 5 0 0 0-2 9.584V362a2 2 0 1 0 4 0v-75.416ZM208 252c0-37.555 30.445-68 68-68 35.71 0 64.991 27.526 67.782 62.518a5 5 0 1 0 3.998-.192C344.887 209.214 313.855 180 276 180c-39.764 0-72 32.235-72 72v110a2 2 0 1 0 4 0V252Zm136 23.584a5.002 5.002 0 0 1 2-9.584 5 5 0 0 1 2 9.584V362a2 2 0 1 1-4 0v-86.416Zm-63.331-75.377A5.002 5.002 0 0 0 271 202a5 5 0 0 0 9.488 2.207C304.893 206.47 324 227.004 324 252v110a2 2 0 1 0 4 0V252c0-27.145-20.8-49.432-47.331-51.793Zm-29.076 10.452C237.467 219.017 228 234.405 228 252v110a2 2 0 1 1-4 0V252c0-19.25 10.46-36.054 26-45.043a5 5 0 1 1 1.593 3.702ZM276 224c-15.464 0-28 12.536-28 28v65.416a5.002 5.002 0 0 1-2 9.584 5 5 0 0 1-2-9.584V252c0-17.673 14.327-32 32-32 17.673 0 32 14.327 32 32v110a2 2 0 1 1-4 0V252c0-15.464-12.536-28-28-28Zm-28 122.584a5.002 5.002 0 0 0-2-9.584 5 5 0 0 0-2 9.584V362a2 2 0 1 0 4 0v-15.416ZM268 252a8 8 0 0 1 16 0v5.416a5.002 5.002 0 0 0 2 9.584 5 5 0 0 0 2-9.584V252c0-6.627-5.373-12-12-12s-12 5.373-12 12v110a2 2 0 1 0 4 0V252Zm16 34.584a5.002 5.002 0 0 1 2-9.584 5 5 0 0 1 2 9.584V362a2 2 0 1 1-4 0v-75.416Z"/><defs><linearGradient id="c" x1="443.81" x2="668.53" y1="-136.25" y2="128.1" gradientUnits="userSpaceOnUse"><stop stop-color="red"/><stop offset=".34" stop-color="#F0F"/><stop offset=".67" stop-color="#0FF"/><stop offset="1" stop-color="#00F"/></linearGradient><linearGradient id="a" x1="55" x2="446" y1="0" y2="0" gradientUnits="userSpaceOnUse"><stop stop-color="red"/><stop offset=".33" stop-color="#F0F"/><stop offset=".67" stop-color="#0FF"/><stop offset="1" stop-color="#00F"/></linearGradient><filter id="b" width="200%" height="200%" x="-50%" y="-50%"><feGaussianBlur in="SourceGraphic" stdDeviation="20"/></filter><linearGradient id="a" x1="498.687" x2="766.042" y1="-264.335" y2="123.201" gradientUnits="userSpaceOnUse"><stop stop-color="red"/><stop offset=".34" stop-color="#F0F"/><stop offset=".67" stop-color="#0FF"/><stop offset="1" stop-color="#00F"/></linearGradient></defs></svg>