<svg xmlns="http://www.w3.org/2000/svg" viewBox="0 0 516 516"><path fill="url(#a)" filter="url(#b)" opacity=".08" d="M258 32C133.18 32 32 133.18 32 258c0 39.52 10.15 76.68 27.97 109-9.47-49.5 127.53-66 194.53-67s211.5 16.5 201.52 67A224.98 224.98 0 0 0 484 258c0-124.82-101.18-226-226-226Z" /><path fill="#2948A1" d="M131.21 363.35c-.92 3.47-4.63 2.6-5.06 0l-.09-.56a136.92 136.92 0 0 1-1.87-27.17c-1.91 1.2-3.57-.6-3.11-9.18.5-9.44 3.71-21.24 10.6-25.02.5-.27 1.16-.96 2-1.84 2.56-2.66 6.77-7.04 12.8-6.54 8 .67 11.28 7.78 10.78 9.35-.63 1.99-5.88 2.57-5.88 2.57s2.46 2.26 4.03 5.57c.63 1.33 1.22 3.5 1.86 5.9.97 3.58 2.06 7.64 3.63 10.01 1.12 1.71 1.8 2.5 2.2 2.98.53.63.6.7.6 1.58 0 1.55-1.33 1.9-5.5 1a12.63 12.63 0 0 1-6.32-4c-.7 8.67-2.42 28.76-3.62 32.77a1.56 1.56 0 0 1-1.79 1.05c-1.58-.32-2.05-3.2-2.54-6.14-.54-3.3-1.1-6.68-3.24-6.68-3 0-7 5-9.48 14.35Zm-66.8 7.56a2 2 0 0 1 .51.57l.56.95c2.45 3.25 5.9 6.47 10.36 9.62 9.83 6.94 24.18 13.28 42.09 18.63 35.8 10.7 85.37 17.34 140.21 17.34s104.42-6.64 140.21-17.34c17.91-5.35 32.26-11.69 42.09-18.63 4.2-2.96 7.5-5.98 9.9-9.03l.92-1.53a2 2 0 0 1 .69-.7c2.2-3.4 3.3-6.84 3.3-10.26 0-8.53-6.86-17.14-20.42-25.13-13.43-7.92-32.86-14.87-56.64-20.28a2 2 0 1 1 .88-3.9c24 5.45 43.87 12.52 57.8 20.73 13.8 8.15 22.37 17.79 22.37 28.58 0 5.2-2 10.13-5.59 14.75C413.8 441.6 341.13 486 258.1 486c-83.3 0-156.16-44.67-195.94-111.35-3.3-4.44-5.1-9.15-5.1-14.12 0-8.65 5.5-16.55 14.7-23.49 9.22-6.96 22.48-13.2 38.76-18.53a2 2 0 1 1 1.24 3.8c-16.07 5.25-28.86 11.34-37.6 17.93-8.76 6.61-13.11 13.48-13.11 20.29 0 3.46 1.12 6.94 3.38 10.38ZM74 385.64C114.44 443.88 181.82 482 258.09 482c76.22 0 143.54-38.06 184-96.23-10.28 7.11-24.85 13.44-42.6 18.74-36.25 10.84-86.23 17.51-141.35 17.51-55.12 0-105.1-6.67-141.36-17.5-17.85-5.34-32.49-11.72-42.8-18.88Zm100.91-77.15a2 2 0 1 0-.54-3.96c-2.71.37-5.4.77-8.04 1.18a2 2 0 0 0 .62 3.95c2.62-.4 5.28-.8 7.96-1.17Z"/><path fill="#2948A1" d="M126.155 363.349c.425 2.593 4.138 3.474 5.059 0 2.48-9.349 6.48-14.349 9.48-14.349 2.137 0 2.695 3.385 3.238 6.681.485 2.947.959 5.822 2.54 6.139.586.118 1.465-.112 1.793-1.046 1.192-4.015 2.912-24.1 3.613-32.774 1.142 1.553 4.042 3.513 6.316 4 4.173.894 5.5.552 5.5-1 0-.882-.061-.954-.593-1.58-.404-.475-1.079-1.268-2.204-2.976-1.564-2.376-2.658-6.437-3.623-10.021-.644-2.389-1.23-4.565-1.86-5.889-1.577-3.312-4.031-5.576-4.031-5.576s5.244-.578 5.876-2.565c.501-1.575-2.784-8.684-10.787-9.353-6.019-.504-10.227 3.875-12.787 6.539-.843.877-1.507 1.569-1.998 1.838-6.896 3.782-10.107 15.588-10.61 25.027-.458 8.581 1.202 10.379 3.117 9.172-.389 13.764 1.305 23.83 1.868 27.178l.093.555ZM257 301.034a2 2 0 0 1 2.003-1.997c17.688.026 34.835.739 51.158 2.055a2 2 0 1 1-.322 3.987c-16.215-1.308-33.257-2.016-50.842-2.042a2 2 0 0 1-1.997-2.003Zm-40.504 1.294a2.002 2.002 0 0 1-1.863 2.129c-16.858 1.123-32.901 2.886-47.827 5.198a2 2 0 0 1-.612-3.953c15.049-2.331 31.208-4.106 48.173-5.236a2 2 0 0 1 2.129 1.862Zm140.034 6.486a2 2 0 0 1 2.315-1.625c29.599 5.18 54.468 12.592 71.994 21.531 8.761 4.469 15.781 9.367 20.634 14.639 4.864 5.284 7.641 11.048 7.641 17.171 0 4.9-1.765 9.563-4.987 13.957C414.366 441.258 341.454 486 258.09 486c-82.959 0-155.567-44.308-195.455-110.54-3.682-4.669-5.729-9.662-5.729-14.93 0-8.649 5.518-16.554 14.709-23.489 9.225-6.962 22.48-13.212 38.763-18.536a2 2 0 0 1 1.244 3.802c-16.073 5.255-28.865 11.337-37.598 17.927-8.767 6.616-13.118 13.483-13.118 20.296 0 3.408 1.09 6.831 3.276 10.227.297.167.556.413.742.728.334.569.671 1.136 1.011 1.701 2.398 2.993 5.654 5.959 9.772 8.868 9.827 6.942 24.176 13.275 42.088 18.628 35.798 10.696 85.372 17.341 140.215 17.341 23.249 0 45.559-1.194 66.28-3.387a2 2 0 1 1 .42 3.978c-20.865 2.208-43.316 3.409-66.7 3.409-55.119 0-105.097-6.673-141.36-17.509-17.705-5.29-32.249-11.604-42.536-18.694C114.581 443.956 181.894 482 258.09 482c76.29 0 143.674-38.138 184.125-96.395a87.858 87.858 0 0 1-6.354 4.015c-14.468 8.333-35.093 15.466-59.934 20.9a2 2 0 0 1-.854-3.908c24.639-5.39 44.821-12.412 58.791-20.458 7.765-4.473 13.421-9.147 16.937-13.899l.455-.77c.122-.207.276-.384.451-.529 2.268-3.456 3.407-6.947 3.407-10.426 0-4.831-2.175-9.673-6.584-14.462-4.418-4.799-10.99-9.439-19.509-13.784-17.032-8.689-41.47-16.01-70.866-21.155a2 2 0 0 1-1.625-2.315Z"/><path fill="url(#a)" fill-rule="evenodd" d="M266.283 213.455a5.002 5.002 0 0 1-4.084 3.651l-.367 1.367a6 6 0 0 1-7.348 4.243l-21.25-5.694a2 2 0 0 0-2.45 1.414l-13.458 50.228a2 2 0 0 0 1.414 2.45l11.591 3.105a6 6 0 0 1 4.242 7.349l-13.458 50.228a6.001 6.001 0 0 1-7.349 4.243l-11.591-3.106a2 2 0 0 0-2.449 1.414l-7.548 28.17a2 2 0 0 1-3.864-1.035l7.548-28.17a6 6 0 0 1 7.349-4.243l11.591 3.106a2 2 0 0 0 2.449-1.414l13.459-50.228a2.001 2.001 0 0 0-1.414-2.45l-11.592-3.106a6 6 0 0 1-4.242-7.348l13.458-50.228a6 6 0 0 1 7.349-4.243l21.25 5.694a2 2 0 0 0 2.45-1.414l.366-1.368a5 5 0 1 1 7.948-2.615Zm35.519 14.262a5.002 5.002 0 0 0 .549-9.775 5 5 0 0 0-4.413 8.739l-5.802 21.653c-.579 2.161.718 4.26 2.693 4.923 17.057 5.721 30.749 26.751 25.298 47.094-4.095 15.282-12.732 20.967-17.07 22.941-1.277.581-2.12 1.71-2.501 2.865-.382 1.157-.383 2.595.38 3.839 3.063 4.998 8.589 16.717 4.632 31.486a2 2 0 0 0 3.864 1.035c4.359-16.266-1.74-29.152-5.086-34.611-.023-.039-.086-.209.008-.495.095-.287.268-.437.36-.479 5.265-2.395 14.829-8.948 19.277-25.546 6.049-22.575-9.024-45.593-27.89-51.922a.165.165 0 0 1-.093-.073.055.055 0 0 1-.008-.021v-.001l5.802-21.652Zm21.25 5.695a5.002 5.002 0 0 0 .549-9.776 5.002 5.002 0 0 0-4.413 8.74l-.366 1.368c-.865 3.23 1.054 6.287 3.522 7.724 10.871 6.328 31.366 30.145 21.931 65.353-3.13 11.683-9.181 18.842-12.877 22.326-2.367 2.23-2.975 5.967-1.729 8.84 1.812 4.178 3.932 12.178.899 23.495a2 2 0 0 0 3.864 1.035c3.297-12.304 1.028-21.232-1.093-26.121-.624-1.439-.252-3.345.802-4.338 4.099-3.863 10.632-11.639 13.998-24.201 9.991-37.287-11.673-62.797-23.782-69.846-1.35-.786-1.949-2.194-1.671-3.232l.366-1.367Zm-37.451-14.781a5 5 0 0 1-4.084 3.651l-6.06 22.618a4 4 0 0 1-4.899 2.828l-27.046-7.247a2 2 0 1 1 1.035-3.863l27.046 7.246 6.06-22.617a5 5 0 1 1 7.948-2.616Zm-42.837 42.355a5 5 0 1 1 1.035-3.863l12.956 3.471a3.999 3.999 0 0 1 2.826 4.905l-26.15 97.021a1.999 1.999 0 1 1-3.862-1.041l26.15-97.021-12.955-3.472ZM384 346.999c2 0 5-.5 5-1.999a5 5 0 1 0-10 0c0 1.499 3 1.999 5 1.999ZM215 373c0 1.499-3 1.999-5 1.999s-5-.5-5-1.999a5 5 0 1 1 10 0Zm62.103-15.907a2 2 0 0 0-1.366.058l-31.5 13a2 2 0 0 0-.224 3.588c10.345 5.873 20.535 7.649 28.801 7.247 4.129-.201 7.802-.945 10.79-2.012 2.947-1.052 5.385-2.473 6.883-4.136 1.422-1.581 2.152-3.411 2.01-5.366-.138-1.902-1.08-3.631-2.42-5.122-2.649-2.947-7.292-5.461-12.974-7.257Zm-27.363 15.114 26.843-11.078c5.033 1.673 8.646 3.811 10.519 5.895.964 1.072 1.352 1.999 1.406 2.738.049.685-.167 1.48-.995 2.4-.879.977-2.63 2.108-5.253 3.045-2.582.921-5.863 1.6-9.64 1.784-6.564.319-14.556-.863-22.88-4.784Zm92.452 23.055c7.325.707 14.465 2.91 19.179 7.347 2.366 2.227 3.647 4.61 3.691 7.077.044 2.463-1.155 4.55-2.773 6.168-3.169 3.17-8.526 5.164-13.055 5.697a2 2 0 0 1-1.415-.372l-28-20.5a2 2 0 0 1 .642-3.54c6.485-1.816 14.358-2.589 21.731-1.877Zm-16.499 4.76 23.837 17.452c3.759-.588 7.749-2.266 9.931-4.448 1.132-1.132 1.62-2.233 1.602-3.269-.019-1.034-.55-2.463-2.434-4.236-3.786-3.563-9.896-5.609-16.821-6.278-5.362-.517-11.028-.189-16.115.779Z" clip-rule="evenodd"/><defs><linearGradient id="c" x1="443.81" x2="668.53" y1="-136.25" y2="128.1" gradientUnits="userSpaceOnUse"><stop stop-color="red"/><stop offset=".34" stop-color="#F0F"/><stop offset=".67" stop-color="#0FF"/><stop offset="1" stop-color="#00F"/></linearGradient><linearGradient id="a" x1="55" x2="446" y1="0" y2="0" gradientUnits="userSpaceOnUse"><stop stop-color="red"/><stop offset=".33" stop-color="#F0F"/><stop offset=".67" stop-color="#0FF"/><stop offset="1" stop-color="#00F"/></linearGradient><filter id="b" width="200%" height="200%" x="-50%" y="-50%"><feGaussianBlur in="SourceGraphic" stdDeviation="20"/></filter><linearGradient id="a" x1="439.459" x2="674.5" y1="-96.584" y2="158.621" gradientUnits="userSpaceOnUse"><stop stop-color="red"/><stop offset=".34" stop-color="#F0F"/><stop offset=".67" stop-color="#0FF"/><stop offset="1" stop-color="#00F"/></linearGradient></defs></svg>