<svg xmlns="http://www.w3.org/2000/svg" viewBox="0 0 516 516"><path fill="url(#a)" filter="url(#b)" opacity=".08" d="M258 32C133.18 32 32 133.18 32 258c0 39.52 10.15 76.68 27.97 109-9.47-49.5 127.53-66 194.53-67s211.5 16.5 201.52 67A224.98 224.98 0 0 0 484 258c0-124.82-101.18-226-226-226Z" /><path fill="#2948A1" d="M131.21 363.35c-.92 3.47-4.63 2.6-5.06 0l-.09-.56a136.92 136.92 0 0 1-1.87-27.17c-1.91 1.2-3.57-.6-3.11-9.18.5-9.44 3.71-21.24 10.6-25.02.5-.27 1.16-.96 2-1.84 2.56-2.66 6.77-7.04 12.8-6.54 8 .67 11.28 7.78 10.78 9.35-.63 1.99-5.88 2.57-5.88 2.57s2.46 2.26 4.03 5.57c.63 1.33 1.22 3.5 1.86 5.9.97 3.58 2.06 7.64 3.63 10.01 1.12 1.71 1.8 2.5 2.2 2.98.53.63.6.7.6 1.58 0 1.55-1.33 1.9-5.5 1a12.63 12.63 0 0 1-6.32-4c-.7 8.67-2.42 28.76-3.62 32.77a1.56 1.56 0 0 1-1.79 1.05c-1.58-.32-2.05-3.2-2.54-6.14-.54-3.3-1.1-6.68-3.24-6.68-3 0-7 5-9.48 14.35Zm-66.8 7.56a2 2 0 0 1 .51.57l.56.95c2.45 3.25 5.9 6.47 10.36 9.62 9.83 6.94 24.18 13.28 42.09 18.63 35.8 10.7 85.37 17.34 140.21 17.34s104.42-6.64 140.21-17.34c17.91-5.35 32.26-11.69 42.09-18.63 4.2-2.96 7.5-5.98 9.9-9.03l.92-1.53a2 2 0 0 1 .69-.7c2.2-3.4 3.3-6.84 3.3-10.26 0-8.53-6.86-17.14-20.42-25.13-13.43-7.92-32.86-14.87-56.64-20.28a2 2 0 1 1 .88-3.9c24 5.45 43.87 12.52 57.8 20.73 13.8 8.15 22.37 17.79 22.37 28.58 0 5.2-2 10.13-5.59 14.75C413.8 441.6 341.13 486 258.1 486c-83.3 0-156.16-44.67-195.94-111.35-3.3-4.44-5.1-9.15-5.1-14.12 0-8.65 5.5-16.55 14.7-23.49 9.22-6.96 22.48-13.2 38.76-18.53a2 2 0 1 1 1.24 3.8c-16.07 5.25-28.86 11.34-37.6 17.93-8.76 6.61-13.11 13.48-13.11 20.29 0 3.46 1.12 6.94 3.38 10.38ZM74 385.64C114.44 443.88 181.82 482 258.09 482c76.22 0 143.54-38.06 184-96.23-10.28 7.11-24.85 13.44-42.6 18.74-36.25 10.84-86.23 17.51-141.35 17.51-55.12 0-105.1-6.67-141.36-17.5-17.85-5.34-32.49-11.72-42.8-18.88Zm100.91-77.15a2 2 0 1 0-.54-3.96c-2.71.37-5.4.77-8.04 1.18a2 2 0 0 0 .62 3.95c2.62-.4 5.28-.8 7.96-1.17Z"/><path fill="#2948A1" fill-rule="evenodd" d="M253.55 283.924c-3.643 1.781-7.98 3.902-11.933 2.255-4.195-1.748-3.546-8.631-3.066-13.73.047-.49.091-.963.13-1.413.441-5.144 0-5.036 0-5.036s-3.286-2.514-3.681-5.323c-1.5-10.677 3.851-22.028 11.001-25.95.51-.279 1.199-.996 2.073-1.905 2.654-2.762 7.016-7.303 13.258-6.781 8.298.694 11.188 3.325 10.668 4.959-.656 2.06-5.577 7.399-5.577 7.399s2.546 2.348 4.18 5.781l.092.192c1.644 3.457 4.36 9.165 7.305 11.128 1.19.793 2.633 1.154 3.857 1.459 1.482.37 2.643.66 2.643 1.541 0 1.609-5.556 2.427-9.883 1.5a41.8 41.8 0 0 1-2.339-.594c-3.346-.918-5.972-1.639-5.161 2.773.392 2.138 2.338 4.776 4.274 7.4 2.957 4.008 5.89 7.984 3.226 10.1-3.13 2.484-7.921 2.359-11.869 2.256-1.614-.042-3.087-.08-4.248.065-1.364.171-3.064 1.002-4.95 1.924Zm105.982 25.412a2 2 0 0 1 2.326-1.609c28.769 5.24 52.889 12.613 69.873 21.453 8.49 4.42 15.29 9.253 19.989 14.45 4.711 5.21 7.394 10.883 7.394 16.9 0 4.899-1.769 9.56-4.978 13.943C414.377 441.252 341.46 486 258.09 486c-82.958 0-155.565-44.307-195.453-110.538-3.684-4.669-5.73-9.662-5.73-14.932 0-10.453 8.039-19.824 21.056-27.786 13.124-8.028 31.871-14.988 54.568-20.466a2 2 0 1 1 .938 3.889c-22.495 5.428-40.794 12.267-53.419 19.989-12.732 7.788-19.144 16.118-19.144 24.374 0 3.408 1.09 6.831 3.275 10.226.298.168.557.413.743.729.335.569.673 1.137 1.013 1.703 2.397 2.993 5.653 5.958 9.77 8.866 9.827 6.942 24.176 13.276 42.088 18.628 35.798 10.696 85.372 17.341 140.215 17.341s104.417-6.645 140.215-17.341c17.912-5.352 32.262-11.686 42.089-18.628 4.538-3.206 8.03-6.481 10.48-9.787l.206-.348.256-.434c.124-.209.279-.387.456-.533 2.27-3.46 3.402-6.948 3.402-10.422 0-4.748-2.102-9.507-6.36-14.217-4.27-4.721-10.624-9.292-18.87-13.585-16.49-8.583-40.177-15.862-68.742-21.066a2 2 0 0 1-1.61-2.326Zm39.839 95.178c17.881-5.343 32.538-11.73 42.843-18.907C401.763 443.863 334.379 482 258.09 482c-76.196 0-143.508-38.043-183.975-96.179 10.287 7.09 24.83 13.403 42.535 18.693 36.263 10.836 86.241 17.509 141.36 17.509 55.119 0 105.097-6.673 141.361-17.509Z" clip-rule="evenodd"/><path fill="url(#a)" d="M160 254c0-54.124 43.876-98 98-98s98 43.876 98 98-43.876 98-98 98c-28.976 0-47.601-9.673-62.309-18.942-2.17-1.368-4.279-2.744-6.337-4.086-4.857-3.169-9.427-6.151-13.838-8.395-4.926-2.507-9.857-4.212-15.112-4.352a5 5 0 1 0 .319 4.014c4.312.197 8.512 1.63 12.979 3.903 4.211 2.143 8.494 4.937 13.256 8.044l.001.001a490.526 490.526 0 0 0 6.6 4.255C208.601 345.923 227.976 356 258 356c56.333 0 102-45.667 102-102s-45.667-102-102-102-102 45.667-102 102a2 2 0 1 0 4 0Zm98-78c-43.078 0-78 34.922-78 78s34.922 78 78 78c12.408 0 29.989-3.916 44.041-11.36a5 5 0 1 1 2.061 3.435C289.389 331.916 271.06 336 258 336c-45.287 0-82-36.713-82-82s36.713-82 82-82c34.544 0 64.3 19.881 76.359 50.262a2.001 2.001 0 0 1-3.718 1.476C319.216 194.954 290.985 176 258 176Zm49 49c.294 0 .581-.025.861-.074 3.155 5.669 4.527 12.38 4.577 18.964.06 8.097-1.883 15.733-4.674 20.618a1.998 1.998 0 0 0 .744 2.728c.959.549 2.18.215 2.728-.744 3.209-5.615 5.266-13.979 5.201-22.632-.053-7.155-1.559-14.69-5.233-21.152A5 5 0 1 0 307 225Zm-107 29c0-32.033 25.967-58 58-58a57.746 57.746 0 0 1 36.732 13.112 2 2 0 0 0 2.536-3.094A61.754 61.754 0 0 0 258 192c-34.242 0-62 27.758-62 62 0 34.242 27.758 62 62 62 40.908 0 78.436-25.823 80.874-70.363A5.002 5.002 0 0 0 337 236a5 5 0 0 0-2.127 9.526C332.504 287.398 297.297 312 258 312c-32.033 0-58-25.967-58-58Z"/><defs><linearGradient id="c" x1="443.81" x2="668.53" y1="-136.25" y2="128.1" gradientUnits="userSpaceOnUse"><stop stop-color="red"/><stop offset=".34" stop-color="#F0F"/><stop offset=".67" stop-color="#0FF"/><stop offset="1" stop-color="#00F"/></linearGradient><linearGradient id="a" x1="55" x2="446" y1="0" y2="0" gradientUnits="userSpaceOnUse"><stop stop-color="red"/><stop offset=".33" stop-color="#F0F"/><stop offset=".67" stop-color="#0FF"/><stop offset="1" stop-color="#00F"/></linearGradient><filter id="b" width="200%" height="200%" x="-50%" y="-50%"><feGaussianBlur in="SourceGraphic" stdDeviation="20"/></filter><linearGradient id="a" x1="412.531" x2="633.633" y1="-137.001" y2="125.676" gradientUnits="userSpaceOnUse"><stop stop-color="red"/><stop offset=".34" stop-color="#F0F"/><stop offset=".67" stop-color="#0FF"/><stop offset="1" stop-color="#00F"/></linearGradient></defs></svg>