<svg xmlns="http://www.w3.org/2000/svg" viewBox="0 0 516 516"><path fill="url(#a)" filter="url(#b)" opacity=".08" d="M258 32C133.18 32 32 133.18 32 258c0 39.52 10.15 76.68 27.97 109-9.47-49.5 127.53-66 194.53-67s211.5 16.5 201.52 67A224.98 224.98 0 0 0 484 258c0-124.82-101.18-226-226-226Z" /><path fill="#2948A1" d="M131.21 363.35c-.92 3.47-4.63 2.6-5.06 0l-.09-.56a136.92 136.92 0 0 1-1.87-27.17c-1.91 1.2-3.57-.6-3.11-9.18.5-9.44 3.71-21.24 10.6-25.02.5-.27 1.16-.96 2-1.84 2.56-2.66 6.77-7.04 12.8-6.54 8 .67 11.28 7.78 10.78 9.35-.63 1.99-5.88 2.57-5.88 2.57s2.46 2.26 4.03 5.57c.63 1.33 1.22 3.5 1.86 5.9.97 3.58 2.06 7.64 3.63 10.01 1.12 1.71 1.8 2.5 2.2 2.98.53.63.6.7.6 1.58 0 1.55-1.33 1.9-5.5 1a12.63 12.63 0 0 1-6.32-4c-.7 8.67-2.42 28.76-3.62 32.77a1.56 1.56 0 0 1-1.79 1.05c-1.58-.32-2.05-3.2-2.54-6.14-.54-3.3-1.1-6.68-3.24-6.68-3 0-7 5-9.48 14.35Zm-66.8 7.56a2 2 0 0 1 .51.57l.56.95c2.45 3.25 5.9 6.47 10.36 9.62 9.83 6.94 24.18 13.28 42.09 18.63 35.8 10.7 85.37 17.34 140.21 17.34s104.42-6.64 140.21-17.34c17.91-5.35 32.26-11.69 42.09-18.63 4.2-2.96 7.5-5.98 9.9-9.03l.92-1.53a2 2 0 0 1 .69-.7c2.2-3.4 3.3-6.84 3.3-10.26 0-8.53-6.86-17.14-20.42-25.13-13.43-7.92-32.86-14.87-56.64-20.28a2 2 0 1 1 .88-3.9c24 5.45 43.87 12.52 57.8 20.73 13.8 8.15 22.37 17.79 22.37 28.58 0 5.2-2 10.13-5.59 14.75C413.8 441.6 341.13 486 258.1 486c-83.3 0-156.16-44.67-195.94-111.35-3.3-4.44-5.1-9.15-5.1-14.12 0-8.65 5.5-16.55 14.7-23.49 9.22-6.96 22.48-13.2 38.76-18.53a2 2 0 1 1 1.24 3.8c-16.07 5.25-28.86 11.34-37.6 17.93-8.76 6.61-13.11 13.48-13.11 20.29 0 3.46 1.12 6.94 3.38 10.38ZM74 385.64C114.44 443.88 181.82 482 258.09 482c76.22 0 143.54-38.06 184-96.23-10.28 7.11-24.85 13.44-42.6 18.74-36.25 10.84-86.23 17.51-141.35 17.51-55.12 0-105.1-6.67-141.36-17.5-17.85-5.34-32.49-11.72-42.8-18.88Zm100.91-77.15a2 2 0 1 0-.54-3.96c-2.71.37-5.4.77-8.04 1.18a2 2 0 0 0 .62 3.95c2.62-.4 5.28-.8 7.96-1.17Z"/><path fill="#2948A1" d="M131.214 363.349c-.921 3.474-4.634 2.593-5.059 0l-.092-.554c-.564-3.348-2.258-13.415-1.869-27.179-1.915 1.207-3.575-.591-3.117-9.172.503-9.439 3.714-21.245 10.61-25.027.491-.269 1.155-.961 1.998-1.838 2.56-2.664 6.768-7.043 12.787-6.539 8.003.669 11.288 7.778 10.787 9.353-.632 1.987-5.876 2.565-5.876 2.565s2.454 2.264 4.031 5.576c.63 1.324 1.216 3.5 1.86 5.889.965 3.584 2.059 7.645 3.623 10.021 1.125 1.708 1.8 2.501 2.204 2.976.532.626.593.698.593 1.58 0 1.552-1.327 1.894-5.5 1-2.274-.487-5.174-2.447-6.316-4-.701 8.674-2.421 28.759-3.613 32.774-.328.934-1.207 1.164-1.793 1.046-1.581-.317-2.055-3.192-2.54-6.139-.543-3.296-1.101-6.681-3.238-6.681-3 0-7 5-9.48 14.349Zm46.768-57.315a2 2 0 0 1-1.714 2.25c-3.2.433-6.355.89-9.462 1.372a2 2 0 0 1-.612-3.953c3.132-.485 6.312-.947 9.538-1.383a2 2 0 0 1 2.25 1.714Zm195.064 5.926a1.999 1.999 0 0 1 2.379-1.529c24.982 5.429 45.732 12.572 60.289 20.925 14.42 8.275 23.4 18.122 23.4 29.174 0 4.901-1.77 9.563-4.981 13.948C414.373 441.254 341.458 486 258.09 486c-82.958 0-155.566-44.307-195.454-110.538-3.683-4.669-5.73-9.662-5.73-14.932 0-8.648 5.518-16.553 14.709-23.489 9.225-6.961 22.48-13.211 38.763-18.535a2.001 2.001 0 0 1 1.244 3.802c-16.073 5.255-28.865 11.337-37.598 17.926-8.767 6.617-13.118 13.484-13.118 20.296 0 3.409 1.09 6.831 3.275 10.227.298.167.557.413.743.728.335.569.672 1.137 1.012 1.703 2.398 2.993 5.654 5.958 9.77 8.866 9.828 6.942 24.177 13.276 42.089 18.628 35.798 10.697 85.372 17.342 140.215 17.342s104.417-6.645 140.215-17.342c17.912-5.352 32.262-11.686 42.089-18.628 4.537-3.205 8.028-6.478 10.477-9.782.156-.262.311-.524.465-.787.124-.209.279-.388.457-.534 2.269-3.459 3.401-6.947 3.401-10.421 0-8.741-7.195-17.559-21.391-25.705-14.059-8.067-34.366-15.1-59.148-20.485a2 2 0 0 1-1.529-2.38Zm69.167 73.648c-10.304 7.177-24.961 13.564-42.842 18.907-36.264 10.835-86.242 17.509-141.361 17.509-55.119 0-105.097-6.674-141.36-17.509-17.704-5.29-32.248-11.604-42.535-18.694C114.582 443.957 181.894 482 258.09 482c76.288 0 143.672-38.136 184.123-96.392Z" clip-rule="evenodd"/><path fill="url(#a)" d="M366 127a5 5 0 1 0-4.656-3.173L202.155 283.022a61.998 61.998 0 0 0-18.159 43.84V362a2 2 0 0 0 4 0v-35.138a58.002 58.002 0 0 1 16.987-41.012l159.19-159.194A4.992 4.992 0 0 0 366 127ZM225.996 364a2 2 0 0 1-2-2v-27.576a32.004 32.004 0 0 1 9.373-22.628l127.974-127.971a5 5 0 1 1 2.826 2.831L236.197 314.625a28 28 0 0 0-8.201 19.799V362a2 2 0 0 1-2 2Zm18-2a2 2 0 0 0 4 0v-21.718a18 18 0 0 1 5.273-12.728l110.906-110.897a5 5 0 1 0-2.827-2.83L250.44 324.725a22 22 0 0 0-6.444 15.557V362Zm22 2a2 2 0 0 1-2-2v-15.86c0-3.183 1.265-6.235 3.515-8.486l93.838-93.827a5 5 0 1 1 9.655-1.829 5 5 0 0 1-6.825 4.656l-93.839 93.829a7.997 7.997 0 0 0-2.344 5.657V362a2 2 0 0 1-2 2Zm20 0a2 2 0 0 1-2-2v-5.768c0-3.18 1.263-6.23 3.51-8.48l73.843-73.926a5 5 0 1 1 9.655-1.828 5 5 0 0 1-6.826 4.656l-73.842 73.924a8.002 8.002 0 0 0-2.34 5.654V362a2 2 0 0 1-2 2Zm60 0a2 2 0 0 1-2-2v-31.715a22 22 0 0 1 6.445-15.557l10.903-10.901a5 5 0 1 1 2.828 2.828l-10.903 10.901a18.002 18.002 0 0 0-5.273 12.729V362a2 2 0 0 1-2 2Zm20 0a2 2 0 0 1-2-2v-24.418a5 5 0 1 1 4 .004V362a2 2 0 0 1-2 2Zm-42-2a2 2 0 0 0 4 0v-15.414A5.002 5.002 0 0 0 326 337a5 5 0 0 0-2.004 9.582V362ZM306 364c2 0 5-.5 5-2a5 5 0 0 0-10 0c0 1.5 3 2 5 2Zm-100.004 0a2 2 0 0 1-2-2v-29.291a51.998 51.998 0 0 1 15.231-36.77l142.117-142.112a5 5 0 1 1 2.829 2.829L222.056 298.767a47.997 47.997 0 0 0-14.06 33.942V362a2 2 0 0 1-2 2Z"/><defs><linearGradient id="c" x1="443.81" x2="668.53" y1="-136.25" y2="128.1" gradientUnits="userSpaceOnUse"><stop stop-color="red"/><stop offset=".34" stop-color="#F0F"/><stop offset=".67" stop-color="#0FF"/><stop offset="1" stop-color="#00F"/></linearGradient><linearGradient id="a" x1="55" x2="446" y1="0" y2="0" gradientUnits="userSpaceOnUse"><stop stop-color="red"/><stop offset=".33" stop-color="#F0F"/><stop offset=".67" stop-color="#0FF"/><stop offset="1" stop-color="#00F"/></linearGradient><filter id="b" width="200%" height="200%" x="-50%" y="-50%"><feGaussianBlur in="SourceGraphic" stdDeviation="20"/></filter><linearGradient id="a" x1="418.007" x2="687.413" y1="-232.919" y2="3.61" gradientUnits="userSpaceOnUse"><stop stop-color="red"/><stop offset=".34" stop-color="#F0F"/><stop offset=".67" stop-color="#0FF"/><stop offset="1" stop-color="#00F"/></linearGradient></defs></svg>