<svg xmlns="http://www.w3.org/2000/svg" viewBox="0 0 516 516"><path fill="url(#a)" filter="url(#b)" opacity=".08" d="M258 32C133.18 32 32 133.18 32 258c0 39.52 10.15 76.68 27.97 109-9.47-49.5 127.53-66 194.53-67s211.5 16.5 201.52 67A224.98 224.98 0 0 0 484 258c0-124.82-101.18-226-226-226Z" /><path fill="#2948A1" d="M131.21 363.35c-.92 3.47-4.63 2.6-5.06 0l-.09-.56a136.92 136.92 0 0 1-1.87-27.17c-1.91 1.2-3.57-.6-3.11-9.18.5-9.44 3.71-21.24 10.6-25.02.5-.27 1.16-.96 2-1.84 2.56-2.66 6.77-7.04 12.8-6.54 8 .67 11.28 7.78 10.78 9.35-.63 1.99-5.88 2.57-5.88 2.57s2.46 2.26 4.03 5.57c.63 1.33 1.22 3.5 1.86 5.9.97 3.58 2.06 7.64 3.63 10.01 1.12 1.71 1.8 2.5 2.2 2.98.53.63.6.7.6 1.58 0 1.55-1.33 1.9-5.5 1a12.63 12.63 0 0 1-6.32-4c-.7 8.67-2.42 28.76-3.62 32.77a1.56 1.56 0 0 1-1.79 1.05c-1.58-.32-2.05-3.2-2.54-6.14-.54-3.3-1.1-6.68-3.24-6.68-3 0-7 5-9.48 14.35Zm-66.8 7.56a2 2 0 0 1 .51.57l.56.95c2.45 3.25 5.9 6.47 10.36 9.62 9.83 6.94 24.18 13.28 42.09 18.63 35.8 10.7 85.37 17.34 140.21 17.34s104.42-6.64 140.21-17.34c17.91-5.35 32.26-11.69 42.09-18.63 4.2-2.96 7.5-5.98 9.9-9.03l.92-1.53a2 2 0 0 1 .69-.7c2.2-3.4 3.3-6.84 3.3-10.26 0-8.53-6.86-17.14-20.42-25.13-13.43-7.92-32.86-14.87-56.64-20.28a2 2 0 1 1 .88-3.9c24 5.45 43.87 12.52 57.8 20.73 13.8 8.15 22.37 17.79 22.37 28.58 0 5.2-2 10.13-5.59 14.75C413.8 441.6 341.13 486 258.1 486c-83.3 0-156.16-44.67-195.94-111.35-3.3-4.44-5.1-9.15-5.1-14.12 0-8.65 5.5-16.55 14.7-23.49 9.22-6.96 22.48-13.2 38.76-18.53a2 2 0 1 1 1.24 3.8c-16.07 5.25-28.86 11.34-37.6 17.93-8.76 6.61-13.11 13.48-13.11 20.29 0 3.46 1.12 6.94 3.38 10.38ZM74 385.64C114.44 443.88 181.82 482 258.09 482c76.22 0 143.54-38.06 184-96.23-10.28 7.11-24.85 13.44-42.6 18.74-36.25 10.84-86.23 17.51-141.35 17.51-55.12 0-105.1-6.67-141.36-17.5-17.85-5.34-32.49-11.72-42.8-18.88Zm100.91-77.15a2 2 0 1 0-.54-3.96c-2.71.37-5.4.77-8.04 1.18a2 2 0 0 0 .62 3.95c2.62-.4 5.28-.8 7.96-1.17Z"/><path fill="url(#a)" d="M197 238.08c0-18.81 15.35-34.08 34.315-34.08 9.358 0 17.859 6.161 25.406 12.416a2 2 0 0 0 2.553 0c3.548-2.941 7.344-5.978 11.389-8.324 4.035-2.34 8.2-3.92 12.476-4.066l1.557-.026c18.959.009 34.304 15.276 34.304 34.08 0 6.423-3.618 14.147-9.47 22.328-5.802 8.111-13.576 16.367-21.406 23.796-7.822 7.42-15.651 13.968-21.529 18.664a342.925 342.925 0 0 1-6.124 4.784 5 5 0 1 0 2.397 3.203 348.06 348.06 0 0 0 6.224-4.862c5.935-4.741 13.856-11.365 21.784-18.887 7.92-7.513 15.896-15.967 21.907-24.37 5.96-8.333 10.217-16.925 10.217-24.656 0-21.044-17.17-38.08-38.32-38.08h-.033l-1.591.027h-.034c-5.177.173-10.001 2.074-14.366 4.605-3.847 2.231-7.429 5.008-10.66 7.654-7.248-5.907-16.323-12.286-26.681-12.286-21.15 0-38.315 17.036-38.315 38.08 0 12.787 8.797 25.836 19.396 37.268 10.203 11.005 22.486 20.932 31.474 28.197l1.249 1.01a2 2 0 1 0 2.516-3.11l-1.202-.971c-9.02-7.292-21.102-17.058-31.104-27.846C204.791 261.262 197 249.213 197 238.08Z"/><path fill="#2948A1" d="M131.214 363.349c-.921 3.474-4.634 2.593-5.059 0l-.092-.554c-.564-3.348-2.258-13.415-1.869-27.179-1.915 1.207-3.575-.591-3.117-9.172.503-9.439 3.714-21.245 10.61-25.027.491-.269 1.155-.961 1.998-1.838 2.56-2.664 6.768-7.043 12.787-6.539 8.003.669 11.288 7.778 10.787 9.353-.632 1.987-5.876 2.565-5.876 2.565s2.454 2.264 4.031 5.576c.63 1.324 1.216 3.5 1.86 5.889.965 3.584 2.059 7.645 3.623 10.021 1.125 1.708 1.8 2.501 2.204 2.976.532.626.593.698.593 1.58 0 1.552-1.327 1.894-5.5 1-2.274-.487-5.174-2.447-6.316-4-.701 8.674-2.421 28.759-3.613 32.774-.328.934-1.207 1.164-1.793 1.046-1.581-.317-2.055-3.192-2.54-6.139-.543-3.296-1.101-6.681-3.238-6.681-3 0-7 5-9.48 14.349Zm86.282-61.083a2 2 0 0 1-1.866 2.125c-17.223 1.12-33.604 2.906-48.824 5.264a2 2 0 0 1-.612-3.953c15.345-2.377 31.844-4.176 49.176-5.302a2 2 0 0 1 2.126 1.866Zm81.029 0a2 2 0 0 1 2.125-1.866c44.887 2.917 84.238 10.349 112.432 20.68 14.087 5.162 25.499 11.087 33.427 17.618 7.912 6.518 12.605 13.861 12.605 21.832 0 4.9-1.77 9.561-4.979 13.945C414.375 441.253 341.459 486 258.09 486c-82.959 0-155.567-44.307-195.455-110.54-3.682-4.668-5.729-9.661-5.729-14.93 0-8.648 5.518-16.553 14.709-23.489 9.225-6.962 22.48-13.211 38.763-18.535a2 2 0 1 1 1.244 3.802c-16.073 5.255-28.865 11.336-37.598 17.926-8.767 6.616-13.118 13.483-13.118 20.296 0 3.408 1.09 6.831 3.275 10.227.298.167.557.413.743.728.334.569.672 1.136 1.011 1.702 2.398 2.993 5.654 5.958 9.772 8.867 9.827 6.942 24.176 13.276 42.088 18.628 35.798 10.696 85.372 17.341 140.215 17.341s104.417-6.645 140.215-17.341c17.912-5.352 32.262-11.686 42.089-18.628 4.538-3.206 8.03-6.48 10.479-9.786.155-.26.309-.521.463-.783a2 2 0 0 1 .456-.533c2.27-3.46 3.402-6.948 3.402-10.422 0-6.278-3.689-12.599-11.148-18.744-7.443-6.132-18.391-11.868-32.26-16.95-27.72-10.157-66.665-17.543-111.315-20.445a1.998 1.998 0 0 1-1.866-2.125Zm143.688 83.341c-10.304 7.177-24.961 13.564-42.842 18.907-36.264 10.836-86.242 17.509-141.361 17.509-55.119 0-105.097-6.673-141.36-17.509-17.705-5.29-32.248-11.604-42.536-18.694C114.582 443.956 181.894 482 258.09 482c76.289 0 143.672-38.137 184.123-96.393Z" clip-rule="evenodd"/><defs><linearGradient id="c" x1="443.81" x2="668.53" y1="-136.25" y2="128.1" gradientUnits="userSpaceOnUse"><stop stop-color="red"/><stop offset=".34" stop-color="#F0F"/><stop offset=".67" stop-color="#0FF"/><stop offset="1" stop-color="#00F"/></linearGradient><linearGradient id="a" x1="55" x2="446" y1="0" y2="0" gradientUnits="userSpaceOnUse"><stop stop-color="red"/><stop offset=".33" stop-color="#F0F"/><stop offset=".67" stop-color="#0FF"/><stop offset="1" stop-color="#00F"/></linearGradient><filter id="b" width="200%" height="200%" x="-50%" y="-50%"><feGaussianBlur in="SourceGraphic" stdDeviation="20"/></filter><linearGradient id="a" x1="355.675" x2="480.345" y1="34.249" y2="194.882" gradientUnits="userSpaceOnUse"><stop stop-color="red"/><stop offset=".34" stop-color="#F0F"/><stop offset=".67" stop-color="#0FF"/><stop offset="1" stop-color="#00F"/></linearGradient></defs></svg>