<svg xmlns="http://www.w3.org/2000/svg" viewBox="0 0 516 516"><style>path:not([fill]){fill:url(#c)}</style><path fill="url(#a)" d="M258 32C133.18 32 32 133.18 32 258c0 39.52 10.15 76.68 27.97 109-9.47-49.5 127.53-66 194.53-67s211.5 16.5 201.52 67A224.98 224.98 0 0 0 484 258c0-124.82-101.18-226-226-226Z" filter="url(#b)" opacity=".08"/><path fill="#2948A1" d="M131.21 363.35c-.92 3.47-4.63 2.6-5.06 0l-.09-.56a136.92 136.92 0 0 1-1.87-27.17c-1.91 1.2-3.57-.6-3.11-9.18.5-9.44 3.71-21.24 10.6-25.02.5-.27 1.16-.96 2-1.84 2.56-2.66 6.77-7.04 12.8-6.54 8 .67 11.28 7.78 10.78 9.35-.63 1.99-5.88 2.57-5.88 2.57s2.46 2.26 4.03 5.57c.63 1.33 1.22 3.5 1.86 5.9.97 3.58 2.06 7.64 3.63 10.01 1.12 1.71 1.8 2.5 2.2 2.98.53.63.6.7.6 1.58 0 1.55-1.33 1.9-5.5 1a12.63 12.63 0 0 1-6.32-4c-.7 8.67-2.42 28.76-3.62 32.77a1.56 1.56 0 0 1-1.79 1.05c-1.58-.32-2.05-3.2-2.54-6.14-.54-3.3-1.1-6.68-3.24-6.68-3 0-7 5-9.48 14.35Zm-66.8 7.56a2 2 0 0 1 .51.57l.56.95c2.45 3.25 5.9 6.47 10.36 9.62 9.83 6.94 24.18 13.28 42.09 18.63 35.8 10.7 85.37 17.34 140.21 17.34s104.42-6.64 140.21-17.34c17.91-5.35 32.26-11.69 42.09-18.63 4.2-2.96 7.5-5.98 9.9-9.03l.92-1.53a2 2 0 0 1 .69-.7c2.2-3.4 3.3-6.84 3.3-10.26 0-8.53-6.86-17.14-20.42-25.13-13.43-7.92-32.86-14.87-56.64-20.28a2 2 0 1 1 .88-3.9c24 5.45 43.87 12.52 57.8 20.73 13.8 8.15 22.37 17.79 22.37 28.58 0 5.2-2 10.13-5.59 14.75C413.8 441.6 341.13 486 258.1 486c-83.3 0-156.16-44.67-195.94-111.35-3.3-4.44-5.1-9.15-5.1-14.12 0-8.65 5.5-16.55 14.7-23.49 9.22-6.96 22.48-13.2 38.76-18.53a2 2 0 1 1 1.24 3.8c-16.07 5.25-28.86 11.34-37.6 17.93-8.76 6.61-13.11 13.48-13.11 20.29 0 3.46 1.12 6.94 3.38 10.38ZM74 385.64C114.44 443.88 181.82 482 258.09 482c76.22 0 143.54-38.06 184-96.23-10.28 7.11-24.85 13.44-42.6 18.74-36.25 10.84-86.23 17.51-141.35 17.51-55.12 0-105.1-6.67-141.36-17.5-17.85-5.34-32.49-11.72-42.8-18.88Zm100.91-77.15a2 2 0 1 0-.54-3.96c-2.71.37-5.4.77-8.04 1.18a2 2 0 0 0 .62 3.95c2.62-.4 5.28-.8 7.96-1.17Z"/><path d="M210.66 213.83a5 5 0 1 0-2.83 2.83l10.9 10.9a18 18 0 0 1 5.27 12.72v23.44a18 18 0 0 1-5.27 12.72l-28.29 28.29a22 22 0 0 0-6.44 15.55V362a2 2 0 1 0 4 0v-41.72a18 18 0 0 1 5.27-12.72l28.29-28.29a22 22 0 0 0 6.44-15.55v-23.44a22 22 0 0 0-6.44-15.55l-10.9-10.9Z"/><path d="M190.63 234.88A4.99 4.99 0 0 0 186 228a5 5 0 1 0 1.77 9.68l11.11 11.4a18 18 0 0 1 5.12 12.56V362a2 2 0 0 0 4 0V261.64a22 22 0 0 0-6.25-15.36l-11.12-11.4ZM248 309.58a5 5 0 1 0-4 0c0 1.92-1.9 3.49-5.27 6.86l-8.29 8.29a22 22 0 0 0-6.44 15.55V362a2 2 0 1 0 4 0v-21.72a18 18 0 0 1 5.27-12.72l8.29-8.29c4.12-4.12 6.44-5.77 6.44-9.69ZM248 346.58a5 5 0 1 0-4 0V362a2 2 0 1 0 4 0v-15.42ZM268 256.58a5 5 0 1 0-4 0V362a2 2 0 1 0 4 0V256.58Z"/><path d="M250.66 273.83a5 5 0 1 0-2.83 2.83l30.9 30.9a18 18 0 0 1 5.27 12.72V362a2 2 0 1 0 4 0v-41.72a22 22 0 0 0-6.44-15.55l-30.9-30.9ZM268 186.58a5 5 0 1 0-4 0v27.14a22 22 0 0 0 6.44 15.55l28.29 28.29a18 18 0 0 1 5.27 12.72V362a2 2 0 1 0 4 0v-91.72a22 22 0 0 0-6.44-15.55l-28.29-28.29a18 18 0 0 1-5.27-12.72v-27.14ZM348 246.59a5 5 0 1 0-4 0v7.13c0 4.77-1.62 8.9-5 12.28l-8.56 8.73a22 22 0 0 0-6.44 15.55V362a2 2 0 1 0 4 0v-71.72a18 18 0 0 1 5.27-12.72l8.73-9.06c4.13-4.13 6-8.95 6-14.78v-7.13ZM388 226.58a5 5 0 1 0-4 0v17.14a18 18 0 0 1-5.27 12.72l-28.29 28.29a22 22 0 0 0-6.44 15.55V362a2 2 0 1 0 4 0v-61.72a18 18 0 0 1 5.27-12.72l28.29-28.29a22 22 0 0 0 6.44-15.55v-17.14Z"/><path d="M348 186.58a5 5 0 1 0-4 0v17.14a18 18 0 0 1-5.27 12.72l-8.29 8.29a22 22 0 0 0-6.44 15.55v3.44a22 22 0 0 0 6.44 15.55l28.29 28.29a18 18 0 0 1 5.27 12.72V362a2 2 0 1 0 4 0v-61.72a22 22 0 0 0-6.44-15.55l-28.29-28.29a18 18 0 0 1-5.27-12.72v-3.44a18 18 0 0 1 5.27-12.72l8.29-8.29a22 22 0 0 0 6.44-15.55v-17.14Z"/><defs><linearGradient id="c" x1="443.81" x2="668.53" y1="-136.25" y2="128.1" gradientUnits="userSpaceOnUse"><stop stop-color="red"/><stop offset=".34" stop-color="#F0F"/><stop offset=".67" stop-color="#0FF"/><stop offset="1" stop-color="#00F"/></linearGradient><linearGradient id="a" x1="55" x2="446" y1="0" y2="0" gradientUnits="userSpaceOnUse"><stop stop-color="red"/><stop offset=".33" stop-color="#F0F"/><stop offset=".67" stop-color="#0FF"/><stop offset="1" stop-color="#00F"/></linearGradient><filter id="b" width="200%" height="200%" x="-50%" y="-50%"><feGaussianBlur in="SourceGraphic" stdDeviation="20"/></filter></defs></svg>