<svg xmlns="http://www.w3.org/2000/svg" viewBox="0 0 516 516"><path fill="url(#a)" filter="url(#b)" opacity=".08" d="M258 32C133.18 32 32 133.18 32 258c0 39.52 10.15 76.68 27.97 109-9.47-49.5 127.53-66 194.53-67s211.5 16.5 201.52 67A224.98 224.98 0 0 0 484 258c0-124.82-101.18-226-226-226Z" /><path fill="#2948A1" d="M131.21 363.35c-.92 3.47-4.63 2.6-5.06 0l-.09-.56a136.92 136.92 0 0 1-1.87-27.17c-1.91 1.2-3.57-.6-3.11-9.18.5-9.44 3.71-21.24 10.6-25.02.5-.27 1.16-.96 2-1.84 2.56-2.66 6.77-7.04 12.8-6.54 8 .67 11.28 7.78 10.78 9.35-.63 1.99-5.88 2.57-5.88 2.57s2.46 2.26 4.03 5.57c.63 1.33 1.22 3.5 1.86 5.9.97 3.58 2.06 7.64 3.63 10.01 1.12 1.71 1.8 2.5 2.2 2.98.53.63.6.7.6 1.58 0 1.55-1.33 1.9-5.5 1a12.63 12.63 0 0 1-6.32-4c-.7 8.67-2.42 28.76-3.62 32.77a1.56 1.56 0 0 1-1.79 1.05c-1.58-.32-2.05-3.2-2.54-6.14-.54-3.3-1.1-6.68-3.24-6.68-3 0-7 5-9.48 14.35Zm-66.8 7.56a2 2 0 0 1 .51.57l.56.95c2.45 3.25 5.9 6.47 10.36 9.62 9.83 6.94 24.18 13.28 42.09 18.63 35.8 10.7 85.37 17.34 140.21 17.34s104.42-6.64 140.21-17.34c17.91-5.35 32.26-11.69 42.09-18.63 4.2-2.96 7.5-5.98 9.9-9.03l.92-1.53a2 2 0 0 1 .69-.7c2.2-3.4 3.3-6.84 3.3-10.26 0-8.53-6.86-17.14-20.42-25.13-13.43-7.92-32.86-14.87-56.64-20.28a2 2 0 1 1 .88-3.9c24 5.45 43.87 12.52 57.8 20.73 13.8 8.15 22.37 17.79 22.37 28.58 0 5.2-2 10.13-5.59 14.75C413.8 441.6 341.13 486 258.1 486c-83.3 0-156.16-44.67-195.94-111.35-3.3-4.44-5.1-9.15-5.1-14.12 0-8.65 5.5-16.55 14.7-23.49 9.22-6.96 22.48-13.2 38.76-18.53a2 2 0 1 1 1.24 3.8c-16.07 5.25-28.86 11.34-37.6 17.93-8.76 6.61-13.11 13.48-13.11 20.29 0 3.46 1.12 6.94 3.38 10.38ZM74 385.64C114.44 443.88 181.82 482 258.09 482c76.22 0 143.54-38.06 184-96.23-10.28 7.11-24.85 13.44-42.6 18.74-36.25 10.84-86.23 17.51-141.35 17.51-55.12 0-105.1-6.67-141.36-17.5-17.85-5.34-32.49-11.72-42.8-18.88Zm100.91-77.15a2 2 0 1 0-.54-3.96c-2.71.37-5.4.77-8.04 1.18a2 2 0 0 0 .62 3.95c2.62-.4 5.28-.8 7.96-1.17Z"/><path fill="#2948A1" d="M131.214 363.349c-.921 3.474-4.634 2.593-5.059 0l-.092-.554c-.564-3.348-2.258-13.415-1.869-27.179-1.915 1.207-3.575-.591-3.117-9.172.503-9.439 3.714-21.245 10.61-25.027.491-.269 1.155-.961 1.998-1.838 2.56-2.664 6.768-7.043 12.787-6.539 8.003.669 11.288 7.778 10.787 9.353-.632 1.987-5.876 2.565-5.876 2.565s2.454 2.264 4.031 5.576c.63 1.324 1.216 3.5 1.86 5.889.965 3.584 2.059 7.645 3.623 10.021 1.125 1.708 1.8 2.501 2.204 2.976.532.626.593.698.593 1.58 0 1.552-1.327 1.894-5.5 1-2.274-.487-5.174-2.447-6.316-4-.701 8.674-2.421 28.759-3.613 32.774-.328.934-1.207 1.164-1.793 1.046-1.581-.317-2.055-3.192-2.54-6.139-.543-3.296-1.101-6.681-3.238-6.681-3 0-7 5-9.48 14.349Zm92.283-61.425a2 2 0 0 1-1.886 2.107c-19.416 1.076-37.832 2.995-54.805 5.624a2 2 0 0 1-.612-3.953c17.112-2.651 35.659-4.583 55.195-5.664a2 2 0 0 1 2.108 1.886Zm67.006-.102a1.999 1.999 0 0 1 2.101-1.893c46.883 2.446 88.239 9.783 117.938 20.239 14.84 5.224 26.881 11.266 35.251 17.949 8.348 6.666 13.321 14.205 13.321 22.413 0 4.899-1.77 9.56-4.979 13.944C414.376 441.252 341.46 486 258.09 486c-82.959 0-155.567-44.308-195.455-110.54-3.682-4.669-5.729-9.661-5.729-14.93 0-8.649 5.518-16.554 14.709-23.489 9.225-6.962 22.48-13.212 38.763-18.536a2 2 0 0 1 1.244 3.802c-16.073 5.255-28.865 11.337-37.598 17.927-8.767 6.616-13.118 13.483-13.118 20.296 0 3.408 1.09 6.831 3.275 10.227.298.167.557.413.743.728.334.569.672 1.136 1.011 1.701 2.398 2.994 5.654 5.959 9.772 8.868 9.827 6.942 24.176 13.275 42.088 18.628 35.798 10.696 85.372 17.341 140.215 17.341s104.417-6.645 140.215-17.341c17.912-5.353 32.262-11.686 42.089-18.628 4.538-3.206 8.03-6.481 10.479-9.786l.463-.783a2 2 0 0 1 .456-.533c2.27-3.46 3.402-6.948 3.402-10.422 0-6.464-3.913-12.976-11.817-19.287-7.882-6.293-19.459-12.153-34.083-17.302-29.227-10.29-70.178-17.584-116.818-20.018a1.999 1.999 0 0 1-1.893-2.101Zm151.71 83.785c-10.304 7.177-24.961 13.564-42.842 18.907-36.264 10.836-86.242 17.509-141.361 17.509-55.119 0-105.097-6.673-141.36-17.509-17.705-5.29-32.249-11.604-42.536-18.694C114.581 443.956 181.894 482 258.09 482c76.289 0 143.672-38.137 184.123-96.393Z" clip-rule="evenodd"/><path fill="url(#a)" d="M313.505 195.982c-30.461-30.461-79.848-30.461-110.309 0a2 2 0 1 1-2.828-2.828c32.023-32.023 83.942-32.023 115.965 0a2 2 0 1 1-2.828 2.828Zm-14.143 14.143c-22.65-22.651-59.374-22.651-82.024 0a2 2 0 1 1-2.828-2.829c24.212-24.212 63.468-24.212 87.681 0a2 2 0 0 1-2.829 2.829Zm-68.942 13.788c15.035-15.035 39.412-15.035 54.447 0a2 2 0 1 0 2.828-2.828c-16.597-16.598-43.507-16.598-60.104 0a2 2 0 1 0 2.829 2.828Zm40.658 14.496c-7.029-7.03-18.426-7.03-25.456 0a2 2 0 1 1-2.828-2.829c8.591-8.591 22.521-8.591 31.113 0a2 2 0 0 1-2.829 2.829ZM263 254a5 5 0 0 1-2.73 4.456l6.623 19.398a2 2 0 1 1-3.785 1.292l-5.226-15.303-14.671 37.879a2 2 0 1 1-3.73-1.445l16.206-41.843A5 5 0 1 1 263 254Zm6 42a5 5 0 1 0-4.854-3.796l-17.863 13.709a1.999 1.999 0 0 0-.369 2.804 1.999 1.999 0 0 0 2.804.369l17.864-13.709A4.973 4.973 0 0 0 269 296Zm-27 17c0 .218-.014.433-.041.644l42.941 23.947-12.771-33.886a2 2 0 1 1 3.743-1.411l14.686 38.97 8.289 19.969a2 2 0 1 1-3.694 1.534l-7.623-18.365-69.992 19.524a1.999 1.999 0 0 1-2.395-2.669l15-37.5a2 2 0 1 1 3.714 1.486l-13.497 33.743 63.119-17.607-43.58-24.305A5 5 0 1 1 242 313Zm84.959 33c0 1.5-3 2-5 2s-5-.5-5-2a5 5 0 0 1 10 0Zm46 23c2 0 5-.5 5-2a5 5 0 1 0-10 0c0 1.5 3 2 5 2Z"/><defs><linearGradient id="c" x1="443.81" x2="668.53" y1="-136.25" y2="128.1" gradientUnits="userSpaceOnUse"><stop stop-color="red"/><stop offset=".34" stop-color="#F0F"/><stop offset=".67" stop-color="#0FF"/><stop offset="1" stop-color="#00F"/></linearGradient><linearGradient id="a" x1="55" x2="446" y1="0" y2="0" gradientUnits="userSpaceOnUse"><stop stop-color="red"/><stop offset=".33" stop-color="#F0F"/><stop offset=".67" stop-color="#0FF"/><stop offset="1" stop-color="#00F"/></linearGradient><filter id="b" width="200%" height="200%" x="-50%" y="-50%"><feGaussianBlur in="SourceGraphic" stdDeviation="20"/></filter><linearGradient id="a" x1="422.744" x2="642.464" y1="-114.004" y2="113.142" gradientUnits="userSpaceOnUse"><stop stop-color="red"/><stop offset=".34" stop-color="#F0F"/><stop offset=".67" stop-color="#0FF"/><stop offset="1" stop-color="#00F"/></linearGradient></defs></svg>