<svg xmlns="http://www.w3.org/2000/svg" viewBox="0 0 516 516"><path fill="url(#a)" filter="url(#b)" opacity=".08" d="M258 32C133.18 32 32 133.18 32 258c0 39.52 10.15 76.68 27.97 109-9.47-49.5 127.53-66 194.53-67s211.5 16.5 201.52 67A224.98 224.98 0 0 0 484 258c0-124.82-101.18-226-226-226Z" /><path fill="#2948A1" d="M131.21 363.35c-.92 3.47-4.63 2.6-5.06 0l-.09-.56a136.92 136.92 0 0 1-1.87-27.17c-1.91 1.2-3.57-.6-3.11-9.18.5-9.44 3.71-21.24 10.6-25.02.5-.27 1.16-.96 2-1.84 2.56-2.66 6.77-7.04 12.8-6.54 8 .67 11.28 7.78 10.78 9.35-.63 1.99-5.88 2.57-5.88 2.57s2.46 2.26 4.03 5.57c.63 1.33 1.22 3.5 1.86 5.9.97 3.58 2.06 7.64 3.63 10.01 1.12 1.71 1.8 2.5 2.2 2.98.53.63.6.7.6 1.58 0 1.55-1.33 1.9-5.5 1a12.63 12.63 0 0 1-6.32-4c-.7 8.67-2.42 28.76-3.62 32.77a1.56 1.56 0 0 1-1.79 1.05c-1.58-.32-2.05-3.2-2.54-6.14-.54-3.3-1.1-6.68-3.24-6.68-3 0-7 5-9.48 14.35Zm-66.8 7.56a2 2 0 0 1 .51.57l.56.95c2.45 3.25 5.9 6.47 10.36 9.62 9.83 6.94 24.18 13.28 42.09 18.63 35.8 10.7 85.37 17.34 140.21 17.34s104.42-6.64 140.21-17.34c17.91-5.35 32.26-11.69 42.09-18.63 4.2-2.96 7.5-5.98 9.9-9.03l.92-1.53a2 2 0 0 1 .69-.7c2.2-3.4 3.3-6.84 3.3-10.26 0-8.53-6.86-17.14-20.42-25.13-13.43-7.92-32.86-14.87-56.64-20.28a2 2 0 1 1 .88-3.9c24 5.45 43.87 12.52 57.8 20.73 13.8 8.15 22.37 17.79 22.37 28.58 0 5.2-2 10.13-5.59 14.75C413.8 441.6 341.13 486 258.1 486c-83.3 0-156.16-44.67-195.94-111.35-3.3-4.44-5.1-9.15-5.1-14.12 0-8.65 5.5-16.55 14.7-23.49 9.22-6.96 22.48-13.2 38.76-18.53a2 2 0 1 1 1.24 3.8c-16.07 5.25-28.86 11.34-37.6 17.93-8.76 6.61-13.11 13.48-13.11 20.29 0 3.46 1.12 6.94 3.38 10.38ZM74 385.64C114.44 443.88 181.82 482 258.09 482c76.22 0 143.54-38.06 184-96.23-10.28 7.11-24.85 13.44-42.6 18.74-36.25 10.84-86.23 17.51-141.35 17.51-55.12 0-105.1-6.67-141.36-17.5-17.85-5.34-32.49-11.72-42.8-18.88Zm100.91-77.15a2 2 0 1 0-.54-3.96c-2.71.37-5.4.77-8.04 1.18a2 2 0 0 0 .62 3.95c2.62-.4 5.28-.8 7.96-1.17Z"/><path fill="url(#a)" fill-rule="evenodd" d="M258 89.584a5.001 5.001 0 1 0-4 0v20.123c-2.289-4.921-5.475-9.273-9.335-12.747-8.214-7.392-19.493-10.805-31.506-7.212a160.291 160.291 0 0 0-17.956 6.559l-.009.004-.01.004c-3.635 1.624-6.255 2.841-8.112 3.74a5 5 0 1 0 1.91 3.519c1.793-.865 4.321-2.038 7.824-3.603a156.379 156.379 0 0 1 17.498-6.391c10.55-3.155 20.405-.198 27.685 6.353 7.31 6.579 12.011 16.79 12.011 28.019v27.395c-1.894-3.306-4.338-5.974-7.057-8.167-4.769-3.845-10.4-6.216-15.051-8.072l.022-.022c-3.362-3.363-4.796-7.82-5.276-12.156-.243-2.196-.236-4.311-.128-6.162a5 5 0 1 0-3.981-.421c-.13 2.071-.147 4.49.133 7.023.323 2.914 1.048 6.05 2.496 9.009-5.603-2.268-10.803-4.225-15.215-5.856-1.363-.503-2.645-.974-3.838-1.412a622.616 622.616 0 0 1-5.11-1.89 5 5 0 1 0-1.775 3.604c1.565.595 3.454 1.288 5.593 2.073 1.176.432 2.429.891 3.744 1.377 5.198 1.921 11.462 4.286 18.176 7.072.903.375 1.841.749 2.804 1.132 4.836 1.928 10.288 4.101 14.895 7.815 5.359 4.321 9.555 10.748 9.568 21.519V200h-28a2 2 0 1 0 0 4h28c.41 0 .805-.062 1.178-.176A2 2 0 0 0 258 202V89.584ZM277 91a4.998 4.998 0 0 0 4.331-2.5c56.824 7.879 103.963 46.078 124.543 97.74a2 2 0 0 0 3.716-1.48c-21.113-53-69.487-92.188-127.811-100.236A5 5 0 1 0 277 91Zm4.788 21.554a5 5 0 1 0-.473 3.973c36.544 5.05 67.619 26.536 85.049 56.479a2 2 0 1 0 3.457-2.012c-18.058-31.022-50.235-53.241-88.033-58.44ZM278 137a5.002 5.002 0 0 1 4.8 3.596c23.207 3.584 43.31 16.31 56.321 34.295a2 2 0 0 1-3.241 2.344c-12.374-17.104-31.495-29.229-53.587-32.67A5 5 0 1 1 278 137Zm-47.416 87a5.002 5.002 0 0 1-9.584-2 5 5 0 0 1 9.584-2H244a4 4 0 0 1 4 4v96a4 4 0 0 1-4 4h-18a2 2 0 1 1 0-4h18v-96h-13.416ZM238 176.584a5.002 5.002 0 0 0-2-9.584 5 5 0 0 0-2 9.584V178a2 2 0 0 1-2 2h-22a6 6 0 0 0-6 6v52a6 6 0 0 0 6 6h12a2 2 0 0 1 2 2v52a2 2 0 0 1-2 2h-12a6 6 0 0 0-6 6v55.5a2 2 0 1 0 4 0V306a2 2 0 0 1 2-2h12a6 6 0 0 0 6-6v-52a6 6 0 0 0-6-6h-12a2 2 0 0 1-2-2v-52a2 2 0 0 1 2-2h22a6 6 0 0 0 6-6v-1.416ZM282 172a5 5 0 1 0-7 4.584V199c0 2.238 1.796 3.93 3.875 4.058C296.831 204.17 315.5 220.94 315.5 242c0 15.403-6.512 23.129-10.246 26.321-1.145.979-1.617 2.419-1.632 3.686-.015 1.267.424 2.734 1.591 3.733 4.082 3.496 11.287 11.702 11.287 26.26 0 13.166-5.099 22.641-12.279 28.956-7.227 6.357-16.653 9.584-25.318 9.998-2.111.101-3.903 1.816-3.903 4.046v17a2 2 0 1 0 4 0v-17.002a.118.118 0 0 1 .093-.048c9.45-.452 19.776-3.959 27.77-10.991 8.043-7.074 13.637-17.643 13.637-31.959 0-16.063-8.008-25.293-12.685-29.298-.049-.042-.198-.245-.194-.648.005-.402.161-.631.232-.692 4.505-3.851 11.647-12.643 11.647-29.362 0-23.372-20.517-41.704-40.378-42.934a.165.165 0 0 1-.108-.047.076.076 0 0 1-.014-.018v-22.417a5.002 5.002 0 0 0 3-4.584Zm21.451 8.69c10.303 2.8 28.741 14.519 36.932 37.02l-.072-6.892c-.163-15.639 15.586-26.449 30.121-20.675l41.048 16.306a5 5 0 1 1-1.477 3.718l-41.047-16.307c-11.893-4.724-24.778 4.121-24.645 16.917l.315 30.202c.003.255-.042.499-.127.724l.001.297c0 13.552-4.666 22.973-7.623 27.579-.701 1.094-.668 2.637.063 3.667 3.372 4.744 9.06 14.81 9.06 28.754 0 24.076-9.246 39.6-19.451 49.09-5.08 4.724-10.375 7.932-14.837 9.965-4.387 1.997-8.164 2.945-10.212 2.945a2 2 0 1 1 0-4c1.202 0 4.362-.677 8.554-2.586 4.116-1.874 9.04-4.853 13.772-9.254C333.246 339.4 342 324.924 342 302c0-12.837-5.239-22.102-8.32-26.437-1.698-2.39-1.733-5.707-.169-8.144 2.655-4.138 6.989-12.818 6.989-25.419 0-36.451-25.96-54.152-38.098-57.45-2.757-.749-5.402-3.206-5.402-6.55v-1.416a5.002 5.002 0 0 1 2-9.584 5 5 0 0 1 2 9.584V178c0 1.074.943 2.28 2.451 2.69Zm75.543 77.559A5.051 5.051 0 0 0 379 258a5 5 0 1 0-1.787 3.831l2.094 1.001.002.001c.903.43 1.86.887 2.863 1.369 3.995 1.919 8.803 4.279 13.955 7.058.706.381 1.435.759 2.18 1.145 3.715 1.925 7.823 4.054 11.313 7.713 4.079 4.275 7.38 10.765 7.38 21.745V362a2 2 0 1 0 4 0v-60.137c0-.824-.017-1.628-.051-2.411.033-.145.051-.296.051-.452v-30.137c0-11.895-3.622-19.408-8.486-24.506-3.996-4.189-8.791-6.663-12.508-8.581a133.19 133.19 0 0 1-1.98-1.036c-5.232-2.823-10.104-5.213-14.122-7.143a811.418 811.418 0 0 0-2.97-1.421l-.001-.001-1.018-.485-.921-.441.002-.036.001-.053a5 5 0 1 0-1.784 3.671l.525.252.332.158 1.239.592c.903.43 1.86.887 2.863 1.369 3.995 1.919 8.803 4.279 13.955 7.058.706.381 1.435.759 2.18 1.145 3.715 1.925 7.823 4.054 11.313 7.713 4.079 4.275 7.38 10.765 7.38 21.745v14.7a27.998 27.998 0 0 0-4.486-6.206c-3.996-4.189-8.791-6.663-12.508-8.581l-.003-.002c-.702-.362-1.365-.704-1.977-1.034-5.232-2.823-10.104-5.213-14.122-7.143a811.418 811.418 0 0 0-2.97-1.421l-.001-.001-.013-.006a993.94 993.94 0 0 1-1.926-.92ZM230.584 344a5.002 5.002 0 0 1-9.584-2 5 5 0 0 1 9.584-2H254a4 4 0 0 1 4 4v18.5a2 2 0 1 1-4 0V344h-23.416ZM127 260a5 5 0 1 0-4.982-4.574c-4.423 2.354-9.611 5.227-13.934 9.969C102.237 271.811 98 281.5 98 297.7V362a2 2 0 1 0 4 0v-64.3c0-15.449 4.013-24.095 9.041-29.61 3.926-4.308 8.496-6.798 12.892-9.141A4.976 4.976 0 0 0 127 260Zm84 0a5 5 0 1 1-10.001-.001A5 5 0 0 1 211 260Zm156.409 66.799a5 5 0 1 0-3.97-.504c-2.907 18.485-13.794 30.348-19.089 34.069a2 2 0 1 0 2.3 3.272c6.068-4.264 17.692-17.079 20.759-36.837Zm6.607-33.82a5 5 0 1 1 .892-3.937c.146.03.29.077.43.142.242.112.499.229.769.352 3.276 1.493 8.508 3.877 12.889 8.382 4.828 4.964 8.527 12.38 8.002 23.675l-.003.053c-.775 10.588-4.255 20.102-8.031 27.398-3.752 7.249-7.89 12.486-10.147 14.461a2 2 0 1 1-2.634-3.01c1.743-1.525 5.605-6.288 9.228-13.289 3.596-6.948 6.863-15.924 7.592-25.825.468-10.19-2.831-16.517-6.874-20.674-3.835-3.943-8.427-6.043-11.724-7.55l-.389-.178ZM268 220c-2.197 0-4 1.769-4 3.99v36.02a3.992 3.992 0 0 0 4 3.99h8c12.15 0 22-9.85 22-22s-9.85-22-22-22h-8Zm0 3.99v-.001l-.005.011H268v36h-.006s-.001-.001 0 0H276c9.941 0 18-8.059 18-18s-8.059-18-18-18h-8v-.01Zm0 56.01c-2.197 0-4 1.769-4 3.99v36.02a3.992 3.992 0 0 0 4 3.99h8c12.15 0 22-9.85 22-22s-9.85-22-22-22h-8Zm0 3.99v-.001l-.005.011H268v36h-.006s-.001-.001 0 0H276c9.941 0 18-8.059 18-18s-8.059-18-18-18h-8v-.01Zm-158.709-86.998a5 5 0 1 0-3.756-1.388C100.64 211.031 98 227.459 98 244.5a2 2 0 1 0 4 0c0-16.56 2.555-32.52 7.291-47.508ZM164 121a5.002 5.002 0 0 1-3 4.584v26.101a18.008 18.008 0 0 1 9.184-6.033 5 5 0 1 1 .577 4.001c-5.647 1.792-9.742 7.068-9.761 13.304V198c0 9.794 1.143 16.271 6.619 23.267 2.11 2.697 4.34 4.613 6.624 6.528l.362.303c2.148 1.798 4.388 3.673 6.359 6.16a25.4 25.4 0 0 1 3.036 4.878V182c0-9.71 3.169-16.065 7.636-19.893 2.948-2.528 6.35-3.857 9.527-4.378A5.002 5.002 0 0 1 211 159a5 5 0 0 1-9.221 2.681c-2.529.42-5.226 1.48-7.54 3.463C190.831 168.065 188 173.21 188 182v107.348a22.016 22.016 0 0 1 13.223-8.828 5 5 0 1 1 .458 4.001C193.826 286.456 188 293.548 188 302v60a2 2 0 1 1-4 0v-64.5c0-15.372-4.012-23.974-9.037-29.462-3.925-4.285-8.493-6.764-12.888-9.095a5 5 0 1 1 1.908-3.527c4.422 2.342 9.608 5.202 13.93 9.921 2.344 2.56 4.429 5.643 6.087 9.458V263.5c0-15.54-2.707-22.387-6.171-26.758-1.71-2.158-3.663-3.793-5.876-5.647l-.279-.234c-2.301-1.929-4.816-4.075-7.205-7.128-5.013-6.405-6.786-12.503-7.294-19.914A1.998 1.998 0 0 1 157 203c0-10.938-6.056-18.011-13.908-23.013-6.296-4.011-13.516-6.551-19.426-8.587a5 5 0 1 1 1.32-3.78c5.914 2.035 13.595 4.75 20.255 8.993 4.615 2.94 8.846 6.678 11.759 11.511V167c0-10.423-7.593-19.072-17.55-20.718a5 5 0 1 1 .243-4.011c7.251 1.073 13.488 5.261 17.307 11.159v-27.846a5.002 5.002 0 0 1 2-9.584 5 5 0 0 1 5 5Zm-30.558 90.981a5 5 0 1 0-3.795-1.272A64.262 64.262 0 0 0 127 229a2 2 0 1 0 4 0 60.3 60.3 0 0 1 2.442-17.019Z"/><path fill="#2948A1" d="M133.214 363.349c-.921 3.474-4.634 2.593-5.059 0l-.092-.554c-.564-3.348-2.258-13.415-1.869-27.179-1.915 1.207-3.575-.591-3.117-9.172.503-9.439 3.714-21.245 10.61-25.027.491-.269 1.155-.961 1.998-1.838 2.56-2.664 6.768-7.043 12.787-6.539 8.003.669 11.288 7.778 10.787 9.353-.632 1.987-5.876 2.565-5.876 2.565s2.454 2.264 4.031 5.576c.63 1.324 1.216 3.5 1.86 5.889.965 3.584 2.059 7.645 3.623 10.021 1.125 1.708 1.8 2.501 2.204 2.976.532.626.593.698.593 1.58 0 1.552-1.327 1.894-5.5 1-2.274-.487-5.174-2.447-6.316-4-.701 8.674-2.421 28.759-3.613 32.774-.328.934-1.207 1.164-1.793 1.046-1.581-.317-2.055-3.192-2.54-6.139-.543-3.296-1.101-6.681-3.238-6.681-3 0-7 5-9.48 14.349ZM87.78 329.638a2 2 0 0 1-.87 2.691c-8.49 4.34-15.04 8.973-19.443 13.765-4.393 4.78-6.56 9.614-6.56 14.436 0 3.408 1.09 6.831 3.274 10.227.298.167.557.413.743.728.334.569.672 1.136 1.011 1.702 2.398 2.993 5.654 5.958 9.772 8.867 9.827 6.942 24.176 13.276 42.088 18.628 35.798 10.696 85.372 17.341 140.215 17.341s104.417-6.645 140.215-17.341c17.912-5.352 32.262-11.686 42.089-18.628 4.538-3.206 8.03-6.481 10.479-9.786.155-.26.309-.521.463-.783a2 2 0 0 1 .456-.533c2.27-3.46 3.402-6.948 3.402-10.422 0-8.787-7.27-17.649-21.605-25.828a2 2 0 1 1 1.982-3.474c14.553 8.303 23.623 18.194 23.623 29.302 0 4.9-1.77 9.561-4.979 13.945C414.376 441.253 341.459 486 258.09 486c-82.959 0-155.567-44.307-195.455-110.54-3.682-4.669-5.729-9.661-5.729-14.93 0-6.112 2.768-11.867 7.616-17.143 4.837-5.265 11.835-10.156 20.568-14.62a2 2 0 0 1 2.69.871ZM74.115 385.82C114.582 443.956 181.894 482 258.09 482c76.289 0 143.672-38.137 184.123-96.393-10.304 7.177-24.961 13.564-42.842 18.907-36.264 10.836-86.242 17.509-141.361 17.509-55.119 0-105.097-6.673-141.36-17.509-17.705-5.29-32.248-11.604-42.536-18.694Z" clip-rule="evenodd"/><defs><linearGradient id="c" x1="443.81" x2="668.53" y1="-136.25" y2="128.1" gradientUnits="userSpaceOnUse"><stop stop-color="red"/><stop offset=".34" stop-color="#F0F"/><stop offset=".67" stop-color="#0FF"/><stop offset="1" stop-color="#00F"/></linearGradient><linearGradient id="a" x1="55" x2="446" y1="0" y2="0" gradientUnits="userSpaceOnUse"><stop stop-color="red"/><stop offset=".33" stop-color="#F0F"/><stop offset=".67" stop-color="#0FF"/><stop offset="1" stop-color="#00F"/></linearGradient><filter id="b" width="200%" height="200%" x="-50%" y="-50%"><feGaussianBlur in="SourceGraphic" stdDeviation="20"/></filter><linearGradient id="a" x1="502.184" x2="803.651" y1="-323.044" y2="73.85" gradientUnits="userSpaceOnUse"><stop stop-color="red"/><stop offset=".34" stop-color="#F0F"/><stop offset=".67" stop-color="#0FF"/><stop offset="1" stop-color="#00F"/></linearGradient></defs></svg>